<svg xmlns="http://www.w3.org/2000/svg" viewBox="0 0 512 512" width="512" height="512" role="img" aria-label="sandbox_executor">
  <title>sandbox_executor</title>
  <desc>Код/команда внутри защищённого куба</desc>
  <path d="M 251,319.5 L 248,322 L 248,343 L 249,345 L 252.5,345.5 L 254.5,343.5 L 254.5,321.5 Z M 145.5,290.5 L 144.5,291.5 L 144.5,295 L 148,296.5 L 150,300 L 153,301.5 L 155,305 L 158,306.5 L 160,310 L 162.5,311 L 166,316 L 169,316 L 170.5,314.5 L 170.5,311 L 167,309.5 L 165,306 L 162,304.5 L 160,301 L 157,299.5 L 155,296 L 152,294.5 L 149,290.5 Z M 376.5,280 L 373.5,280 L 370,285 L 368.5,285 L 366.5,288.5 L 363.5,290 L 361.5,293.5 L 358.5,295 L 355.5,299.5 L 352,301 L 352,305 L 353,306 L 356.5,306 L 358.5,302.5 L 361.5,301 L 363.5,297.5 L 366.5,296 L 368.5,292.5 L 371.5,291 L 374.5,286.5 L 378,285 L 378,281.5 Z M 174.5,255.5 L 170.5,255.5 L 169,258.5 L 165.5,260.5 L 164,263.5 L 160.5,265.5 L 159.5,268 L 157.5,270 L 155.5,270.5 L 154.5,273 L 152.5,275 L 150.5,275.5 L 147.5,280 L 144.5,281 L 144.5,284.5 L 146.5,286 L 148.5,286 L 152.5,281.5 L 154.5,281 L 155.5,278.5 L 157.5,276.5 L 159.5,276 L 160.5,273.5 L 162.5,271.5 L 164.5,271 L 165.5,268.5 L 167.5,266.5 L 169.5,266 L 172.5,261.5 L 174,261.5 L 175.5,260 L 175.5,257 Z M 260,250.5 L 258,252.5 L 258,274.5 L 261.5,276.5 L 264.5,274 L 264.5,253 L 263.5,251 Z M 336,235.5 L 329.5,235.5 L 326,240.5 L 323.5,241 L 322,243.5 L 322,249 L 324,251.5 L 325.5,251.5 L 327,253 L 328,256 L 331,257 L 332.5,260 L 336.5,262.5 L 339,266.5 L 341.5,267.5 L 344,271.5 L 346.5,272.5 L 348.5,276.5 L 350,276.5 L 352,278.5 L 352,283 L 348.5,285 L 347,288 L 345,290 L 343,290.5 L 342,293 L 338.5,295 L 337,298 L 333.5,300 L 330.5,304.5 L 327.5,305.5 L 327,309 L 328.5,311 L 332.5,310.5 L 333.5,308 L 335.5,306 L 337,306 L 338.5,303 L 342,301 L 343.5,298 L 347,296 L 348.5,293 L 352.5,290.5 L 353.5,287.5 L 355,286 L 357.5,285.5 L 358.5,283.5 L 358.5,278 L 357.5,276 L 355,275.5 L 352.5,271 L 350,270 L 347.5,266 L 345,265 L 342.5,261 L 340,260 L 338,256.5 L 335,255 L 333,251.5 L 328.5,248.5 L 328.5,244 L 329.5,242.5 L 335.5,242 L 337.5,245.5 L 342,248.5 L 343.5,251.5 L 346,252 L 348,251 L 348,246.5 L 344.5,245 L 343,242 L 339.5,240 Z M 263,227 L 263,230.5 L 264.5,232 L 268.5,231.5 L 271,227 L 276,227 L 278,230 L 278,240.5 L 279.5,241.5 L 283.5,241 L 284.5,238.5 L 283.5,226.5 L 280,225.5 L 276.5,220.5 L 271,220.5 L 266.5,225.5 Z M 401.5,144.5 L 401.5,150.5 L 403.5,152.5 L 415.5,152.5 L 417.5,150 L 417.5,144.5 L 415.5,142 L 403.5,142 Z" fill="#8fb7df" fill-rule="evenodd"/>
  <path d="M 72.5,142 L 65.5,149 L 66,346 L 60.5,352 L 60.5,357.5 L 65.5,362 L 67,370 L 73.5,370 L 77.5,375 L 88.5,375 L 92.5,380 L 103.5,380 L 107.5,385 L 123,385 L 127.5,390 L 138,390 L 142.5,395 L 153,395 L 157.5,400 L 168,400 L 171,404.5 L 182,404.5 L 186,409.5 L 202,409.5 L 205,414 L 212,414.5 L 216,419.5 L 226.5,419.5 L 230,424 L 241.5,424.5 L 246,429.5 L 271.5,429.5 L 276,424.5 L 286.5,424.5 L 290.5,419.5 L 297.5,419 L 300.5,414.5 L 311.5,414.5 L 315.5,409.5 L 326.5,409.5 L 330.5,404.5 L 341.5,404.5 L 344.5,400 L 355,400 L 359.5,395 L 370,395 L 374.5,390 L 385,390 L 389.5,385 L 400,385 L 404.5,380 L 415,380 L 419,375 L 430,375 L 434,370 L 440,370 L 444,365 L 451.5,364 L 450.5,142 L 444,142 L 440,137 L 429,137 L 425,132 L 414,132 L 410,127 L 399.5,127 L 395,122 L 379.5,122 L 376,117.5 L 364.5,117 L 360,112 L 349.5,112 L 344,107 L 335.5,107.5 L 331.5,102.5 L 320.5,102.5 L 316.5,97.5 L 300.5,97.5 L 297.5,93 L 290.5,92.5 L 286.5,87.5 L 271,87.5 L 266.5,82.5 L 256,82.5 L 251.5,87.5 L 241,87.5 L 236.5,92.5 L 226,92.5 L 221.5,97.5 L 211,97.5 L 207,102.5 L 196,102.5 L 192,107.5 L 181,107.5 L 177,112.5 L 167.5,112 L 163,117 L 152.5,117 L 148,122 L 137.5,122 L 133,127 L 122.5,127 L 118,132 L 107.5,132 L 104,136.5 L 92.5,137 L 88,142 Z M 81,159 L 83.5,157.5 L 89.5,163 L 98,162.5 L 102.5,167.5 L 118,167.5 L 122.5,172.5 L 133,172.5 L 137,177.5 L 153,177.5 L 157,182.5 L 167.5,182.5 L 171,187 L 182.5,187.5 L 187,192.5 L 202.5,192.5 L 206,197 L 221.5,197 L 225.5,202 L 236.5,202 L 240.5,207 L 251.5,207 L 255.5,212 L 261.5,212 L 266,207 L 277,207 L 281,202 L 296.5,202 L 301,197 L 311.5,197 L 315,192.5 L 325.5,192.5 L 330,187.5 L 340.5,187.5 L 345,182.5 L 355.5,182.5 L 359.5,177.5 L 375.5,177.5 L 379.5,172.5 L 385.5,172.5 L 389.5,167.5 L 405,167.5 L 408.5,163 L 420,162.5 L 424.5,157.5 L 435,158 L 436.5,337 L 431.5,340.5 L 431,343.5 L 436,347 L 436,352.5 L 428,354.5 L 425,359 L 418,359.5 L 415,364 L 404.5,364 L 400,369 L 389.5,369 L 385,374 L 374.5,374 L 370,379 L 359.5,379 L 355,384 L 344.5,384 L 340.5,389 L 329.5,389 L 325.5,394 L 314.5,394 L 310.5,399 L 302,398.5 L 296.5,403.5 L 286,403.5 L 281.5,408.5 L 275.5,408.5 L 271.5,413.5 L 265,414 L 262,418.5 L 256.5,413.5 L 246,413.5 L 241.5,408.5 L 231,408.5 L 223.5,399 L 220.5,399 L 217.5,403.5 L 212.5,399 L 202,399 L 193.5,389 L 186.5,394 L 182.5,389 L 172,389 L 168,384 L 157.5,384 L 148.5,374 L 141.5,379 L 138,374 L 122.5,374 L 118,369 L 107.5,369 L 103,364 L 92.5,364 L 89.5,359.5 L 82.5,359 Z M 186.5,245.5 L 184.5,247 L 183,250 L 181.5,250.5 L 179,254 L 176.5,255.5 L 174,259 L 171.5,260.5 L 169,264 L 166.5,265.5 L 164,269 L 161.5,270.5 L 159.5,273.5 L 150,282 L 148.5,284.5 L 145,286 L 144.5,289 L 146,291 L 148,291.5 L 150.5,295 L 152.5,296 L 155.5,300 L 157.5,301 L 160,304.5 L 162.5,306 L 165,309.5 L 167.5,311 L 170,314.5 L 179.5,323 L 181,325.5 L 183.5,327 L 185.5,330.5 L 188.5,330.5 L 190.5,327 L 195,323.5 L 195.5,320 L 194.5,316 L 192,315 L 189.5,311.5 L 187,310 L 184.5,306.5 L 182,305 L 179.5,301.5 L 170.5,293.5 L 169.5,291.5 L 165.5,289 L 165.5,287 L 168.5,285.5 L 171.5,281.5 L 174,280.5 L 175.5,277.5 L 179,275.5 L 180.5,272.5 L 183.5,271 L 185.5,267.5 L 188.5,266 L 190.5,262.5 L 193.5,261 L 195,259 L 195.5,256 L 194.5,252 L 190.5,249 L 189,246 Z M 330.5,240.5 L 327.5,243 L 327,247.5 L 328,250.5 L 330.5,251.5 L 333,255 L 335.5,256.5 L 338,260 L 340.5,261.5 L 343,265 L 345.5,266.5 L 348,270 L 350.5,271.5 L 357.5,279 L 357,283.5 L 353.5,285.5 L 352,288.5 L 349,290.5 L 347,293.5 L 344.5,295 L 342,298.5 L 339.5,300 L 337,303.5 L 327.5,312 L 327,317 L 328,319.5 L 331,321 L 334,325.5 L 337,325.5 L 338.5,322.5 L 342.5,319.5 L 343.5,317 L 346.5,315.5 L 349.5,311 L 352.5,310 L 353.5,302 L 356.5,300.5 L 358.5,297 L 361.5,295.5 L 363.5,292 L 366.5,290.5 L 374.5,281.5 L 376.5,281 L 378,277.5 L 376,275 L 374.5,275 L 372,271.5 L 370,270.5 L 367,266.5 L 365,265.5 L 362.5,262 L 353,253.5 L 351,250.5 L 345,250.5 L 336.5,241 Z M 277,226 L 269.5,226.5 L 268.5,228.5 L 266,231 L 264,231.5 L 263,233.5 L 263.5,273 L 262,275 L 259,276 L 258,278.5 L 258.5,307.5 L 257,309.5 L 255,310 L 253,313 L 253.5,342.5 L 251.5,344.5 L 249.5,345 L 248,348 L 248.5,368.5 L 252,370.5 L 255,375 L 257.5,375 L 260,371 L 264,368.5 L 264,352.5 L 269,349 L 268.5,345 L 264,342.5 L 263.5,338.5 L 266,335.5 L 268.5,334.5 L 269.5,331 L 268.5,299.5 L 269.5,297 L 273,295.5 L 274,294 L 273.5,264.5 L 274,263 L 277.5,261 L 279,259 L 279,228.5 Z M 106,150.5 L 107.5,147.5 L 114.5,147 L 117.5,143 L 128,143 L 132.5,138 L 143,138 L 147,133 L 158,133 L 162,128 L 173,128 L 177,123 L 193,123 L 197,118 L 207.5,118 L 212,113 L 220.5,113.5 L 223.5,112.5 L 226,108.5 L 236.5,108.5 L 241,103.5 L 252.5,103 L 256,98.5 L 266.5,98.5 L 270,103 L 281.5,103.5 L 286,108.5 L 300.5,108 L 304.5,113 L 315.5,113 L 319.5,118 L 330.5,118 L 334.5,123 L 345,123 L 349.5,128 L 360,128 L 363.5,132.5 L 375,133 L 379.5,138 L 395,138 L 399,143 L 414.5,143 L 417,146.5 L 415,151.5 L 395,151.5 L 390,156.5 L 379.5,156.5 L 375,161.5 L 364.5,161.5 L 360.5,166.5 L 345,166.5 L 340.5,171.5 L 334.5,171.5 L 330.5,176.5 L 315,176.5 L 310.5,181.5 L 300,181.5 L 295.5,186.5 L 280,186.5 L 276,191.5 L 265,191.5 L 261.5,196 L 256,196 L 252.5,191.5 L 250.5,191 L 241.5,191.5 L 233,181.5 L 230,181.5 L 226.5,186.5 L 221.5,186.5 L 217.5,181.5 L 206,181 L 198,171.5 L 195,172 L 192,176.5 L 187,176.5 L 182.5,171.5 L 167,171.5 L 163,166.5 L 152,166.5 L 148,161.5 L 132.5,161.5 L 128,156.5 L 117.5,156.5 L 114.5,152.5 L 107.5,152 Z" fill="#0b1fb3" fill-rule="evenodd"/>
</svg>
