<?xml version="1.0" encoding="UTF-8"?>
<svg xmlns="http://www.w3.org/2000/svg" width="512" height="512" viewBox="0 0 512 512" role="img" aria-label="human review">
  <title>human review</title>
  <path d="M 211.0 114.0 L 194.0 125.0 L 182.0 138.0 L 182.0 140.0 L 176.0 148.0 L 170.0 164.0 L 169.0 188.0 L 171.0 194.0 L 171.0 201.0 L 182.0 222.0 L 202.0 240.0 L 216.0 247.0 L 214.0 249.0 L 206.0 249.0 L 193.0 253.0 L 174.0 261.0 L 156.0 274.0 L 139.0 293.0 L 126.0 316.0 L 119.0 339.0 L 118.0 372.0 L 120.0 383.0 L 127.0 392.0 L 134.0 396.0 L 142.0 396.0 L 146.0 398.0 L 190.0 398.0 L 195.0 396.0 L 251.0 395.0 L 275.0 396.0 L 285.0 406.0 L 295.0 413.0 L 319.0 420.0 L 334.0 420.0 L 357.0 413.0 L 368.0 406.0 L 382.0 391.0 L 389.0 377.0 L 393.0 361.0 L 393.0 344.0 L 386.0 320.0 L 376.0 306.0 L 367.0 298.0 L 351.0 288.0 L 334.0 284.0 L 323.0 271.0 L 309.0 261.0 L 293.0 253.0 L 283.0 250.0 L 265.0 248.0 L 267.0 245.0 L 276.0 242.0 L 286.0 235.0 L 296.0 225.0 L 304.0 214.0 L 310.0 199.0 L 312.0 186.0 L 312.0 170.0 L 307.0 150.0 L 301.0 139.0 L 293.0 129.0 L 281.0 119.0 L 267.0 112.0 L 250.0 108.0 L 230.0 108.0 Z M 315.0 298.0 L 338.0 298.0 L 348.0 301.0 L 363.0 311.0 L 376.0 330.0 L 378.0 343.0 L 380.0 347.0 L 379.0 365.0 L 373.0 380.0 L 369.0 386.0 L 353.0 400.0 L 347.0 403.0 L 331.0 407.0 L 312.0 405.0 L 295.0 397.0 L 281.0 383.0 L 273.0 364.0 L 273.0 342.0 L 280.0 323.0 L 288.0 313.0 L 299.0 304.0 Z M 356.0 335.0 L 351.0 330.0 L 346.0 331.0 L 319.0 360.0 L 317.0 360.0 L 303.0 347.0 L 298.0 348.0 L 295.0 354.0 L 315.0 376.0 L 320.0 377.0 L 355.0 341.0 Z M 316.0 282.0 L 314.0 286.0 L 311.0 285.0 L 302.0 288.0 L 289.0 295.0 L 277.0 306.0 L 268.0 318.0 L 260.0 337.0 L 259.0 346.0 L 260.0 370.0 L 265.0 380.0 L 264.0 383.0 L 224.0 382.0 L 210.0 384.0 L 145.0 384.0 L 138.0 383.0 L 134.0 380.0 L 132.0 374.0 L 132.0 347.0 L 139.0 319.0 L 152.0 297.0 L 168.0 281.0 L 178.0 274.0 L 198.0 265.0 L 210.0 263.0 L 216.0 260.0 L 247.0 258.0 L 271.0 261.0 L 290.0 267.0 Z M 239.0 121.0 L 256.0 123.0 L 265.0 126.0 L 278.0 134.0 L 290.0 147.0 L 297.0 162.0 L 299.0 172.0 L 297.0 196.0 L 292.0 204.0 L 291.0 209.0 L 281.0 221.0 L 274.0 227.0 L 262.0 233.0 L 243.0 237.0 L 225.0 235.0 L 216.0 232.0 L 203.0 224.0 L 194.0 215.0 L 189.0 207.0 L 185.0 197.0 L 182.0 180.0 L 185.0 160.0 L 196.0 142.0 L 214.0 128.0 L 224.0 124.0 Z" fill="#0b1fb3" fill-rule="evenodd"/>
</svg>
