<svg xmlns="http://www.w3.org/2000/svg" viewBox="0 0 512 512" width="512" height="512" role="img" aria-label="context_window">
  <title>context_window</title>
  <desc>Стопка сообщений/документов в рамке окна</desc>
  <path d="M 202.5,355.5 L 202.5,358.5 L 204,359.5 L 365.5,359.5 L 368.5,363.5 L 371,363.5 L 372,362.5 L 372,359 L 369,358 L 366,354 L 204.5,354 Z M 206.5,343.5 L 206.5,346 L 209,347.5 L 369.5,347 L 371.5,350.5 L 373.5,351.5 L 375.5,351 L 376.5,349 L 376,347 L 373.5,346 L 370.5,342 L 207.5,342 Z M 442,334.5 L 438.5,333.5 L 431,342 L 409.5,342 L 408,345 L 409.5,347 L 432,347 L 435,343 L 436.5,343 L 439.5,339 L 442,338 Z M 132,296 L 133,297.5 L 135,298 L 139,293.5 L 164.5,293.5 L 166,292 L 166,290 L 165,288.5 L 138,288.5 L 135,292.5 L 132.5,293 Z M 442,247.5 L 441,249 L 441,283.5 L 442,285 L 445,285 L 446.5,283 L 446.5,250 L 445,247.5 Z M 203,244.5 L 201,243 L 196,243 L 194.5,245.5 L 191,247.5 L 184,255.5 L 182,256 L 181.5,259.5 L 184,261 L 185.5,260.5 L 186.5,258.5 L 194.5,251.5 L 196,248.5 L 201.5,248.5 L 203,247 Z M 366.5,188.5 L 367,197 L 369.5,199 L 428,199 L 429.5,197.5 L 429.5,195 L 427.5,193.5 L 373,193.5 L 372,192 L 372,187 L 371,186 L 367.5,186 Z M 375.5,182.5 L 375.5,185.5 L 378,187 L 423,187 L 425.5,185 L 425.5,183 L 424,181.5 L 376.5,181.5 Z M 346.5,173.5 L 343.5,173.5 L 342,175 L 342,234 L 344.5,236 L 346.5,235.5 L 347.5,234 L 347.5,175 Z M 111.5,174.5 L 111.5,177 L 113,178.5 L 116,178 L 118,174.5 L 267,174.5 L 268,175.5 L 268,181 L 269,182 L 271,182.5 L 273.5,180 L 273,174.5 L 270.5,173.5 L 267,169 L 117.5,169 L 114.5,173 L 113,173 Z M 71.5,140.5 L 70,143 L 70,278.5 L 71.5,281 L 73,281 L 74.5,282.5 L 75.5,285 L 78.5,286.5 L 80,289.5 L 82.5,289.5 L 84,288 L 83.5,285 L 81,284 L 79.5,281.5 L 75.5,278.5 L 76,143.5 L 74.5,140.5 Z M 136.5,145.5 L 136,151 L 138,153.5 L 141.5,152.5 L 141.5,147 L 143,145.5 L 147.5,145.5 L 148.5,146.5 L 148.5,152 L 150,153.5 L 152,153.5 L 154,151.5 L 153.5,145.5 L 151,144.5 L 147.5,140 L 142.5,140 L 139,144.5 Z M 59,136.5 L 58,138 L 58,279.5 L 59.5,281 L 62,281 L 63.5,279.5 L 63.5,138.5 L 62,136.5 Z M 83,129 L 83,132 L 84,133 L 336.5,133 L 339,137 L 341,137.5 L 344,141.5 L 346,141.5 L 347.5,140 L 347.5,137.5 L 346,136 L 344.5,136 L 342.5,132.5 L 340.5,132 L 336.5,127.5 L 85.5,127.5 Z M 79,116.5 L 79,119.5 L 81,121 L 341,121 L 343,119.5 L 343,117 L 341.5,115.5 L 80.5,115.5 Z" fill="#8fb7df" fill-rule="evenodd"/>
  <path d="M 62.5,133.5 L 62,281.5 L 72,297.5 L 91,303 L 91,336.5 L 96.5,342.5 L 113.5,326.5 L 119.5,326 L 143,301.5 L 180,301.5 L 182,337.5 L 191.5,351 L 200,355 L 365.5,355 L 381,371.5 L 386,371.5 L 405.5,392 L 414.5,396.5 L 421.5,390 L 421.5,356.5 L 436,355 L 450,345.5 L 454.5,336 L 454.5,204.5 L 450,195 L 431.5,181.5 L 423.5,185.5 L 371,188 L 372.5,194.5 L 427,194.5 L 436,199 L 445.5,212.5 L 441,217 L 441,246 L 445.5,250 L 445.5,282.5 L 441,286.5 L 441.5,335.5 L 431.5,346 L 408.5,347.5 L 408,374.5 L 369.5,346 L 208.5,346 L 194.5,335.5 L 194.5,263 L 200.5,256.5 L 332.5,256.5 L 336.5,252 L 346,252 L 355.5,242.5 L 359.5,234 L 359.5,196.5 L 364,192 L 359.5,188 L 359.5,142 L 355,138 L 355,129 L 345.5,120 L 76.5,120 Z M 71,143 L 85,129 L 337,129 L 347,140 L 346.5,159.5 L 343,161.5 L 342,164.5 L 342.5,172.5 L 346.5,175.5 L 346.5,233.5 L 338.5,236 L 338.5,242 L 337,243.5 L 332.5,239 L 295.5,239 L 291,243.5 L 204,243.5 L 201,247.5 L 195.5,247.5 L 182,261 L 182,286.5 L 180.5,288.5 L 167.5,288.5 L 164,292.5 L 139,292.5 L 134.5,297 L 129.5,297 L 105.5,321.5 L 104,320.5 L 104,294 L 98,288.5 L 81,288.5 L 71,278.5 Z M 111.5,183.5 L 114,186.5 L 118.5,186.5 L 122,182.5 L 266.5,182.5 L 269,180.5 L 269,175 L 267.5,173.5 L 117.5,173.5 L 114.5,177.5 L 112.5,178 L 111.5,180 Z" fill="#0b1fb3" fill-rule="evenodd"/>
</svg>
