<svg xmlns="http://www.w3.org/2000/svg" viewBox="0 0 512 512" width="512" height="512" role="img" aria-label="rollback_version">
  <title>rollback_version</title>
  <desc>Стрелка назад к предыдущей версии</desc>
  <path d="M 229.5,444 L 229.5,447 L 232,449 L 280.5,449 L 283,447 L 283,444 L 281,442 L 237,441.5 L 231.5,442 Z M 234.5,429 L 235,432 L 236.5,433 L 271,433 L 272.5,431 L 272.5,428 L 270,426 L 237.5,426 L 236,426.5 Z M 381.5,368.5 L 378,368.5 L 376.5,371.5 L 374.5,373.5 L 372.5,374 L 371,377 L 369,379 L 367.5,379 L 366,382 L 364,384 L 362,384.5 L 358.5,389.5 L 355.5,390.5 L 355,394 L 356.5,396 L 360.5,396 L 362.5,392 L 366,390.5 L 368,386.5 L 371,385.5 L 373,381.5 L 376.5,380 L 379,375.5 L 382.5,374.5 L 383,370 Z M 436.5,263.5 L 434.5,264.5 L 433.5,268.5 L 433.5,291.5 L 435.5,296 L 439,296 L 441,293.5 L 441,266.5 L 439.5,264 Z M 150.5,121.5 L 146.5,122 L 144.5,126 L 141.5,127 L 139.5,131 L 136,132.5 L 134,136.5 L 131,137.5 L 129,141.5 L 125.5,143 L 123,147.5 L 119.5,148.5 L 119,153 L 120.5,154.5 L 124,154.5 L 125.5,151.5 L 127.5,149.5 L 129.5,149 L 131,146 L 133,144 L 134.5,144 L 136,141 L 138,139 L 140,138.5 L 141.5,135.5 L 143.5,133.5 L 145,133.5 L 148.5,128.5 L 151.5,127.5 L 152,123 Z M 422,111 L 419.5,111.5 L 418,114 L 418.5,171.5 L 416.5,174 L 413,175.5 L 413,179 L 415,181 L 418.5,180.5 L 420,177 L 425,173.5 L 425.5,170.5 L 425.5,116 L 425,113 Z" fill="#8fb7df" fill-rule="evenodd"/>
  <path d="M 93,350 L 93,404 L 99.5,411.5 L 103,411.5 L 106.5,406.5 L 114.5,405.5 L 114.5,387.5 L 118,385.5 L 131.5,401 L 138.5,401.5 L 153,417 L 159.5,417 L 163,422 L 170,422.5 L 174,427.5 L 180.5,427.5 L 184,432.5 L 191,433 L 195,438 L 217,438 L 222,443.5 L 295.5,443.5 L 300.5,438 L 317.5,438 L 321.5,433 L 328.5,432.5 L 332,427.5 L 338.5,427.5 L 342.5,422.5 L 349.5,422 L 358,412 L 365,411.5 L 393.5,382.5 L 393,370.5 L 390.5,368.5 L 385,368.5 L 359.5,394.5 L 351.5,395.5 L 343,405.5 L 336.5,405.5 L 333,410.5 L 325.5,411 L 322,416 L 315.5,416 L 312,421 L 301,421 L 295.5,426.5 L 274,426.5 L 270,431.5 L 237.5,431.5 L 233.5,426.5 L 216.5,426.5 L 213,421.5 L 200.5,421 L 196.5,416 L 185.5,416 L 181.5,411 L 174.5,410.5 L 166,400.5 L 158.5,400 L 136,377 L 135.5,371.5 L 139,370 L 143,375 L 149,375 L 156,369 L 157,360.5 L 149.5,353 L 138,353 L 133,347.5 L 116.5,347.5 L 112.5,342.5 L 100.5,342.5 Z M 433,248 L 426,248 L 424,251 L 418.5,255.5 L 419,286 L 418.5,288 L 413.5,291.5 L 413,304 L 411.5,305.5 L 405.5,305.5 L 401.5,300.5 L 383.5,300.5 L 381.5,303.5 L 382,315.5 L 385.5,317.5 L 387.5,321 L 386.5,326.5 L 387,330.5 L 392.5,335.5 L 392.5,347 L 396,349 L 400,354 L 417,354 L 421,349 L 428,348.5 L 431,344 L 439,343 L 440.5,340 L 444.5,337.5 L 446,334.5 L 449.5,333 L 451,331 L 450.5,327.5 L 447,326 L 445,323 L 441.5,320.5 L 439.5,316.5 L 436.5,316 L 432.5,321.5 L 431,321.5 L 429.5,320 L 430,308.5 L 434,306 L 435.5,303 L 439,301.5 L 440.5,299.5 L 440,296 L 436.5,294.5 L 435,292.5 L 435,267 L 440.5,262.5 L 441,257.5 L 440,254.5 L 437,253 Z M 107,169 L 90.5,169 L 85.5,174.5 L 79,174.5 L 75.5,179.5 L 69,179.5 L 67,182.5 L 61.5,187 L 62,200.5 L 63.5,201.5 L 68,202 L 75,201.5 L 77.5,204 L 77.5,214 L 72,218.5 L 72,235.5 L 70,237.5 L 68.5,237.5 L 66.5,240.5 L 66.5,261.5 L 68.5,264.5 L 70,264.5 L 74.5,270 L 86,270 L 87.5,269.5 L 89,267 L 88.5,241 L 94,236 L 94,224.5 L 96,222.5 L 98,222 L 99,219.5 L 98.5,214.5 L 100,212.5 L 102,212 L 104,214 L 104,220.5 L 105.5,222.5 L 123.5,222.5 L 125.5,220.5 L 125.5,203 L 120,198 L 120,191.5 L 116,189.5 L 115,188 L 114.5,185 L 115.5,179.5 L 114.5,175.5 L 112,174.5 Z M 114,134.5 L 114.5,147.5 L 123,149 L 148,123 L 155.5,122.5 L 169.5,107 L 176,107 L 179.5,102 L 187,101.5 L 190.5,96.5 L 202,96.5 L 206,91.5 L 217,91.5 L 222,86 L 290.5,86 L 295.5,91.5 L 306.5,91.5 L 310.5,96.5 L 322,96.5 L 325.5,101.5 L 333,102 L 341.5,112 L 348.5,112.5 L 362,127.5 L 370,128.5 L 376.5,135 L 376.5,141.5 L 381.5,145 L 380,148.5 L 358,148 L 350.5,154.5 L 350.5,158.5 L 354,160 L 363,170 L 374.5,170 L 379.5,175.5 L 396,175.5 L 399.5,180.5 L 412,180.5 L 419.5,173 L 418.5,112 L 403.5,112 L 403,119.5 L 397,124.5 L 402.5,129.5 L 402.5,131.5 L 400.5,133 L 395.5,132.5 L 375.5,111.5 L 368.5,111 L 354.5,95.5 L 348,95.5 L 344,90.5 L 337,90 L 333.5,85 L 327,85 L 322,79.5 L 311,79.5 L 307,74.5 L 290,74.5 L 285,69 L 269,69 L 265.5,64 L 262,64.5 L 259,69 L 227.5,69 L 222.5,74.5 L 205.5,74.5 L 201.5,79.5 L 190.5,79.5 L 185.5,85 L 179,85 L 175.5,90 L 168.5,90.5 L 164.5,95.5 L 158,95.5 L 144,111 L 137,111.5 Z" fill="#0b1fb3" fill-rule="evenodd"/>
</svg>
