<?xml version="1.0" encoding="UTF-8"?>
<svg xmlns="http://www.w3.org/2000/svg" width="512" height="512" viewBox="0 0 512 512" role="img" aria-label="compliance scale">
  <title>compliance scale</title>
  <path d="M 375.0 164.0 L 372.0 163.0 L 363.0 167.0 L 338.0 167.0 L 290.0 153.0 L 258.0 149.0 L 229.0 153.0 L 190.0 166.0 L 170.0 170.0 L 154.0 171.0 L 143.0 167.0 L 138.0 167.0 L 133.0 171.0 L 133.0 177.0 L 139.0 182.0 L 147.0 183.0 L 149.0 185.0 L 149.0 188.0 L 142.0 203.0 L 140.0 212.0 L 135.0 221.0 L 125.0 252.0 L 122.0 256.0 L 122.0 259.0 L 115.0 273.0 L 111.0 287.0 L 108.0 291.0 L 104.0 305.0 L 102.0 307.0 L 102.0 315.0 L 110.0 329.0 L 123.0 341.0 L 141.0 348.0 L 148.0 349.0 L 174.0 349.0 L 186.0 345.0 L 202.0 334.0 L 209.0 325.0 L 214.0 315.0 L 214.0 306.0 L 197.0 262.0 L 197.0 258.0 L 190.0 244.0 L 190.0 241.0 L 180.0 219.0 L 168.0 186.0 L 170.0 184.0 L 186.0 182.0 L 219.0 170.0 L 235.0 166.0 L 241.0 166.0 L 245.0 164.0 L 248.0 166.0 L 249.0 179.0 L 248.0 232.0 L 250.0 368.0 L 247.0 370.0 L 239.0 369.0 L 208.0 372.0 L 202.0 378.0 L 203.0 388.0 L 188.0 389.0 L 183.0 392.0 L 182.0 398.0 L 186.0 402.0 L 199.0 403.0 L 300.0 402.0 L 331.0 399.0 L 334.0 394.0 L 332.0 389.0 L 327.0 386.0 L 315.0 386.0 L 313.0 384.0 L 314.0 375.0 L 307.0 369.0 L 265.0 369.0 L 263.0 366.0 L 264.0 346.0 L 261.0 168.0 L 264.0 164.0 L 279.0 165.0 L 295.0 169.0 L 320.0 178.0 L 334.0 181.0 L 342.0 181.0 L 344.0 183.0 L 297.0 310.0 L 305.0 326.0 L 312.0 333.0 L 324.0 341.0 L 344.0 347.0 L 365.0 347.0 L 375.0 345.0 L 392.0 336.0 L 403.0 325.0 L 411.0 309.0 L 402.0 281.0 L 392.0 259.0 L 389.0 246.0 L 376.0 218.0 L 375.0 212.0 L 368.0 197.0 L 367.0 190.0 L 363.0 183.0 L 368.0 179.0 L 374.0 178.0 L 379.0 173.0 L 379.0 169.0 Z M 214.0 388.0 L 214.0 386.0 L 218.0 383.0 L 297.0 382.0 L 299.0 384.0 L 297.0 387.0 L 228.0 389.0 Z M 360.0 331.0 L 359.0 333.0 L 355.0 332.0 L 359.0 330.0 Z M 121.0 322.0 L 122.0 319.0 L 173.0 319.0 L 175.0 321.0 L 169.0 325.0 L 145.0 326.0 L 142.0 324.0 L 136.0 324.0 L 132.0 328.0 L 129.0 328.0 Z M 195.0 318.0 L 197.0 321.0 L 189.0 326.0 L 188.0 321.0 L 192.0 318.0 Z M 337.0 319.0 L 342.0 317.0 L 366.0 317.0 L 368.0 319.0 L 361.0 322.0 L 339.0 321.0 Z M 317.0 319.0 L 319.0 317.0 L 329.0 318.0 L 331.0 320.0 L 325.0 325.0 L 319.0 322.0 Z M 379.0 318.0 L 382.0 316.0 L 391.0 317.0 L 391.0 319.0 L 386.0 323.0 L 382.0 322.0 Z M 157.0 200.0 L 161.0 202.0 L 163.0 212.0 L 173.0 235.0 L 173.0 239.0 L 179.0 250.0 L 180.0 257.0 L 183.0 262.0 L 187.0 276.0 L 189.0 278.0 L 194.0 294.0 L 199.0 303.0 L 198.0 306.0 L 119.0 306.0 L 119.0 301.0 L 122.0 297.0 L 135.0 259.0 L 149.0 226.0 Z M 353.0 197.0 L 356.0 199.0 L 358.0 208.0 L 367.0 228.0 L 384.0 277.0 L 394.0 299.0 L 393.0 304.0 L 377.0 303.0 L 361.0 305.0 L 316.0 305.0 L 314.0 303.0 Z M 257.0 116.0 L 252.0 117.0 L 247.0 122.0 L 245.0 129.0 L 247.0 137.0 L 255.0 143.0 L 260.0 141.0 L 264.0 134.0 L 264.0 125.0 L 261.0 119.0 Z" fill="#0b1fb3" fill-rule="evenodd"/>
</svg>
