<svg xmlns="http://www.w3.org/2000/svg" viewBox="0 0 512 512" width="512" height="512" role="img" aria-label="monitoring_dashboard">
  <title>monitoring_dashboard</title>
  <desc>Экран с несколькими метриками модели</desc>
  <path d="M 75.5,383.5 L 77,386.5 L 435.5,386.5 L 437,385 L 435.5,382 L 81.5,381.5 L 77,382 Z M 336,372 L 336,374.5 L 337,375.5 L 395,375.5 L 396,374 L 396,372 L 394,370.5 L 338,370.5 Z M 213,372.5 L 213.5,375 L 214.5,375.5 L 305.5,375.5 L 306.5,374.5 L 306.5,371.5 L 304.5,370.5 L 215,370.5 Z M 79.5,372 L 79.5,374.5 L 80.5,375.5 L 198,375.5 L 199,374 L 199,372 L 197,370.5 L 81.5,370.5 Z M 107,318.5 L 105,321.5 L 101.5,324 L 101.5,355.5 L 104,356.5 L 107,360.5 L 116,360.5 L 117,359.5 L 117,357 L 116,356 L 107.5,356 L 106,354 L 106,325 L 110,322 L 109.5,319 Z M 199.5,311.5 L 198,313 L 198,355 L 199,356.5 L 200.5,356.5 L 203.5,360.5 L 208.5,360.5 L 211,357 L 214,355.5 L 214,327.5 L 213,326.5 L 210,326.5 L 209,328 L 209.5,354 L 208,356 L 204.5,356 L 203,355 L 203,313 L 201.5,311.5 Z M 148,307.5 L 146,309.5 L 146,351.5 L 147.5,353 L 149.5,353 L 151,351 L 151,309.5 L 150,308 Z M 343.5,304.5 L 343.5,307.5 L 344.5,308.5 L 365,308.5 L 366,307.5 L 366,305 L 365,304 Z M 166,296.5 L 164.5,298.5 L 164.5,355 L 165.5,356.5 L 167,356.5 L 170,360.5 L 175.5,360.5 L 176.5,359.5 L 176.5,357 L 175.5,356 L 171,356 L 169.5,355 L 169.5,298 L 168,296.5 Z M 441,293 L 439.5,295 L 439.5,358.5 L 440.5,360 L 443,360.5 L 444.5,359 L 444.5,294 L 443.5,293 Z M 237,289 L 235.5,291.5 L 231.5,294.5 L 231.5,355 L 232.5,356.5 L 234,356.5 L 237,360.5 L 242,360.5 L 245,356.5 L 247.5,355.5 L 247.5,294.5 L 246.5,293 L 245,293 L 242,289 Z M 238,293.5 L 241,293.5 L 243,296 L 243,353.5 L 241.5,356 L 238,356 L 236.5,355 L 236.5,294.5 Z M 303,278 L 302,279.5 L 302.5,282 L 304.5,282.5 L 306.5,285.5 L 308.5,286.5 L 310,289 L 317,295 L 318.5,297.5 L 320.5,297.5 L 322,295.5 L 321.5,293.5 L 319,292.5 L 317.5,289.5 L 315.5,289 L 313.5,285.5 L 311.5,285 L 310,282 L 307,280.5 L 306,278 Z M 399,270.5 L 396.5,270.5 L 395,273 L 393,274 L 383,285 L 380.5,286 L 380,288 L 381.5,290 L 383.5,290 L 385,287.5 L 387.5,286 L 388.5,284 L 391,282.5 L 397.5,275 L 399.5,274.5 L 400,272 Z M 452,244.5 L 450.5,247 L 450.5,317 L 452,319.5 L 454.5,319.5 L 455.5,318.5 L 455.5,245.5 Z M 407.5,235.5 L 407,234 L 404,233.5 L 401,237 L 389,237 L 388,238 L 388,240.5 L 389,241.5 L 405,241.5 L 407,240 Z M 157,205.5 L 158,208 L 161,208 L 162,205.5 L 165,204 L 166.5,201 L 175,201 L 176.5,204 L 179.5,205.5 L 180.5,208 L 183.5,208 L 184.5,206.5 L 184,204 L 182,203.5 L 179.5,200 L 176.5,198.5 L 175,196 L 166.5,196 L 165,198.5 L 162,200 L 159.5,203.5 L 157.5,204 Z M 441.5,177.5 L 439.5,179.5 L 439.5,265.5 L 441,267.5 L 443,267.5 L 444.5,266.5 L 444.5,179 L 444,178 Z M 452,166.5 L 450.5,170 L 450.5,190.5 L 452,193 L 454.5,193 L 455.5,192 L 455.5,167.5 L 454.5,166.5 Z M 69,148 L 68,149 L 68,363 L 69,364 L 71.5,364 L 73,362 L 73,150 L 71.5,148 Z M 58.5,144 L 57,145.5 L 57,366.5 L 57.5,367.5 L 60,368 L 61,367.5 L 62,364.5 L 62,147.5 L 61,144.5 Z M 71.5,142.5 L 72.5,144.5 L 75,145 L 77.5,141.5 L 412.5,141.5 L 414.5,140 L 414.5,138 L 413,136.5 L 77.5,136.5 Z" fill="#8fb7df" fill-rule="evenodd"/>
  <path d="M 65,133.5 L 64.5,139 L 60.5,143 L 60.5,369 L 64.5,373 L 65,378.5 L 70.5,379 L 73.5,382.5 L 443,382.5 L 451.5,374 L 451.5,354.5 L 455.5,351 L 455.5,320.5 L 451.5,317.5 L 451.5,247 L 455.5,243.5 L 455.5,194 L 451.5,191 L 451.5,168.5 L 455.5,165.5 L 455.5,146 L 451.5,142.5 L 451.5,138 L 443,129.5 L 438.5,129.5 L 435,125.5 L 81,125.5 L 78,129.5 L 69.5,129.5 Z M 72.5,142.5 L 77.5,137.5 L 435,137.5 L 444,147 L 443.5,366 L 438.5,371 L 397,371 L 394,374.5 L 337.5,374.5 L 335,371 L 307.5,371 L 305,374.5 L 215,374.5 L 212.5,371 L 200,371 L 197,374.5 L 81,374.5 L 78.5,371 L 74,371 L 72.5,364.5 L 68.5,361.5 L 68.5,150.5 L 72.5,147.5 Z M 110,319 L 108.5,322 L 105.5,324 L 105.5,355.5 L 106.5,356.5 L 116,356.5 L 117.5,354 L 117.5,325.5 L 117,323.5 L 115,322.5 L 112.5,319 Z M 199.5,307.5 L 198.5,308.5 L 198.5,311.5 L 201,312.5 L 202.5,314.5 L 202,355 L 203.5,356.5 L 209,356.5 L 210,355.5 L 210,328.5 L 214,325 L 214,313.5 L 208,307.5 Z M 145.5,304 L 140.5,304 L 138.5,307 L 136,308 L 135,309.5 L 135,359 L 136.5,360.5 L 138,360.5 L 141,356.5 L 146,356.5 L 147,355 L 147,306 Z M 237,293 L 235.5,294.5 L 235.5,355 L 237,356.5 L 242.5,356.5 L 243.5,355 L 243.5,294.5 L 242,293 Z M 174,281.5 L 168.5,287 L 168.5,355 L 170,356.5 L 179,356.5 L 180.5,355 L 180.5,287.5 L 177,284.5 L 176,282 Z M 101.5,254.5 L 105.5,258 L 105.5,262.5 L 107.5,263.5 L 111,267.5 L 115,267.5 L 118.5,264 L 123.5,263.5 L 125,260 L 124.5,254 L 127,252.5 L 137,241.5 L 141.5,241.5 L 143.5,238.5 L 150.5,232.5 L 151.5,230.5 L 157,230 L 162.5,223 L 164,223 L 166.5,226.5 L 171.5,226.5 L 174,223 L 178.5,223 L 184.5,230 L 190,230.5 L 191,232.5 L 197.5,238 L 200,241.5 L 204.5,241.5 L 206.5,244.5 L 213.5,250.5 L 213.5,255.5 L 216,256.5 L 217,258.5 L 223,264 L 227.5,263.5 L 228.5,261.5 L 236,255 L 236,246.5 L 238.5,245 L 241,241.5 L 246.5,241.5 L 247.5,239 L 242.5,233.5 L 240.5,233.5 L 238,237 L 233.5,237 L 230,241 L 215.5,241 L 206,231.5 L 205.5,230 L 200,229.5 L 190,218.5 L 185.5,218.5 L 184,217 L 184,208.5 L 182,207.5 L 175,200 L 166.5,200 L 159.5,207.5 L 157.5,208.5 L 157.5,217 L 156,218.5 L 151.5,218.5 L 150,221 L 147.5,222.5 L 137.5,233.5 L 132.5,233.5 L 131.5,235.5 L 122.5,244.5 L 110,245 L 104.5,251.5 L 102,252.5 Z M 114.5,252.5 L 115.5,252.5 L 117.5,255 L 117,258 L 115,259.5 L 112.5,256.5 L 113,254 Z M 221.5,249.5 L 222.5,248.5 L 227,248.5 L 228,251 L 226.5,252.5 L 223,252.5 L 221.5,251.5 Z M 171.5,208 L 173,210 L 172.5,213 L 171,214.5 L 166.5,215 L 165.5,214 L 166,212 L 168,211 L 169.5,208.5 Z M 352.5,185 L 349,189 L 337,189 L 334.5,192.5 L 330,192.5 L 327.5,196 L 322,196.5 L 321,198.5 L 318,200.5 L 317.5,202 L 314.5,204 L 308.5,211 L 306,212.5 L 306,217.5 L 302.5,219.5 L 302.5,224.5 L 298.5,228 L 299,235 L 295,238.5 L 295,255 L 299,258 L 299,261 L 295,264 L 295,266.5 L 298,268 L 299,270 L 302.5,272.5 L 302.5,277.5 L 304.5,278.5 L 321,295 L 322,297 L 326.5,297 L 330,301 L 334.5,301 L 337.5,304.5 L 372,304.5 L 375,301 L 383,301 L 390,293.5 L 394.5,293.5 L 396,291 L 403.5,284.5 L 403.5,279.5 L 407,277.5 L 407,272.5 L 410.5,270.5 L 410.5,265.5 L 414.5,262.5 L 414.5,227.5 L 411,225 L 411,220.5 L 407,217 L 406.5,211.5 L 404.5,211 L 403,208.5 L 401,207.5 L 399,204.5 L 397,203.5 L 395.5,201 L 388.5,195 L 387,192.5 L 382.5,192.5 L 380,189 L 378,188.5 L 371.5,189 L 368,185 Z M 362.5,198 L 363.5,197 L 372,197 L 374.5,200.5 L 379,200.5 L 381.5,204 L 387,204.5 L 388,206.5 L 395,212.5 L 395.5,218 L 403,224.5 L 402.5,231.5 L 403,233 L 406.5,235.5 L 406.5,239.5 L 403,241 L 390,241 L 386.5,237 L 378.5,237 L 375,241 L 371.5,241 L 369.5,237.5 L 367.5,237 L 363.5,241 L 362,239.5 Z M 345,197 L 349.5,197 L 351,199 L 350.5,246.5 L 355.5,252.5 L 357.5,252.5 L 360,249 L 368,249 L 371,252.5 L 387,252.5 L 390,249 L 394,249 L 396.5,252.5 L 401.5,252.5 L 403,254.5 L 403,265 L 399,268 L 399,273 L 396.5,274.5 L 395.5,276.5 L 392.5,278.5 L 391.5,280.5 L 389,282 L 383,289 L 378.5,289 L 375.5,293 L 372,289 L 371,289 L 364.5,296.5 L 360,296.5 L 358,293 L 355.5,293 L 353,296.5 L 345,296.5 L 342.5,293 L 334.5,293 L 327.5,285.5 L 323,285.5 L 321,282.5 L 318,280.5 L 317.5,275 L 315,274 L 314,272 L 310.5,269.5 L 310.5,261 L 306.5,257.5 L 306.5,235.5 L 310.5,232.5 L 310.5,224 L 313,222.5 L 315,219.5 L 317.5,218.5 L 318,213 L 320.5,211.5 L 323,208 L 327.5,208 L 330,204.5 L 334.5,204.5 L 338,200.5 L 342.5,200.5 Z" fill="#0b1fb3" fill-rule="evenodd"/>
</svg>
