<?xml version="1.0" encoding="UTF-8"?>
<svg xmlns="http://www.w3.org/2000/svg" width="512" height="512" viewBox="0 0 512 512" role="img" aria-label="kill switch">
  <title>kill switch</title>
  <path d="M 351.0 228.0 L 352.0 233.0 L 356.0 236.0 L 391.0 236.0 L 396.0 231.0 L 396.0 226.0 L 392.0 222.0 L 362.0 222.0 L 353.0 225.0 Z M 109.0 222.0 L 109.0 226.0 L 112.0 229.0 L 130.0 233.0 L 150.0 233.0 L 155.0 228.0 L 154.0 223.0 L 148.0 219.0 L 143.0 220.0 L 127.0 217.0 L 115.0 217.0 Z M 208.0 198.0 L 195.0 210.0 L 186.0 223.0 L 181.0 234.0 L 175.0 262.0 L 175.0 270.0 L 171.0 291.0 L 167.0 345.0 L 165.0 347.0 L 159.0 347.0 L 154.0 349.0 L 146.0 357.0 L 143.0 363.0 L 141.0 375.0 L 142.0 395.0 L 146.0 399.0 L 158.0 403.0 L 221.0 403.0 L 230.0 401.0 L 280.0 400.0 L 294.0 402.0 L 347.0 402.0 L 356.0 399.0 L 361.0 393.0 L 361.0 370.0 L 358.0 359.0 L 355.0 354.0 L 348.0 348.0 L 342.0 345.0 L 337.0 346.0 L 335.0 344.0 L 331.0 289.0 L 325.0 244.0 L 321.0 230.0 L 312.0 213.0 L 303.0 203.0 L 293.0 195.0 L 275.0 187.0 L 260.0 184.0 L 247.0 184.0 L 243.0 186.0 L 232.0 187.0 Z M 314.0 385.0 L 315.0 387.0 L 312.0 389.0 L 311.0 387.0 Z M 197.0 388.0 L 201.0 384.0 L 205.0 385.0 L 204.0 388.0 L 201.0 390.0 Z M 346.0 383.0 L 348.0 386.0 L 344.0 389.0 L 342.0 385.0 Z M 301.0 383.0 L 302.0 384.0 L 300.0 387.0 L 296.0 389.0 L 295.0 386.0 Z M 156.0 383.0 L 158.0 382.0 L 164.0 385.0 L 169.0 382.0 L 171.0 385.0 L 167.0 389.0 L 159.0 389.0 L 156.0 386.0 Z M 230.0 382.0 L 228.0 387.0 L 224.0 390.0 L 215.0 390.0 L 212.0 388.0 L 213.0 385.0 L 220.0 386.0 L 228.0 381.0 Z M 269.0 381.0 L 264.0 388.0 L 255.0 388.0 L 257.0 385.0 L 264.0 381.0 Z M 186.0 380.0 L 188.0 382.0 L 187.0 385.0 L 180.0 390.0 L 178.0 386.0 L 182.0 381.0 Z M 285.0 379.0 L 286.0 382.0 L 283.0 387.0 L 278.0 389.0 L 276.0 386.0 Z M 253.0 377.0 L 240.0 390.0 L 236.0 388.0 L 244.0 379.0 L 250.0 376.0 Z M 155.0 377.0 L 155.0 375.0 L 158.0 372.0 L 163.0 373.0 L 158.0 379.0 Z M 347.0 371.0 L 348.0 374.0 L 344.0 377.0 L 342.0 374.0 L 345.0 371.0 Z M 339.0 362.0 L 342.0 361.0 L 345.0 364.0 L 341.0 367.0 L 339.0 365.0 Z M 328.0 363.0 L 330.0 359.0 L 334.0 360.0 L 330.0 364.0 Z M 189.0 365.0 L 189.0 362.0 L 192.0 359.0 L 197.0 360.0 L 193.0 365.0 Z M 175.0 363.0 L 178.0 359.0 L 181.0 360.0 L 180.0 363.0 Z M 165.0 359.0 L 166.0 361.0 L 161.0 364.0 L 160.0 363.0 Z M 320.0 358.0 L 323.0 360.0 L 321.0 363.0 L 318.0 361.0 Z M 310.0 358.0 L 312.0 362.0 L 306.0 365.0 L 306.0 360.0 Z M 228.0 365.0 L 229.0 362.0 L 234.0 358.0 L 244.0 359.0 L 232.0 366.0 Z M 208.0 362.0 L 212.0 358.0 L 217.0 358.0 L 219.0 360.0 L 212.0 364.0 Z M 295.0 357.0 L 296.0 360.0 L 289.0 364.0 L 288.0 361.0 L 291.0 358.0 Z M 280.0 359.0 L 271.0 367.0 L 267.0 367.0 L 274.0 358.0 L 277.0 357.0 Z M 259.0 359.0 L 249.0 368.0 L 245.0 368.0 L 248.0 365.0 L 248.0 363.0 L 254.0 358.0 L 257.0 357.0 Z M 216.0 210.0 L 232.0 202.0 L 239.0 202.0 L 247.0 199.0 L 265.0 200.0 L 275.0 203.0 L 287.0 209.0 L 301.0 223.0 L 307.0 234.0 L 312.0 254.0 L 314.0 283.0 L 320.0 323.0 L 320.0 345.0 L 262.0 345.0 L 259.0 342.0 L 259.0 304.0 L 269.0 294.0 L 272.0 282.0 L 269.0 279.0 L 264.0 278.0 L 259.0 282.0 L 257.0 288.0 L 254.0 291.0 L 249.0 291.0 L 244.0 285.0 L 242.0 279.0 L 239.0 277.0 L 233.0 280.0 L 232.0 288.0 L 235.0 295.0 L 246.0 305.0 L 245.0 343.0 L 228.0 345.0 L 182.0 344.0 L 189.0 270.0 L 195.0 238.0 L 199.0 229.0 Z M 150.0 141.0 L 148.0 143.0 L 148.0 147.0 L 160.0 161.0 L 175.0 176.0 L 183.0 176.0 L 186.0 169.0 L 177.0 157.0 L 162.0 142.0 Z M 358.0 139.0 L 352.0 138.0 L 324.0 165.0 L 321.0 169.0 L 321.0 172.0 L 325.0 177.0 L 330.0 177.0 L 359.0 150.0 L 361.0 147.0 L 361.0 142.0 Z M 254.0 106.0 L 250.0 107.0 L 246.0 112.0 L 246.0 150.0 L 251.0 155.0 L 255.0 154.0 L 259.0 147.0 L 260.0 114.0 L 258.0 109.0 Z" fill="#0b1fb3" fill-rule="evenodd"/>
</svg>
