<?xml version="1.0" encoding="UTF-8"?>
<svg xmlns="http://www.w3.org/2000/svg" width="512" height="512" viewBox="0 0 512 512" role="img" aria-label="cloud data">
  <title>cloud data</title>
  <path d="M 100.0 301.0 L 97.0 317.0 L 97.0 327.0 L 100.0 342.0 L 104.0 352.0 L 116.0 368.0 L 123.0 374.0 L 139.0 383.0 L 155.0 387.0 L 322.0 387.0 L 358.0 385.0 L 377.0 378.0 L 388.0 371.0 L 397.0 362.0 L 410.0 341.0 L 413.0 334.0 L 413.0 327.0 L 415.0 322.0 L 415.0 303.0 L 409.0 280.0 L 400.0 265.0 L 389.0 254.0 L 372.0 244.0 L 368.0 244.0 L 357.0 240.0 L 346.0 241.0 L 343.0 238.0 L 342.0 229.0 L 335.0 216.0 L 319.0 197.0 L 300.0 183.0 L 294.0 182.0 L 282.0 176.0 L 264.0 173.0 L 240.0 173.0 L 233.0 176.0 L 223.0 177.0 L 201.0 187.0 L 189.0 196.0 L 179.0 206.0 L 166.0 226.0 L 158.0 247.0 L 158.0 257.0 L 155.0 260.0 L 138.0 262.0 L 122.0 271.0 L 108.0 286.0 Z M 111.0 316.0 L 118.0 295.0 L 130.0 282.0 L 149.0 273.0 L 159.0 272.0 L 167.0 274.0 L 171.0 271.0 L 171.0 254.0 L 176.0 236.0 L 186.0 219.0 L 197.0 207.0 L 206.0 200.0 L 220.0 193.0 L 233.0 189.0 L 251.0 186.0 L 259.0 186.0 L 280.0 190.0 L 306.0 204.0 L 316.0 214.0 L 324.0 225.0 L 328.0 233.0 L 333.0 253.0 L 337.0 256.0 L 344.0 254.0 L 360.0 255.0 L 369.0 258.0 L 381.0 265.0 L 396.0 284.0 L 399.0 292.0 L 401.0 305.0 L 400.0 327.0 L 397.0 332.0 L 396.0 339.0 L 389.0 350.0 L 373.0 364.0 L 359.0 370.0 L 352.0 370.0 L 347.0 372.0 L 150.0 371.0 L 135.0 365.0 L 122.0 353.0 L 114.0 339.0 L 114.0 334.0 L 111.0 325.0 Z" fill="#0b1fb3" fill-rule="evenodd"/>
</svg>
