<svg xmlns="http://www.w3.org/2000/svg" viewBox="0 0 512 512" width="512" height="512" role="img" aria-label="change_data_capture">
  <title>change_data_capture</title>
  <desc>Таблица before / after + стрелка изменения</desc>
  <path d="M 310,344 L 310.5,346 L 311.5,346.5 L 330,346.5 L 331,345.5 L 330.5,342.5 L 329,342 L 312,342 Z M 150.5,312 L 148.5,312 L 147.5,313 L 147.5,332 L 149,333 L 151.5,331 L 151.5,313.5 Z M 203,305 L 201.5,306.5 L 201.5,328 L 202,329 L 204.5,329.5 L 206,328 L 206,306.5 L 204.5,305 Z M 401.5,298.5 L 399.5,298.5 L 398.5,299.5 L 398.5,318 L 400.5,319.5 L 402.5,317.5 L 402.5,300 Z M 355,298.5 L 354,299.5 L 354,331.5 L 356.5,333 L 358.5,331 L 358.5,300 L 357.5,298.5 Z M 446.5,295 L 445.5,296 L 445.5,331.5 L 446,332.5 L 448,333 L 450,331 L 450,297 L 449.5,295.5 Z M 392,295 L 391,297 L 391,330.5 L 391.5,332 L 393.5,333 L 395.5,331.5 L 395.5,296 L 394.5,295 Z M 155.5,295 L 154,296.5 L 154.5,331.5 L 155,332.5 L 157,333 L 158.5,331.5 L 158.5,296 L 157.5,295 Z M 117,286 L 117,287.5 L 118.5,289 L 146.5,289 L 148,288 L 148,285.5 L 146.5,284.5 L 118.5,284.5 Z M 114.5,282.5 L 113.5,281.5 L 111.5,281.5 L 109,284.5 L 68,284.5 L 66.5,285.5 L 66.5,288 L 67.5,289 L 109.5,289 L 112,285.5 L 114.5,284.5 Z M 255.5,269.5 L 256,271 L 258.5,272 L 261,275.5 L 265,275.5 L 270,271 L 271.5,268.5 L 273,268 L 275,265 L 276.5,265 L 277,262 L 276,261 L 274,261 L 268.5,267.5 L 266.5,268 L 265,271 L 261,271 L 260,269.5 L 260,266.5 L 261,265 L 263.5,264 L 263.5,260 L 261.5,257.5 L 257,257.5 L 256,258.5 L 256,260.5 L 259,262.5 L 259,264 L 256,265.5 Z M 402,248 L 401.5,250 L 402.5,251.5 L 444,251.5 L 445.5,252.5 L 445.5,283.5 L 444.5,284.5 L 406.5,284.5 L 405,286 L 405.5,288.5 L 444.5,289 L 447,285.5 L 449.5,284.5 L 450,253 L 449.5,251.5 L 447.5,251 L 445,247.5 Z M 362,247.5 L 361,248.5 L 361,250.5 L 362,251.5 L 390,251.5 L 391.5,253 L 391.5,283 L 390.5,284.5 L 362.5,284.5 L 361,285.5 L 361,288 L 362.5,289 L 394.5,288.5 L 395.5,287 L 395.5,252 L 393.5,251 L 391,247.5 Z M 310,248.5 L 310,250.5 L 311,251.5 L 353,251.5 L 354,252.5 L 354,283.5 L 353,284.5 L 311.5,284.5 L 310,286 L 310.5,288.5 L 353,289 L 358,284.5 L 358.5,252.5 L 357.5,251 L 356,251 L 353.5,247.5 L 311,247.5 Z M 228.5,256.5 L 229.5,258 L 232,258 L 233,257 L 233,252.5 L 234,251.5 L 262.5,251.5 L 263.5,249 L 262.5,247.5 L 233.5,247.5 L 231,251 L 229,251.5 Z M 154.5,251.5 L 154,283.5 L 155,285 L 157.5,286 L 158.5,288.5 L 201,289 L 202.5,286.5 L 201,284.5 L 159.5,284.5 L 158.5,283.5 L 158.5,252.5 L 159.5,251.5 L 200.5,251.5 L 201.5,252.5 L 201.5,260 L 202.5,261.5 L 205,261.5 L 206,260 L 206,252.5 L 205,251 L 203.5,251 L 201,247.5 L 159,247.5 L 156.5,251 Z M 117,248.5 L 117,250.5 L 118,251.5 L 148,251 L 148,248.5 L 147,247.5 L 118,247.5 Z M 66.5,248 L 66.5,251 L 67.5,251.5 L 109,251.5 L 110.5,253.5 L 110,277 L 111,278 L 113.5,278 L 114.5,277 L 114.5,252 L 112.5,251 L 110,247.5 Z M 68,207 L 66,208.5 L 66,236.5 L 67.5,238 L 69,238 L 70.5,236.5 L 70.5,208.5 Z M 402,200.5 L 401.5,203 L 402.5,204 L 445,204.5 L 445.5,240 L 447.5,241.5 L 449.5,240.5 L 450,205.5 L 449.5,204 L 447.5,203.5 L 445,200 Z M 362,200 L 361,201 L 361,203 L 364,204.5 L 390,204 L 391.5,205.5 L 391,239 L 392,241 L 395,241 L 395.5,204.5 L 393.5,203.5 L 391,200 Z M 310,201 L 310,203 L 311,204 L 353.5,204.5 L 354,226.5 L 355,227.5 L 358,227 L 358.5,205 L 357.5,203.5 L 356,203.5 L 353.5,200 L 311,200 Z M 154.5,240.5 L 156.5,241.5 L 158.5,240 L 159,204.5 L 200.5,204 L 203,207.5 L 205,207.5 L 206,206.5 L 206,204.5 L 203,203 L 201,200 L 159,200 L 158,202 L 154.5,204.5 Z M 66.5,200.5 L 66.5,203 L 68,204 L 109,204 L 110.5,205.5 L 110,216 L 111.5,217.5 L 113.5,217.5 L 114.5,216.5 L 114.5,212 L 117.5,209.5 L 117.5,205.5 L 119,204 L 146,204 L 147.5,205.5 L 148,210.5 L 150.5,210.5 L 151.5,209 L 151.5,205 L 147,200 L 118,200 L 116,203.5 L 112,203.5 L 110,200 Z M 301,190 L 299.5,192.5 L 299.5,326.5 L 300,328.5 L 302.5,329.5 L 304,328.5 L 304,191 L 303,190 Z M 110.5,190.5 L 110.5,193 L 111.5,194 L 144.5,193.5 L 144.5,190.5 L 143,189.5 L 112,189.5 Z M 313.5,181.5 L 313.5,185.5 L 315,187 L 326,187 L 328,184.5 L 327.5,181 L 325.5,179.5 L 316,179.5 Z" fill="#8fb7df" fill-rule="evenodd"/>
  <path d="M 229,248 L 229,251 L 232.5,253 L 232.5,257.5 L 237.5,258 L 240,261.5 L 242,261.5 L 244.5,258 L 262,258.5 L 263,260 L 263,263 L 259.5,265.5 L 259,268.5 L 260.5,271.5 L 263,272 L 265.5,271.5 L 275,261.5 L 279,261.5 L 280.5,259 L 283.5,257 L 284,255 L 283.5,252 L 281.5,251 L 279.5,248 L 278,247.5 L 276.5,245 L 274.5,244 L 273,241.5 L 271,240.5 L 265,234 L 260.5,234 L 259.5,235 L 259.5,243.5 L 263,246.5 L 263,249 L 261.5,251 L 234,251 L 232,247.5 Z M 311,166.5 L 300,177.5 L 300,189 L 303.5,191.5 L 303.5,327.5 L 300.5,329 L 300,332 L 303.5,334 L 303.5,338.5 L 308.5,343 L 448,343 L 456.5,334.5 L 456,173.5 L 447.5,166 Z M 399,300 L 403.5,295.5 L 448,295.5 L 449.5,298 L 449,331 L 448,332 L 403,332 L 402,331 L 402,320 L 399,317.5 Z M 362.5,295.5 L 393.5,295.5 L 395,297 L 395,331 L 394,332 L 362,331.5 L 361.5,296.5 Z M 310.5,297 L 312,295.5 L 353,295.5 L 355,298.5 L 357.5,300 L 357.5,331 L 356.5,332 L 311.5,332 L 310.5,330.5 Z M 402,249.5 L 403.5,248 L 444.5,248 L 449.5,253.5 L 449,283.5 L 444.5,288 L 403,288 L 402,287 Z M 362.5,248 L 390,248 L 395,253 L 395,287 L 394,288 L 362.5,288 L 361.5,287 L 361.5,249 Z M 310.5,249.5 L 312,248 L 353,248 L 357.5,253 L 357.5,283.5 L 353,288 L 311.5,288 L 310.5,286.5 Z M 402,202 L 403.5,200.5 L 444.5,200.5 L 449.5,206 L 449,239.5 L 445.5,241 L 403,240.5 L 402,239.5 Z M 362,201 L 390,200.5 L 395,205.5 L 395,239.5 L 394,240.5 L 363,241 L 362,240 Z M 310.5,202 L 312,200.5 L 353,200.5 L 357.5,205.5 L 357.5,226 L 355,227.5 L 354,229.5 L 354,235.5 L 357,238 L 357,240.5 L 311.5,240.5 L 310.5,239 Z M 310.5,191 L 312.5,190 L 314,192.5 L 311.5,193.5 Z M 341,182.5 L 342.5,180.5 L 350,180.5 L 351,182 L 351,185 L 349.5,186.5 L 342.5,186.5 L 341,184.5 Z M 332,180.5 L 336,180.5 L 337,181.5 L 337.5,184 L 336,186.5 L 332.5,186.5 L 331.5,185.5 L 331,182 Z M 313.5,183 L 315,180.5 L 326,180.5 L 327,181.5 L 327,185 L 325.5,186.5 L 315.5,186.5 Z M 68,166 L 56,178 L 56,314 L 60,318.5 L 60,326.5 L 56,330.5 L 56.5,335.5 L 64.5,343 L 205,342.5 L 212.5,335 L 212,173.5 L 204,166 Z M 155,296.5 L 156,295.5 L 200.5,295.5 L 205,299.5 L 205,301 L 202,302.5 L 202,305 L 205.5,307.5 L 205,328 L 200,332.5 L 156,332 L 155,331 Z M 119,295.5 L 146.5,295.5 L 147.5,296.5 L 147.5,310.5 L 151,314 L 151,330.5 L 150,332 L 118.5,332 L 117.5,331 L 117.5,297 Z M 67,296.5 L 68,295.5 L 109,295.5 L 110.5,297 L 110.5,331 L 109.5,332 L 67.5,332 L 66.5,330.5 Z M 155,252.5 L 157.5,251 L 159.5,248 L 200.5,248 L 202.5,251 L 205.5,253 L 205.5,259.5 L 202.5,261.5 L 201.5,263.5 L 201.5,287.5 L 159.5,288 L 154.5,283 Z M 119,248 L 146.5,248 L 147.5,249 L 148,286 L 146.5,288 L 118.5,288 L 117.5,287 L 117.5,249.5 Z M 67,249 L 68,248 L 109,248 L 113.5,252.5 L 113.5,277 L 110.5,278.5 L 110.5,281 L 112.5,282 L 113.5,284 L 109.5,288 L 68,288 L 66.5,286 Z M 155.5,204.5 L 157,204 L 159.5,200.5 L 200.5,200.5 L 205,204.5 L 205,206 L 201.5,209 L 201.5,232 L 202,233.5 L 205.5,236 L 205.5,239 L 204,240.5 L 197.5,241 L 156,240.5 L 154.5,238.5 Z M 66.5,202.5 L 68,200.5 L 109,200.5 L 112,204 L 116,204 L 119,200.5 L 146,200.5 L 151,205.5 L 150.5,209.5 L 147.5,212 L 148,238.5 L 146,241 L 118.5,240.5 L 117.5,239.5 L 118,212 L 116.5,210 L 115,210 L 113.5,211.5 L 113.5,216 L 110.5,218 L 110.5,239.5 L 109.5,240.5 L 68.5,241 L 66.5,238.5 Z M 93.5,191.5 L 96,190.5 L 97,193 L 94.5,193.5 Z M 111,191 L 112,190 L 143,190 L 144,192.5 L 143,193.5 L 112,193.5 Z M 73.5,181.5 L 74.5,180.5 L 102.5,180.5 L 104,182.5 L 104,184.5 L 102,186.5 L 75,186.5 L 73.5,185 Z" fill="#0b1fb3" fill-rule="evenodd"/>
</svg>
