<svg xmlns="http://www.w3.org/2000/svg" viewBox="0 0 512 512" width="512" height="512" role="img" aria-label="labeled_dataset">
  <title>labeled_dataset</title>
  <desc>Датасет + тег/лейбл</desc>
  <path d="M 304,369 L 305.5,371.5 L 336,371.5 L 337.5,370 L 336,366.5 L 306,366.5 Z M 235.5,356.5 L 236,359 L 237,359.5 L 296,359.5 L 297,358 L 296,354.5 L 237,354.5 Z M 78.5,356.5 L 79.5,359.5 L 142.5,359.5 L 143.5,358.5 L 143.5,355.5 L 142.5,354.5 L 82,354 L 79.5,354.5 Z M 309.5,322 L 308,324 L 308.5,326.5 L 311,327.5 L 312.5,330 L 315,331.5 L 317,334.5 L 319,335.5 L 321,338.5 L 328.5,345 L 330,347.5 L 331,347.5 L 336.5,352.5 L 336.5,353.5 L 335.5,354.5 L 309.5,354.5 L 308.5,355.5 L 308.5,358.5 L 309.5,359.5 L 336,359.5 L 337,356.5 L 339.5,355.5 L 342,359.5 L 344.5,359.5 L 345.5,358.5 L 345.5,355.5 L 343,354.5 L 341,351 L 339,350.5 L 337,347 L 334.5,346 L 333,343 L 330.5,342 L 329,339 L 326.5,338 L 325,335 L 322.5,334 L 320.5,330.5 L 318.5,330 L 316.5,326.5 L 313.5,325 L 312,322 Z M 313.5,310 L 312,312 L 312.5,314.5 L 315.5,315.5 L 317,318.5 L 319.5,319.5 L 321,322.5 L 323.5,323.5 L 325,326.5 L 327.5,327.5 L 329,330.5 L 331.5,331.5 L 333,334.5 L 335.5,335.5 L 338,339.5 L 341,339 L 341.5,335 L 338.5,334 L 337,331 L 334.5,330 L 333,327 L 331,326 L 329,323 L 321,316 L 320,314 L 318,313.5 L 316,310 Z M 216.5,306 L 215,308.5 L 215,348.5 L 216.5,350.5 L 218.5,351 L 220.5,349.5 L 220.5,307.5 L 219,306 Z M 71.5,306 L 70,307 L 69.5,309 L 69.5,357 L 71,359.5 L 73,359.5 L 75,357 L 75,307.5 L 73.5,306 Z M 110.5,304 L 110.5,306 L 112,307 L 142.5,307 L 143.5,306 L 143.5,303.5 L 142.5,302.5 L 112,302.5 Z M 151,307 L 150.5,356.5 L 152.5,359.5 L 220,359 L 220,355.5 L 218,354.5 L 157.5,354.5 L 155.5,352.5 L 156,308 L 157.5,307 L 174.5,307 L 175.5,306.5 L 176,304.5 L 174.5,302.5 L 158,302 L 156.5,302.5 L 153.5,306 Z M 437.5,294 L 434.5,294 L 433.5,296.5 L 430.5,298 L 429,301 L 426.5,302 L 425,305 L 422.5,306 L 421,309 L 418,310.5 L 417,313 L 414,314.5 L 413,317 L 410,318.5 L 409,321 L 406,322.5 L 405,325 L 402,326.5 L 401,329 L 398,330.5 L 397,333 L 394,334.5 L 393,337 L 390,338.5 L 389,341 L 386,342.5 L 385,345 L 382,346.5 L 381,349 L 378,350.5 L 376.5,353.5 L 374,354.5 L 371.5,358.5 L 369,359.5 L 368.5,361.5 L 370,363.5 L 372.5,363.5 L 374,361 L 376.5,359.5 L 378,357 L 380.5,355.5 L 382,353 L 384.5,351.5 L 386,349 L 388.5,347.5 L 390,345 L 392.5,343.5 L 394,341 L 397,339 L 398,337 L 401,335 L 402,333 L 405,331 L 406,329 L 409,327 L 410,325 L 413,323 L 414,321 L 417,319 L 418,317 L 421,315 L 422,313 L 425,311 L 436,299 L 438.5,298 L 438.5,295.5 Z M 401.5,258.5 L 401.5,265.5 L 404,266.5 L 405.5,269.5 L 408.5,271 L 410.5,274.5 L 420,275 L 422,273.5 L 422,270.5 L 420.5,269.5 L 411.5,269.5 L 409.5,266 L 406.5,264.5 L 406,258.5 L 404,257.5 Z M 301,246.5 L 297.5,245.5 L 296,247 L 296,292.5 L 295,293.5 L 230,293.5 L 228,294.5 L 227.5,297.5 L 229,299 L 296,298.5 L 297,296 L 300,294.5 L 301.5,292.5 Z M 216.5,245.5 L 215,248 L 215,288 L 216.5,290 L 219.5,290 L 220.5,289 L 220.5,247 L 219,245.5 Z M 151,246.5 L 150.5,296 L 152,298.5 L 220,298.5 L 220.5,296 L 218.5,294 L 157,293.5 L 155.5,291.5 L 156,247.5 L 154.5,245.5 L 152,245.5 Z M 70,246.5 L 69.5,292 L 71,294.5 L 72.5,294.5 L 74,296 L 75,298.5 L 111,299 L 142,298.5 L 143.5,297.5 L 143.5,295 L 141,293.5 L 76,293.5 L 75,292.5 L 75,246.5 L 74,245.5 L 71,245.5 Z M 357,242.5 L 354,242 L 352.5,243.5 L 352.5,248 L 350,249.5 L 343,257.5 L 340.5,258.5 L 340.5,261.5 L 341.5,262.5 L 344.5,262.5 L 345.5,260 L 347,258.5 L 348.5,258.5 L 350,255.5 L 353,254 L 354,251.5 L 357.5,249 L 358,244 Z M 439,237.5 L 437.5,239 L 437,287.5 L 439,290.5 L 441.5,290.5 L 443,288 L 443,240 L 441.5,237.5 Z M 453.5,233.5 L 451,233.5 L 449.5,235 L 449.5,296.5 L 445.5,299 L 445.5,302 L 446.5,303 L 450,302.5 L 450.5,300.5 L 453.5,298.5 L 455,296 L 455,236 Z M 308.5,234.5 L 308.5,237 L 310,238.5 L 360,238.5 L 361.5,237 L 361.5,234.5 L 359.5,233 L 310.5,233 Z M 217,189 L 215,191.5 L 215,227.5 L 216.5,229.5 L 219.5,229.5 L 220.5,228.5 L 220.5,190.5 L 219,189 Z M 390.5,185 L 389,186.5 L 389,224.5 L 390.5,226 L 393,226 L 394.5,223 L 394.5,187.5 L 393,185 Z M 301,186 L 300,185 L 297.5,185 L 296,186.5 L 296,232 L 295,233 L 230,233 L 227.5,234.5 L 227.5,237 L 229.5,238.5 L 296,238 L 297,235.5 L 298.5,234 L 300,234 L 301.5,232 Z M 151,186 L 150.5,232 L 152,234 L 155,235.5 L 156,238 L 219,238.5 L 220.5,237 L 219.5,234 L 214.5,233 L 157,233 L 155.5,230.5 L 156,187 L 154.5,185 L 152,185 Z M 70,186 L 70,236.5 L 71,238 L 142,238.5 L 143.5,237 L 143.5,234.5 L 141.5,233 L 76,233 L 75,231.5 L 75,186.5 L 73.5,185 L 71,185 Z M 403,148.5 L 401,150.5 L 401,212.5 L 402.5,214 L 404.5,214 L 406.5,211.5 L 406.5,151 L 405.5,149 Z M 74,154 L 74,171.5 L 76,173.5 L 384.5,174 L 392.5,173.5 L 394,172 L 394,158.5 L 390.5,156 L 390,150.5 L 388,148.5 L 79.5,148.5 L 78,151.5 Z M 220.5,166.5 L 223.5,165 L 234.5,165 L 235.5,166 L 235.5,168 L 234,169 L 221.5,169 Z M 123.5,158.5 L 124.5,157 L 129.5,157 L 130.5,159.5 L 129,161 L 125,161 Z M 116,157 L 118.5,158 L 118.5,159.5 L 117,161 L 115,160 L 115,158 Z M 90.5,156.5 L 90.5,159.5 L 88,161 L 87,160 L 87,158 Z M 362,154 L 375.5,153.5 L 378.5,157.5 L 380,157.5 L 381.5,155 L 384,153.5 L 385.5,155 L 385,167.5 L 384,168.5 L 375,168.5 L 373.5,167 L 373.5,161.5 L 371,160.5 L 367.5,157 L 362.5,157 L 361.5,156 Z M 168,154.5 L 169,153.5 L 221.5,153.5 L 224,155.5 L 224,158.5 L 222,160.5 L 213.5,160.5 L 211.5,164 L 209.5,165 L 206,160.5 L 193.5,160.5 L 189.5,157 L 185.5,157 L 182.5,160.5 L 181,160.5 L 177.5,157 L 169,157 Z M 78.5,155.5 L 80,153.5 L 81.5,153.5 L 83,155 L 82.5,160.5 L 85.5,162 L 87.5,165 L 90,165.5 L 93,165 L 95,162.5 L 95,158.5 L 90.5,156.5 L 92,153.5 L 109.5,153.5 L 110.5,156 L 108.5,157.5 L 101,157 L 99,158.5 L 98.5,163 L 99.5,164.5 L 129.5,165.5 L 130.5,168 L 129.5,169 L 80.5,168.5 L 79,167 L 79.5,162.5 Z M 58,149.5 L 57.5,361 L 67.5,371.5 L 297,370.5 L 296,366.5 L 68.5,366.5 L 63,361 L 63,150 L 61,148.5 Z" fill="#8fb7df" fill-rule="evenodd"/>
  <path d="M 62,146.5 L 62,361.5 L 68,367.5 L 295,367.5 L 297.5,371 L 303,371.5 L 306.5,367.5 L 347.5,367.5 L 352,363.5 L 362.5,375.5 L 372,375.5 L 375,371.5 L 380,371.5 L 445.5,306.5 L 446.5,300 L 450.5,297 L 450.5,231 L 445,225.5 L 406,224 L 406,215 L 401.5,210.5 L 402,146.5 L 397,141 L 391.5,140.5 L 388,136.5 L 76,136.5 L 73,140.5 L 67,141 Z M 310,323 L 311.5,323 L 317,330 L 319,331 L 321,334 L 323,335 L 325,338 L 327,339 L 329,342 L 336.5,348.5 L 338,351 L 344.5,356 L 344.5,358 L 343.5,359 L 310.5,358.5 L 309,357 L 309.5,329 L 308.5,325 Z M 228.5,308 L 234,303 L 238,303 L 242,307 L 290.5,307 L 294,303 L 296,303.5 L 300.5,308.5 L 300.5,312.5 L 298,314 L 296,317 L 296,357.5 L 295,358.5 L 229.5,358.5 L 228,356.5 Z M 151.5,308.5 L 157,303 L 173.5,303 L 177.5,307 L 218.5,307 L 220,309.5 L 219.5,357.5 L 218.5,358.5 L 153,358.5 L 151.5,357 Z M 143,304.5 L 143,357 L 141.5,358.5 L 72,358.5 L 71,357.5 L 70.5,309 L 72,307 L 109,307 L 113,303 L 141.5,303 Z M 152,247 L 155.5,246 L 218.5,246.5 L 220,248.5 L 219.5,297 L 218,298 L 153,298 L 151.5,296.5 Z M 71,247.5 L 72.5,246 L 141,246 L 143,248 L 143,296.5 L 141,298 L 76,298 L 70.5,292 Z M 356,242.5 L 357.5,244 L 357,248 L 354.5,249.5 L 353,252 L 350.5,253.5 L 349,256 L 346,258 L 345,260 L 342,262 L 340.5,264.5 L 338,266 L 336.5,268.5 L 334,270 L 332.5,272.5 L 330,274 L 319,286 L 317,287 L 311.5,294 L 310,294 L 308.5,292.5 L 309.5,287.5 L 309.5,247 L 311,246 L 351,246.5 L 354.5,242.5 Z M 228.5,247.5 L 230,246 L 259,246 L 261.5,242.5 L 263,242.5 L 265.5,246 L 299,246.5 L 300.5,248 L 300.5,292.5 L 294.5,298 L 229.5,298 L 228,296 Z M 440,238 L 442,240 L 442,288 L 438,291 L 437.5,297 L 435.5,298 L 375.5,358.5 L 374,359 L 371.5,362.5 L 367,362.5 L 365,359.5 L 363,358.5 L 361,355.5 L 359,354.5 L 357,351.5 L 355,350.5 L 353,347.5 L 345.5,341 L 344,338.5 L 339,338.5 L 336.5,335 L 335,334.5 L 332.5,331 L 331,330.5 L 328.5,327 L 327,326.5 L 324.5,323 L 323,322.5 L 320.5,319 L 319,318.5 L 316.5,315 L 313,312.5 L 313,308.5 L 316,306.5 L 317,304.5 L 320,302.5 L 321,300.5 L 324,298.5 L 325,296.5 L 328,294.5 L 329,292.5 L 332,290.5 L 333,288.5 L 336,286.5 L 337.5,284 L 340.5,282 L 341.5,280 L 344.5,278 L 345.5,276 L 348.5,274 L 349.5,272 L 352.5,270 L 353.5,268 L 356.5,266 L 363,258.5 L 365.5,257 L 365.5,252 L 368.5,250 L 369.5,248 L 372.5,246 L 379.5,238 L 384,238 L 387,234 L 388,234 L 391,238 Z M 421,245.5 L 418.5,245.5 L 416,249.5 L 411,249.5 L 409.5,252 L 405.5,255 L 405.5,265 L 406,266 L 408,266.5 L 411,270.5 L 425.5,270 L 426,264.5 L 430.5,260 L 430,255 L 423,249 Z M 413.5,259.5 L 415,258 L 416.5,258 L 418,260.5 L 416.5,262 L 415,262 Z M 309,187 L 311,185.5 L 391.5,185.5 L 393.5,187.5 L 393.5,223.5 L 391.5,225.5 L 378.5,225.5 L 367.5,237.5 L 310.5,237.5 L 309,236 Z M 228,187.5 L 230,185.5 L 299.5,186 L 300.5,187.5 L 300,232.5 L 298,233.5 L 295,237.5 L 229,237 L 228,235.5 Z M 151.5,187 L 153.5,185.5 L 218,185.5 L 220,188 L 219.5,236 L 218,237.5 L 157,237.5 L 155,234.5 L 151.5,232 Z M 70.5,187.5 L 72.5,185.5 L 142,186 L 143,187.5 L 142.5,236.5 L 141.5,237.5 L 71.5,237 L 70.5,235.5 Z M 74,156 L 75.5,153.5 L 78,154 L 78.5,167.5 L 82,169.5 L 129.5,169.5 L 131.5,167.5 L 130,164.5 L 100.5,164.5 L 99,162.5 L 100.5,158 L 111,157 L 111,154 L 108.5,152.5 L 91.5,153 L 90,156 L 94.5,159.5 L 94,163.5 L 84.5,164.5 L 83,163 L 83.5,155 L 80,153 L 79,150.5 L 80.5,149 L 386,149 L 389,150.5 L 389.5,155.5 L 393.5,159.5 L 393.5,171 L 391.5,173 L 83.5,173.5 L 76.5,173 L 75,171.5 Z M 361.5,153.5 L 361,156.5 L 362,157.5 L 367,157.5 L 373,163 L 373,167.5 L 374.5,169 L 384.5,169 L 386,167.5 L 386,155 L 384.5,153 L 382.5,153 L 380,156.5 L 378.5,156.5 L 375.5,153 L 363.5,152.5 Z M 167,154.5 L 167,156.5 L 168,157.5 L 177.5,157.5 L 181,161.5 L 182.5,161.5 L 186,157.5 L 189.5,157.5 L 193.5,161.5 L 206,161.5 L 208.5,165.5 L 211,165.5 L 213.5,161.5 L 222.5,161.5 L 224.5,159 L 224.5,155 L 222,153 L 169.5,152.5 Z" fill="#0b1fb3" fill-rule="evenodd"/>
</svg>
