<svg xmlns="http://www.w3.org/2000/svg" viewBox="0 0 512 512" width="512" height="512" role="img" aria-label="data_catalog">
  <title>data_catalog</title>
  <desc>Каталог/книга с наборами данных</desc>
  <path d="M 199.5,387 L 200,389 L 201.5,390 L 219.5,390 L 221.5,387.5 L 220,384.5 L 201.5,384.5 Z M 454.5,382 L 453,380.5 L 450.5,380.5 L 448,384.5 L 409.5,384.5 L 408,385.5 L 407.5,388 L 409.5,390 L 448,390 L 451,386 L 454,385 Z M 58,382 L 58.5,385 L 61.5,386 L 64.5,390 L 90.5,390 L 92.5,388 L 92,385.5 L 90.5,384.5 L 64.5,384.5 L 62,380.5 L 59.5,380.5 Z M 333,381.5 L 333,384.5 L 335.5,386 L 385,386 L 387.5,384.5 L 387.5,381.5 L 385,380 L 335.5,380 Z M 133,382.5 L 133.5,384.5 L 135.5,386 L 177,386 L 179.5,384.5 L 179.5,381.5 L 177,380 L 136,380 L 133.5,381 Z M 316,370 L 316.5,372.5 L 318.5,373.5 L 406,373.5 L 408.5,371.5 L 408.5,369.5 L 407,368 L 317.5,368 Z M 300.5,374.5 L 300,373 L 297.5,372 L 294.5,368.5 L 289.5,368 L 285.5,372 L 280,372 L 278.5,375 L 280.5,377.5 L 298.5,377.5 L 300,376.5 Z M 212,374.5 L 213.5,377.5 L 231.5,377.5 L 235,381.5 L 237,381 L 238.5,378 L 238,374.5 L 236.5,372.5 L 231,372 L 227,368 L 223,368 L 219,372 L 213.5,372 Z M 108,370.5 L 108.5,372.5 L 110.5,373.5 L 198,373.5 L 200.5,371.5 L 200.5,369.5 L 199,368 L 116.5,368 L 109.5,368.5 Z M 83,357.5 L 83,359.5 L 87,361.5 L 89.5,365 L 115.5,364.5 L 117.5,362.5 L 117,360.5 L 115.5,359.5 L 89.5,359.5 L 87,356 L 84,356 Z M 345.5,356.5 L 345.5,360 L 347,361 L 377.5,361 L 379.5,358.5 L 378,355.5 L 346.5,355.5 Z M 141.5,357 L 141.5,359.5 L 143.5,361 L 165.5,361 L 167,360 L 167,356.5 L 166,355.5 L 142.5,355.5 Z M 337,344.5 L 337,347 L 339,348.5 L 385.5,348.5 L 387.5,347 L 387.5,344.5 L 386,343 L 338.5,343 Z M 125,344.5 L 125,347 L 127,348.5 L 177.5,348.5 L 179.5,347 L 179.5,344 L 178,343 L 126.5,343 Z M 85.5,330.5 L 83,332 L 83,350.5 L 86,352 L 88.5,350.5 L 88.5,332 Z M 437.5,306 L 436.5,307 L 436.5,363 L 437.5,364.5 L 441,364.5 L 442,363 L 442,307.5 L 441,306 Z M 195.5,307.5 L 196,310 L 197.5,311 L 207,311 L 209.5,315 L 220,315 L 221.5,313 L 221,310.5 L 219,309.5 L 210,309.5 L 207,305.5 L 197.5,305.5 Z M 345.5,290 L 345.5,293 L 347.5,294.5 L 377,294.5 L 379,293.5 L 379.5,292 L 378,289 L 346.5,289 Z M 133,291 L 133.5,293.5 L 135.5,294.5 L 173,294.5 L 175.5,293 L 175.5,290.5 L 174,289 L 134.5,289 Z M 264,264 L 262.5,264.5 L 261.5,267 L 261.5,362 L 263,364.5 L 266,364.5 L 267.5,362.5 L 267.5,266.5 L 266.5,264.5 Z M 388,257.5 L 387,256 L 384.5,255.5 L 381,260 L 334,260 L 333,261 L 333,264 L 334,265 L 382,265 L 385,261 L 387.5,260 Z M 124.5,254 L 125,263.5 L 127,265 L 178.5,265 L 179.5,264 L 179.5,261 L 178.5,260 L 131.5,260 L 130,258.5 L 130,253 L 129,252 L 125.5,252 Z M 150,248.5 L 150,251.5 L 152,253 L 169,253 L 171.5,251 L 171.5,249 L 170,247.5 L 151,247.5 Z M 337,219.5 L 337,222 L 338.5,223.5 L 369.5,223.5 L 371,222 L 370.5,219 L 368.5,218 L 339.5,218 Z M 141.5,220 L 141.5,222 L 143,223.5 L 174,223.5 L 175.5,222 L 175.5,219.5 L 173,218 L 144,218 Z M 412.5,214.5 L 411.5,216 L 411.5,296.5 L 412.5,298 L 416,298 L 417,297 L 417,215.5 L 416,214.5 Z M 438,168.5 L 436.5,170 L 436.5,213.5 L 438,215 L 440.5,215 L 442,213 L 442,170.5 L 441,169 Z M 337,170 L 338,173.5 L 374,173.5 L 375,172.5 L 375,169.5 L 374,168.5 L 338,168.5 Z M 137.5,169.5 L 137.5,172.5 L 138.5,173.5 L 178.5,173.5 L 179.5,172.5 L 179.5,169.5 L 178.5,168.5 L 138.5,168.5 Z M 72.5,168.5 L 70.5,170.5 L 70.5,338 L 71.5,339.5 L 74,340 L 76,338.5 L 76,170 L 74.5,168.5 Z M 263.5,156 L 261.5,158.5 L 261.5,200 L 263,202.5 L 266,202.5 L 267.5,200 L 267.5,158.5 L 266.5,156.5 Z M 251,156 L 249.5,157.5 L 249.5,367.5 L 251,369 L 253,369 L 255,366.5 L 255,158 L 254,156.5 Z M 433,149 L 433,151 L 434.5,153 L 448,153 L 450.5,157 L 453,157 L 454.5,155.5 L 454,152.5 L 451,151.5 L 448,147.5 L 434.5,147.5 Z M 58.5,149 L 58.5,151.5 L 60,153 L 82,153 L 84,151.5 L 84,149 L 82.5,147.5 L 60,147.5 Z M 97.5,131 L 95.5,133 L 95.5,350 L 98,352.5 L 107.5,352.5 L 109,351 L 109,348.5 L 107.5,347 L 102,347 L 100.5,345 L 101,133 L 100,131.5 Z M 425.5,127 L 424,128.5 L 424,354.5 L 425,356 L 428,356.5 L 429.5,355 L 429,164 L 429.5,162.5 L 433.5,159.5 L 433,157 L 429,153.5 L 429.5,128.5 L 428,127 Z M 337,124 L 337,126.5 L 338.5,128 L 377.5,128 L 379.5,126 L 379,123.5 L 377.5,122.5 L 338.5,122.5 Z M 137.5,123.5 L 137.5,126.5 L 139,128 L 178,128 L 179.5,127 L 179.5,123.5 L 178,122.5 L 139,122.5 Z M 337,111.5 L 337,114 L 338.5,115.5 L 378,115.5 L 379.5,113.5 L 379,111 L 377.5,110 L 339,110 Z M 133,112.5 L 133.5,114.5 L 135,115.5 L 178.5,115.5 L 179.5,114.5 L 179.5,111.5 L 178,110 L 135,110 Z" fill="#8fb7df" fill-rule="evenodd"/>
  <path d="M 59,152.5 L 58,378 L 63.5,385 L 132,385.5 L 135.5,381.5 L 177.5,381.5 L 181,385.5 L 219,385.5 L 222,389.5 L 235.5,389.5 L 247,402 L 265.5,402 L 272.5,394 L 281.5,389.5 L 294.5,389.5 L 297.5,385.5 L 331.5,385.5 L 335,381.5 L 448,385.5 L 454,380 L 454.5,159.5 L 448,152 L 433,151.5 L 429,156 L 441,162 L 436.5,167 L 441,171 L 441,275 L 436.5,279.5 L 441.5,288.5 L 436.5,296 L 436.5,304 L 441,308 L 441,362.5 L 436.5,366 L 441,371.5 L 302,372 L 298,376.5 L 279.5,375.5 L 301.5,365 L 344.5,360.5 L 347.5,356.5 L 377,356.5 L 380.5,360.5 L 406,360.5 L 410,365 L 418.5,365 L 425,359 L 424,123 L 414.5,118.5 L 401.5,118.5 L 398,114.5 L 385,114.5 L 382.5,110.5 L 377,114.5 L 318,114.5 L 315,118.5 L 302,118.5 L 298,123 L 284.5,123 L 260,139.5 L 240,127 L 219,123 L 215,118.5 L 202,118.5 L 198.5,114.5 L 185.5,114.5 L 182.5,110.5 L 177.5,114.5 L 122.5,114.5 L 119.5,118.5 L 98,118.5 L 88.5,123 L 83.5,132 L 88,141 L 82,151.5 Z M 250,383 L 252.5,381.5 L 256,385 L 261,385 L 264,381.5 L 265.5,381.5 L 267,383.5 L 267,385.5 L 264.5,389 L 252.5,389 L 250,386.5 Z M 73,160.5 L 77.5,161 L 81,157 L 84,159 L 83,163 L 83,328.5 L 88,334.5 L 88,349 L 83.5,352.5 L 83.5,355.5 L 89.5,360.5 L 140.5,360.5 L 143.5,356.5 L 165,356.5 L 168,360.5 L 190,360.5 L 193.5,365 L 211,365 L 214,369 L 227.5,369 L 230.5,372.5 L 235.5,373 L 237.5,375 L 238,378 L 236.5,380.5 L 230.5,376.5 L 214.5,376.5 L 210.5,372 L 81,372.5 L 77,376.5 L 72,371.5 L 71.5,171 L 76,168 L 75.5,165.5 L 71.5,163 Z M 410.5,132 L 416,137 L 411.5,142.5 L 411.5,212 L 416.5,218 L 416.5,294.5 L 411.5,300.5 L 411.5,328.5 L 416.5,334 L 416,337.5 L 412,340 L 412.5,343.5 L 415,344 L 416,346.5 L 410,351.5 L 406,351.5 L 402.5,347.5 L 393.5,347.5 L 390,343 L 385,347.5 L 339.5,347.5 L 335,343 L 331,347.5 L 326,347.5 L 323,351.5 L 318.5,351.5 L 316,347.5 L 313,347.5 L 310.5,351.5 L 305.5,351.5 L 302.5,355.5 L 293.5,355.5 L 289.5,360 L 284.5,360 L 281.5,364 L 272.5,364 L 264,372.5 L 262.5,371 L 263,149.5 L 268.5,144.5 L 273.5,144.5 L 277,140 L 282,140 L 285,136 L 294.5,136 L 297.5,132 L 310.5,132 L 314.5,127.5 L 336,127.5 L 339.5,123.5 L 377,123.5 L 380,127.5 L 401.5,127.5 L 404.5,131.5 Z M 291,308.5 L 293,311 L 307,310.5 L 310,306.5 L 323,306.5 L 326.5,302.5 L 381,302.5 L 383.5,300.5 L 383.5,295.5 L 382,293.5 L 326,293.5 L 323,297.5 L 310,297.5 L 306.5,301.5 L 297.5,301.5 L 294,305.5 L 291.5,306.5 Z M 291,267 L 291.5,268.5 L 293.5,269.5 L 307,269 L 310,265 L 331.5,265 L 335.5,260.5 L 382,260.5 L 383.5,259 L 383.5,253.5 L 382,252 L 327,251.5 L 323,256 L 309.5,256 L 306.5,260 L 297.5,260 L 294,264 L 291.5,265 Z M 383.5,216 L 382,214.5 L 377,214.5 L 373,210 L 339.5,210 L 335,214.5 L 313.5,214.5 L 310.5,218.5 L 297,218.5 L 294.5,222 L 291.5,223.5 L 291,225.5 L 295.5,229.5 L 296.5,231.5 L 299,231.5 L 302,227.5 L 311,227.5 L 314,223.5 L 335.5,223.5 L 339.5,219 L 368.5,219 L 372.5,223.5 L 381,223.5 L 383.5,221.5 Z M 291,188 L 291.5,189.5 L 293.5,190.5 L 302.5,190 L 306,186 L 319,186 L 323,181.5 L 382,181.5 L 383.5,180 L 383.5,174.5 L 382,173 L 322,173 L 318.5,177 L 305.5,177 L 302.5,181 L 296.5,181.5 L 294,185 L 291.5,186 Z M 98,132 L 107,132 L 111,127.5 L 123,127.5 L 126.5,132 L 128,132 L 131.5,127.5 L 136.5,127.5 L 139.5,123.5 L 177.5,123.5 L 180.5,127.5 L 202,127.5 L 206,132 L 219,132 L 222.5,136 L 231.5,136 L 234.5,140 L 239.5,140 L 242.5,144 L 248.5,144.5 L 253.5,149.5 L 254,366.5 L 252.5,368 L 243.5,368 L 240.5,364 L 235,364 L 232,360 L 223,360 L 220,356 L 210,355.5 L 207,351.5 L 193.5,351.5 L 190.5,347.5 L 127.5,347.5 L 124.5,343.5 L 122.5,343 L 119,347.5 L 110,347.5 L 107,351.5 L 98,351.5 L 96.5,350 L 96.5,133.5 Z M 129,295.5 L 129,300.5 L 131.5,302.5 L 190,302.5 L 193.5,306.5 L 205,306.5 L 207,307 L 210,310.5 L 219.5,311 L 221.5,308.5 L 221,306.5 L 218.5,305.5 L 215,301.5 L 206.5,301.5 L 202.5,297.5 L 193.5,297.5 L 190.5,293.5 L 130.5,293.5 Z M 221.5,267 L 221,265 L 218.5,264 L 215,260 L 206,260 L 203,256 L 189.5,256 L 185.5,251.5 L 130.5,252 L 129,253.5 L 129,259 L 130.5,260.5 L 177,260.5 L 181,265 L 202.5,265 L 205.5,269 L 219,269.5 L 220.5,269 Z M 129,216 L 129,221.5 L 131.5,223.5 L 140,223.5 L 144,219 L 173,219 L 177,223.5 L 198.5,223.5 L 201.5,227.5 L 210.5,227.5 L 213.5,231.5 L 216,231.5 L 217,229.5 L 221.5,225.5 L 221,223.5 L 218,222 L 215.5,218.5 L 206,218.5 L 203,214.5 L 181.5,214.5 L 177.5,210 L 139.5,210 L 135.5,214.5 L 130.5,214.5 Z M 129,174.5 L 129,180 L 130.5,181.5 L 193.5,181.5 L 197,185.5 L 206.5,186 L 210,190 L 219.5,190 L 221.5,187.5 L 221.5,183.5 L 220.5,181.5 L 214.5,181 L 211.5,177 L 198,177 L 195,173 L 130.5,173 Z" fill="#0b1fb3" fill-rule="evenodd"/>
</svg>
