<svg xmlns="http://www.w3.org/2000/svg" viewBox="0 0 512 512" width="512" height="512" role="img" aria-label="model_drift_alarm">
  <title>model_drift_alarm</title>
  <desc>Две расходящиеся кривые + сигнал тревоги</desc>
  <path d="M 108.5,395.5 L 109.5,399.5 L 410,399.5 L 411.5,398 L 410.5,395 Z M 70,396.5 L 70,398 L 71.5,399.5 L 103.5,399.5 L 104.5,398.5 L 104,395 L 71.5,395 Z M 177,385.5 L 177.5,389 L 416.5,389 L 419,392.5 L 421,392.5 L 422,391.5 L 421.5,388.5 L 419.5,388 L 416.5,384.5 L 178.5,384.5 Z M 97.5,386 L 98.5,389 L 152.5,389 L 153.5,387 L 151.5,384.5 L 99.5,384.5 Z M 57.5,316 L 56,317.5 L 56,346 L 57,347.5 L 59.5,347.5 L 60.5,346.5 L 60.5,317.5 L 59.5,316 Z M 67.5,257.5 L 66.5,258.5 L 66.5,312 L 67.5,313 L 70,313 L 71,311.5 L 71,259 L 69.5,257.5 Z M 142.5,233.5 L 139.5,233.5 L 139,235 L 136,237 L 135,239.5 L 132,241 L 132,249 L 129.5,250.5 L 127,254 L 125.5,254 L 125.5,258 L 128.5,258 L 129.5,255.5 L 132,254.5 L 133,252 L 136,250 L 136,242.5 L 143,236.5 Z M 332,202.5 L 329,202.5 L 323.5,209 L 315,209.5 L 315,213 L 324,213.5 L 330,206.5 L 332.5,205.5 Z M 184.5,189.5 L 183.5,188.5 L 181,188.5 L 180.5,190 L 177.5,192 L 177,193.5 L 174,195.5 L 173.5,197 L 170.5,199 L 170,200.5 L 167,202.5 L 166.5,204 L 163.5,206 L 158,212.5 L 156,213.5 L 156,216 L 157.5,217 L 159.5,216.5 L 160,215 L 162.5,213.5 L 163.5,211.5 L 166,210 L 167,208 L 169.5,206.5 L 170.5,204.5 L 173,203 L 174,201 L 184.5,191.5 Z M 190.5,161 L 188,161 L 187,163 L 180.5,168.5 L 180,177 L 178,178 L 176.5,180.5 L 174.5,181.5 L 173,184 L 171,185 L 170,187 L 167.5,188.5 L 166.5,190.5 L 164,192 L 163,194 L 160.5,195.5 L 151.5,205.5 L 149.5,206 L 149,209 L 150,210 L 152,210 L 153.5,207.5 L 155.5,206.5 L 157,204 L 159,203 L 160.5,200.5 L 162.5,199.5 L 164,197 L 166,196 L 167,194 L 169.5,192.5 L 170.5,190.5 L 172.5,189.5 L 174,187 L 176,186 L 177.5,183.5 L 184.5,177.5 L 184.5,169.5 L 186.5,168.5 L 188.5,165.5 L 191,164.5 L 191.5,162.5 Z M 68,150.5 L 66.5,152 L 66.5,221.5 L 68,223.5 L 72,224 L 74,222.5 L 74,220.5 L 70.5,217.5 L 71,152.5 L 70,151 Z M 384,148 L 383,147 L 381,147 L 380,149 L 377.5,150.5 L 376.5,152.5 L 374,154 L 373,156 L 370.5,157.5 L 369.5,159.5 L 367,161 L 366,163 L 363.5,164.5 L 362.5,166.5 L 360,168 L 351,178 L 349,178.5 L 349,182 L 352.5,182 L 353.5,179.5 L 356,178.5 L 360,173 L 362,172 L 367.5,165.5 L 369.5,165 L 370.5,162.5 L 373,161.5 L 374,159 L 376.5,158 L 377.5,155.5 L 380,154.5 L 381.5,151.5 L 384,150.5 Z M 377,141 L 374.5,140 L 372.5,143 L 371,143.5 L 369,146.5 L 363,151.5 L 361.5,154 L 360,154 L 359,155 L 359.5,158 L 362.5,158 L 363.5,156 L 365.5,155 L 375,144.5 L 376.5,144.5 Z" fill="#8fb7df" fill-rule="evenodd"/>
  <path d="M 66.5,325 L 75.5,334 L 79,334 L 82,330.5 L 89.5,330.5 L 91.5,333.5 L 96.5,334 L 99,337 L 106.5,337 L 120,351 L 124,351 L 136,339.5 L 136,331.5 L 168,299.5 L 173,299 L 189,282 L 203,282 L 205.5,285.5 L 210,285.5 L 212.5,289 L 217,289 L 219.5,292.5 L 224,292.5 L 233,302.5 L 241,303 L 254,316.5 L 258,316.5 L 266.5,325 L 266.5,329.5 L 269.5,331 L 270,336.5 L 275,337 L 278,340.5 L 282.5,340.5 L 285.5,337 L 290,337 L 294.5,332.5 L 295.5,327 L 303,327 L 306,323.5 L 316.5,323.5 L 318.5,326.5 L 321.5,326.5 L 322.5,324 L 332,315.5 L 332.5,308 L 326.5,302 L 320,302 L 317,305.5 L 312,306 L 306.5,312.5 L 299,312.5 L 296,316 L 285.5,316 L 282.5,312.5 L 278.5,312.5 L 276,316 L 274.5,316 L 259,299 L 254.5,299 L 253,297.5 L 253,293 L 249.5,290.5 L 248.5,285 L 233.5,285 L 231,281.5 L 226.5,281.5 L 224,278 L 220,278 L 217,274.5 L 213,274.5 L 196.5,257.5 L 192,257.5 L 189,261 L 185,261 L 180.5,265.5 L 180.5,273 L 172,281.5 L 168,281.5 L 127,323 L 123,323 L 121,326 L 116,326.5 L 114,329.5 L 112.5,329.5 L 110.5,326.5 L 106.5,326.5 L 104,323 L 99.5,323 L 97,319.5 L 92.5,319.5 L 83.5,309.5 L 75.5,309 L 72.5,312.5 L 68,312.5 L 66.5,314 Z M 398.5,230 L 395.5,233.5 L 394,234 L 394,238 L 390.5,241 L 390,242.5 L 390.5,245.5 L 387,248 L 387,252.5 L 383.5,255 L 383.5,259.5 L 380,262 L 380,266.5 L 376.5,269 L 376.5,273.5 L 369.5,279.5 L 369.5,284 L 366.5,285.5 L 366,291 L 363,292.5 L 363,297 L 362,298.5 L 359.5,299.5 L 359.5,304 L 358.5,305.5 L 356,306.5 L 356,311 L 352.5,313.5 L 352.5,318 L 349,320.5 L 349,325 L 346,326.5 L 345.5,329.5 L 351.5,334 L 353.5,337 L 451.5,337 L 454.5,333.5 L 455.5,333.5 L 456.5,331 L 456,320.5 L 449.5,315 L 449.5,311 L 445.5,307 L 446,300.5 L 442.5,297.5 L 442.5,293.5 L 439,290.5 L 438.5,285.5 L 432.5,281 L 432,275.5 L 429.5,274.5 L 428.5,273 L 428.5,265.5 L 425.5,263.5 L 425,258.5 L 422,256.5 L 422,252.5 L 418.5,249.5 L 418.5,245.5 L 415,242.5 L 414.5,237.5 L 413,237 L 406.5,230 Z M 401,314 L 403.5,313.5 L 407.5,317.5 L 407.5,318.5 L 406.5,319.5 L 402.5,319.5 L 400.5,316.5 Z M 402,265 L 403.5,265 L 404.5,266.5 L 404.5,297.5 L 403.5,298.5 L 401.5,298.5 L 400.5,297 L 400.5,266.5 Z" fill="#d41217" fill-rule="evenodd"/>
  <path d="M 60,114 L 60.5,395.5 L 67.5,399 L 72.5,395.5 L 103,395.5 L 105.5,399 L 110,395.5 L 409.5,395.5 L 414,399 L 421.5,395 L 417,388.5 L 72,388.5 L 67,376.5 L 70.5,367 L 67,259.5 L 70.5,257 L 71.5,237.5 L 89.5,237.5 L 124,258 L 132.5,250 L 132.5,242 L 156.5,219 L 157,214 L 188.5,182.5 L 199,179 L 227,189 L 240,203 L 244,199.5 L 265,203 L 274.5,213 L 286.5,213 L 295.5,206.5 L 323.5,210 L 332,202.5 L 329,196.5 L 340.5,185.5 L 345,185.5 L 381,148 L 384,154.5 L 394,154 L 404.5,133 L 404.5,124.5 L 388.5,123 L 385.5,126.5 L 374.5,126.5 L 369.5,136 L 376.5,143 L 361.5,157.5 L 356.5,158 L 323.5,192 L 312.5,192 L 306.5,199 L 271.5,199 L 262,192 L 254.5,192 L 248,181.5 L 233,185 L 223.5,178 L 206.5,175 L 204.5,168.5 L 192,161 L 184,169 L 184,176.5 L 132.5,227 L 127,237 L 110,240.5 L 100.5,233.5 L 92.5,233.5 L 82.5,219.5 L 67,221.5 L 70.5,117.5 L 66,113 Z" fill="#0b1fb3" fill-rule="evenodd"/>
</svg>
