<svg xmlns="http://www.w3.org/2000/svg" viewBox="0 0 512 512" width="512" height="512" role="img" aria-label="data_warehouse">
  <title>data_warehouse</title>
  <desc>Склад/колонны + блоки данных</desc>
  <path d="M 382,418.5 L 382,421.5 L 383,422.5 L 415,422.5 L 416,421.5 L 416,418.5 L 414,417 L 384.5,417 Z M 247.5,418.5 L 247.5,421 L 248.5,422.5 L 272,422.5 L 273.5,421 L 273,418 L 271,417 L 250,417 Z M 146.5,419 L 146.5,421 L 148,422.5 L 234.5,422.5 L 235.5,421.5 L 235.5,418.5 L 233,417 L 153,417 L 148.5,417.5 Z M 293,399.5 L 294,409.5 L 296.5,410 L 300,414 L 356,414 L 359.5,413.5 L 362,411 L 362,407 L 360.5,405 L 358,405 L 355,409 L 300.5,409 L 298.5,406.5 L 299,398.5 L 297.5,397 L 295,397 Z M 302,393 L 302,396.5 L 303,397.5 L 306.5,397 L 308.5,393.5 L 347,393.5 L 348,394.5 L 348,400 L 349.5,401.5 L 352,401.5 L 353.5,399.5 L 353,393 L 350,392 L 347.5,388 L 308,388 L 305,392 Z M 281,393.5 L 280.5,415 L 281,417 L 284,418.5 L 287,422.5 L 369,422.5 L 370,421 L 370,418.5 L 367.5,417 L 287,417 L 286,415.5 L 286,395 L 287,393.5 L 297,393 L 299,390.5 L 297.5,388 L 287,388 L 283.5,392.5 Z M 167.5,398 L 169,401.5 L 172.5,401 L 173,394.5 L 174,393.5 L 212.5,393.5 L 215,397 L 218,397 L 219,396 L 219,390.5 L 216.5,388 L 174.5,387.5 L 173,388 L 172,390.5 L 168,393.5 Z M 146.5,390 L 146,411 L 147.5,413.5 L 150.5,413.5 L 152,411.5 L 151.5,396 L 153,393.5 L 158.5,394 L 159,408.5 L 160.5,410 L 162,410 L 166,414 L 220.5,414 L 224.5,410 L 226,410 L 227.5,408.5 L 227.5,398 L 226,396.5 L 223.5,396.5 L 222,398 L 222,407.5 L 220.5,409 L 166,409 L 164.5,407.5 L 164.5,390 L 163.5,388.5 L 157.5,387.5 L 148.5,388 Z M 244.5,384 L 243,385.5 L 243,404 L 244.5,405.5 L 247,405.5 L 248.5,404 L 248.5,385.5 L 247,384 Z M 155,377 L 155.5,380 L 157.5,381 L 187,381 L 189.5,379 L 189,376 L 187,375 L 157.5,375 Z M 270,358.5 L 268,361 L 268,386.5 L 269,388.5 L 271.5,389 L 274,386 L 274,361 L 273,359 Z M 171.5,347.5 L 172,350.5 L 175,351.5 L 178,355.5 L 209,355.5 L 210.5,354 L 210.5,352 L 208.5,350 L 178.5,350 L 175.5,346 L 172.5,346 Z M 429,342 L 427.5,345 L 428,420.5 L 430,422.5 L 444,423 L 444.5,429 L 445.5,430.5 L 447.5,431 L 450,429.5 L 450.5,425.5 L 449.5,422.5 L 447,421.5 L 444.5,417.5 L 436,417.5 L 433,415.5 L 433.5,344.5 L 432,342 Z M 310,333.5 L 283,333.5 L 281,335 L 280.5,378 L 281.5,380 L 284.5,380.5 L 286.5,378 L 286,340.5 L 288.5,338.5 L 308.5,339 L 311,337.5 L 311,334.5 Z M 344,350 L 345,351 L 348,351 L 349,350 L 349,340.5 L 350.5,339 L 367.5,339 L 370,337.5 L 370,334.5 L 368,333 L 345.5,333.5 L 344,335.5 Z M 180,339 L 180,341.5 L 181.5,343 L 184,343 L 186.5,339 L 200,339 L 202.5,343 L 205,343 L 206.5,341.5 L 206,338 L 203.5,337.5 L 199.5,333 L 187,333 L 183,337.5 L 181.5,337.5 Z M 171.5,333.5 L 152,333 L 148,333.5 L 147,334.5 L 146,369 L 147.5,372 L 150.5,372 L 152,370 L 152,340 L 154,338.5 L 170,339 L 172.5,337.5 L 172.5,334.5 Z M 138,329.5 L 135,329.5 L 133.5,332.5 L 134,415.5 L 133,417 L 103,417 L 100.5,418.5 L 100.5,421 L 101.5,422.5 L 137,422.5 L 139,421 L 139.5,332 Z M 319,322 L 319,325 L 320,326 L 376,326 L 378,329.5 L 381.5,331.5 L 382,337.5 L 385.5,338.5 L 387,337 L 387.5,333 L 386.5,330 L 384.5,329.5 L 382.5,326 L 380,325 L 376,320.5 L 321,320.5 Z M 276.5,320.5 L 273.5,321 L 272.5,323.5 L 269,325.5 L 268,327.5 L 268,348.5 L 269.5,351 L 272.5,351 L 274,348.5 L 273.5,328 L 275,326 L 276.5,326 L 278,324.5 L 278,322.5 Z M 142.5,322 L 143,325.5 L 148.5,326.5 L 200,326.5 L 209,326 L 210.5,324.5 L 210,321.5 L 208,320.5 L 144.5,320.5 Z M 226.5,309.5 L 226.5,312 L 228,313.5 L 297,313.5 L 298.5,312.5 L 298.5,309.5 L 296.5,308 L 228.5,308 Z M 207.5,275 L 205,277 L 205,294 L 206,296 L 209,296.5 L 211,293.5 L 211,277.5 L 210,275.5 Z M 243,267.5 L 243.5,271 L 246,271.5 L 250,276 L 267,276 L 269,274.5 L 269,271.5 L 268,270.5 L 250,270.5 L 246.5,266 Z M 207,249.5 L 205,252 L 205,269 L 206,270.5 L 209,271 L 211,268.5 L 211,252.5 L 210,250 Z M 429.5,216 L 427.5,219 L 427.5,281 L 428.5,283.5 L 431.5,284 L 433.5,281.5 L 433.5,218.5 L 432.5,216.5 Z M 100.5,209 L 100.5,211.5 L 103,213 L 414,213 L 416,211.5 L 415,207.5 L 102,207.5 Z M 155.5,145.5 L 154.5,144.5 L 148.5,144.5 L 145.5,148.5 L 140,148.5 L 137,152.5 L 134,154 L 134,157 L 136.5,158.5 L 138,158 L 140.5,154 L 146,154 L 148.5,150 L 155,149.5 L 156,147.5 Z" fill="#8fb7df" fill-rule="evenodd"/>
  <path d="M 84,196 L 83.5,206 L 88,210 L 88,420 L 72,422 L 72.5,435 L 444,435 L 445.5,433.5 L 444.5,422 L 430,421.5 L 428.5,419.5 L 428.5,210.5 L 430,208.5 L 436,208.5 L 437,204.5 L 427,195 Z M 303,394 L 308.5,389 L 347,389 L 352.5,395 L 352.5,398.5 L 351,400.5 L 308.5,400.5 L 303,395.5 Z M 281.5,395.5 L 287.5,389 L 296.5,389 L 298,390.5 L 297.5,406 L 298,408.5 L 300,410 L 355,410 L 358,406.5 L 361,405.5 L 362,403 L 360.5,400.5 L 357.5,399 L 358,394 L 360,393 L 363,389 L 368,389 L 369.5,391 L 369.5,419.5 L 368,421.5 L 287.5,421.5 L 285.5,418.5 L 281.5,415.5 Z M 168.5,399 L 169,394 L 171,393 L 174,389 L 216.5,389 L 218,390.5 L 217.5,395.5 L 215.5,396.5 L 212.5,400.5 L 170,400.5 Z M 147,391.5 L 148.5,389 L 162.5,389 L 163.5,390.5 L 163.5,408 L 165.5,410 L 221,410 L 223,408 L 223.5,390 L 224.5,389 L 229.5,389 L 231.5,392.5 L 235,394.5 L 235,420 L 233.5,421.5 L 148.5,421.5 L 147,419.5 Z M 319.5,336 L 321,334.5 L 334.5,334.5 L 336,336.5 L 335.5,345 L 334.5,346 L 321,346 L 319.5,344.5 Z M 281.5,336.5 L 283,334.5 L 309.5,334.5 L 311,337.5 L 310.5,353.5 L 311.5,355 L 342.5,355.5 L 345,353 L 344.5,336.5 L 346,334.5 L 368,334.5 L 369.5,336 L 369,373.5 L 370,378 L 368.5,379.5 L 367,379.5 L 364,375.5 L 362,375.5 L 359.5,379.5 L 296,379.5 L 293,375.5 L 291,375.5 L 288,379.5 L 283,379.5 L 281.5,377 Z M 181,339.5 L 186.5,334.5 L 200,334.5 L 205,339 L 205,341.5 L 204,342.5 L 198.5,341.5 L 188,341.5 L 182.5,342.5 L 181,341 Z M 147,336.5 L 148.5,334.5 L 170.5,334.5 L 172,336 L 172,345.5 L 178,351 L 209,351 L 210.5,349 L 210.5,335.5 L 211.5,334.5 L 233.5,334.5 L 235,336 L 235,378 L 233.5,379.5 L 203.5,379.5 L 200,375.5 L 190.5,375.5 L 187.5,379.5 L 148.5,379.5 L 147,377.5 Z M 220.5,309 L 296,309 L 298,311 L 298,319 L 296.5,321 L 278.5,321 L 272.5,327.5 L 273,348.5 L 268.5,352 L 268,354.5 L 269,358.5 L 271.5,359.5 L 273,361.5 L 273,386 L 271.5,388 L 269,389 L 268,392.5 L 269,396.5 L 271,397 L 273,399.5 L 273,407 L 268.5,410.5 L 268.5,413 L 273,416 L 273,419.5 L 271.5,421.5 L 249.5,421.5 L 248,419.5 L 248.5,407.5 L 247.5,405.5 L 244,403.5 L 243.5,401 L 244,386 L 247,384.5 L 248.5,382 L 248.5,332 L 248,330.5 L 245,329 L 238,321 L 228.5,321 L 225.5,325 L 224,325 L 218.5,319 L 218.5,311 Z M 252,257 L 254,254.5 L 266.5,254.5 L 268.5,256.5 L 268.5,260 L 267,262 L 254,262 L 252,260 Z M 223,256 L 224.5,254.5 L 241.5,254.5 L 243.5,256.5 L 243.5,266 L 246.5,267.5 L 249,271 L 271,271.5 L 273.5,269.5 L 273.5,256.5 L 275,254.5 L 296.5,254.5 L 298,256 L 298,294 L 296.5,295.5 L 246,295.5 L 242,300 L 241,300 L 237,295.5 L 220,296 L 219,295 L 219,293 L 222,291.5 L 223.5,288.5 Z M 101.5,209.5 L 414,208.5 L 415.5,420 L 382.5,420 L 382.5,395 L 387,390.5 L 386.5,385 L 382.5,382 L 382.5,365.5 L 387,361.5 L 387,340 L 382.5,336 L 381.5,329.5 L 376,325 L 321,325 L 318.5,321 L 313.5,325 L 311,324 L 310.5,320.5 L 315.5,315 L 315,309.5 L 307,303 L 311.5,298 L 311.5,252.5 L 301.5,241.5 L 216.5,241 L 209.5,247.5 L 210,268.5 L 205.5,272 L 210,277.5 L 210,302 L 205.5,305.5 L 210,311 L 209.5,324 L 139.5,325.5 L 138.5,420 L 102.5,421.5 Z M 58.5,183.5 L 59,187 L 64,191.5 L 66.5,191.5 L 69,187.5 L 78,187.5 L 82,183 L 87,183 L 94,175 L 99,175 L 103,170.5 L 108,170.5 L 111,166.5 L 116,166.5 L 119,162.5 L 125,162 L 128,158 L 133,158 L 140.5,149.5 L 146,149.5 L 149,145.5 L 162,145.5 L 164,144 L 165.5,137 L 171,137 L 174,133 L 179.5,132.5 L 182.5,128.5 L 188,128.5 L 191,124.5 L 196,124.5 L 199.5,120 L 205,120 L 207.5,116 L 213,116 L 216,112 L 221,112 L 224.5,107.5 L 230,107.5 L 233,103.5 L 238,103.5 L 241.5,99 L 247,99 L 249,95.5 L 255,95 L 258,91 L 263,91 L 270,99 L 275,99 L 278,103 L 284,103.5 L 287,107.5 L 292,107.5 L 295,111.5 L 301,112 L 303,115.5 L 309,116 L 312,120 L 317,120 L 320,124 L 326,124.5 L 329,128.5 L 334,128.5 L 341.5,137 L 347,137 L 349.5,141 L 355,141 L 358.5,145.5 L 363.5,145.5 L 366.5,149.5 L 372,149.5 L 375,153.5 L 380.5,154 L 383.5,158 L 389,158 L 391.5,162 L 397,162 L 400.5,166.5 L 405.5,166.5 L 408.5,170.5 L 414,170.5 L 417,174.5 L 422.5,175 L 429.5,183 L 439,183 L 442.5,187.5 L 447.5,187.5 L 450.5,191.5 L 453,191.5 L 454.5,189 L 454,180 L 448,174 L 443,174 L 440,170 L 435,170 L 432,166 L 426,165.5 L 423,161.5 L 418,161.5 L 415,157.5 L 409,157 L 406,153 L 401,153 L 398,149 L 393,149 L 390,145 L 384,144.5 L 381,140.5 L 376,140.5 L 373,136.5 L 367,136 L 364,132 L 359,132 L 352,124 L 346,123.5 L 344,120 L 338,119.5 L 335,115.5 L 329,115 L 327,111.5 L 321,111 L 318,107 L 313,107 L 310,103 L 304,102.5 L 301,98.5 L 296,98.5 L 288.5,90 L 283.5,90 L 280.5,86 L 275,86 L 267.5,77.5 L 253.5,77.5 L 250.5,81.5 L 245.5,81.5 L 241.5,86 L 236.5,86 L 233.5,90 L 228.5,90 L 225.5,94 L 219.5,94.5 L 212.5,102.5 L 207.5,102.5 L 204.5,106.5 L 198.5,107 L 195.5,111 L 190.5,111 L 187.5,115 L 181.5,115.5 L 179.5,119 L 173.5,119.5 L 170.5,123.5 L 165.5,123.5 L 162.5,127.5 L 156.5,128 L 153.5,132 L 148.5,132 L 145.5,136 L 139.5,136.5 L 132.5,144.5 L 127.5,144.5 L 124,149 L 118.5,149 L 116,153 L 110.5,153 L 107.5,157 L 102,157.5 L 99,161.5 L 93.5,161.5 L 90.5,165.5 L 85.5,165.5 L 82,170 L 76.5,170 L 74,174 L 68.5,174 Z" fill="#0b1fb3" fill-rule="evenodd"/>
</svg>
