<?xml version="1.0" encoding="UTF-8"?>
<svg xmlns="http://www.w3.org/2000/svg" width="512" height="512" viewBox="0 0 512 512" role="img" aria-label="streaming data">
  <title>streaming data</title>
  <path d="M 149.0 332.0 L 149.0 337.0 L 154.0 340.0 L 186.0 341.0 L 194.0 336.0 L 193.0 332.0 L 189.0 328.0 L 155.0 328.0 Z M 343.0 340.0 L 343.0 336.0 L 339.0 331.0 L 338.0 327.0 L 334.0 323.0 L 325.0 318.0 L 310.0 318.0 L 300.0 324.0 L 293.0 334.0 L 264.0 333.0 L 251.0 330.0 L 217.0 329.0 L 211.0 335.0 L 212.0 338.0 L 216.0 341.0 L 255.0 342.0 L 261.0 344.0 L 292.0 344.0 L 299.0 356.0 L 306.0 361.0 L 310.0 362.0 L 325.0 362.0 L 333.0 358.0 L 338.0 353.0 L 340.0 348.0 L 339.0 345.0 L 335.0 343.0 L 337.0 341.0 Z M 309.0 346.0 L 309.0 338.0 L 314.0 331.0 L 323.0 332.0 L 328.0 338.0 L 335.0 342.0 L 333.0 344.0 L 329.0 344.0 L 323.0 348.0 L 318.0 349.0 Z M 116.0 277.0 L 116.0 281.0 L 122.0 285.0 L 153.0 285.0 L 159.0 281.0 L 159.0 276.0 L 154.0 273.0 L 122.0 273.0 Z M 410.0 268.0 L 407.0 263.0 L 396.0 256.0 L 386.0 254.0 L 373.0 259.0 L 367.0 265.0 L 363.0 272.0 L 258.0 271.0 L 247.0 273.0 L 239.0 277.0 L 230.0 276.0 L 223.0 272.0 L 191.0 272.0 L 182.0 273.0 L 179.0 276.0 L 179.0 281.0 L 184.0 284.0 L 226.0 284.0 L 231.0 280.0 L 242.0 280.0 L 252.0 284.0 L 362.0 282.0 L 366.0 286.0 L 367.0 290.0 L 374.0 296.0 L 382.0 299.0 L 392.0 299.0 L 400.0 296.0 L 408.0 289.0 L 410.0 285.0 L 409.0 281.0 L 398.0 280.0 L 390.0 286.0 L 384.0 286.0 L 378.0 281.0 L 377.0 274.0 L 386.0 267.0 L 390.0 267.0 L 399.0 275.0 L 406.0 275.0 L 410.0 272.0 Z M 148.0 227.0 L 153.0 230.0 L 188.0 229.0 L 192.0 226.0 L 193.0 222.0 L 189.0 218.0 L 154.0 219.0 L 148.0 222.0 Z M 376.0 205.0 L 370.0 197.0 L 357.0 191.0 L 351.0 191.0 L 338.0 197.0 L 333.0 202.0 L 328.0 212.0 L 306.0 211.0 L 295.0 214.0 L 219.0 216.0 L 213.0 220.0 L 213.0 225.0 L 217.0 228.0 L 241.0 228.0 L 257.0 225.0 L 301.0 225.0 L 329.0 221.0 L 338.0 232.0 L 344.0 235.0 L 357.0 236.0 L 367.0 232.0 L 373.0 226.0 L 376.0 219.0 L 373.0 210.0 Z M 357.0 205.0 L 365.0 213.0 L 365.0 215.0 L 358.0 222.0 L 348.0 222.0 L 347.0 219.0 L 353.0 215.0 L 350.0 208.0 Z" fill="#0b1fb3" fill-rule="evenodd"/>
</svg>
