<?xml version="1.0" encoding="UTF-8"?>
<svg xmlns="http://www.w3.org/2000/svg" width="512" height="512" viewBox="0 0 512 512" role="img" aria-label="embedding vector">
  <title>embedding vector</title>
  <path d="M 316.0 259.0 L 310.0 262.0 L 305.0 267.0 L 303.0 279.0 L 305.0 285.0 L 309.0 289.0 L 315.0 292.0 L 324.0 292.0 L 333.0 285.0 L 336.0 279.0 L 336.0 272.0 L 329.0 262.0 L 323.0 259.0 Z M 251.0 259.0 L 241.0 266.0 L 238.0 273.0 L 238.0 279.0 L 240.0 284.0 L 245.0 289.0 L 255.0 292.0 L 264.0 288.0 L 269.0 280.0 L 270.0 274.0 L 268.0 267.0 L 263.0 262.0 L 257.0 259.0 Z M 185.0 259.0 L 175.0 266.0 L 172.0 273.0 L 172.0 280.0 L 179.0 290.0 L 186.0 293.0 L 190.0 293.0 L 200.0 287.0 L 204.0 279.0 L 204.0 272.0 L 199.0 263.0 L 191.0 259.0 Z M 392.0 175.0 L 354.0 178.0 L 348.0 183.0 L 348.0 187.0 L 353.0 191.0 L 383.0 191.0 L 385.0 193.0 L 383.0 365.0 L 380.0 368.0 L 369.0 367.0 L 364.0 369.0 L 348.0 370.0 L 345.0 373.0 L 344.0 378.0 L 351.0 383.0 L 393.0 382.0 L 399.0 374.0 L 398.0 367.0 L 400.0 349.0 L 400.0 329.0 L 398.0 302.0 L 400.0 279.0 L 400.0 182.0 L 395.0 176.0 Z M 160.0 174.0 L 136.0 177.0 L 119.0 177.0 L 112.0 183.0 L 111.0 186.0 L 112.0 196.0 L 109.0 362.0 L 111.0 377.0 L 117.0 382.0 L 159.0 383.0 L 166.0 378.0 L 166.0 371.0 L 160.0 367.0 L 127.0 367.0 L 125.0 365.0 L 125.0 192.0 L 138.0 190.0 L 155.0 190.0 L 164.0 188.0 L 167.0 185.0 L 168.0 180.0 L 166.0 177.0 Z" fill="#0b1fb3" fill-rule="evenodd"/>
</svg>
