<?xml version="1.0" encoding="UTF-8"?>
<svg xmlns="http://www.w3.org/2000/svg" width="512" height="512" viewBox="0 0 512 512" role="img" aria-label="aggregation puzzle">
  <title>aggregation puzzle</title>
  <path d="M 226.0 140.0 L 215.0 146.0 L 200.0 161.0 L 195.0 176.0 L 193.0 178.0 L 193.0 200.0 L 199.0 213.0 L 205.0 220.0 L 203.0 222.0 L 125.0 222.0 L 115.0 225.0 L 104.0 235.0 L 101.0 245.0 L 101.0 265.0 L 99.0 280.0 L 100.0 315.0 L 102.0 318.0 L 102.0 323.0 L 100.0 327.0 L 98.0 340.0 L 103.0 358.0 L 107.0 364.0 L 116.0 372.0 L 131.0 378.0 L 142.0 378.0 L 156.0 372.0 L 158.0 374.0 L 157.0 428.0 L 159.0 439.0 L 165.0 443.0 L 352.0 443.0 L 356.0 441.0 L 361.0 434.0 L 362.0 368.0 L 365.0 367.0 L 369.0 371.0 L 377.0 375.0 L 390.0 379.0 L 403.0 379.0 L 413.0 376.0 L 424.0 368.0 L 433.0 355.0 L 437.0 346.0 L 439.0 335.0 L 438.0 317.0 L 434.0 304.0 L 423.0 289.0 L 415.0 283.0 L 406.0 280.0 L 392.0 280.0 L 388.0 282.0 L 379.0 283.0 L 364.0 293.0 L 362.0 291.0 L 362.0 229.0 L 354.0 223.0 L 285.0 223.0 L 284.0 221.0 L 293.0 210.0 L 298.0 199.0 L 299.0 180.0 L 294.0 164.0 L 287.0 155.0 L 279.0 148.0 L 262.0 139.0 L 252.0 137.0 L 240.0 137.0 Z M 135.0 306.0 L 147.0 307.0 L 154.0 311.0 L 159.0 316.0 L 164.0 329.0 L 164.0 337.0 L 160.0 351.0 L 152.0 359.0 L 143.0 363.0 L 135.0 363.0 L 123.0 358.0 L 117.0 351.0 L 113.0 336.0 L 114.0 325.0 L 118.0 317.0 L 125.0 310.0 Z M 227.0 157.0 L 237.0 153.0 L 253.0 153.0 L 266.0 158.0 L 273.0 163.0 L 280.0 171.0 L 284.0 179.0 L 284.0 195.0 L 280.0 204.0 L 264.0 223.0 L 264.0 230.0 L 269.0 235.0 L 273.0 237.0 L 282.0 238.0 L 347.0 238.0 L 349.0 240.0 L 348.0 304.0 L 349.0 307.0 L 355.0 313.0 L 362.0 313.0 L 380.0 299.0 L 393.0 294.0 L 401.0 294.0 L 409.0 297.0 L 420.0 308.0 L 423.0 318.0 L 424.0 336.0 L 420.0 349.0 L 410.0 360.0 L 400.0 364.0 L 390.0 364.0 L 374.0 357.0 L 364.0 350.0 L 357.0 350.0 L 353.0 352.0 L 349.0 357.0 L 349.0 373.0 L 347.0 379.0 L 346.0 425.0 L 344.0 427.0 L 295.0 426.0 L 263.0 429.0 L 175.0 429.0 L 172.0 426.0 L 171.0 361.0 L 172.0 357.0 L 176.0 352.0 L 179.0 341.0 L 179.0 324.0 L 175.0 312.0 L 164.0 299.0 L 148.0 291.0 L 136.0 290.0 L 123.0 294.0 L 117.0 299.0 L 114.0 297.0 L 115.0 251.0 L 117.0 242.0 L 121.0 238.0 L 207.0 237.0 L 211.0 235.0 L 220.0 235.0 L 226.0 229.0 L 226.0 222.0 L 211.0 204.0 L 207.0 191.0 L 207.0 186.0 L 210.0 175.0 L 214.0 168.0 Z" fill="#0b1fb3" fill-rule="evenodd"/>
</svg>
