<svg xmlns="http://www.w3.org/2000/svg" viewBox="0 0 512 512" width="512" height="512" role="img" aria-label="feature_engineering">
  <title>feature_engineering</title>
  <desc>Шестерёнки + колонка признаков</desc>
  <path d="M 269.5,360.5 L 269.5,363 L 271,364.5 L 445.5,364.5 L 447.5,362.5 L 446,359.5 L 270.5,359.5 Z M 273,350.5 L 275,353 L 295.5,353 L 297,351.5 L 297,349 L 296,348 L 274.5,348 Z M 384.5,325 L 382.5,325 L 381,326.5 L 381,346.5 L 377.5,349 L 377.5,352 L 378.5,353 L 380.5,353 L 382,350 L 386,347 L 386,327 Z M 332,302 L 330.5,305 L 331,347.5 L 334,349 L 336.5,353 L 372.5,353 L 373.5,352 L 373.5,349 L 372.5,348 L 337,348 L 336,347 L 336,304 L 335.5,302.5 Z M 392.5,292 L 394,295 L 442,295 L 443.5,293.5 L 443.5,291.5 L 441.5,290 L 394.5,290 Z M 273,292.5 L 274.5,295 L 322.5,295 L 324,293.5 L 324,291.5 L 322.5,290 L 275,290 Z M 67,274.5 L 65,276 L 65,278.5 L 69,281 L 68.5,292 L 69.5,294.5 L 72,295 L 74,292.5 L 74,281 L 73,279 L 71.5,279 L 70,277.5 L 69,275 Z M 105,271 L 103.5,272.5 L 103.5,293.5 L 106.5,295 L 108.5,293.5 L 108.5,272.5 L 107,271 Z M 331,245 L 330.5,288 L 331,290 L 333.5,291 L 336.5,295 L 380.5,295 L 382,292 L 385.5,290 L 386,273 L 384.5,271 L 382.5,271 L 381,272.5 L 381,289 L 380,290 L 337,290 L 335.5,288 L 336,246 L 334.5,244 Z M 392.5,234 L 393,236.5 L 395,237.5 L 441.5,237.5 L 443.5,236 L 442.5,232.5 L 393.5,232.5 Z M 273,235 L 273.5,236.5 L 275.5,237.5 L 322,237.5 L 324,236 L 324,233.5 L 323,232.5 L 274.5,232.5 Z M 162.5,213.5 L 161,216 L 161,230.5 L 161.5,232 L 165,234.5 L 166,237 L 168,237.5 L 169.5,237 L 170,233.5 L 166,230.5 L 166.5,215.5 L 165,213.5 Z M 385.5,195 L 382.5,194.5 L 380.5,197.5 L 381,231 L 379.5,232.5 L 342,232 L 339.5,233 L 339.5,236.5 L 341,237.5 L 380.5,237.5 L 385,236.5 L 386,234.5 Z M 416,187 L 416,190 L 417,191 L 442,191 L 443.5,189.5 L 443.5,187.5 L 441.5,186 L 417.5,186 Z M 385.5,187 L 384,186 L 332.5,186.5 L 331,188 L 331,236.5 L 334.5,237 L 336,232.5 L 335.5,193 L 337,191 L 383.5,191 L 385.5,189.5 Z M 313.5,159 L 312,161 L 312.5,163 L 318.5,164 L 319,166.5 L 312.5,167.5 L 311.5,169 L 312,171 L 314,172 L 318,172 L 321,168 L 323.5,167.5 L 324.5,165.5 L 324,161 L 322.5,159.5 Z M 285,160 L 285,162.5 L 288.5,165 L 287,167.5 L 285,168 L 285,171 L 286.5,172 L 303,172 L 305,169 L 309,166 L 308.5,162 L 306.5,159.5 L 302,159 L 300,163.5 L 298.5,163.5 L 295.5,159.5 L 286.5,159 Z M 300,164 L 302.5,163.5 L 304,165 L 304,166.5 L 301.5,167 Z" fill="#8fb7df" fill-rule="evenodd"/>
  <path d="M 106,205.5 L 102.5,209.5 L 97.5,209.5 L 88.5,218.5 L 88,226.5 L 89,229 L 92.5,231.5 L 92.5,234.5 L 88.5,237.5 L 88.5,242.5 L 79.5,252 L 75.5,248 L 66,248.5 L 61.5,253 L 61.5,258 L 57.5,261 L 58,271 L 63,275.5 L 67.5,275.5 L 73,281 L 72.5,293.5 L 67,294 L 57.5,303.5 L 57.5,308.5 L 61.5,312 L 61.5,317 L 64,318 L 70,325.5 L 72.5,325.5 L 75,322 L 83.5,322 L 92,330.5 L 92.5,338.5 L 88.5,341.5 L 88,346 L 97.5,356.5 L 102.5,356.5 L 106,360.5 L 114,360.5 L 124.5,349 L 126,349 L 128.5,352.5 L 141.5,353 L 146,357.5 L 146.5,363.5 L 151,368 L 153,368 L 156,364 L 164.5,364 L 167,360.5 L 172,360.5 L 175,356.5 L 177,356 L 177.5,338.5 L 179.5,337 L 184,337 L 194.5,325.5 L 198.5,325.5 L 201.5,329.5 L 211,329.5 L 212,328.5 L 212,324 L 216,320.5 L 216,315.5 L 220,312.5 L 220,303.5 L 208.5,293 L 208.5,277 L 204.5,273 L 220,259 L 220,257 L 216,254 L 216,249 L 212.5,247 L 212,241 L 210,240.5 L 207,236.5 L 197.5,236.5 L 194.5,240.5 L 191,240.5 L 174.5,224.5 L 173.5,215.5 L 177.5,213 L 177.5,210.5 L 172,205.5 L 167.5,205.5 L 163.5,201.5 L 143.5,201.5 L 142,204 L 146,207.5 L 146,209 L 143.5,210 L 137.5,217 L 136,217 L 133.5,213.5 L 124.5,213.5 L 122,217 L 120.5,217 L 111,206 Z M 105.5,218 L 110,218 L 111.5,219.5 L 112,225 L 114,225.5 L 117.5,229.5 L 125.5,229.5 L 128.5,225.5 L 133.5,229.5 L 136.5,225.5 L 145,225.5 L 150.5,220.5 L 150.5,215.5 L 152,214 L 164,214 L 165.5,215.5 L 165.5,232 L 174,240.5 L 179.5,241 L 181,242.5 L 181,247.5 L 186.5,252.5 L 191,252.5 L 194.5,248.5 L 202.5,248.5 L 204,250 L 204,255 L 207.5,257 L 207.5,259 L 204.5,260.5 L 202.5,263.5 L 197.5,263.5 L 196,265.5 L 196.5,288.5 L 192.5,291 L 192.5,294 L 196.5,297 L 196.5,301.5 L 197.5,302.5 L 202.5,302.5 L 207.5,307.5 L 207.5,312.5 L 202,317.5 L 198.5,317.5 L 195.5,313.5 L 186,313.5 L 184.5,315 L 184.5,320 L 172,332.5 L 167.5,332.5 L 165.5,334 L 165.5,350.5 L 164,352 L 159.5,352 L 156.5,356 L 150.5,350.5 L 150.5,345.5 L 146,341 L 129,340.5 L 125.5,336.5 L 121,336.5 L 110,348 L 105.5,348 L 100,341.5 L 100.5,338.5 L 104.5,335.5 L 104,326 L 87.5,309.5 L 85,310 L 83,313.5 L 75,313.5 L 73.5,312 L 73.5,304 L 75,302.5 L 80,302.5 L 85,297.5 L 85,276.5 L 79.5,271 L 75,271 L 69.5,265.5 L 69.5,262 L 73.5,260 L 87.5,260 L 101.5,245 L 104,244 L 104.5,230.5 L 100.5,227 L 100,224.5 Z M 132.5,248 L 129,252 L 124.5,252 L 122,255.5 L 116,256 L 115,262.5 L 113,263.5 L 110.5,267 L 108,268 L 107.5,297 L 111.5,300 L 111.5,305 L 114,306.5 L 120.5,314 L 125.5,314 L 128.5,318 L 149,318 L 152,314 L 157,314 L 159.5,310.5 L 165,310 L 166,308 L 169.5,305.5 L 170,300 L 172.5,298.5 L 174,296 L 174,270 L 173.5,268.5 L 171,267 L 169.5,264.5 L 167.5,263.5 L 157,252 L 152.5,252 L 149,248 Z M 133,260 L 149,260.5 L 150.5,263 L 152.5,264 L 154.5,267 L 161.5,273 L 161.5,278 L 165.5,280.5 L 165.5,281.5 L 161.5,284.5 L 161.5,293 L 158,295 L 157.5,301 L 156,302 L 151.5,302 L 149,305.5 L 132.5,305.5 L 130,302 L 125,302 L 123.5,299.5 L 120,297 L 119.5,291.5 L 115.5,288 L 115.5,282 L 117,279.5 L 119.5,278.5 L 120,273 L 122.5,271.5 L 123.5,269.5 L 126.5,267.5 Z M 270,144.5 L 269,151 L 261.5,157.5 L 262,355.5 L 267.5,360.5 L 450,360 L 451.5,353.5 L 455,351 L 455,161 L 451.5,158.5 L 451,153 L 446,148 L 440.5,147.5 L 438,144 Z M 393.5,303.5 L 394.5,302.5 L 441.5,302.5 L 443,304.5 L 443,346.5 L 441.5,348 L 398.5,348 L 397,350.5 L 394.5,352 L 393,350.5 Z M 333,302.5 L 383.5,302.5 L 385,304 L 385.5,345.5 L 385,347 L 382,349 L 380.5,352 L 379,352 L 376,348 L 374,348.5 L 372,352 L 337,352 L 335,349 L 331.5,346.5 L 331.5,304 Z M 275.5,302.5 L 322,302.5 L 323.5,304 L 323.5,350.5 L 322,352 L 314,352 L 311,348 L 309.5,348 L 306.5,352 L 305.5,352 L 302.5,348 L 297.5,348.5 L 295,352 L 275.5,352 L 274,350.5 L 273.5,305 Z M 395,244.5 L 441,244.5 L 442.5,245.5 L 443,292.5 L 441.5,294 L 394.5,294 L 393.5,293 L 393,247 Z M 332,245.5 L 333.5,244.5 L 384,245 L 385.5,247.5 L 385,289 L 382.5,290.5 L 380,294 L 336.5,294 L 335.5,292 L 331.5,288.5 Z M 275,245 L 321.5,244.5 L 323,245.5 L 323.5,292.5 L 322.5,294 L 275,294 L 274,293 L 273.5,247.5 Z M 394.5,187 L 441.5,187 L 442.5,188 L 443,234.5 L 441.5,236.5 L 395,236.5 L 393.5,235.5 L 393,189 Z M 331.5,188.5 L 333,187 L 383.5,187 L 385.5,189.5 L 385,235 L 383.5,236.5 L 341,236.5 L 338.5,232.5 L 336.5,232.5 L 335,235 L 332.5,236.5 L 331,234.5 L 332,230.5 Z M 273.5,188 L 276,187 L 278,190.5 L 280.5,191 L 283,187 L 322,187 L 323.5,188.5 L 323.5,235 L 322,236.5 L 275.5,236.5 L 273.5,234 Z M 273.5,172.5 L 274.5,171.5 L 276.5,171.5 L 277.5,174 L 276.5,175 L 274.5,175 Z M 314,160 L 321.5,160 L 323.5,161.5 L 323.5,165.5 L 321,167 L 318,171 L 314,171 L 312.5,169.5 L 312.5,161.5 Z M 285.5,169.5 L 285.5,161.5 L 287,160 L 295,160 L 297.5,164 L 300.5,163.5 L 302.5,160 L 306,160 L 308,162.5 L 307.5,166 L 305,167.5 L 302.5,171 L 287,171 Z" fill="#0b1fb3" fill-rule="evenodd"/>
</svg>
