<?xml version="1.0" encoding="UTF-8"?>
<svg xmlns="http://www.w3.org/2000/svg" width="512" height="512" viewBox="0 0 512 512" role="img" aria-label="semantic graph">
  <title>semantic graph</title>
  <path d="M 323.0 357.0 L 314.0 348.0 L 296.0 340.0 L 285.0 332.0 L 286.0 315.0 L 283.0 309.0 L 285.0 305.0 L 283.0 300.0 L 279.0 300.0 L 271.0 293.0 L 263.0 290.0 L 247.0 290.0 L 236.0 296.0 L 227.0 307.0 L 223.0 320.0 L 223.0 328.0 L 226.0 337.0 L 183.0 371.0 L 173.0 365.0 L 159.0 365.0 L 147.0 371.0 L 136.0 385.0 L 135.0 392.0 L 133.0 395.0 L 135.0 408.0 L 137.0 413.0 L 143.0 420.0 L 155.0 427.0 L 170.0 428.0 L 184.0 422.0 L 193.0 411.0 L 197.0 397.0 L 196.0 389.0 L 193.0 385.0 L 194.0 380.0 L 234.0 347.0 L 239.0 351.0 L 254.0 355.0 L 263.0 354.0 L 272.0 350.0 L 280.0 344.0 L 302.0 358.0 L 317.0 364.0 L 322.0 362.0 Z M 162.0 382.0 L 168.0 382.0 L 173.0 385.0 L 179.0 395.0 L 177.0 404.0 L 172.0 409.0 L 166.0 412.0 L 159.0 410.0 L 151.0 402.0 L 152.0 391.0 Z M 253.0 307.0 L 261.0 309.0 L 267.0 315.0 L 269.0 320.0 L 266.0 331.0 L 259.0 337.0 L 250.0 337.0 L 241.0 328.0 L 242.0 316.0 L 247.0 310.0 Z M 106.0 238.0 L 102.0 252.0 L 105.0 265.0 L 109.0 273.0 L 121.0 282.0 L 129.0 284.0 L 140.0 284.0 L 151.0 279.0 L 158.0 272.0 L 160.0 272.0 L 184.0 288.0 L 196.0 292.0 L 210.0 303.0 L 220.0 308.0 L 222.0 308.0 L 225.0 305.0 L 225.0 300.0 L 212.0 290.0 L 201.0 286.0 L 196.0 280.0 L 164.0 261.0 L 166.0 255.0 L 166.0 247.0 L 163.0 241.0 L 166.0 235.0 L 162.0 232.0 L 157.0 232.0 L 149.0 225.0 L 140.0 221.0 L 130.0 220.0 L 117.0 225.0 Z M 133.0 239.0 L 140.0 241.0 L 146.0 247.0 L 147.0 250.0 L 145.0 258.0 L 137.0 266.0 L 128.0 265.0 L 124.0 262.0 L 120.0 253.0 L 121.0 248.0 L 124.0 244.0 Z M 348.0 205.0 L 337.0 208.0 L 324.0 220.0 L 319.0 233.0 L 319.0 244.0 L 323.0 254.0 L 309.0 269.0 L 295.0 281.0 L 288.0 291.0 L 287.0 297.0 L 290.0 300.0 L 295.0 299.0 L 333.0 265.0 L 346.0 271.0 L 346.0 289.0 L 349.0 298.0 L 348.0 303.0 L 350.0 311.0 L 350.0 326.0 L 352.0 332.0 L 353.0 347.0 L 351.0 350.0 L 342.0 354.0 L 332.0 364.0 L 329.0 376.0 L 329.0 389.0 L 336.0 403.0 L 343.0 409.0 L 356.0 414.0 L 365.0 414.0 L 379.0 409.0 L 389.0 399.0 L 395.0 385.0 L 395.0 377.0 L 389.0 362.0 L 379.0 352.0 L 367.0 349.0 L 364.0 345.0 L 365.0 342.0 L 363.0 331.0 L 364.0 328.0 L 361.0 300.0 L 361.0 280.0 L 359.0 269.0 L 361.0 266.0 L 370.0 262.0 L 377.0 254.0 L 381.0 245.0 L 381.0 230.0 L 376.0 218.0 L 367.0 210.0 L 354.0 205.0 Z M 357.0 366.0 L 366.0 366.0 L 370.0 368.0 L 377.0 378.0 L 377.0 384.0 L 374.0 390.0 L 369.0 395.0 L 364.0 397.0 L 354.0 396.0 L 348.0 390.0 L 346.0 384.0 L 346.0 377.0 L 350.0 371.0 Z M 349.0 223.0 L 356.0 224.0 L 360.0 227.0 L 364.0 233.0 L 364.0 239.0 L 361.0 245.0 L 356.0 250.0 L 347.0 251.0 L 338.0 244.0 L 337.0 234.0 L 344.0 225.0 Z M 318.0 209.0 L 314.0 204.0 L 282.0 182.0 L 285.0 166.0 L 283.0 158.0 L 278.0 148.0 L 267.0 139.0 L 253.0 136.0 L 240.0 140.0 L 228.0 152.0 L 224.0 160.0 L 225.0 182.0 L 170.0 222.0 L 169.0 229.0 L 171.0 234.0 L 180.0 230.0 L 232.0 192.0 L 246.0 200.0 L 261.0 200.0 L 272.0 193.0 L 276.0 193.0 L 309.0 216.0 L 315.0 216.0 L 318.0 213.0 Z M 249.0 156.0 L 259.0 156.0 L 264.0 161.0 L 266.0 166.0 L 264.0 175.0 L 258.0 181.0 L 255.0 182.0 L 249.0 181.0 L 241.0 172.0 L 241.0 165.0 Z" fill="#0b1fb3" fill-rule="evenodd"/>
</svg>
