<svg xmlns="http://www.w3.org/2000/svg" viewBox="0 0 512 512" width="512" height="512" role="img" aria-label="feature_importance">
  <title>feature_importance</title>
  <desc>Горизонтальные бары важности признаков</desc>
  <path d="M 141.5,374 L 142,376.5 L 143.5,377.5 L 163,377.5 L 165,375.5 L 164.5,373 L 162,371.5 L 144.5,371.5 Z M 74.5,373.5 L 74.5,376 L 76,377.5 L 100.5,377.5 L 102.5,375 L 102,373 L 99.5,371.5 L 77.5,371.5 L 75.5,372 Z M 106,226 L 106,228.5 L 107.5,230 L 302,230 L 303.5,228 L 302,224.5 L 107,224.5 Z M 204,177.5 L 204.5,180 L 206,181 L 270,181 L 272,179.5 L 272,176.5 L 270,175 L 206.5,175 Z M 374,127.5 L 374.5,131 L 376.5,132 L 430.5,132 L 433,130 L 433,128 L 431,126 L 375.5,126 Z M 307,127.5 L 307.5,131 L 309.5,132 L 359,132 L 361.5,130 L 361.5,128 L 359.5,126 L 308.5,126 Z M 74.5,127.5 L 75,131 L 77,132 L 229.5,132 L 232,129.5 L 231.5,127 L 230,126 L 76.5,126 Z M 447,95 L 445,97.5 L 445,124.5 L 446.5,127 L 449.5,127 L 451,125.5 L 451,96.5 L 449.5,95 Z M 63.5,59 L 61,61 L 61,447 L 64.5,449 L 67,446.5 L 67,61.5 Z" fill="#8fb7df" fill-rule="evenodd"/>
  <path d="M 450.5,82.5 L 77,81.5 L 75.5,61.5 L 67,59.5 L 66,446 L 62,453 L 69.5,453 L 75.5,446.5 L 77,422 L 86.5,422 L 90,426.5 L 189.5,426.5 L 196,416.5 L 191,409 L 196,402.5 L 196,378 L 185,372 L 166,372 L 162.5,376.5 L 144.5,376.5 L 141,372 L 135.5,376.5 L 127,372 L 77,376.5 L 76.5,328.5 L 261.5,328 L 267.5,322 L 265,278 L 77,278 L 77,225.5 L 86,230 L 104.5,230 L 108,225.5 L 301,225.5 L 305,230 L 345.5,230 L 352.5,223.5 L 352.5,182 L 346.5,175.5 L 341,180 L 207,180 L 203,175.5 L 134.5,175.5 L 131,180 L 86.5,180 L 81,175.5 L 76.5,180 L 77,127 L 229,127 L 233,131.5 L 306,131.5 L 309.5,127 L 359,127 L 362.5,131.5 L 373,131.5 L 376.5,127 L 430.5,127 L 434,131.5 L 444.5,131.5 L 446,98 L 451,93.5 L 446.5,88 Z" fill="#0b1fb3" fill-rule="evenodd"/>
</svg>
