<svg xmlns="http://www.w3.org/2000/svg" viewBox="0 0 512 512" width="512" height="512" role="img" aria-label="data_lineage">
  <title>data_lineage</title>
  <desc>Цепочка происхождения данных: source → transform → output</desc>
  <path d="M 67,335.5 L 66.5,364.5 L 68,366.5 L 70,366.5 L 71.5,364.5 L 71,340.5 L 73,338.5 L 104.5,339 L 105.5,340.5 L 105,364.5 L 106.5,366.5 L 109.5,366 L 110,337.5 L 108.5,334.5 L 71.5,334 L 68,334.5 Z M 92,324 L 92,328 L 111.5,328.5 L 112.5,330.5 L 115.5,332.5 L 115.5,368 L 117,370 L 119,370 L 120.5,368 L 120,332 L 118,331 L 116.5,328.5 L 111,323.5 Z M 63,275 L 61,275 L 59.5,277 L 60,281.5 L 62,282.5 L 63.5,285 L 74.5,295 L 75,296.5 L 80,297 L 81,298.5 L 81,322 L 79,324 L 65.5,323.5 L 60,328.5 L 58.5,331 L 56.5,332 L 56,361 L 57.5,363 L 59.5,363 L 61,361.5 L 61,332.5 L 63,331.5 L 65,328.5 L 84,328 L 85.5,325 L 85.5,298 L 81.5,294.5 L 80.5,292.5 L 75.5,292 L 74.5,290 L 64.5,281 L 64.5,277 Z M 305,272.5 L 305,274.5 L 307,276 L 324.5,276 L 326.5,274.5 L 326,271.5 L 324.5,271 L 307,271 Z M 126.5,272.5 L 126.5,274.5 L 128.5,276 L 191.5,276 L 193.5,274.5 L 193,271.5 L 191.5,271 L 128.5,271 Z M 273.5,262 L 273.5,264 L 275.5,265.5 L 363,265.5 L 365,264 L 365,262 L 363,260.5 L 275.5,260.5 Z M 218.5,259.5 L 218,258 L 216,257 L 213,260.5 L 142.5,260.5 L 140.5,262 L 140.5,264 L 142.5,265.5 L 212.5,265.5 L 215.5,262 L 217.5,261.5 Z M 408.5,215 L 405.5,218.5 L 403,219.5 L 402.5,221.5 L 405,223.5 L 406.5,222.5 L 407.5,220 L 409.5,220 L 410,226 L 413,226.5 L 414.5,224.5 L 414,217 L 412.5,215.5 Z M 247,187.5 L 245.5,189 L 245,192.5 L 245,238.5 L 249,242 L 250,244 L 255,244.5 L 256,246.5 L 258.5,248 L 259.5,250 L 265,255 L 267,254 L 267,251 L 264.5,250 L 263.5,248 L 256,241.5 L 255.5,240 L 250.5,239.5 L 249.5,238 L 249.5,193.5 L 253,190.5 L 253,188.5 L 251,187 Z M 455,170 L 453,170 L 452,171 L 451.5,176 L 449.5,177 L 444,183.5 L 441.5,184.5 L 441,186 L 442,188 L 444.5,188 L 446,185.5 L 456,176.5 L 456.5,172 Z M 385.5,157 L 385.5,159 L 387.5,160.5 L 401.5,160.5 L 403.5,159 L 403.5,157 L 401.5,155.5 L 387.5,155.5 Z M 266,154.5 L 266.5,156 L 269,157 L 272,160.5 L 370,160.5 L 372,159 L 372,157 L 370,155.5 L 271.5,155.5 L 268.5,152 L 267,152.5 Z" fill="#8fb7df" fill-rule="evenodd"/>
  <path d="M 455.5,149.5 L 440.5,135 L 418.5,135 L 406.5,146.5 L 402,159.5 L 272,159.5 L 263.5,143 L 251.5,135 L 233,135 L 221,143 L 214,165.5 L 218,177 L 229.5,188 L 238.5,189.5 L 238.5,242 L 229.5,243.5 L 212.5,264.5 L 114.5,264.5 L 112.5,254.5 L 94,240 L 72,243.5 L 63.5,252 L 60,274 L 64,282 L 84.5,298 L 84.5,326 L 65,327.5 L 60.5,331.5 L 57,369.5 L 65,377 L 111.5,377 L 116,373 L 116,331.5 L 111.5,327.5 L 92,326 L 92,294.5 L 101,293 L 112.5,282 L 114.5,272 L 216,272 L 218,282 L 229.5,293 L 240,296.5 L 255,293 L 266.5,282 L 268.5,272 L 363,272 L 365,282 L 376.5,293 L 387,296.5 L 402,293 L 417.5,274 L 417.5,262.5 L 403,241 L 410.5,232 L 409.5,219 L 403.5,223 L 394.5,240 L 383.5,240 L 368.5,251 L 363.5,264.5 L 268.5,264.5 L 266.5,254.5 L 246,238.5 L 246,189.5 L 255,188 L 266.5,177 L 268.5,167 L 401.5,167 L 406.5,180 L 420.5,189 L 409.5,212.5 L 416,216 L 428,189 L 440.5,188 L 452.5,176.5 L 456,169 Z M 67.5,336.5 L 69,335 L 107.5,335 L 109,336.5 L 109,364.5 L 107.5,366 L 90,366 L 87,362.5 L 82.5,362.5 L 79.5,366 L 69,366 L 67.5,364.5 Z M 384,251 L 398,251 L 406.5,259.5 L 406.5,273.5 L 403,276 L 403,280.5 L 398,285.5 L 384,285.5 L 372,273.5 L 372,266.5 L 375.5,264 L 375.5,259.5 Z M 237,251 L 251,251 L 256,256 L 256,260.5 L 259.5,263 L 259.5,273.5 L 256,276 L 256,280.5 L 254.5,282 L 250.5,282 L 247.5,285.5 L 237,285.5 L 234,282 L 230,282 L 228.5,280.5 L 228.5,276 L 225,273.5 L 225,263 L 228.5,260.5 L 228.5,256 L 230,254.5 L 234,254.5 Z M 79.5,251 L 93.5,251 L 96.5,254.5 L 100.5,254.5 L 102,256 L 102,260.5 L 105.5,263 L 105.5,273.5 L 93.5,285.5 L 79.5,285.5 L 71,277 L 71,259.5 Z M 233.5,146 L 251,146 L 259.5,154.5 L 259.5,168.5 L 247.5,180.5 L 237,180.5 L 225,168.5 L 225,158 L 228.5,155.5 L 228.5,151 Z M 429,142.5 L 430,142.5 L 432.5,146 L 436.5,146 L 445,154.5 L 445,158.5 L 448.5,161 L 448.5,162 L 445,164.5 L 445,172 L 440,177 L 436,177 L 433,180.5 L 426,180.5 L 423,177 L 419,177 L 414,172 L 414,164.5 L 410.5,162 L 410.5,161 L 414,158.5 L 414,154.5 L 422.5,146 L 426.5,146 Z" fill="#0b1fb3" fill-rule="evenodd"/>
</svg>
