<?xml version="1.0" encoding="UTF-8"?>
<svg xmlns="http://www.w3.org/2000/svg" width="512" height="512" viewBox="0 0 512 512" role="img" aria-label="knowledge graph">
  <title>knowledge graph</title>
  <path d="M 398.0 251.0 L 390.0 241.0 L 379.0 235.0 L 370.0 235.0 L 360.0 239.0 L 314.0 193.0 L 301.0 182.0 L 294.0 174.0 L 298.0 164.0 L 297.0 149.0 L 287.0 137.0 L 282.0 136.0 L 278.0 133.0 L 267.0 133.0 L 259.0 136.0 L 254.0 140.0 L 247.0 151.0 L 245.0 160.0 L 247.0 168.0 L 226.0 185.0 L 222.0 190.0 L 197.0 205.0 L 169.0 226.0 L 167.0 226.0 L 158.0 219.0 L 146.0 218.0 L 134.0 224.0 L 126.0 233.0 L 123.0 242.0 L 123.0 250.0 L 130.0 264.0 L 139.0 271.0 L 139.0 277.0 L 137.0 282.0 L 136.0 294.0 L 133.0 304.0 L 123.0 365.0 L 120.0 368.0 L 114.0 369.0 L 106.0 377.0 L 100.0 390.0 L 100.0 398.0 L 104.0 408.0 L 109.0 414.0 L 122.0 420.0 L 133.0 419.0 L 142.0 414.0 L 149.0 406.0 L 151.0 401.0 L 151.0 390.0 L 154.0 387.0 L 186.0 372.0 L 200.0 363.0 L 233.0 347.0 L 236.0 347.0 L 249.0 355.0 L 262.0 355.0 L 271.0 350.0 L 275.0 351.0 L 304.0 373.0 L 327.0 394.0 L 325.0 400.0 L 325.0 410.0 L 328.0 418.0 L 333.0 424.0 L 345.0 430.0 L 356.0 430.0 L 363.0 427.0 L 370.0 421.0 L 376.0 411.0 L 375.0 394.0 L 372.0 389.0 L 361.0 380.0 L 362.0 369.0 L 365.0 360.0 L 369.0 326.0 L 372.0 319.0 L 372.0 307.0 L 375.0 299.0 L 376.0 290.0 L 389.0 283.0 L 396.0 275.0 L 399.0 269.0 L 400.0 258.0 Z M 348.0 392.0 L 355.0 393.0 L 362.0 400.0 L 361.0 409.0 L 356.0 414.0 L 351.0 416.0 L 344.0 413.0 L 339.0 407.0 L 339.0 402.0 Z M 122.0 382.0 L 130.0 382.0 L 136.0 388.0 L 137.0 391.0 L 136.0 399.0 L 127.0 406.0 L 122.0 405.0 L 114.0 396.0 L 116.0 388.0 Z M 254.0 316.0 L 262.0 317.0 L 268.0 325.0 L 267.0 333.0 L 258.0 341.0 L 253.0 341.0 L 244.0 331.0 L 246.0 323.0 Z M 356.0 281.0 L 364.0 288.0 L 364.0 292.0 L 362.0 296.0 L 362.0 305.0 L 356.0 335.0 L 355.0 350.0 L 352.0 359.0 L 351.0 375.0 L 349.0 378.0 L 341.0 379.0 L 338.0 382.0 L 333.0 383.0 L 319.0 371.0 L 305.0 362.0 L 280.0 339.0 L 283.0 335.0 L 283.0 322.0 L 287.0 318.0 L 296.0 314.0 L 304.0 308.0 L 316.0 303.0 L 329.0 294.0 Z M 167.0 266.0 L 223.0 308.0 L 233.0 317.0 L 233.0 319.0 L 229.0 327.0 L 230.0 334.0 L 227.0 337.0 L 187.0 358.0 L 175.0 362.0 L 172.0 365.0 L 150.0 376.0 L 147.0 376.0 L 135.0 367.0 L 140.0 331.0 L 144.0 316.0 L 144.0 309.0 L 150.0 283.0 L 150.0 276.0 L 153.0 272.0 L 159.0 271.0 Z M 371.0 250.0 L 380.0 251.0 L 386.0 260.0 L 385.0 267.0 L 381.0 272.0 L 376.0 274.0 L 368.0 273.0 L 362.0 266.0 L 363.0 257.0 Z M 148.0 232.0 L 155.0 235.0 L 159.0 239.0 L 161.0 244.0 L 159.0 251.0 L 152.0 257.0 L 146.0 257.0 L 142.0 255.0 L 138.0 250.0 L 139.0 240.0 Z M 174.0 238.0 L 189.0 225.0 L 211.0 211.0 L 227.0 197.0 L 253.0 180.0 L 264.0 187.0 L 277.0 187.0 L 284.0 183.0 L 289.0 184.0 L 348.0 244.0 L 352.0 251.0 L 349.0 254.0 L 349.0 270.0 L 347.0 272.0 L 343.0 273.0 L 318.0 289.0 L 306.0 294.0 L 300.0 299.0 L 287.0 304.0 L 278.0 310.0 L 262.0 300.0 L 252.0 300.0 L 238.0 307.0 L 209.0 286.0 L 199.0 276.0 L 188.0 269.0 L 174.0 257.0 L 176.0 249.0 Z M 270.0 147.0 L 278.0 149.0 L 284.0 156.0 L 282.0 165.0 L 272.0 173.0 L 266.0 171.0 L 260.0 164.0 L 260.0 156.0 L 265.0 150.0 Z" fill="#0b1fb3" fill-rule="evenodd"/>
</svg>
