<?xml version="1.0" encoding="UTF-8"?>
<svg xmlns="http://www.w3.org/2000/svg" width="512" height="512" viewBox="0 0 512 512" role="img" aria-label="api connector">
  <title>api connector</title>
  <path d="M 256.0 251.0 L 251.0 244.0 L 245.0 242.0 L 200.0 243.0 L 198.0 241.0 L 198.0 219.0 L 190.0 211.0 L 185.0 213.0 L 123.0 212.0 L 109.0 216.0 L 92.0 226.0 L 75.0 245.0 L 67.0 264.0 L 45.0 264.0 L 37.0 268.0 L 30.0 276.0 L 30.0 289.0 L 37.0 297.0 L 44.0 300.0 L 67.0 300.0 L 71.0 310.0 L 85.0 329.0 L 99.0 340.0 L 112.0 346.0 L 120.0 348.0 L 192.0 348.0 L 199.0 341.0 L 200.0 317.0 L 247.0 317.0 L 252.0 315.0 L 256.0 310.0 L 255.0 302.0 L 247.0 297.0 L 200.0 298.0 L 198.0 284.0 L 198.0 263.0 L 200.0 261.0 L 248.0 261.0 L 254.0 257.0 Z M 44.0 283.0 L 45.0 280.0 L 48.0 278.0 L 64.0 278.0 L 66.0 281.0 L 63.0 286.0 L 50.0 287.0 Z M 100.0 237.0 L 113.0 229.0 L 127.0 225.0 L 184.0 226.0 L 186.0 306.0 L 184.0 317.0 L 185.0 331.0 L 183.0 334.0 L 166.0 333.0 L 125.0 335.0 L 106.0 328.0 L 91.0 315.0 L 82.0 299.0 L 81.0 291.0 L 78.0 284.0 L 78.0 276.0 L 85.0 255.0 L 92.0 245.0 Z M 467.0 258.0 L 457.0 250.0 L 443.0 250.0 L 429.0 253.0 L 416.0 234.0 L 403.0 221.0 L 391.0 214.0 L 379.0 210.0 L 362.0 209.0 L 306.0 213.0 L 299.0 219.0 L 297.0 225.0 L 298.0 314.0 L 300.0 319.0 L 300.0 340.0 L 303.0 344.0 L 307.0 346.0 L 375.0 345.0 L 393.0 339.0 L 406.0 331.0 L 418.0 318.0 L 427.0 303.0 L 430.0 290.0 L 432.0 288.0 L 454.0 286.0 L 461.0 283.0 L 469.0 274.0 L 469.0 262.0 Z M 431.0 274.0 L 431.0 267.0 L 434.0 264.0 L 451.0 264.0 L 454.0 267.0 L 453.0 271.0 L 447.0 274.0 L 444.0 273.0 L 434.0 276.0 Z M 396.0 233.0 L 406.0 243.0 L 413.0 253.0 L 417.0 265.0 L 416.0 292.0 L 406.0 311.0 L 395.0 321.0 L 378.0 330.0 L 336.0 331.0 L 318.0 333.0 L 314.0 332.0 L 312.0 318.0 L 310.0 227.0 L 313.0 224.0 L 321.0 225.0 L 372.0 222.0 L 386.0 227.0 Z" fill="#0b1fb3" fill-rule="evenodd"/>
</svg>
