<svg xmlns="http://www.w3.org/2000/svg" viewBox="0 0 512 512" width="512" height="512" role="img" aria-label="data_lake">
  <title>data_lake</title>
  <desc>Озеро/контейнер данных с волнами и кубиками</desc>
  <path d="M 201.5,431 L 201.5,434 L 203.5,435.5 L 296.5,435.5 L 298.5,434 L 298.5,431 L 296,429.5 L 203.5,429.5 Z M 327.5,426.5 L 327.5,430 L 328.5,431 L 352,431 L 353,430 L 353,427 L 351,425.5 L 329,425.5 Z M 155,427.5 L 155,429.5 L 156.5,431 L 175.5,431 L 177,429 L 176.5,426.5 L 175,425.5 L 157,425.5 Z M 241,358.5 L 239,360 L 238.5,362 L 239,378 L 241,380.5 L 243,380.5 L 244.5,378.5 L 244.5,360.5 L 243.5,359 Z M 361.5,355 L 360.5,357 L 360.5,383 L 361,384 L 363.5,384.5 L 366.5,389 L 389.5,389 L 392,385 L 395,384 L 395.5,360 L 392,358.5 L 390,354.5 L 366,354 Z M 367,360 L 389,360 L 390,361 L 390,382.5 L 389,383.5 L 367,383.5 L 366,382.5 L 366,361 Z M 251.5,360 L 251.5,383 L 252.5,384.5 L 255,385 L 257.5,389 L 284.5,389 L 287.5,384.5 L 290,384 L 291,379.5 L 290.5,377 L 289,375.5 L 286.5,375.5 L 285,377 L 285,382.5 L 284,383.5 L 258,383.5 L 256.5,381 L 256.5,362.5 L 258,360 L 264,359.5 L 265,356 L 262.5,354 L 258.5,354 L 254.5,358.5 Z M 290.5,344.5 L 288,341.5 L 266,342 L 264,345 L 265.5,347 L 289,347 Z M 172,342 L 144.5,341.5 L 141,346 L 138,347.5 L 138,379 L 139.5,380.5 L 141,380.5 L 144,385 L 147.5,384 L 147.5,380.5 L 143.5,378 L 143.5,348.5 L 145,347 L 171.5,347 L 172.5,346 Z M 66.5,303 L 66.5,378.5 L 71,381 L 67,388 L 76.5,397 L 95,401.5 L 98,405.5 L 157.5,414 L 161.5,418.5 L 200,418.5 L 203,422.5 L 313.5,422.5 L 316.5,418.5 L 376.5,414 L 380,410 L 414.5,405.5 L 417.5,401.5 L 436,397 L 445.5,387.5 L 444.5,375.5 L 434.5,379.5 L 408,369.5 L 407.5,361.5 L 410.5,360 L 417.5,367.5 L 431.5,372 L 441.5,370 L 441.5,310.5 L 434,304 L 422.5,312.5 L 413.5,312.5 L 397,321 L 371.5,321 L 359.5,312.5 L 353,314 L 357,320 L 356.5,336.5 L 361,339.5 L 356.5,344 L 358,347 L 403,348.5 L 401.5,396.5 L 354.5,396.5 L 352,350.5 L 348,352 L 346.5,371.5 L 342.5,367 L 308.5,367 L 304.5,371.5 L 303,352 L 299,350.5 L 296.5,396.5 L 245.5,396.5 L 233.5,375.5 L 212,375.5 L 209,372 L 194.5,372 L 191,375.5 L 186,371.5 L 184.5,391 L 167.5,393.5 L 169,397 L 178.5,397 L 179,401 L 136,400.5 L 130.5,395 L 129.5,371.5 L 111.5,371.5 L 105,367 L 98,371.5 L 86,371.5 L 74.5,379.5 L 72,374 L 111,359.5 L 124.5,359.5 L 131,352.5 L 132,334.5 L 179,334.5 L 181.5,338.5 L 188,334.5 L 188.5,348.5 L 193,353.5 L 185,360 L 185.5,367.5 L 192.5,363.5 L 195.5,368 L 224.5,368.5 L 225.5,363 L 194.5,362.5 L 194,356.5 L 220.5,355.5 L 226.5,359 L 227.5,352 L 245.5,338.5 L 276,338 L 282,328 L 277.5,319 L 285,313 L 285.5,305 L 281.5,304.5 L 280.5,311.5 L 267,321 L 224.5,321 L 195.5,304 L 182.5,304 L 149,321 L 124,321 L 119.5,316.5 L 110.5,316.5 L 108.5,312.5 L 98.5,312.5 L 78.5,300 Z M 105,373.5 L 106.5,372 L 108.5,372 L 109.5,373 L 109,375 L 106.5,376 Z M 409,350.5 L 411.5,351.5 L 411.5,353.5 L 410.5,354.5 L 408,353.5 L 408,351.5 Z M 130.5,327.5 L 132.5,325.5 L 145,325.5 L 146.5,327 L 146.5,328.5 L 145.5,329.5 L 132,329.5 Z M 105,319 L 106.5,317.5 L 108.5,317.5 L 109.5,318.5 L 109,320.5 L 106.5,321.5 Z M 203.5,313 L 206,314 L 206,315.5 L 204.5,317 L 202.5,317 L 201.5,315.5 Z M 72,306 L 74.5,305 L 75.5,306 L 75.5,308 L 74,309 L 72.5,308.5 Z M 307.5,295.5 L 306.5,296.5 L 306.5,300 L 308,301 L 330,301 L 331,302 L 331,327.5 L 332.5,330 L 335.5,330 L 337,327.5 L 337,300 L 336,296.5 L 334.5,295.5 Z M 291,291.5 L 289,294 L 289,336 L 291,338.5 L 293,338.5 L 295,335.5 L 295,294.5 L 294,292 Z M 298.5,283.5 L 298,287 L 300,288.5 L 343.5,289 L 343.5,339.5 L 345,342.5 L 348.5,342.5 L 349.5,340.5 L 349,288.5 L 346.5,287.5 L 343,283 Z M 444,270.5 L 442,270.5 L 440.5,272 L 440.5,290 L 437.5,291.5 L 436,293.5 L 436.5,296 L 438.5,297 L 440.5,296.5 L 441.5,294 L 446,290.5 L 446,272.5 Z M 289.5,255 L 289.5,257.5 L 291,259 L 296.5,259 L 299.5,263 L 310,263 L 311,262 L 311,259 L 309,257.5 L 299.5,257.5 L 296.5,253.5 L 291.5,253.5 Z M 104.5,255.5 L 105,258 L 106.5,259 L 133,259 L 135,257 L 134.5,254.5 L 133,253.5 L 106.5,253.5 Z M 261,250.5 L 260,249.5 L 257,249.5 L 254.5,253.5 L 249,253.5 L 246.5,257.5 L 240,258 L 239,259.5 L 239.5,262 L 240.5,263 L 246.5,263 L 249.5,259 L 255,259 L 258,255 L 261,253.5 Z M 209.5,251.5 L 210,254 L 212,255 L 229,255 L 231.5,253 L 231.5,251 L 230,249.5 L 211,249.5 Z M 68.5,241 L 66.5,243 L 66.5,290.5 L 67.5,292 L 70.5,292.5 L 72,291 L 72,242.5 Z M 222.5,174.5 L 222.5,178 L 223.5,179 L 297.5,179 L 298.5,178 L 298.5,175 L 296.5,173.5 L 224.5,173.5 Z M 323,171.5 L 323,173.5 L 324.5,175 L 343,175 L 345,173 L 344.5,170.5 L 343,169.5 L 325,169.5 Z M 167.5,171.5 L 168,174 L 169.5,175 L 188,175 L 189.5,173.5 L 189.5,171.5 L 187.5,169.5 L 169.5,169.5 Z M 272.5,163.5 L 273,166 L 275.5,167 L 305.5,166.5 L 307,165 L 307,162.5 L 305,161 L 275,161 L 273.5,161.5 Z M 201.5,162.5 L 201.5,165.5 L 202.5,166.5 L 233,167 L 235.5,165.5 L 235.5,162.5 L 233.5,161 L 203.5,161 Z M 74.5,144.5 L 69,144.5 L 67.5,145.5 L 66.5,148 L 66.5,227.5 L 68.5,229.5 L 72,228 L 71.5,151.5 L 73,150 L 75,150 L 77.5,154 L 82.5,154 L 84.5,152 L 83.5,149 L 77,148.5 Z M 310.5,91.5 L 310.5,94 L 313,95.5 L 330,95.5 L 332.5,93 L 330.5,90 L 311.5,90 Z M 214.5,91 L 212.5,89.5 L 181.5,90 L 180.5,91 L 180.5,94 L 182.5,95.5 L 212,95.5 L 214.5,94 Z M 247.5,87 L 247.5,89.5 L 249,91 L 276,91 L 277.5,90 L 277.5,87 L 275.5,85.5 L 249.5,85.5 Z M 331.5,82.5 L 331.5,85 L 333.5,87 L 351,87 L 353,85.5 L 353,82.5 L 352,81.5 L 333,81.5 Z M 281,79 L 281,81 L 282.5,82.5 L 306,82.5 L 307,81 L 307,78.5 L 304.5,77 L 283.5,77 Z M 201.5,78.5 L 201.5,81.5 L 203.5,83 L 234.5,82.5 L 235.5,81.5 L 235.5,78.5 L 233.5,77 L 203.5,77 Z" fill="#8fb7df" fill-rule="evenodd"/>
  <path d="M 58.5,121 L 58.5,391.5 L 68.5,405.5 L 73.5,405.5 L 77.5,410 L 86.5,410 L 89.5,414 L 103,414 L 107.5,418.5 L 119.5,418 L 123.5,422.5 L 141,422.5 L 144,426.5 L 174.5,426.5 L 178.5,431 L 325.5,431 L 329.5,426.5 L 368.5,426.5 L 371.5,422.5 L 389,422.5 L 393,418 L 405,418.5 L 409.5,414 L 423,414 L 426,410 L 435,410 L 443,401.5 L 449.5,400.5 L 449.5,395.5 L 454,391.5 L 454,121 L 444,111 L 438.5,111 L 436.5,107.5 L 430.5,107 L 418.5,98.5 L 405,98.5 L 401,94 L 388.5,94.5 L 385,90 L 367,90 L 364,86 L 334,86 L 329.5,81.5 L 283,81.5 L 280,77.5 L 236.5,77.5 L 233.5,81.5 L 183,81.5 L 178.5,86 L 152.5,86 L 149.5,90 L 127.5,90 L 124,94.5 L 107.5,94 L 103,98.5 L 94,98.5 L 91,102.5 L 82,102.5 L 77.5,107 L 72.5,107 Z M 445,243 L 440.5,248 L 440.5,269 L 445,273 L 445,290 L 439,296 L 421.5,300 L 409.5,308.5 L 396,308.5 L 393,312.5 L 371.5,312.5 L 359.5,304 L 352.5,309.5 L 353.5,313.5 L 359.5,313.5 L 371,321.5 L 398,321.5 L 401,317.5 L 410,317.5 L 434.5,305 L 440,305.5 L 440.5,374 L 445,378 L 445,386.5 L 427,400.5 L 418,400.5 L 414,405 L 400,405 L 397.5,409 L 380,409 L 376,413.5 L 345.5,413.5 L 342.5,417.5 L 316.5,417.5 L 313.5,421.5 L 203.5,421.5 L 200,417.5 L 161.5,417.5 L 158.5,413.5 L 141,413.5 L 137,409 L 98.5,405 L 94.5,400.5 L 77.5,396.5 L 67.5,386.5 L 69.5,300.5 L 77.5,300.5 L 99,313.5 L 120,317.5 L 123,321.5 L 150,321.5 L 182.5,305 L 195.5,305 L 224,321.5 L 267.5,321.5 L 282,311 L 279,304 L 267,312.5 L 241.5,316.5 L 237.5,312.5 L 224.5,312.5 L 196,296 L 178.5,295.5 L 149.5,312.5 L 123.5,312.5 L 120.5,308.5 L 98.5,304 L 78,291.5 L 67.5,290 L 69,242 L 78,242 L 98,254.5 L 141.5,254.5 L 153.5,246 L 174.5,246 L 178,250.5 L 196,259 L 203.5,258.5 L 207.5,263 L 237.5,263 L 266.5,246 L 279.5,246 L 287,254.5 L 296.5,254.5 L 312.5,263 L 321.5,263 L 325.5,258.5 L 335,258.5 L 338,254.5 L 352,250 L 359,242 L 376,246 L 380,250.5 L 389,250.5 L 392,254.5 L 410,254.5 L 434.5,242 Z M 192.5,357 L 192.5,361 L 194.5,363.5 L 225.5,364 L 227,363 L 227,359.5 L 224.5,358.5 L 221,354.5 L 195,354.5 Z M 353.5,346.5 L 352.5,348 L 353,396.5 L 355,397.5 L 402.5,397 L 404,393.5 L 403.5,347.5 L 401.5,346 Z M 363.5,355 L 388.5,355 L 391,358.5 L 394.5,361 L 395,381 L 389,388 L 367,388 L 365.5,385.5 L 361.5,382.5 L 361.5,357 Z M 239.5,351.5 L 239,357.5 L 243.5,361.5 L 243.5,378 L 239,381.5 L 239,391 L 243.5,395 L 244,396.5 L 246,397.5 L 296,397.5 L 298.5,396 L 299,349 L 297.5,347 L 293,346 L 245.5,346 L 241.5,350.5 Z M 258.5,355 L 262.5,355 L 266,359.5 L 279.5,359.5 L 282.5,355.5 L 284.5,355.5 L 286,358 L 289.5,360.5 L 289.5,362 L 286.5,363.5 L 285,365.5 L 285.5,375 L 289.5,378 L 290,381.5 L 284,388 L 258,388 L 256,385 L 252.5,382.5 L 252,362 Z M 104.5,372.5 L 104.5,375 L 106,376.5 L 109,376 L 111,372.5 L 128.5,372.5 L 130,374 L 129.5,389.5 L 130.5,392.5 L 131.5,393 L 183.5,393 L 185.5,390.5 L 185,339 L 183,338 L 179,333.5 L 131.5,333.5 L 130,335 L 129.5,337.5 L 130,365.5 L 128,367 L 110.5,367 L 107.5,371 L 106,371 Z M 145,342.5 L 170,342.5 L 171.5,343.5 L 172,378 L 170.5,379.5 L 149,379.5 L 147,382.5 L 144.5,384 L 142.5,381 L 139.5,379 L 138.5,376.5 L 138.5,350 L 139,348.5 L 142,346.5 Z M 294.5,283.5 L 293.5,284.5 L 294,341 L 296,342.5 L 343.5,342.5 L 345,340.5 L 344.5,288.5 L 343.5,287.5 L 300.5,287.5 L 297.5,283.5 Z M 308.5,296.5 L 334.5,296.5 L 335.5,297.5 L 336,328 L 334.5,329.5 L 333.5,329.5 L 330,325 L 313,325 L 311.5,326 L 310.5,328.5 L 308.5,329.5 L 307,328.5 L 306,326 L 303,324 L 302.5,315.5 L 307,311.5 L 307,298 Z M 67.5,147.5 L 69,145.5 L 74,145.5 L 76,149 L 82,149.5 L 86,154 L 94.5,153.5 L 98,158 L 111.5,158 L 115,162 L 128,162 L 132,166.5 L 153.5,166.5 L 157,170.5 L 187,170.5 L 191,175 L 321.5,175 L 325.5,170.5 L 355.5,170.5 L 359,166.5 L 380.5,166.5 L 384.5,162 L 397.5,162 L 401,158 L 414.5,158 L 418,153.5 L 426.5,154 L 430.5,149.5 L 436,149.5 L 438.5,145.5 L 443.5,145.5 L 445.5,150 L 440.5,155.5 L 440.5,189 L 445,194 L 440.5,197.5 L 441,230.5 L 439,233 L 429.5,233 L 422.5,241 L 409.5,241 L 405.5,245.5 L 397,245.5 L 393,241 L 384,241 L 381,237 L 375.5,237 L 368.5,228.5 L 366.5,228.5 L 363,233 L 354,233 L 351,237 L 345,237.5 L 339,245 L 333,245.5 L 330,249.5 L 300,249.5 L 297,245.5 L 292,245.5 L 284,237 L 262,237 L 259,241 L 254,241 L 250,245.5 L 245,245.5 L 242,249.5 L 233,249.5 L 229,254 L 212.5,254 L 208.5,249.5 L 199,249.5 L 196.5,245.5 L 191,245.5 L 188,241.5 L 182.5,241 L 179.5,237 L 174,237 L 171,233 L 161,233 L 158,237 L 148.5,237 L 145.5,241 L 140.5,241 L 136.5,245.5 L 107,245.5 L 103,241 L 94,241 L 92,237.5 L 86,237 L 83,233 L 78,233 L 75,229 L 67.5,227 Z M 67,129 L 67.5,126 L 73.5,120 L 79,120 L 81.5,116 L 87,116 L 90,112 L 99,112 L 103,107.5 L 112,107.5 L 115,103.5 L 128.5,103.5 L 132.5,99 L 150,99 L 153,95 L 179,95 L 182.5,91 L 246,91 L 250,86.5 L 275,86.5 L 279.5,91 L 330,91 L 333.5,95 L 359.5,95 L 362.5,99 L 380,99 L 384,103.5 L 397.5,103.5 L 400.5,107.5 L 414,107.5 L 417.5,112 L 422.5,112 L 425.5,116 L 431,116 L 433.5,120 L 439,120 L 445,125.5 L 444,128 L 441,129 L 441,134 L 439,136.5 L 434.5,136 L 431.5,140 L 425.5,140.5 L 422.5,144.5 L 413.5,144.5 L 409.5,149 L 400.5,149 L 397,153 L 379.5,153 L 376.5,157 L 358,157.5 L 355,161.5 L 308,161.5 L 305,165.5 L 203.5,165.5 L 200.5,161.5 L 161.5,161.5 L 157.5,157 L 136,157 L 133,153 L 115.5,153 L 112,149 L 103,149 L 99,144.5 L 90,144.5 L 87,140.5 L 82,140.5 L 78,136 L 73.5,136.5 Z" fill="#0b1fb3" fill-rule="evenodd"/>
</svg>
