<?xml version="1.0" encoding="UTF-8"?>
<svg xmlns="http://www.w3.org/2000/svg" width="512" height="512" viewBox="0 0 512 512" role="img" aria-label="memory database">
  <title>memory database</title>
  <path d="M 358.0 157.0 L 339.0 149.0 L 334.0 149.0 L 324.0 145.0 L 318.0 145.0 L 313.0 143.0 L 284.0 140.0 L 254.0 139.0 L 216.0 143.0 L 181.0 150.0 L 156.0 160.0 L 143.0 170.0 L 137.0 181.0 L 136.0 192.0 L 136.0 259.0 L 134.0 299.0 L 136.0 305.0 L 136.0 395.0 L 145.0 406.0 L 166.0 419.0 L 202.0 429.0 L 221.0 430.0 L 239.0 433.0 L 273.0 433.0 L 303.0 429.0 L 307.0 427.0 L 328.0 423.0 L 334.0 420.0 L 342.0 419.0 L 355.0 413.0 L 375.0 399.0 L 377.0 395.0 L 376.0 175.0 L 372.0 168.0 Z M 364.0 340.0 L 363.0 391.0 L 358.0 395.0 L 335.0 406.0 L 310.0 413.0 L 263.0 419.0 L 228.0 418.0 L 224.0 416.0 L 212.0 416.0 L 204.0 413.0 L 196.0 413.0 L 171.0 405.0 L 159.0 399.0 L 149.0 391.0 L 148.0 343.0 L 150.0 341.0 L 166.0 350.0 L 192.0 358.0 L 196.0 358.0 L 199.0 360.0 L 237.0 365.0 L 280.0 364.0 L 291.0 361.0 L 301.0 361.0 L 311.0 358.0 L 317.0 358.0 L 355.0 344.0 L 362.0 338.0 Z M 330.0 370.0 L 324.0 375.0 L 323.0 381.0 L 328.0 388.0 L 335.0 389.0 L 341.0 383.0 L 341.0 376.0 L 337.0 371.0 Z M 364.0 274.0 L 362.0 313.0 L 363.0 321.0 L 352.0 330.0 L 338.0 337.0 L 302.0 347.0 L 265.0 351.0 L 246.0 351.0 L 214.0 348.0 L 191.0 344.0 L 185.0 341.0 L 178.0 340.0 L 158.0 331.0 L 149.0 324.0 L 148.0 278.0 L 150.0 276.0 L 166.0 285.0 L 201.0 294.0 L 240.0 298.0 L 263.0 298.0 L 289.0 296.0 L 309.0 291.0 L 320.0 290.0 L 343.0 283.0 L 357.0 276.0 L 361.0 272.0 Z M 330.0 303.0 L 325.0 307.0 L 323.0 314.0 L 329.0 321.0 L 334.0 322.0 L 338.0 320.0 L 342.0 312.0 L 340.0 307.0 L 336.0 303.0 Z M 364.0 206.0 L 363.0 253.0 L 355.0 261.0 L 339.0 269.0 L 304.0 279.0 L 268.0 283.0 L 219.0 282.0 L 207.0 279.0 L 200.0 279.0 L 197.0 277.0 L 184.0 276.0 L 172.0 272.0 L 157.0 265.0 L 148.0 257.0 L 148.0 210.0 L 150.0 207.0 L 160.0 214.0 L 178.0 221.0 L 208.0 228.0 L 220.0 228.0 L 236.0 231.0 L 273.0 231.0 L 280.0 229.0 L 301.0 228.0 L 305.0 226.0 L 319.0 224.0 L 326.0 221.0 L 331.0 221.0 L 350.0 214.0 L 362.0 205.0 Z M 330.0 236.0 L 325.0 240.0 L 323.0 248.0 L 324.0 251.0 L 329.0 255.0 L 334.0 255.0 L 340.0 249.0 L 341.0 243.0 L 336.0 237.0 Z M 150.0 186.0 L 153.0 180.0 L 160.0 173.0 L 175.0 166.0 L 195.0 160.0 L 207.0 159.0 L 213.0 156.0 L 226.0 156.0 L 240.0 153.0 L 278.0 153.0 L 323.0 159.0 L 347.0 167.0 L 357.0 173.0 L 363.0 181.0 L 361.0 188.0 L 353.0 196.0 L 332.0 206.0 L 309.0 212.0 L 269.0 216.0 L 223.0 215.0 L 192.0 210.0 L 164.0 200.0 L 158.0 196.0 Z" fill="#0b1fb3" fill-rule="evenodd"/>
</svg>
