<svg xmlns="http://www.w3.org/2000/svg" viewBox="0 0 512 512" width="512" height="512" role="img" aria-label="hyperparameter_search">
  <title>hyperparameter_search</title>
  <desc>Сетка параметров + лупа</desc>
  <path d="M 419,355 L 417,358.5 L 414.5,359 L 414.5,363 L 417,363.5 L 418,366 L 421,367.5 L 422,370 L 424.5,371 L 425.5,373.5 L 428,374.5 L 429.5,377.5 L 432,378.5 L 433.5,381.5 L 435.5,382 L 437,385 L 439,385.5 L 441,389 L 444,389 L 444.5,385.5 L 442.5,384.5 L 440,381 L 438,380.5 L 436.5,377.5 L 430,372.5 L 430.5,370.5 L 432.5,370.5 L 433.5,369.5 L 433.5,367 L 431,366 L 429.5,363 L 427,362 L 426,359.5 L 422.5,357.5 L 421.5,355 Z M 427,366.5 L 429,367.5 L 428.5,370 L 426,369 Z M 422,364 L 424.5,363 L 425.5,364 L 425.5,366 L 423.5,366.5 Z M 418.5,360.5 L 421,359.5 L 422,362 L 419.5,362.5 Z M 64,361.5 L 65.5,363 L 68,363 L 69,361.5 L 69,357 L 70,356 L 74,356 L 76,359.5 L 79,359.5 L 80,358.5 L 80,356.5 L 74.5,351.5 L 69.5,351.5 L 67,355 L 64.5,356 Z M 397,347.5 L 395.5,349.5 L 396,351.5 L 398.5,352.5 L 400,355 L 403,357 L 403.5,366 L 405.5,367 L 407,369.5 L 414.5,376 L 415.5,378 L 418,378 L 419,376.5 L 418.5,374 L 416.5,373.5 L 415,371 L 412.5,369.5 L 407.5,364 L 407.5,356 L 405,355 L 403.5,352 L 402,351.5 L 399,347.5 Z M 421.5,345 L 421.5,347.5 L 424,348.5 L 426,352 L 428,352.5 L 429.5,355.5 L 431.5,356 L 433.5,359.5 L 435.5,360 L 437,363 L 439,363.5 L 440.5,366 L 442.5,367 L 452.5,378 L 455.5,377.5 L 455.5,374 L 453.5,373.5 L 451.5,370.5 L 449.5,369.5 L 448,367 L 446,366 L 444,363 L 442.5,362.5 L 440.5,359.5 L 438.5,358.5 L 436.5,355.5 L 435,355 L 433,352 L 426,346 L 425,344 L 422.5,344 Z M 216,344 L 215,346 L 215.5,348 L 217.5,348.5 L 219.5,351.5 L 222.5,353.5 L 222.5,368.5 L 215,375 L 216,378 L 218.5,378 L 220,375.5 L 222,374.5 L 227.5,368.5 L 227.5,353.5 L 222,347.5 L 220,346.5 L 218.5,344 Z M 312,333 L 311,334 L 311,336.5 L 313.5,337.5 L 315,340 L 317.5,341.5 L 318.5,343.5 L 321,345 L 327.5,352.5 L 330,352 L 330,348 L 328,347.5 L 326,344.5 L 324.5,344 L 322.5,341 L 315.5,335 L 314.5,333 Z M 218.5,266.5 L 216.5,266.5 L 215,269.5 L 222.5,276 L 222.5,291.5 L 220,292.5 L 217.5,296 L 215.5,296.5 L 215,299 L 217.5,301 L 219,300.5 L 220,298 L 222.5,297 L 223.5,294.5 L 227,292.5 L 227.5,291 L 227.5,276 L 226.5,274.5 L 224,273.5 L 223,271 L 221,270 Z M 348,257 L 348,259 L 349,260 L 370,260 L 371,258 L 369.5,255.5 L 349,255.5 Z M 348,246 L 348,248 L 350.5,249.5 L 368.5,249.5 L 370,249 L 371,247 L 369.5,244.5 L 349,244.5 Z M 350.5,200.5 L 346,200.5 L 340.5,206.5 L 340.5,211 L 343,212 L 345.5,216 L 347.5,216 L 349,213 L 351.5,212 L 352.5,210 L 356,207.5 L 356,205 L 353,203.5 Z M 346,208 L 348,209 L 347.5,211.5 L 345,211 L 345,209 Z M 226,200.5 L 223.5,200.5 L 222.5,202 L 222.5,214 L 219.5,215.5 L 219,217.5 L 215,220.5 L 215.5,222.5 L 217,223.5 L 219,223 L 219.5,221.5 L 223,219 L 224,216.5 L 226.5,215.5 L 227.5,214 L 227.5,202.5 Z M 136,200 L 134,201.5 L 134,203 L 138,206.5 L 134.5,208.5 L 134,211 L 137,212.5 L 138.5,215.5 L 141.5,216 L 142.5,215 L 142.5,212.5 L 140,211.5 L 139,209 L 141,208 L 143,205 L 144.5,205 L 146.5,208.5 L 149,208.5 L 150,207.5 L 150,205 L 147.5,204 L 144.5,200 L 143.5,200 L 140.5,204 L 138.5,203 L 137,200 Z M 201,123.5 L 200.5,133.5 L 203.5,135 L 206,138.5 L 211,138.5 L 212.5,136.5 L 212,134.5 L 206.5,134 L 205,132.5 L 205,124 L 204,123 Z M 144.5,123 L 139,123.5 L 134,129.5 L 134.5,133.5 L 136.5,134.5 L 139.5,138.5 L 141,138.5 L 142.5,136 L 146,133.5 L 146,124.5 Z M 70,123 L 68,125 L 68,136.5 L 70,138.5 L 74,138.5 L 77.5,134.5 L 79.5,133.5 L 80,129 L 76,125.5 L 75,123.5 Z" fill="#8fb7df" fill-rule="evenodd"/>
  <path d="M 269,344 L 259.5,353.5 L 259.5,365 L 263.5,368.5 L 264,374 L 269,374 L 272.5,378 L 280.5,378 L 284,374 L 288.5,374 L 290,371.5 L 293.5,369 L 293.5,353.5 L 284,344 Z M 276.5,352 L 280.5,352 L 282,354.5 L 282,358.5 L 285.5,360.5 L 285.5,361.5 L 280.5,366 L 272.5,366 L 267.5,361.5 L 267.5,360.5 L 274,355.5 Z M 202.5,344 L 195.5,351.5 L 193.5,352.5 L 193.5,357.5 L 190.5,359 L 189.5,361.5 L 190.5,363 L 193,364 L 193.5,369.5 L 195.5,370.5 L 202.5,378 L 214,378 L 221,370.5 L 223.5,369 L 223.5,353 L 221,351.5 L 214,344 Z M 206.5,352 L 210,352 L 215.5,357 L 215.5,365 L 210,370 L 206.5,370 L 204.5,367 L 201,364.5 L 201,357.5 L 204,355.5 Z M 123.5,352.5 L 123.5,369.5 L 125.5,370.5 L 132.5,378 L 144,378 L 147.5,374 L 153,373.5 L 153.5,368 L 157,365.5 L 157,353 L 150.5,347.5 L 148,344 L 132.5,344 L 125.5,351.5 Z M 144,352 L 145.5,354.5 L 149,357 L 149.5,360.5 L 140.5,370 L 139.5,370 L 138,367.5 L 131.5,362 L 131.5,360 L 137.5,355.5 L 140,352 Z M 66.5,344 L 61,349 L 59.5,351.5 L 57.5,352 L 57,353 L 57,369 L 57.5,370 L 59.5,370.5 L 66,378 L 78,378 L 80.5,374.5 L 86,374 L 87,373 L 87,368.5 L 88,367 L 90,366.5 L 91,364.5 L 90.5,356 L 87,354 L 87,349 L 85,348 L 82.5,344.5 Z M 70,352 L 74,352 L 76,355 L 79,357 L 79.5,364 L 78,366 L 69.5,366 L 68.5,364 L 64.5,360.5 L 65,357 L 67,356 Z M 268,267 L 267,269 L 259.5,276 L 259.5,291.5 L 262.5,293.5 L 268.5,300.5 L 281,300.5 L 282.5,298 L 286,295.5 L 286,290.5 L 284.5,289 L 279.5,289 L 278.5,291 L 276,292.5 L 273.5,289 L 269,289 L 267.5,287.5 L 267.5,280 L 270.5,278 L 273,274.5 L 280,274.5 L 283.5,278.5 L 287.5,278.5 L 290,275.5 L 289.5,271.5 L 283.5,266.5 Z M 136.5,266.5 L 133,270.5 L 128,270.5 L 127,271.5 L 127,276.5 L 124.5,278 L 123,280.5 L 123.5,288.5 L 127,290.5 L 127,295.5 L 128.5,297 L 133,297 L 136,300.5 L 144.5,300.5 L 147,297 L 151.5,297 L 155,293 L 157,292 L 157,275.5 L 154.5,274 L 153,271.5 L 151,270.5 L 147.5,266.5 Z M 140,274.5 L 143.5,278.5 L 148,278.5 L 149.5,280.5 L 149,288 L 147.5,289 L 143,289 L 141,292.5 L 139.5,292.5 L 138,290 L 131.5,284.5 L 131.5,282.5 L 134,281.5 Z M 66.5,266.5 L 63,270.5 L 61,271.5 L 59.5,274 L 57,275.5 L 57,291.5 L 66,300.5 L 82,300.5 L 83.5,298 L 87,295.5 L 87,291 L 90.5,288.5 L 90.5,275 L 81,266.5 Z M 75,275 L 79.5,281 L 79,287.5 L 77.5,289 L 66,288.5 L 64.5,286.5 L 65,283.5 L 68,281.5 L 73,275 Z M 205.5,263 L 200.5,269.5 L 198.5,270.5 L 196,274 L 193.5,275 L 193.5,280 L 190,282 L 189.5,284.5 L 193.5,287.5 L 193.5,292 L 195.5,293 L 201.5,300 L 214.5,300.5 L 216.5,297.5 L 223.5,291.5 L 223.5,276 L 216,269 L 215,267 L 210.5,267 L 207.5,263 Z M 207,274.5 L 210,274.5 L 212.5,278 L 214.5,278.5 L 215.5,280 L 215.5,287.5 L 213,289 L 210.5,292.5 L 206.5,292.5 L 201,287 L 201,280 Z M 327,256 L 326,258 L 315,268 L 315,272.5 L 311.5,275 L 311.5,279.5 L 307.5,283 L 307.5,291.5 L 304.5,293 L 303.5,295.5 L 304,310.5 L 308,314 L 307.5,325 L 311,327.5 L 311.5,333 L 314,334 L 331,352 L 335.5,352 L 339,356 L 347,356 L 349.5,359.5 L 373,359.5 L 375.5,356 L 383.5,356 L 387,352 L 391.5,352 L 394,348.5 L 398.5,348.5 L 400,351 L 407,357 L 407,365.5 L 418,375.5 L 418.5,381 L 421,382 L 434.5,396.5 L 439,396.5 L 441.5,400 L 443,400 L 445.5,396.5 L 451,396 L 455.5,391 L 455,378 L 453.5,377.5 L 421,344 L 418.5,344.5 L 416.5,348 L 413,348 L 407.5,342.5 L 407.5,335 L 411,333 L 411,328.5 L 415,325 L 414.5,314 L 418.5,310.5 L 419,303 L 418.5,301 L 414.5,297.5 L 415,283 L 411.5,280.5 L 411,275 L 404,269 L 404,264.5 L 401.5,263 L 395.5,256 L 390.5,255.5 L 387.5,252 L 379.5,252 L 373,244.5 L 371.5,244.5 L 368.5,248.5 L 342,248.5 L 339.5,252 L 335,252 L 332,255.5 Z M 419.5,356 L 421,356 L 426,362.5 L 433,368.5 L 433,373 L 444,383.5 L 444.5,386.5 L 443.5,388 L 441.5,388 L 439.5,385 L 417.5,363 L 415,361.5 L 415,360.5 Z M 350,256.5 L 369,256.5 L 372,260 L 380,260 L 386.5,267.5 L 391,267.5 L 393,270.5 L 399.5,276 L 399.5,280.5 L 403,283 L 403.5,288.5 L 406.5,290 L 407.5,292 L 407.5,315.5 L 407,317 L 403.5,319.5 L 403,325 L 396,330.5 L 396,335.5 L 393.5,337 L 391,340.5 L 386.5,340.5 L 383.5,344 L 379,344 L 376,348 L 368,348 L 365,351.5 L 357.5,351.5 L 354.5,348 L 352,347.5 L 346.5,348 L 343.5,344 L 339,344 L 336,340.5 L 331.5,340.5 L 330,338 L 323,332 L 323,327.5 L 322,326 L 319.5,325 L 319,319.5 L 317,318.5 L 315,315.5 L 315.5,290.5 L 319,288.5 L 319,284 L 320.5,282 L 322.5,281.5 L 323,276 L 325.5,274.5 L 326.5,272.5 L 329.5,270.5 L 335.5,263.5 L 340,263.5 L 342.5,260 L 347,260 Z M 334.5,193 L 333.5,194 L 333.5,199 L 329.5,202.5 L 330,215 L 331.5,215.5 L 338.5,223 L 354.5,223 L 363.5,214 L 363,197.5 L 361.5,197 L 358,193 L 353.5,193 L 351,189.5 L 342,189.5 L 339.5,193 Z M 350,201 L 352.5,204 L 355.5,205.5 L 355.5,207 L 353.5,208 L 347.5,215 L 345.5,215 L 344,212 L 341.5,210.5 L 341,206.5 L 344,204.5 L 346.5,201 Z M 264.5,193 L 263.5,194 L 263.5,199 L 259.5,202 L 260,215 L 261.5,215.5 L 268.5,223 L 284.5,223 L 293.5,214 L 293.5,202 L 290,199.5 L 289.5,194 L 288.5,193 L 283.5,193 L 281,189.5 L 272,189.5 L 269.5,193 Z M 275.5,197.5 L 277.5,197.5 L 278.5,198.5 L 278,203.5 L 279,204.5 L 284.5,205 L 286,207.5 L 285.5,210 L 283,211.5 L 280.5,215 L 276,215 L 274.5,212.5 L 267.5,206.5 L 268.5,204.5 L 270.5,204 L 274,200.5 Z M 202,189.5 L 200.5,192 L 193.5,198 L 193,199.5 L 193.5,218.5 L 194.5,219.5 L 199.5,219.5 L 202,223 L 214.5,223 L 223.5,214 L 223.5,198.5 L 214.5,189.5 Z M 211,197.5 L 215.5,202.5 L 215.5,210 L 212.5,212 L 210.5,215 L 206,215 L 205,213 L 201,209.5 L 201,203 L 202.5,201 L 207,201 L 209.5,197.5 Z M 127.5,193.5 L 127,199 L 124.5,200.5 L 123,203 L 123.5,214.5 L 126,216 L 132,223 L 148.5,223 L 149.5,221 L 157,214.5 L 157,198 L 154.5,196.5 L 152,193 L 147.5,193 L 144.5,189.5 L 136,189.5 L 133,193 Z M 136.5,201 L 144,201 L 149,205.5 L 149,207 L 146.5,208.5 L 141,215 L 139.5,215 L 135,210 L 135,202.5 Z M 61.5,193.5 L 61,195 L 57,198 L 57,214.5 L 59.5,216 L 65.5,223 L 82,223 L 84.5,219.5 L 87,218.5 L 87,213.5 L 91,210 L 90.5,201.5 L 88.5,200.5 L 86.5,197.5 L 79.5,191.5 L 78.5,189.5 L 69.5,189.5 L 67,193 Z M 342.5,112 L 335.5,119.5 L 334,120 L 332,123 L 330,124 L 329.5,136.5 L 337,143.5 L 338,145.5 L 342.5,145.5 L 345.5,149.5 L 347.5,149.5 L 350.5,145.5 L 355,145.5 L 356,143.5 L 363,137.5 L 363.5,125 L 359.5,121.5 L 358.5,119.5 L 356,118 L 355,116 L 352.5,114.5 L 351.5,112.5 Z M 343,123.5 L 350,123.5 L 356,130 L 355.5,132.5 L 352.5,134.5 L 350,138 L 343,138 L 337,131.5 L 337.5,129 L 340.5,127 Z M 272.5,112 L 265.5,119.5 L 264,120 L 262,123 L 260,124 L 259.5,136.5 L 267,143.5 L 268,145.5 L 272.5,145.5 L 275.5,149.5 L 277.5,149.5 L 280.5,145.5 L 285,145.5 L 286,143.5 L 293,137.5 L 293.5,121 L 290.5,119 L 288,115.5 L 283.5,115.5 L 280.5,112 Z M 273,123.5 L 280,123.5 L 286,130 L 285.5,132.5 L 282.5,134.5 L 280,138 L 273,138 L 267,131.5 L 267.5,129 L 270.5,127 Z M 206,112 L 203.5,115.5 L 199,115.5 L 195.5,119.5 L 193.5,120.5 L 193.5,125 L 192.5,126.5 L 190,127.5 L 189.5,133 L 193,135.5 L 193.5,141 L 195.5,142 L 198,145.5 L 217.5,146 L 221,142 L 223,141.5 L 223.5,136 L 227,133.5 L 227,128 L 223.5,125.5 L 223,120 L 220.5,119 L 218,115.5 L 213.5,115.5 L 210.5,112 Z M 202,124 L 214,123.5 L 215.5,125 L 215.5,132.5 L 210,138 L 206.5,138 L 204.5,135 L 201.5,133 L 201,125.5 Z M 136,112 L 125.5,123 L 123.5,124 L 123.5,137.5 L 126,138.5 L 127.5,141 L 133,146 L 147.5,146 L 151,142 L 153,141 L 154.5,138.5 L 157,137 L 157,124.5 L 156.5,123.5 L 154.5,123 L 144.5,112 Z M 144,123.5 L 145.5,125.5 L 145.5,132.5 L 140,138 L 137.5,134.5 L 135,133 L 134.5,130 L 135,128.5 L 137,127.5 L 140.5,123.5 Z M 69.5,112 L 67,115.5 L 62.5,115.5 L 61,116.5 L 61,121 L 57,124.5 L 57,137 L 60.5,139.5 L 60.5,144 L 61.5,145.5 L 67,146 L 70,149.5 L 74,149.5 L 77,146 L 82.5,145.5 L 83,144 L 90.5,137.5 L 90.5,133 L 94.5,130 L 94,127 L 92,126.5 L 79.5,114 L 79,112.5 Z M 70.5,123.5 L 74,123.5 L 79.5,129.5 L 79,133 L 77,134 L 73.5,138 L 70.5,138 L 68.5,136 L 68.5,125.5 Z" fill="#0b1fb3" fill-rule="evenodd"/>
</svg>
