<svg xmlns="http://www.w3.org/2000/svg" viewBox="0 0 512 512" width="512" height="512" role="img" aria-label="model_registry">
  <title>model_registry</title>
  <desc>Модель в каталоге с версией v1/v2</desc>
  <path d="M 286,425.5 L 285,423.5 L 283,423 L 279,427 L 258.5,427 L 257.5,430 L 259.5,432 L 284,431.5 L 285.5,430 Z M 281,407.5 L 278,407.5 L 276.5,410.5 L 274,411.5 L 271.5,415.5 L 269.5,416 L 269,421 L 270.5,423 L 276.5,423.5 L 277.5,422.5 L 277.5,420.5 L 275.5,419.5 L 274,417 L 277,415.5 L 279,412.5 L 281.5,411.5 L 282,409 Z M 403,395.5 L 401.5,398 L 402,399.5 L 405,401.5 L 405,403.5 L 401.5,405 L 401,409.5 L 402.5,412 L 404,412 L 405.5,414.5 L 409,417 L 409,418.5 L 408,419.5 L 406,419.5 L 405,421 L 405.5,423.5 L 409,424 L 410.5,421 L 414,419 L 414,416 L 411.5,415 L 410,412.5 L 406,409.5 L 406.5,405.5 L 409.5,404.5 L 410.5,402 L 409.5,400 L 406.5,398.5 L 405,395.5 Z M 105.5,401 L 106,404 L 109,404.5 L 110.5,401.5 L 112.5,400.5 L 114,402 L 113.5,407 L 114.5,408 L 117.5,408 L 118.5,407 L 118,402 L 119.5,400.5 L 122,402 L 123,404.5 L 128.5,404.5 L 130,402.5 L 128.5,399.5 L 123.5,399.5 L 120.5,395.5 L 118.5,396 L 116.5,400 L 114.5,399 L 113.5,396 L 111.5,395.5 L 108.5,399.5 L 107,399.5 Z M 398,392.5 L 394,392.5 L 394,398.5 L 392.5,400 L 390.5,399 L 389.5,396 L 386.5,396 L 386,398 L 382,400.5 L 382,403.5 L 383,404.5 L 385,404.5 L 387.5,401 L 389.5,401 L 390,407.5 L 394,408 L 395,406 L 394.5,402 L 397.5,400 L 398.5,398 Z M 158,384.5 L 156,386.5 L 156,437 L 157,439 L 159.5,439.5 L 161.5,437.5 L 161.5,386.5 L 160.5,385 Z M 402,384.5 L 402,388.5 L 411.5,389 L 418,396.5 L 420,397 L 422,395.5 L 421.5,392.5 L 419.5,392 L 412.5,384 Z M 205.5,384 L 203,385.5 L 203,434 L 204.5,435.5 L 206.5,435.5 L 208,434 L 208,386 Z M 297.5,380.5 L 296,383 L 296,425 L 297.5,427.5 L 300,427.5 L 301.5,425.5 L 301.5,382.5 L 300,380.5 Z M 75.5,380.5 L 74.5,381.5 L 74.5,438 L 78,439.5 L 79.5,438 L 79.5,382 L 78,380.5 Z M 64,380.5 L 62.5,384 L 62.5,428 L 64,431.5 L 67,431.5 L 68,430 L 68,382 L 67,380.5 Z M 448,376.5 L 445.5,376.5 L 444,378 L 444,441.5 L 446.5,443.5 L 449,442 L 449.5,440 L 449.5,380 Z M 169,376.5 L 167.5,379.5 L 167.5,439.5 L 168,442 L 170.5,443.5 L 173,441.5 L 173,378 L 171.5,376.5 Z M 351,377.5 L 350.5,437.5 L 354.5,440.5 L 356,443.5 L 358.5,443.5 L 359.5,442.5 L 359.5,439.5 L 357,438.5 L 355.5,436.5 L 355.5,379 L 357,377.5 L 431.5,377.5 L 432.5,378.5 L 432.5,438 L 434,439.5 L 437,439 L 437.5,378 L 437,377 L 434,376 L 432,372.5 L 357.5,372 L 355.5,373 L 353.5,376.5 Z M 214.5,379.5 L 217,381.5 L 219,380.5 L 220.5,377.5 L 291.5,377.5 L 293,376.5 L 293.5,374.5 L 293,373 L 291,372 L 221,372 L 217.5,376 L 215,377 Z M 78.5,374 L 80.5,377.5 L 155,377.5 L 158,381 L 160,381 L 161.5,379.5 L 161,377 L 158,376 L 156.5,373 L 154.5,372 L 81,372 Z M 433,361.5 L 431.5,360.5 L 352,361 L 351,363.5 L 348.5,364.5 L 347,367 L 343.5,369.5 L 342.5,372 L 340.5,372.5 L 339,374.5 L 339.5,442.5 L 341.5,443.5 L 343,443 L 344.5,439.5 L 344,375 L 346.5,373.5 L 353.5,365.5 L 431,366 L 433.5,364 Z M 215,361.5 L 215,364.5 L 218.5,366 L 293.5,366 L 297,364.5 L 297,361.5 L 295,360.5 L 217,360.5 Z M 78.5,362.5 L 79,365 L 81,366 L 155,366 L 157,364.5 L 157,362 L 155,360.5 L 80.5,360.5 Z M 394,323 L 393.5,325 L 394.5,326.5 L 404.5,327 L 405.5,328.5 L 405.5,333.5 L 407,334.5 L 409.5,334 L 410.5,332 L 410,327 L 407.5,326 L 405,322 L 395,322 Z M 374.5,299 L 374.5,303 L 376.5,303.5 L 379,307 L 381,307.5 L 382.5,310.5 L 385,311.5 L 386.5,314.5 L 389,315.5 L 391,319 L 394,318.5 L 394.5,315 L 392,314 L 390.5,311.5 L 388,310 L 377.5,298.5 Z M 259.5,298.5 L 257.5,300 L 257,302.5 L 257.5,309 L 253.5,311.5 L 253.5,317 L 250,319 L 249.5,325 L 250.5,326.5 L 253,326.5 L 254,325.5 L 254.5,319.5 L 257,319 L 258,320.5 L 257.5,329.5 L 261,330.5 L 262.5,328.5 L 262.5,320 L 261,318 L 258.5,317 L 258.5,312.5 L 262.5,309.5 L 262.5,300.5 L 261.5,299 Z M 344,283 L 343,284 L 343.5,287.5 L 345.5,288 L 347.5,291 L 349.5,292 L 351.5,295 L 353,295.5 L 355,298.5 L 357,299.5 L 359,302.5 L 361,303.5 L 363,306.5 L 370.5,313 L 371.5,315 L 374,315 L 375,314 L 375,311 L 372.5,310 L 371,307.5 L 368.5,306 L 367,303.5 L 365,302.5 L 363,299.5 L 361,298.5 L 359,295.5 L 357,294.5 L 355.5,292 L 348,285.5 L 346.5,283 Z M 168,283 L 165.5,283 L 164,285.5 L 161.5,287 L 160,289.5 L 157.5,291 L 156.5,293 L 154,294.5 L 152.5,297 L 150,298.5 L 148.5,301 L 146,302.5 L 135.5,314 L 133,315 L 133,318 L 134,319 L 136.5,319 L 137.5,317 L 140.5,315 L 141.5,313 L 144.5,311 L 145.5,309 L 148.5,307 L 149.5,305 L 152,303.5 L 153,301.5 L 156,299.5 L 157,297.5 L 160,295.5 L 166.5,288 L 168.5,287.5 L 169,284 Z M 374.5,256 L 372,255.5 L 370.5,258 L 368,259.5 L 357.5,271 L 355,272 L 354.5,274.5 L 355.5,276 L 358.5,276 L 359.5,274 L 362.5,272 L 363.5,270 L 366,268.5 L 373,260.5 L 375,260 Z M 284.5,255 L 285.5,256.5 L 287.5,257 L 290.5,253 L 303.5,253 L 305,251.5 L 305,249.5 L 303.5,248 L 290.5,248 L 288,251.5 L 285,252.5 Z M 199,250.5 L 201,253 L 217.5,253 L 219,252 L 219.5,249.5 L 218,248 L 200.5,248 Z M 236,240 L 232.5,244.5 L 230.5,245 L 230,250.5 L 234,254 L 235,256.5 L 238,258 L 239,260.5 L 242,260.5 L 243,259.5 L 243,257 L 240,255.5 L 238.5,252.5 L 235,250.5 L 235,246.5 L 239,244 L 238.5,240.5 Z M 191,199.5 L 192,202 L 194.5,202.5 L 197.5,198.5 L 209.5,198.5 L 212,202 L 214.5,202 L 215.5,201 L 216,197.5 L 215,194.5 L 213.5,193.5 L 197,193.5 L 195.5,196 L 191.5,198 Z M 195.5,183 L 195.5,185.5 L 197,187 L 221,187 L 222.5,186.5 L 223.5,184.5 L 222,182 L 196.5,182 Z M 254,171 L 252.5,170 L 248,170 L 245,174 L 239,174.5 L 237.5,177.5 L 234.5,178.5 L 234.5,182.5 L 237.5,183 L 240.5,179 L 245,179 L 248,175 L 253.5,175 L 254.5,173.5 Z M 335,166.5 L 332.5,166.5 L 331,169 L 331.5,180 L 327.5,183 L 327.5,185.5 L 329.5,187 L 331.5,186.5 L 332.5,184 L 334,182.5 L 335.5,182.5 L 336.5,180.5 L 336.5,168.5 Z M 381,123.5 L 378,125 L 378,235 L 375.5,236.5 L 365,248 L 362.5,249 L 362.5,252 L 364,253 L 366,253 L 367.5,250 L 370,249 L 371.5,246 L 374,245 L 375.5,242 L 378,241 L 379,238.5 L 383,236 L 383,125 Z M 124.5,115.5 L 122.5,116 L 121.5,118 L 117.5,121 L 117,123 L 117,238 L 118.5,241 L 121,241 L 122.5,239 L 122,123 L 123,121 L 126,120 L 126.5,118 Z M 145,112 L 142,112 L 141,114 L 133.5,120.5 L 132.5,123 L 129,125 L 129,201 L 130,202 L 133,202 L 134,200.5 L 134,126 L 136.5,124.5 L 143,117 L 145.5,116 Z M 383,108 L 382,109 L 382,112 L 384.5,113 L 390,119 L 390,238 L 384.5,244 L 382,245 L 382,248 L 383,249 L 385.5,249 L 386.5,247 L 390.5,244 L 391,242 L 394.5,240 L 395,238 L 395,119 L 394.5,117 L 392,116 L 390.5,113 L 388.5,112 L 385.5,108 Z M 340,61.5 L 339,62.5 L 339,65 L 342,66.5 L 343.5,69 L 345.5,70 L 347.5,73 L 349.5,74 L 351,76.5 L 362.5,87 L 364,89.5 L 366.5,89.5 L 367.5,88 L 367,85 L 364.5,84.5 L 363,81.5 L 360.5,80.5 L 359,77.5 L 356.5,76.5 L 355,73.5 L 352.5,72.5 L 351,69.5 L 349,69 L 347.5,66 L 345,65 L 343,61.5 Z" fill="#8fb7df" fill-rule="evenodd"/>
  <path d="M 343.5,373.5 L 343,445 L 348.5,451 L 353.5,451 L 357,455 L 431.5,455 L 435,451 L 439.5,451 L 442,447.5 L 444.5,446.5 L 445,374 L 442.5,372.5 L 436,365 L 352.5,365 L 346,372.5 Z M 351.5,378.5 L 357.5,373 L 431,373 L 437,379.5 L 436.5,437.5 L 434,439 L 431.5,442.5 L 357,442.5 L 354.5,439 L 351.5,437 Z M 368,400 L 366.5,401.5 L 366.5,410.5 L 370.5,413.5 L 370.5,418.5 L 374.5,421.5 L 374.5,426.5 L 375.5,427.5 L 381.5,427.5 L 382.5,426.5 L 383,421 L 386.5,418.5 L 387,413.5 L 390.5,410.5 L 390.5,400.5 L 387,400 L 386,402 L 382.5,404.5 L 382.5,413.5 L 380,415.5 L 375,410 L 374.5,400.5 Z M 399.5,388 L 397.5,390 L 397.5,399.5 L 398.5,400.5 L 401,400.5 L 404,396.5 L 407.5,396.5 L 409.5,398.5 L 409.5,402 L 405.5,405.5 L 405.5,410.5 L 408.5,412.5 L 410.5,415.5 L 413,416.5 L 413,418.5 L 408.5,423 L 407,423 L 404.5,419.5 L 395,419 L 394,420 L 394,423 L 397,424.5 L 399,427.5 L 403.5,427.5 L 406.5,431.5 L 408.5,431.5 L 411.5,427.5 L 417,427.5 L 418,425.5 L 417.5,422 L 421.5,418.5 L 422,414.5 L 421,412 L 419,411.5 L 417,408.5 L 414,407 L 414,405 L 421.5,399.5 L 421.5,397 L 419,395.5 L 412,388 Z M 211,366 L 211,371 L 207,374 L 207.5,378 L 203,382 L 203.5,384.5 L 205.5,385 L 207.5,387.5 L 207.5,432.5 L 206,434.5 L 203.5,435.5 L 203,438 L 207,441 L 207.5,446.5 L 209.5,447 L 212.5,451 L 217.5,451 L 220.5,455 L 295.5,455 L 306,443.5 L 308.5,442.5 L 309,378.5 L 305,375 L 305,370 L 299.5,365 L 212,365 Z M 215.5,378.5 L 218,377 L 221,373 L 291,373 L 293,376 L 300.5,382.5 L 300.5,425.5 L 296.5,428.5 L 296,442 L 216.5,442.5 L 215.5,441.5 Z M 253,400 L 250.5,399.5 L 246.5,400.5 L 245.5,410.5 L 241,415.5 L 240,415.5 L 238.5,413.5 L 238.5,404.5 L 237,404 L 234,400 L 231,400 L 230,401.5 L 230.5,410.5 L 234,413.5 L 234.5,422.5 L 237,424 L 239.5,427.5 L 245.5,427.5 L 246.5,426.5 L 246.5,421.5 L 250.5,418.5 L 250.5,410 L 254.5,406 L 254.5,402 Z M 263.5,388 L 257.5,394 L 258,399.5 L 259.5,400.5 L 264,400.5 L 267.5,396.5 L 271.5,396.5 L 273.5,399 L 273.5,405.5 L 268,411.5 L 266,412.5 L 264.5,415 L 262,416.5 L 260.5,419 L 258,420.5 L 257.5,425.5 L 259,427.5 L 280,427.5 L 282,424.5 L 282,421 L 281,419.5 L 278,419.5 L 275.5,423 L 271.5,423 L 269.5,420.5 L 269.5,418.5 L 279.5,408 L 281.5,407 L 281.5,393.5 L 275.5,388 Z M 67,374 L 67,445.5 L 70,447.5 L 72.5,451 L 77,451 L 80.5,455 L 155,455 L 158.5,451 L 163.5,451 L 165,448.5 L 168.5,446 L 169,375 L 168.5,373.5 L 166,372.5 L 159.5,365 L 76,365 L 75,367 Z M 79.5,374.5 L 81,373 L 155.5,373.5 L 157,376 L 160.5,378.5 L 160.5,437 L 157.5,439 L 155,442.5 L 80.5,442.5 L 75,436.5 L 75,383.5 L 79,380 Z M 92,400 L 90.5,401.5 L 90,405 L 90.5,407 L 94,409.5 L 94.5,419 L 98,421 L 98,426 L 99.5,427.5 L 105,427.5 L 107,424.5 L 109.5,423.5 L 110.5,422 L 110.5,414 L 114.5,410 L 114.5,401 L 113.5,400 L 111,400 L 109.5,402.5 L 106,405 L 106,414 L 103.5,415.5 L 101.5,412 L 99,410 L 98.5,401 L 97.5,400 Z M 127.5,388 L 121.5,393.5 L 121.5,399 L 123,400.5 L 128,400.5 L 129.5,402.5 L 129.5,426.5 L 130.5,427.5 L 136.5,427.5 L 138,424 L 138,391 L 135.5,388 Z M 255,318 L 253.5,319.5 L 253.5,324.5 L 249,329.5 L 246.5,330.5 L 245.5,334.5 L 246.5,337.5 L 249,338.5 L 250,340 L 250,345 L 252,346 L 255,350 L 257,350 L 258.5,347.5 L 262,345 L 262.5,333 L 262,331 L 258,328 L 258.5,319.5 L 257,318 Z M 167.5,279 L 158,279.5 L 147,291 L 145.5,291.5 L 143,295 L 138,295 L 137,296 L 136.5,302 L 135,302.5 L 123.5,314.5 L 119.5,314 L 117.5,315.5 L 117.5,321 L 113.5,324 L 114,328 L 112,330 L 107,330 L 106,331 L 106,337 L 109.5,339 L 110,345 L 113,346.5 L 115.5,350 L 120,350 L 123.5,346 L 125.5,345.5 L 126,339.5 L 130,336.5 L 130,331.5 L 128.5,330 L 122.5,329 L 121.5,327 L 122.5,323.5 L 124.5,322.5 L 127,319 L 132.5,318.5 L 134,316 L 136,315 L 138,312 L 140,311 L 141.5,308.5 L 144,307 L 145.5,304.5 L 148,303 L 149.5,300.5 L 152,299 L 162.5,287.5 L 167.5,284 L 169,282 Z M 252.5,104 L 242,113.5 L 242,118.5 L 234.5,124.5 L 234,130.5 L 221.5,143 L 209,143 L 205.5,139 L 198,139 L 184,152 L 184,160.5 L 180,164 L 179.5,172 L 180.5,174.5 L 184,177 L 183.5,184.5 L 187.5,187.5 L 187.5,189 L 184,191 L 184,195.5 L 180,198.5 L 180,203.5 L 176,207 L 176,216.5 L 179.5,218.5 L 180,224.5 L 184,227.5 L 184,236 L 196.5,248.5 L 217.5,249 L 219,251 L 219,255.5 L 234.5,270 L 234.5,279 L 237,280 L 240.5,284 L 248.5,284 L 250,285.5 L 250,309.5 L 251.5,311 L 257,311 L 258.5,308.5 L 258,301 L 262.5,296.5 L 262,285.5 L 263.5,284 L 269,283.5 L 273.5,279 L 273.5,274.5 L 277.5,271 L 277.5,266 L 285.5,259 L 285.5,254 L 290.5,249 L 306.5,249 L 310,245 L 315,245 L 325.5,233.5 L 328,232.5 L 328,227.5 L 332,224.5 L 332.5,204 L 331.5,202 L 328.5,200.5 L 328.5,196 L 324.5,193 L 324.5,191.5 L 328,189.5 L 328,184.5 L 332.5,180 L 332.5,165.5 L 331.5,163 L 328,160.5 L 328,156 L 324.5,153.5 L 324.5,148.5 L 320.5,145.5 L 320.5,140.5 L 318,139 L 310.5,139.5 L 308.5,137 L 309,133 L 300,124 L 279,123.5 L 276.5,120 L 271.5,120 L 257,104.5 Z M 275.5,225.5 L 277,226.5 L 277,231.5 L 278,233 L 287.5,233.5 L 292.5,238 L 292.5,239.5 L 291.5,240.5 L 282,240.5 L 281,241.5 L 280.5,247.5 L 273.5,253 L 273,258.5 L 265.5,265 L 265.5,270 L 263,271.5 L 260,275.5 L 252,275.5 L 250,272.5 L 242.5,266 L 242.5,261 L 240.5,260 L 238,256.5 L 231,250.5 L 230.5,247.5 L 236.5,241 L 238.5,240 L 238.5,232.5 L 240,229.5 L 244.5,229.5 L 246,232 L 248.5,233.5 L 252,229.5 L 264,229.5 L 267.5,225.5 Z M 290.5,198.5 L 311.5,198 L 319,198.5 L 320,200 L 319.5,207 L 320,208.5 L 324,211.5 L 324,219 L 320,222.5 L 319,224.5 L 316.5,226 L 315,228.5 L 312.5,230 L 311,232.5 L 309,233.5 L 307,236.5 L 304.5,235 L 296,225 L 291,225 L 288,221 L 283.5,221 L 281.5,219.5 L 281.5,215.5 L 285.5,212.5 L 285.5,207.5 L 289.5,204.5 L 289.5,199.5 Z M 277,180 L 277,189 L 281,192 L 281.5,195 L 277,199 L 277,204 L 273,207 L 273.5,211 L 272,213 L 267.5,213 L 264,217 L 259,217 L 256,221 L 252,221 L 249,217 L 244,217 L 242.5,214.5 L 240,213 L 229.5,201.5 L 221,201.5 L 218,198 L 216,198 L 211,203 L 211,208.5 L 213,210 L 225,210 L 232,217.5 L 234,218.5 L 234,223 L 238,226.5 L 238,228.5 L 231.5,229 L 230.5,230 L 230.5,235 L 228,236.5 L 225,240.5 L 205.5,240.5 L 202.5,236.5 L 197.5,236.5 L 195.5,233.5 L 192,231 L 192,222 L 188,219 L 188,208 L 189.5,206 L 192,205 L 192.5,199 L 197.5,194.5 L 225.5,194.5 L 228.5,190.5 L 233.5,190.5 L 235,189 L 235,180 L 237.5,178.5 L 240,175 L 245,175 L 248,171 L 260,171 L 263,175 L 268,175 L 270.5,178.5 L 276,179 Z M 310.5,147.5 L 312,149 L 312,154 L 316,157 L 316,162 L 320,165 L 320,170 L 324,173 L 324,176.5 L 320,179 L 320,184.5 L 318.5,186 L 313.5,186 L 312.5,188.5 L 310.5,190 L 307,186 L 286.5,185.5 L 285,183.5 L 285.5,180 L 288.5,178.5 L 290.5,175 L 295.5,175 L 297,174 L 297,161 L 301,158 L 301,153 L 303.5,151.5 L 306,148 Z M 248.5,128.5 L 250,130 L 250,161 L 248.5,162.5 L 243,163 L 240.5,166.5 L 235,167 L 234.5,168.5 L 225,178 L 223,179 L 222.5,184.5 L 221,186 L 197.5,186 L 196,184.5 L 196,179.5 L 192,176.5 L 192,165 L 196,162 L 196,157 L 199,155 L 201.5,151.5 L 213.5,151.5 L 216.5,155.5 L 221.5,155.5 L 224,152 L 229.5,151.5 L 236,144 L 238.5,143 L 238.5,138.5 L 240,136 L 242.5,135 L 243,129.5 L 244,128.5 Z M 263,124.5 L 264.5,124.5 L 270.5,132 L 275.5,132 L 278.5,136 L 299,135.5 L 300.5,137 L 300,139 L 296.5,141 L 296.5,145.5 L 289,152 L 289,161 L 285.5,163 L 285,168.5 L 283,170.5 L 279.5,170.5 L 276.5,166.5 L 271.5,166.5 L 269,163 L 263.5,162.5 L 262,161 L 262.5,138.5 L 262,136.5 L 258,133.5 L 258,130 Z M 255,117 L 257,117 L 258.5,119.5 L 258.5,121 L 256.5,123.5 L 255,123.5 L 253.5,121 Z M 177.5,61.5 L 153,85.5 L 152.5,91.5 L 140,104 L 134.5,104.5 L 125.5,113 L 125.5,118 L 121.5,121.5 L 121.5,243.5 L 146,268 L 157,267.5 L 153,257 L 133.5,238.5 L 134,204 L 129.5,199.5 L 129.5,126.5 L 181.5,74 L 338,74 L 339.5,80.5 L 378,117.5 L 378,122.5 L 382.5,126.5 L 382.5,234.5 L 343.5,272.5 L 339.5,283 L 346,284 L 389.5,327 L 389,330 L 379.5,330 L 378,336 L 391,349.5 L 397.5,349.5 L 398.5,343.5 L 406,337 L 405.5,326.5 L 396,326 L 394.5,319.5 L 355.5,281.5 L 355.5,273.5 L 372.5,256.5 L 377.5,256.5 L 382.5,251.5 L 383,246 L 390.5,239.5 L 390.5,117.5 L 383,111 L 382.5,105 L 338.5,61.5 L 306.5,61.5 L 303,57.5 L 290.5,57.5 L 287.5,61.5 Z" fill="#0b1fb3" fill-rule="evenodd"/>
</svg>
