<?xml version="1.0" encoding="UTF-8"?>
<svg xmlns="http://www.w3.org/2000/svg" width="512" height="512" viewBox="0 0 512 512" role="img" aria-label="filter funnel">
  <title>filter funnel</title>
  <path d="M 376.0 155.0 L 352.0 153.0 L 202.0 154.0 L 149.0 157.0 L 121.0 157.0 L 115.0 162.0 L 114.0 167.0 L 116.0 172.0 L 141.0 202.0 L 149.0 214.0 L 159.0 224.0 L 205.0 281.0 L 215.0 291.0 L 215.0 394.0 L 220.0 400.0 L 225.0 401.0 L 228.0 399.0 L 269.0 399.0 L 276.0 393.0 L 277.0 389.0 L 275.0 381.0 L 276.0 377.0 L 274.0 359.0 L 276.0 350.0 L 277.0 291.0 L 294.0 273.0 L 315.0 246.0 L 337.0 222.0 L 352.0 202.0 L 381.0 168.0 L 382.0 163.0 Z M 173.0 213.0 L 202.0 214.0 L 222.0 211.0 L 284.0 211.0 L 322.0 213.0 L 322.0 215.0 L 268.0 276.0 L 261.0 286.0 L 262.0 300.0 L 260.0 306.0 L 259.0 335.0 L 260.0 379.0 L 258.0 382.0 L 244.0 382.0 L 235.0 384.0 L 231.0 382.0 L 230.0 284.0 L 172.0 216.0 Z M 138.0 175.0 L 141.0 172.0 L 148.0 173.0 L 165.0 171.0 L 218.0 170.0 L 358.0 171.0 L 339.0 194.0 L 334.0 198.0 L 317.0 197.0 L 301.0 198.0 L 297.0 200.0 L 160.0 200.0 L 144.0 180.0 Z" fill="#0b1fb3" fill-rule="evenodd"/>
</svg>
