<svg xmlns="http://www.w3.org/2000/svg" viewBox="0 0 512 512" width="512" height="512" role="img" aria-label="feature_store">
  <title>feature_store</title>
  <desc>Витрина признаков: кубики/features в хранилище</desc>
  <path d="M 313,365 L 311,367 L 311,378 L 312,380.5 L 313.5,381.5 L 318.5,381.5 L 320,380 L 320,378 L 316,374.5 L 316.5,367 L 315.5,365.5 Z M 415.5,353 L 414,355 L 414,359.5 L 411,361 L 410,363.5 L 411,365.5 L 414.5,367 L 414.5,372.5 L 415.5,373.5 L 417.5,373.5 L 424,366 L 427,364.5 L 427,361.5 L 426,360.5 L 424,360.5 L 421,364.5 L 416,365 L 415.5,362.5 L 419.5,359 L 419.5,355 L 418,353 Z M 333,345 L 331,348 L 331,372 L 332.5,373.5 L 334.5,373.5 L 336,372.5 L 336.5,370.5 L 336.5,348 L 335,345 Z M 327.5,345.5 L 325.5,344.5 L 324,345 L 322,348.5 L 317.5,348.5 L 314.5,345 L 311.5,345.5 L 311.5,351.5 L 307.5,354 L 307.5,356.5 L 312.5,361 L 315.5,361 L 316.5,359.5 L 316,355 L 317,354 L 323,353.5 L 323.5,352 L 327.5,349 Z M 285,341 L 283.5,342 L 283,344 L 283,370.5 L 284,373 L 287,373.5 L 288.5,372 L 288.5,342.5 L 287,341 Z M 273,337 L 271.5,338.5 L 271.5,376 L 274.5,377.5 L 277,381.5 L 279.5,381.5 L 280.5,380.5 L 280.5,377.5 L 276.5,375 L 277,340.5 L 276,337.5 Z M 388,329 L 386,332.5 L 382.5,334.5 L 382.5,376 L 384,377.5 L 385.5,377.5 L 388,381.5 L 390.5,381.5 L 391.5,380.5 L 391.5,377.5 L 387.5,375 L 387.5,335.5 L 391.5,333 L 391.5,330 L 390.5,329 Z M 340,329 L 339,330 L 339,333 L 343,335.5 L 343,375 L 339,377.5 L 339,380.5 L 340,381.5 L 342.5,381.5 L 344.5,378 L 348,376 L 348,334.5 L 345,333 L 342.5,329 Z M 225,313.5 L 224,315 L 224,344 L 225,345.5 L 228,345.5 L 229,344.5 L 229,314.5 L 228,313.5 Z M 240.5,302.5 L 239.5,307.5 L 241,310 L 243,310 L 245.5,306.5 L 247.5,306.5 L 249,310 L 250.5,310.5 L 253,314 L 254.5,314.5 L 256.5,313.5 L 256.5,310 L 254,309 L 252,305.5 L 249.5,305 L 247.5,301.5 L 245,301 Z M 225,266 L 224,267.5 L 224,300.5 L 228,303.5 L 229,306 L 231.5,306.5 L 233,305.5 L 233,302.5 L 229,300 L 229,267 L 228,266 Z M 368.5,265.5 L 367,267 L 367,269.5 L 369,271 L 373.5,271 L 374.5,272 L 374.5,276.5 L 373.5,277.5 L 368,278 L 367,279 L 366.5,283 L 368,286 L 373,286.5 L 375.5,284.5 L 375.5,279.5 L 379.5,277 L 380,272.5 L 378.5,270 L 377,270 L 375.5,268.5 L 374.5,266 Z M 145,267 L 145,269.5 L 146,270.5 L 164.5,270.5 L 165.5,269 L 165.5,267 L 164,265.5 L 146.5,265.5 Z M 117,268 L 118.5,270.5 L 136.5,270.5 L 138,269 L 137.5,266.5 L 136,265.5 L 119,265.5 Z M 344,258 L 342.5,261 L 342.5,279 L 343.5,282 L 346,282.5 L 348,280.5 L 348,259.5 L 346.5,258 Z M 399.5,242 L 398.5,243 L 398.5,246 L 402.5,248.5 L 402,280 L 403,282 L 405.5,282.5 L 407.5,280.5 L 407.5,248 L 406,246 L 404,245.5 L 402,242 Z M 121,212 L 121.5,214.5 L 123.5,215.5 L 163,215.5 L 165.5,213.5 L 165.5,211.5 L 163.5,210 L 123,210 Z M 209,139 L 208,142.5 L 209.5,144 L 211,144 L 213,147.5 L 215,148 L 217,151.5 L 220,153 L 220,158 L 224,161 L 224,186 L 227,187.5 L 229,186 L 229,160 L 225,157.5 L 225,152 L 222.5,151 L 220.5,147.5 L 218,146.5 L 216.5,143.5 L 213.5,142 L 212,139 Z M 125,133 L 126.5,136 L 156,136 L 157.5,134.5 L 157.5,132 L 156.5,131 L 126.5,131 Z M 125,121 L 125.5,123.5 L 127.5,124.5 L 155,124.5 L 157.5,123 L 157.5,120.5 L 156,119 L 127,119 Z" fill="#8fb7df" fill-rule="evenodd"/>
  <path d="M 416,317.5 L 413.5,321 L 407.5,321.5 L 405.5,325 L 400.5,325 L 397.5,329 L 392.5,329 L 389.5,333 L 387,334 L 386.5,375.5 L 387.5,377 L 389.5,377.5 L 392.5,381.5 L 397.5,381.5 L 400,385 L 405.5,385.5 L 408,389 L 412.5,389 L 416,393 L 425.5,393 L 432,385.5 L 436.5,385.5 L 440,381.5 L 445,381.5 L 448,377.5 L 454,377 L 455,374.5 L 455,336 L 453,333 L 448,333 L 445,329 L 440,329 L 437.5,325.5 L 432,325 L 428.5,321 L 424,321 L 421.5,317.5 Z M 446.5,348 L 446.5,354.5 L 442,359 L 442,363.5 L 446,366.5 L 446,368 L 440.5,373 L 435.5,373 L 429,380.5 L 424.5,380.5 L 423,379 L 422.5,376.5 L 423.5,371 L 422,369 L 420,369 L 414.5,374 L 414.5,379 L 413,380.5 L 408.5,380.5 L 406,377 L 400.5,376.5 L 398.5,373.5 L 395,371 L 395,348 L 397,345.5 L 400.5,345.5 L 404,349.5 L 409,349.5 L 412,353.5 L 416.5,353.5 L 418,355 L 418.5,359 L 414.5,362 L 414.5,364.5 L 416.5,366 L 421.5,365 L 427,360 L 427,358 L 423,355 L 422.5,352 L 423.5,350.5 L 429.5,349.5 L 432.5,346 L 437.5,345.5 L 439.5,342 L 441.5,342 Z M 403,335.5 L 404.5,334 L 409.5,334 L 416.5,326 L 421,326 L 428,334 L 433,334 L 434.5,336 L 434.5,339 L 433,340.5 L 428,341 L 424.5,345 L 416.5,345 L 413,341 L 404.5,341 L 403,339 Z M 308.5,317.5 L 305.5,321.5 L 300.5,321.5 L 298.5,325 L 294,325 L 290.5,329 L 285.5,329 L 282.5,333 L 277.5,333 L 276,334 L 275.5,375 L 276,376.5 L 278.5,377.5 L 281.5,381.5 L 286.5,381.5 L 289.5,385.5 L 294.5,385.5 L 297,389 L 301.5,389 L 305,393 L 314.5,393 L 317,389.5 L 321.5,389.5 L 325,385.5 L 330.5,385 L 333,381.5 L 338,381.5 L 341,377.5 L 343.5,376.5 L 344,335.5 L 343,333.5 L 341,333 L 338,329 L 333,329 L 329.5,325 L 321,325 L 318.5,321.5 L 314,321.5 L 311,317.5 Z M 293.5,333.5 L 302,334 L 305.5,330 L 314,330 L 317.5,334 L 326,333.5 L 327,334.5 L 327,336.5 L 322.5,340.5 L 316.5,341 L 315.5,342 L 315.5,347 L 317,349.5 L 322,349.5 L 325.5,345.5 L 333.5,345.5 L 335,347 L 335,371.5 L 334,372.5 L 328.5,373 L 326,376.5 L 320.5,377 L 318,380.5 L 313.5,380.5 L 312,378 L 312,367.5 L 316,364.5 L 316,362 L 310.5,357.5 L 304,358 L 303,361.5 L 303.5,364 L 306,365.5 L 307.5,368 L 307.5,378 L 306,380.5 L 301.5,380.5 L 299,377 L 293.5,376.5 L 290,372.5 L 285.5,372.5 L 284,370.5 L 284,343 L 285,342 L 287,342 L 289,345.5 L 294,345.5 L 297,349.5 L 302,349.5 L 305,353 L 311,353 L 312,352 L 312,348 L 311,345.5 L 305.5,345 L 302.5,341 L 297.5,341 L 292.5,336.5 L 292.5,334.5 Z M 365,230 L 361.5,234 L 357,234 L 353.5,238 L 348,238.5 L 341.5,246 L 336.5,246 L 335.5,247 L 335,288 L 336,290 L 342,290.5 L 344.5,294 L 349.5,294 L 352.5,298 L 357.5,298 L 360.5,302 L 365.5,302 L 368.5,306 L 373.5,306 L 377,302 L 382,302 L 385,298 L 390,298 L 393,294 L 398,294 L 404.5,286.5 L 407,285.5 L 407,282.5 L 403,280 L 403.5,249 L 403,247 L 400.5,246 L 397.5,242 L 392.5,242 L 389.5,238 L 384.5,238 L 381.5,234 L 376.5,234 L 373,230 Z M 395,256 L 394.5,284.5 L 393.5,285.5 L 388.5,285.5 L 381,293.5 L 377,293.5 L 375.5,292 L 375.5,287.5 L 373.5,285.5 L 368,286 L 367,287 L 366.5,292.5 L 365.5,293.5 L 361,293.5 L 354,285.5 L 349,285.5 L 347.5,283 L 343.5,280 L 343.5,260.5 L 345.5,258.5 L 353.5,258.5 L 356.5,262.5 L 361.5,262.5 L 365,266.5 L 377.5,266.5 L 381,262.5 L 386.5,262 L 392.5,254.5 Z M 351.5,248 L 352.5,246.5 L 357.5,247 L 360.5,243 L 366.5,242.5 L 369.5,238.5 L 373,238.5 L 376,242.5 L 381,242.5 L 384,246.5 L 389.5,246.5 L 390.5,249 L 385,254 L 379.5,254.5 L 377,258 L 365,258 L 362,254 L 357.5,254 L 354,250.5 L 353,250.5 Z M 112,123 L 108,127 L 99.5,127 L 96,131 L 90.5,131.5 L 88.5,135 L 83.5,135 L 80.5,139 L 74.5,139.5 L 62,152 L 62,157 L 57.5,161.5 L 57.5,347 L 62,351.5 L 62,356.5 L 74.5,369 L 80,369.5 L 82.5,373 L 88,373.5 L 91.5,377.5 L 100,377.5 L 103.5,381.5 L 120,381.5 L 123.5,385.5 L 159,385.5 L 162.5,381.5 L 179,381.5 L 182.5,377.5 L 191,377.5 L 194.5,373.5 L 199.5,373.5 L 206.5,365.5 L 211.5,365.5 L 217,360 L 217,355 L 225,348 L 224.5,315.5 L 226,314 L 230,318 L 238.5,317.5 L 240,319 L 236,323.5 L 236,327.5 L 238.5,330 L 243.5,329.5 L 246,326 L 254.5,326 L 256.5,324.5 L 256.5,315 L 247.5,305.5 L 245,305.5 L 242.5,309.5 L 238.5,309.5 L 235.5,305.5 L 230.5,305.5 L 224.5,299 L 225,161 L 221,157.5 L 221,152.5 L 204,135.5 L 198.5,135 L 195,131 L 186.5,131 L 184,127.5 L 174.5,127 L 171,123 Z M 70,307.5 L 72.5,306 L 75.5,310 L 80,310 L 83,314 L 88,314 L 91.5,318 L 100,318 L 103.5,322 L 120,322 L 123,326 L 163.5,326 L 167,322 L 179.5,322 L 182.5,318 L 191.5,318 L 194.5,314 L 199.5,314 L 202.5,310 L 207,310 L 209,307 L 211,306 L 213,308 L 212,312 L 212.5,347 L 207,353 L 205,354 L 203,357 L 201,358 L 199.5,360.5 L 194,361 L 190.5,365 L 186,365 L 183.5,369 L 180,365 L 177.5,365 L 175.5,368.5 L 170,369 L 167,373 L 116,373 L 111.5,368.5 L 100,369 L 97,365 L 92,365 L 89,361 L 84,361 L 81.5,357.5 L 80,357 L 77.5,353.5 L 76,353 L 70,346.5 Z M 70,253.5 L 72,250.5 L 76,250.5 L 83,258.5 L 92,258.5 L 95,262.5 L 104,262.5 L 107,266.5 L 135.5,266.5 L 139,270.5 L 143.5,270.5 L 147,266.5 L 179.5,266.5 L 183,262.5 L 191.5,262.5 L 194.5,258.5 L 199.5,258.5 L 206,251 L 210.5,250.5 L 212.5,252.5 L 212.5,276 L 211,277.5 L 205.5,277.5 L 204.5,278.5 L 204.5,281.5 L 205.5,282.5 L 211,282.5 L 212.5,284 L 212.5,292 L 210,293.5 L 207,297.5 L 202,297.5 L 195,305.5 L 190,305.5 L 187,309.5 L 174,309.5 L 171,313.5 L 107.5,313.5 L 104.5,309.5 L 95.5,309.5 L 92.5,305.5 L 87.5,305.5 L 85.5,302 L 79.5,301.5 L 78,299 L 70.5,292.5 Z M 70,192.5 L 71,191.5 L 73,191.5 L 79,199 L 84,199 L 87,203 L 92,203 L 95,207 L 104,207 L 107,211 L 175.5,211 L 179,207 L 187.5,207 L 191,203 L 196,203 L 199,199 L 204,199 L 210,191.5 L 211.5,191.5 L 213,193.5 L 212,197 L 212.5,236.5 L 209.5,238.5 L 207,242 L 202,242 L 199,246 L 194,246 L 191,250 L 186,250 L 183,254 L 174.5,254 L 171,258 L 115.5,258 L 112.5,254 L 99.5,254 L 96.5,250 L 91.5,250 L 88.5,246 L 83.5,246 L 82,243.5 L 79.5,242 L 78,239.5 L 75.5,238 L 70,232 Z M 70,162 L 76,155.5 L 77.5,155 L 80,151.5 L 81.5,151 L 84,147.5 L 85.5,147 L 88,143.5 L 93,143.5 L 95.5,140 L 103.5,140 L 107,136 L 123.5,136 L 127,132 L 155.5,132 L 159,136 L 175.5,136 L 179,140 L 186.5,139.5 L 190,143.5 L 195.5,144 L 202,151.5 L 207.5,152 L 208.5,153.5 L 208.5,158.5 L 211,159.5 L 212.5,161.5 L 212.5,177 L 209.5,179 L 208.5,181 L 205.5,183 L 199,190.5 L 194,190.5 L 191,194.5 L 186,194.5 L 183,198.5 L 170.5,198.5 L 167.5,202.5 L 115.5,202.5 L 112,198.5 L 99.5,198.5 L 96.5,194.5 L 91.5,194.5 L 88.5,190.5 L 83.5,190.5 L 82,188 L 79.5,186.5 L 78,184 L 75.5,182.5 L 70,176.5 Z" fill="#0b1fb3" fill-rule="evenodd"/>
</svg>
