<svg xmlns="http://www.w3.org/2000/svg" viewBox="0 0 512 512" width="512" height="512" role="img" aria-label="data_quality_check">
  <title>data_quality_check</title>
  <desc>Таблица данных + checkmark</desc>
  <path d="M 163.5,369 L 163.5,372.5 L 164.5,373.5 L 214,373.5 L 215.5,372 L 215.5,369.5 L 214,368 L 166.5,367.5 Z M 154.5,372 L 156.5,373.5 L 158,373 L 159.5,370 L 159.5,327 L 160.5,326 L 222,326 L 224,324.5 L 224,321.5 L 221.5,320 L 160,320.5 L 158,324 L 154.5,326 L 154,328 Z M 72,325.5 L 71.5,367.5 L 75.5,369.5 L 78,373.5 L 140,373.5 L 141.5,371.5 L 141,368.5 L 138,367.5 L 78,367.5 L 77,366 L 77,327.5 L 78.5,326 L 144,326 L 145.5,328 L 145,368.5 L 146.5,373 L 148,373.5 L 150,372.5 L 150.5,327 L 146,323 L 145,320.5 L 79,320 L 77,321 L 74.5,325 Z M 257.5,316 L 255,316 L 252.5,320 L 239,320 L 234.5,325 L 232,326 L 231.5,370.5 L 233,373 L 234.5,373.5 L 237.5,371.5 L 237.5,327 L 238.5,326 L 252.5,326 L 256,321.5 L 258.5,321 L 259,317.5 Z M 154.5,311.5 L 155.5,312.5 L 158.5,312.5 L 159.5,311 L 159.5,266.5 L 160.5,265.5 L 222,265.5 L 224,264 L 224,261.5 L 222,260 L 159.5,260.5 L 158.5,262.5 L 154.5,265.5 L 154,267.5 Z M 283.5,260 L 238.5,259.5 L 235,264 L 232,265.5 L 231.5,310 L 233,312.5 L 236,312.5 L 237.5,311 L 237.5,266.5 L 238.5,265.5 L 282.5,265.5 L 285,263 Z M 72,265 L 71.5,311 L 72.5,312.5 L 76,312.5 L 77.5,310 L 77,267 L 78.5,265.5 L 144,265.5 L 145.5,267.5 L 145,310.5 L 146.5,312.5 L 149,312.5 L 150,311.5 L 150.5,266.5 L 150,265 L 147.5,264 L 145,260.5 L 123,259.5 L 82.5,259.5 L 77.5,260.5 L 75,264 Z M 154.5,205 L 154,249 L 154.5,251 L 157.5,252.5 L 160,256 L 223,256 L 224,255 L 224,252 L 222.5,251 L 161,251 L 159.5,249.5 L 159.5,206 L 160.5,205 L 221.5,205 L 224,203.5 L 224,200.5 L 223,199.5 L 160.5,199 L 159,200 L 158.5,202 Z M 72,204.5 L 71.5,250.5 L 73,252 L 74.5,252 L 77,256 L 80,256 L 81.5,254.5 L 81.5,252 L 77,249.5 L 77,206.5 L 78,205 L 144,205 L 145.5,207 L 145,250 L 144,251 L 125.5,251 L 123.5,253.5 L 125.5,256 L 145,256 L 146,254 L 150,251 L 150.5,206 L 149.5,204 L 146.5,202.5 L 145,199.5 L 82,199 L 77.5,200 L 75,203.5 Z M 156,143 L 154,146 L 154,188.5 L 155,191 L 158,191.5 L 159.5,190 L 159.5,144.5 L 158,143 Z M 307,138.5 L 305.5,141 L 306,143 L 310,146 L 309.5,189 L 310.5,191 L 314,191.5 L 315.5,189.5 L 315.5,145 L 311,141.5 L 309.5,138.5 Z M 258,140 L 258,142.5 L 259.5,144 L 300.5,144 L 301.5,143 L 301.5,140 L 300,138.5 L 259.5,138.5 Z M 238,138.5 L 235,143 L 232.5,143.5 L 231.5,146 L 231.5,188.5 L 232.5,191 L 234.5,191.5 L 237.5,195.5 L 240.5,195.5 L 242,192.5 L 237,188 L 237,146.5 L 239,144 L 241.5,143 L 242,141 L 241,139 Z M 130,138.5 L 128,140.5 L 129.5,144 L 143.5,144 L 145,145 L 145,189.5 L 146.5,191.5 L 149,191.5 L 150.5,189.5 L 150.5,145 L 146.5,142 L 144.5,138.5 Z M 77.5,138.5 L 76,141.5 L 71.5,144.5 L 71.5,190 L 73,191.5 L 74.5,191.5 L 76.5,195 L 80,195.5 L 81.5,194 L 81.5,191.5 L 80.5,190.5 L 78.5,190.5 L 77,188.5 L 77,146 L 78,144.5 L 81,143.5 L 81.5,140 L 80,138.5 Z M 142.5,113 L 142,110.5 L 140,108.5 L 126.5,108 L 123,112.5 L 121.5,112.5 L 118,109 L 108,108.5 L 103,109.5 L 101.5,114.5 L 102.5,117.5 L 103.5,118 L 106,117.5 L 108.5,114 L 110,114 L 113,118 L 123,118 L 125.5,114 L 135.5,114 L 138.5,118 L 140.5,118 L 142,116.5 Z M 63,100 L 60,100 L 58.5,102 L 58.5,371.5 L 61.5,373.5 L 63,373 L 64.5,370.5 L 64.5,102.5 Z M 102,101.5 L 102.5,104 L 104.5,105 L 110.5,104.5 L 122,105.5 L 124.5,103.5 L 124.5,101 L 122.5,99.5 L 104,99.5 Z M 318.5,87 L 315,87 L 314,90.5 L 315,92 L 317.5,92.5 L 319,95.5 L 323,98.5 L 322.5,228.5 L 317,229.5 L 315.5,228 L 315.5,205.5 L 314.5,204 L 312,203.5 L 308.5,199 L 238.5,199.5 L 231.5,206.5 L 231.5,249 L 233,252 L 236,252 L 237.5,250 L 237.5,206 L 238.5,205 L 309,205 L 310,206.5 L 310,229.5 L 313,230.5 L 316.5,235 L 322,235 L 325,230.5 L 328,229.5 L 328.5,97.5 L 324,94 L 322.5,91 L 320,90 Z" fill="#8fb7df" fill-rule="evenodd"/>
  <path d="M 346.5,234 L 342.5,238.5 L 329,238.5 L 321.5,246.5 L 316,247 L 313.5,250.5 L 307,251.5 L 288.5,270 L 288.5,275.5 L 282.5,281.5 L 280,282.5 L 279.5,289 L 276.5,290.5 L 275,293.5 L 275.5,301.5 L 271,305 L 271,354 L 275.5,358 L 275,365.5 L 275.5,367.5 L 279.5,370 L 280,376.5 L 282.5,377.5 L 292.5,387.5 L 293,394 L 295.5,395 L 303,403.5 L 308.5,403.5 L 320.5,416.5 L 330,416.5 L 334,421 L 347.5,421 L 351,425 L 369.5,425 L 373,421 L 390.5,421 L 394.5,416.5 L 400,416.5 L 403.5,412 L 409,412 L 415,404.5 L 418,403 L 419.5,400 L 422.5,398.5 L 428,391.5 L 431,390 L 440.5,380.5 L 440.5,375 L 444.5,372.5 L 445,366 L 448.5,364 L 449.5,362 L 449.5,349 L 453,346.5 L 454,343.5 L 453.5,309 L 449.5,306.5 L 449.5,297 L 448.5,295 L 445,293 L 445,287.5 L 440.5,284 L 440.5,278.5 L 437.5,277 L 408.5,247 L 403.5,247 L 400.5,243 L 394.5,242.5 L 391.5,238.5 L 382,238.5 L 378,234 Z M 350,415 L 350,413 L 351.5,411.5 L 373.5,411.5 L 375,413 L 374,415.5 L 369,416.5 L 351,416 Z M 332,409 L 333,408 L 335.5,408 L 336.5,410.5 L 335,412 L 333.5,412 L 332,410.5 Z M 384.5,409 L 387,407.5 L 391.5,407.5 L 392,410.5 L 390.5,412 L 386,412 L 384.5,410.5 Z M 323.5,404.5 L 324.5,403.5 L 326.5,403.5 L 327.5,404.5 L 327.5,406.5 L 326.5,407.5 L 324.5,407.5 L 323.5,406.5 Z M 401,403.5 L 399.5,407.5 L 394,407.5 L 393,406.5 L 394.5,403.5 Z M 403,399 L 405.5,400 L 405.5,402 L 403.5,403.5 L 401.5,403.5 L 401,401.5 Z M 316.5,398.5 L 319,400.5 L 318,403 L 316,403 L 314.5,401 Z M 442,343 L 444,343.5 L 445,345 L 444.5,349 L 443,350.5 L 441,350.5 L 440,349 L 440,345 Z M 280.5,338 L 282.5,338.5 L 284.5,341.5 L 284.5,348 L 282,351 L 279.5,348 Z M 445.5,326 L 447.5,326 L 449,328 L 449,331 L 447,333.5 L 446,333.5 L 444,331 L 444,328 Z M 279,316.5 L 280,317 L 280,337.5 L 278,338 L 276,336.5 L 276,318.5 Z M 440,310 L 441.5,308 L 443.5,308 L 444.5,309 L 444.5,311 L 443.5,312 L 441.5,312 Z M 281.5,304 L 282.5,304 L 284.5,307 L 284.5,313.5 L 283,316 L 280.5,316.5 L 279.5,306.5 Z M 407,256 L 408.5,256 L 410,257.5 L 410,259 L 408.5,260.5 L 406.5,260 L 405.5,258.5 Z M 377.5,252 L 381.5,256.5 L 390.5,256.5 L 393.5,260.5 L 399.5,261 L 402,264.5 L 403.5,265 L 410.5,273 L 412,273.5 L 414.5,277 L 422.5,284 L 424,286.5 L 426.5,287.5 L 427,294 L 430,295.5 L 431.5,297.5 L 431,310 L 436,315.5 L 436,339 L 435.5,340.5 L 431.5,343.5 L 431.5,357.5 L 427,361 L 427,366.5 L 423,369 L 422.5,375.5 L 420,377 L 418,380 L 416,381 L 403.5,394 L 398.5,394 L 396,397.5 L 389.5,398.5 L 386.5,402.5 L 372.5,403 L 368,407 L 355,406.5 L 352.5,403 L 334,402.5 L 331,398.5 L 325,398 L 318,390 L 312,389.5 L 310.5,387 L 302,379.5 L 302,374 L 293.5,366.5 L 293.5,357 L 289,353.5 L 289.5,337 L 288.5,334.5 L 285,332 L 285,323 L 289,319.5 L 289.5,317.5 L 289,307 L 293.5,302 L 293,294 L 299.5,286.5 L 302,285.5 L 302.5,279 L 304.5,278 L 316.5,265.5 L 322,265 L 325,261 L 331,260.5 L 334.5,256.5 L 343,256.5 L 346.5,252.5 Z M 406.5,300.5 L 405.5,299 L 403,298.5 L 401,295 L 399,294 L 389,295 L 388,296 L 388,301.5 L 385,303.5 L 383.5,306 L 380.5,308 L 379.5,310 L 376.5,312 L 364.5,325 L 362.5,325.5 L 362,332 L 354.5,338.5 L 352.5,342 L 350.5,342 L 348.5,338.5 L 346.5,337.5 L 345,335 L 342.5,333.5 L 330.5,320.5 L 329,320.5 L 325.5,324.5 L 324,325 L 321.5,329 L 319.5,329 L 318.5,330 L 318.5,333.5 L 321.5,334.5 L 323.5,337.5 L 336,349 L 337,351 L 340,352.5 L 340.5,359 L 343.5,360.5 L 346.5,364.5 L 357,364.5 L 358.5,362.5 L 358.5,357.5 L 361.5,355.5 L 362.5,353.5 L 366,351 L 367,349 L 370,347 L 381.5,334.5 L 384.5,332.5 L 384.5,327 L 387,325.5 L 394.5,317 L 397,316 L 397,310.5 L 400,308.5 L 403,304.5 L 406,303.5 Z M 324,331.5 L 325,330 L 330,329.5 L 332.5,333.5 L 334,333.5 L 336.5,335.5 L 336.5,337 L 334,338.5 L 331,334 L 325,333.5 Z M 397,300.5 L 398,299.5 L 400,299.5 L 401,300.5 L 401,302.5 L 398,303.5 L 397,302.5 Z M 323.5,253.5 L 323.5,254.5 L 322,256 L 319.5,256.5 L 317,260 L 312.5,260.5 L 311,259.5 L 311,257.5 L 312,256.5 L 318,256 L 320.5,252 L 322,252 Z M 398.5,251.5 L 401,252.5 L 401.5,254 L 400.5,255.5 L 398,255.5 L 397,254.5 L 397,253 Z M 390,247 L 392.5,248.5 L 392.5,250.5 L 391,251.5 L 388.5,250.5 L 388.5,248.5 Z M 328.5,250.5 L 328.5,248.5 L 330,247 L 334,247 L 336,249 L 334,251.5 L 329.5,251.5 Z M 345,244.5 L 346.5,243 L 348,243 L 349.5,245.5 L 348,247 L 346,247 Z" fill="#08741c" fill-rule="evenodd"/>
  <path d="M 349,412.5 L 349,415.5 L 351.5,417 L 373,417 L 375.5,415.5 L 375.5,412 L 373.5,411 L 351,411 Z M 406,399 L 403,398 L 401,399.5 L 399.5,402.5 L 394,402.5 L 391.5,406.5 L 385,407 L 383.5,409 L 384,411.5 L 385.5,412.5 L 391,412.5 L 394.5,408 L 400,408 L 403,404 L 406,403 Z M 281.5,303 L 279.5,304.5 L 279.5,314.5 L 275,318 L 275,336.5 L 276.5,338.5 L 278,338.5 L 279.5,340 L 279,347 L 280,351 L 283.5,351.5 L 285,350 L 285,339.5 L 280.5,336 L 280.5,319 L 282,317 L 283.5,317 L 285,315.5 L 285,305 L 284,303.5 Z M 69.5,91 L 63,98 L 63.5,376.5 L 73.5,386 L 261.5,386 L 271.5,376.5 L 270.5,372.5 L 234.5,372.5 L 232.5,370.5 L 232.5,328 L 238.5,321.5 L 252,321.5 L 254.5,319.5 L 253,312 L 234.5,312 L 232.5,309.5 L 232.5,267 L 239,260.5 L 283.5,260.5 L 285,254 L 283.5,251.5 L 234,251 L 232.5,206.5 L 242,200 L 308,200 L 314.5,206.5 L 314.5,229 L 323.5,229 L 323.5,97 L 313.5,87 L 78,87 L 75,91 Z M 155.5,326.5 L 157.5,325.5 L 160.5,321.5 L 222,321.5 L 223.5,323 L 223,365 L 224,371 L 221.5,372.5 L 218,368 L 216,368 L 213,372.5 L 156.5,372.5 L 155,370.5 Z M 73,326.5 L 76,325 L 78.5,321.5 L 144,321.5 L 146,324.5 L 149.5,327 L 149.5,371 L 148,372.5 L 78.5,372.5 L 76.5,369.5 L 72.5,366.5 Z M 155.5,266 L 157.5,265 L 160.5,261 L 222,261 L 223.5,262.5 L 223,311 L 221.5,312 L 156.5,312 L 155,310 Z M 72.5,266.5 L 78.5,261 L 82.5,260.5 L 144,261 L 146.5,264.5 L 149.5,266.5 L 149.5,310.5 L 148,312 L 73.5,311.5 L 72.5,310 Z M 155.5,205.5 L 158,204 L 161,200 L 222,200.5 L 223.5,202 L 223.5,254 L 221.5,255.5 L 161,255.5 L 155,249.5 Z M 72.5,206 L 78.5,200.5 L 82,200 L 144.5,200.5 L 146.5,204 L 149.5,206 L 149.5,250 L 143.5,255.5 L 126.5,255.5 L 123.5,251.5 L 121,251.5 L 118,255.5 L 114.5,251.5 L 112.5,251.5 L 109,255.5 L 105.5,251.5 L 82.5,251.5 L 80,255 L 77.5,255 L 72.5,249.5 Z M 155,145.5 L 156.5,144 L 222,144 L 223.5,145.5 L 223.5,194 L 220.5,194.5 L 217,190.5 L 156.5,190.5 L 155,189 Z M 233,145 L 235,144 L 238.5,139.5 L 239.5,139.5 L 243,144 L 256.5,144 L 260.5,139.5 L 299.5,139.5 L 302,143.5 L 304.5,144 L 306.5,141 L 309,139.5 L 311.5,143.5 L 314.5,145.5 L 314.5,189 L 313,190.5 L 260.5,190.5 L 256.5,194.5 L 251.5,194.5 L 248.5,191 L 243.5,190.5 L 240,194.5 L 238,194.5 L 232.5,188.5 Z M 72.5,145.5 L 75.5,143.5 L 78,139.5 L 79.5,139.5 L 83,144 L 126.5,144 L 130.5,139.5 L 144,139.5 L 149.5,145.5 L 149,190 L 83,190.5 L 80,194.5 L 77.5,194.5 L 72.5,189 Z M 306,123.5 L 307,122 L 309,122 L 310.5,124.5 L 309,126 L 307,126 Z M 103,111 L 105,109.5 L 117.5,109.5 L 121,113 L 123,113 L 126,109.5 L 139.5,109.5 L 141.5,111.5 L 141.5,115 L 139.5,117 L 104.5,117 L 103,115 Z M 96,109.5 L 97.5,111 L 98,114.5 L 94.5,118 L 93.5,120.5 L 91,121.5 L 89,118.5 L 85.5,116 L 85.5,115 L 91.5,109.5 Z M 76.5,106 L 78,104.5 L 79.5,104.5 L 81,106 L 81,107.5 L 78.5,109 L 76.5,107.5 Z M 138,100.5 L 140,100 L 141.5,101.5 L 141.5,103 L 140.5,104 L 138.5,104 L 137,102.5 Z M 103,101.5 L 104.5,100 L 122,100 L 123.5,101.5 L 123.5,103.5 L 122.5,104.5 L 104,104 Z M 87,100 L 89.5,101.5 L 88.5,104.5 L 86.5,104.5 L 85,102.5 Z" fill="#0b1fb3" fill-rule="evenodd"/>
</svg>
