<?xml version="1.0" encoding="UTF-8"?>
<svg xmlns="http://www.w3.org/2000/svg" width="512" height="512" viewBox="0 0 512 512" role="img" aria-label="calendar event">
  <title>calendar event</title>
  <path d="M 393.0 166.0 L 387.0 162.0 L 347.0 161.0 L 346.0 137.0 L 343.0 132.0 L 334.0 125.0 L 327.0 125.0 L 316.0 131.0 L 312.0 138.0 L 311.0 161.0 L 308.0 163.0 L 222.0 162.0 L 220.0 160.0 L 220.0 137.0 L 213.0 129.0 L 208.0 126.0 L 200.0 126.0 L 194.0 129.0 L 186.0 139.0 L 184.0 162.0 L 141.0 164.0 L 136.0 169.0 L 135.0 173.0 L 134.0 200.0 L 135.0 379.0 L 138.0 395.0 L 146.0 401.0 L 171.0 402.0 L 354.0 402.0 L 391.0 399.0 L 396.0 391.0 L 396.0 285.0 L 394.0 258.0 Z M 380.0 221.0 L 381.0 375.0 L 379.0 386.0 L 373.0 385.0 L 155.0 387.0 L 151.0 384.0 L 148.0 328.0 L 149.0 308.0 L 146.0 271.0 L 147.0 224.0 L 149.0 221.0 Z M 223.0 344.0 L 219.0 339.0 L 216.0 338.0 L 188.0 339.0 L 182.0 343.0 L 181.0 348.0 L 183.0 352.0 L 186.0 354.0 L 218.0 354.0 L 223.0 349.0 Z M 306.0 344.0 L 306.0 349.0 L 308.0 352.0 L 314.0 355.0 L 342.0 354.0 L 346.0 351.0 L 348.0 346.0 L 346.0 341.0 L 341.0 337.0 L 312.0 338.0 Z M 286.0 343.0 L 284.0 340.0 L 278.0 337.0 L 249.0 339.0 L 245.0 344.0 L 245.0 349.0 L 249.0 354.0 L 281.0 354.0 L 286.0 348.0 Z M 306.0 303.0 L 308.0 309.0 L 312.0 312.0 L 340.0 312.0 L 345.0 310.0 L 348.0 305.0 L 346.0 298.0 L 342.0 295.0 L 312.0 295.0 L 309.0 297.0 Z M 244.0 303.0 L 246.0 309.0 L 250.0 312.0 L 280.0 312.0 L 285.0 307.0 L 284.0 298.0 L 278.0 295.0 L 249.0 296.0 Z M 223.0 303.0 L 221.0 298.0 L 216.0 295.0 L 189.0 296.0 L 182.0 299.0 L 180.0 306.0 L 184.0 312.0 L 218.0 312.0 L 221.0 309.0 Z M 347.0 260.0 L 345.0 255.0 L 341.0 253.0 L 312.0 254.0 L 309.0 256.0 L 307.0 264.0 L 312.0 269.0 L 341.0 269.0 L 346.0 265.0 Z M 244.0 261.0 L 245.0 266.0 L 250.0 270.0 L 280.0 270.0 L 285.0 265.0 L 285.0 258.0 L 282.0 254.0 L 279.0 253.0 L 249.0 254.0 Z M 220.0 256.0 L 216.0 253.0 L 192.0 254.0 L 184.0 257.0 L 181.0 261.0 L 181.0 265.0 L 186.0 270.0 L 217.0 270.0 L 221.0 265.0 Z M 164.0 206.0 L 169.0 202.0 L 172.0 204.0 L 171.0 207.0 Z M 179.0 205.0 L 183.0 202.0 L 188.0 201.0 L 196.0 203.0 L 194.0 207.0 L 181.0 208.0 Z M 374.0 202.0 L 378.0 200.0 L 380.0 202.0 L 380.0 205.0 L 375.0 206.0 Z M 325.0 202.0 L 320.0 207.0 L 307.0 206.0 L 308.0 204.0 L 322.0 200.0 Z M 347.0 203.0 L 346.0 205.0 L 335.0 207.0 L 333.0 205.0 L 344.0 199.0 Z M 302.0 200.0 L 298.0 206.0 L 290.0 206.0 L 298.0 199.0 Z M 233.0 204.0 L 242.0 199.0 L 247.0 205.0 L 234.0 206.0 Z M 228.0 198.0 L 228.0 206.0 L 211.0 207.0 L 209.0 205.0 L 219.0 202.0 L 225.0 197.0 Z M 267.0 196.0 L 268.0 199.0 L 267.0 204.0 L 265.0 206.0 L 258.0 206.0 L 256.0 204.0 L 260.0 199.0 Z M 365.0 195.0 L 366.0 197.0 L 357.0 205.0 L 356.0 202.0 L 362.0 196.0 Z M 283.0 195.0 L 284.0 198.0 L 279.0 203.0 L 278.0 199.0 Z M 278.0 177.0 L 279.0 179.0 L 275.0 182.0 L 274.0 180.0 Z M 378.0 176.0 L 381.0 179.0 L 380.0 191.0 L 378.0 193.0 L 371.0 193.0 L 370.0 191.0 L 375.0 186.0 L 376.0 177.0 Z M 287.0 180.0 L 290.0 176.0 L 294.0 177.0 L 289.0 182.0 Z M 153.0 176.0 L 155.0 178.0 L 149.0 184.0 L 147.0 182.0 L 147.0 179.0 Z M 300.0 189.0 L 302.0 185.0 L 302.0 177.0 L 306.0 175.0 L 312.0 176.0 L 319.0 184.0 L 327.0 187.0 L 338.0 183.0 L 346.0 175.0 L 357.0 177.0 L 348.0 185.0 L 326.0 195.0 L 309.0 187.0 L 303.0 190.0 Z M 265.0 175.0 L 267.0 178.0 L 260.0 183.0 L 259.0 182.0 L 261.0 178.0 Z M 252.0 177.0 L 246.0 182.0 L 244.0 181.0 L 247.0 176.0 L 249.0 175.0 Z M 232.0 177.0 L 214.0 194.0 L 200.0 198.0 L 188.0 196.0 L 185.0 190.0 L 178.0 189.0 L 176.0 184.0 L 171.0 183.0 L 163.0 190.0 L 149.0 207.0 L 146.0 205.0 L 147.0 189.0 L 149.0 187.0 L 153.0 191.0 L 156.0 191.0 L 172.0 176.0 L 186.0 176.0 L 190.0 182.0 L 196.0 187.0 L 210.0 186.0 L 215.0 183.0 L 221.0 176.0 L 229.0 175.0 Z M 202.0 141.0 L 207.0 144.0 L 207.0 160.0 L 204.0 163.0 L 199.0 161.0 L 199.0 144.0 Z M 328.0 140.0 L 332.0 142.0 L 332.0 161.0 L 330.0 163.0 L 327.0 163.0 L 325.0 161.0 L 325.0 143.0 Z" fill="#0b1fb3" fill-rule="evenodd"/>
</svg>
