<?xml version="1.0" encoding="UTF-8"?>
<svg xmlns="http://www.w3.org/2000/svg" width="512" height="512" viewBox="0 0 512 512" role="img" aria-label="historical database">
  <title>historical database</title>
  <path d="M 196.0 122.0 L 182.0 127.0 L 181.0 141.0 L 150.0 142.0 L 139.0 153.0 L 137.0 160.0 L 137.0 184.0 L 135.0 204.0 L 135.0 373.0 L 139.0 386.0 L 150.0 397.0 L 165.0 407.0 L 178.0 413.0 L 198.0 420.0 L 241.0 427.0 L 266.0 428.0 L 303.0 424.0 L 329.0 417.0 L 361.0 403.0 L 382.0 387.0 L 385.0 381.0 L 385.0 305.0 L 383.0 276.0 L 383.0 159.0 L 379.0 148.0 L 370.0 139.0 L 350.0 128.0 L 336.0 125.0 L 327.0 121.0 L 311.0 118.0 L 302.0 118.0 L 290.0 115.0 L 234.0 115.0 Z M 370.0 322.0 L 370.0 377.0 L 353.0 390.0 L 325.0 403.0 L 297.0 409.0 L 262.0 412.0 L 226.0 409.0 L 221.0 407.0 L 209.0 406.0 L 206.0 404.0 L 198.0 403.0 L 192.0 400.0 L 179.0 397.0 L 171.0 393.0 L 157.0 383.0 L 151.0 377.0 L 150.0 374.0 L 150.0 323.0 L 152.0 323.0 L 157.0 328.0 L 170.0 335.0 L 198.0 345.0 L 241.0 352.0 L 273.0 352.0 L 294.0 350.0 L 326.0 343.0 L 345.0 336.0 L 360.0 328.0 L 368.0 321.0 Z M 370.0 252.0 L 370.0 300.0 L 359.0 311.0 L 348.0 318.0 L 324.0 328.0 L 314.0 329.0 L 307.0 332.0 L 263.0 337.0 L 228.0 335.0 L 217.0 332.0 L 208.0 332.0 L 187.0 325.0 L 169.0 317.0 L 159.0 311.0 L 149.0 302.0 L 150.0 252.0 L 171.0 264.0 L 177.0 265.0 L 191.0 271.0 L 196.0 271.0 L 202.0 274.0 L 250.0 280.0 L 290.0 278.0 L 315.0 274.0 L 345.0 264.0 L 364.0 254.0 L 367.0 250.0 Z M 369.0 187.0 L 369.0 230.0 L 357.0 241.0 L 347.0 247.0 L 323.0 255.0 L 321.0 257.0 L 311.0 258.0 L 302.0 261.0 L 279.0 264.0 L 241.0 264.0 L 210.0 260.0 L 207.0 258.0 L 188.0 254.0 L 179.0 251.0 L 173.0 247.0 L 170.0 247.0 L 160.0 241.0 L 150.0 232.0 L 149.0 190.0 L 151.0 188.0 L 172.0 199.0 L 194.0 206.0 L 235.0 212.0 L 266.0 213.0 L 306.0 209.0 L 310.0 207.0 L 325.0 205.0 L 358.0 193.0 L 363.0 190.0 L 366.0 186.0 Z M 152.0 167.0 L 153.0 159.0 L 160.0 152.0 L 179.0 142.0 L 219.0 132.0 L 254.0 128.0 L 306.0 132.0 L 314.0 135.0 L 321.0 135.0 L 328.0 138.0 L 336.0 139.0 L 356.0 148.0 L 367.0 158.0 L 368.0 161.0 L 366.0 168.0 L 353.0 179.0 L 329.0 189.0 L 290.0 196.0 L 270.0 197.0 L 224.0 196.0 L 188.0 189.0 L 164.0 179.0 Z" fill="#0b1fb3" fill-rule="evenodd"/>
</svg>
