<svg xmlns="http://www.w3.org/2000/svg" viewBox="0 0 512 512" width="512" height="512" role="img" aria-label="schema_registry">
  <title>schema_registry</title>
  <desc>Документ со скобками {} и галочкой</desc>
  <path d="M 350,444 L 351.5,447.5 L 379.5,447.5 L 381,446 L 381,443.5 L 379.5,442 L 351.5,442 Z M 358.5,431.5 L 359,434 L 361,435 L 378.5,435 L 381,433 L 381,431 L 379,429 L 360.5,429 Z M 295.5,427 L 291.5,424 L 289.5,420.5 L 287,420.5 L 285.5,422.5 L 285.5,424.5 L 286.5,426 L 290,427.5 L 290,432 L 288,433.5 L 81.5,433.5 L 80,437 L 82,439 L 289,439 L 292.5,434.5 L 295,433.5 Z M 153,422 L 153.5,425.5 L 156,426.5 L 176.5,426.5 L 178.5,426 L 179.5,424.5 L 179.5,422 L 177.5,420.5 L 155,420.5 Z M 308,399.5 L 307,400.5 L 307.5,404 L 310.5,405 L 312,408 L 315,409.5 L 316,412 L 319,413.5 L 320.5,416.5 L 323.5,418 L 325.5,421.5 L 329,421.5 L 330,419.5 L 329.5,417.5 L 326.5,416 L 324.5,412.5 L 322.5,412 L 320.5,408.5 L 318,407.5 L 316,404 L 312.5,402 L 311.5,399.5 Z M 295.5,348 L 294,350 L 294,368.5 L 295,370 L 298.5,370 L 300,367.5 L 300,350.5 L 299,348.5 Z M 283,348 L 281,351 L 281,371.5 L 282,374 L 285,374.5 L 287,372.5 L 287,349.5 L 285.5,348 Z M 438,343.5 L 435.5,345.5 L 435.5,372.5 L 436.5,374 L 439.5,374.5 L 441.5,372 L 441.5,346 L 440.5,344 Z M 450.5,335 L 448.5,336.5 L 448.5,377 L 449.5,378.5 L 451.5,379 L 454,377 L 454,336.5 Z M 337.5,292 L 339.5,293.5 L 344,293.5 L 348,289 L 362,289 L 363.5,288 L 364,286 L 362,283.5 L 347.5,283.5 L 345,287.5 L 338.5,288 L 337.5,289 Z M 236,275 L 234,277.5 L 234,321 L 235.5,323 L 238.5,323 L 240,320.5 L 240,277.5 L 239,275.5 Z M 235.5,211 L 234,213 L 234,252.5 L 235,254 L 238,254.5 L 240,252 L 240,213.5 L 238.5,211 Z M 261,159.5 L 260,163.5 L 263,165 L 266,169 L 331.5,169 L 332.5,170 L 332.5,256 L 339.5,263.5 L 345,263 L 348,259 L 351,257.5 L 351.5,255.5 L 351,156.5 L 348,155 L 345.5,157 L 345.5,256.5 L 344.5,257.5 L 339.5,257.5 L 338.5,256.5 L 338,169 L 334.5,167.5 L 332,163.5 L 267,163.5 L 264,159.5 Z M 73,138 L 71,140.5 L 71,410.5 L 72,412.5 L 75.5,413 L 77,411 L 77,140 L 76,138.5 Z M 308.5,112 L 307,113.5 L 307.5,117 L 310.5,118 L 312,121 L 314.5,122 L 316,125 L 319,126.5 L 320.5,129.5 L 323,130.5 L 325.5,134.5 L 329,134.5 L 330,132.5 L 329.5,130.5 L 326.5,129 L 324.5,125.5 L 322.5,125 L 320.5,121.5 L 318,120.5 L 316,117 L 312.5,115 L 311.5,112.5 Z M 290.5,112.5 L 290,116.5 L 292.5,117.5 L 294.5,120.5 L 297,122 L 299,125 L 301,126 L 303.5,129.5 L 311.5,136.5 L 313,139 L 315.5,139 L 317,137.5 L 316.5,134 L 314,133.5 L 312,130 L 309.5,129 L 307.5,125.5 L 305.5,125 L 303,121 L 301,120.5 L 299.5,118 L 295.5,115 L 294.5,112.5 Z M 269.5,91.5 L 268.5,93 L 268.5,150.5 L 272,152 L 273.5,155 L 275.5,156.5 L 328.5,156 L 329.5,155 L 329.5,152 L 327.5,150.5 L 275,150.5 L 274,149.5 L 274,97.5 L 277.5,95.5 L 278,92 L 276,90.5 Z M 60.5,86.5 L 58.5,88 L 58.5,411.5 L 60,413 L 62.5,413 L 64.5,409.5 L 64,88 Z M 278,78 L 277,79.5 L 277,82 L 280,83.5 L 282,86.5 L 284,87.5 L 286,90.5 L 294.5,98 L 296,100.5 L 298.5,100.5 L 300,98 L 299.5,96 L 297,95 L 295,92 L 282.5,80.5 L 281,78 Z M 257.5,78 L 255.5,80 L 255.5,154 L 256.5,155.5 L 259,156 L 261.5,153 L 261.5,81 L 260.5,78.5 Z" fill="#8fb7df" fill-rule="evenodd"/>
  <path d="M 410.5,327.5 L 409,326.5 L 404,326.5 L 401,322.5 L 398.5,322.5 L 392.5,330 L 390.5,331 L 383.5,339 L 380.5,340.5 L 380,346.5 L 367.5,358 L 367,363.5 L 363,367 L 362,369 L 357,369.5 L 354.5,366 L 352.5,365 L 350,361.5 L 348.5,361 L 345.5,357 L 339.5,352 L 335,352 L 331.5,356.5 L 329,357 L 329,369 L 332,370.5 L 333.5,373 L 336,374.5 L 343.5,383 L 345.5,384 L 347,387 L 353,387.5 L 355.5,391.5 L 359,391 L 361,387.5 L 366,387.5 L 369.5,383 L 372,382 L 372.5,375.5 L 380,369.5 L 381,367.5 L 387,361.5 L 388.5,361 L 395.5,353 L 398,351.5 L 398,346 L 410.5,334.5 Z M 374,361 L 376.5,362.5 L 376.5,364 L 375,365.5 L 372.5,364.5 L 372.5,362.5 Z M 333.5,358.5 L 336,357 L 337.5,358 L 338,360 L 335.5,361.5 Z M 399.5,331 L 402,332.5 L 402,334 L 400.5,335.5 L 399,335.5 L 397.5,334 L 398,332 Z" fill="#08741c" fill-rule="evenodd"/>
  <path d="M 356,271 L 353,275 L 339.5,275 L 335.5,279.5 L 330.5,279.5 L 327.5,283.5 L 321.5,284 L 299,306.5 L 299,311.5 L 294.5,315 L 294.5,320.5 L 290,324.5 L 290.5,333 L 286,336.5 L 285.5,375 L 286.5,378 L 290.5,381 L 290,393.5 L 294.5,397.5 L 294.5,403 L 299.5,408 L 302,409 L 304,412.5 L 307,414 L 307.5,420.5 L 308.5,421.5 L 315,422 L 316.5,425 L 319,426 L 321,429.5 L 324,431 L 325.5,434 L 331.5,434.5 L 334.5,438.5 L 339.5,438.5 L 343.5,443 L 387.5,443 L 391.5,438.5 L 399,439 L 401,438.5 L 404,434.5 L 409,434.5 L 425,417.5 L 431.5,417 L 432.5,415.5 L 432.5,410 L 438,404.5 L 440.5,403.5 L 441,397 L 445,394.5 L 445,389 L 449.5,385.5 L 449.5,328.5 L 445,324.5 L 445,319 L 441,316.5 L 441,311 L 437.5,309 L 420,291.5 L 418.5,288.5 L 415.5,287 L 414,284 L 408,283.5 L 405,279.5 L 399.5,279.5 L 396,275 L 378,275 L 375,271 Z M 348,284.5 L 387,284.5 L 390,288.5 L 396,289 L 399,293 L 405,293.5 L 406,295.5 L 409,297.5 L 410.5,300 L 413.5,302 L 414.5,304 L 417.5,306 L 429,318.5 L 431.5,320 L 431.5,325.5 L 436,329 L 436,343 L 440.5,346.5 L 440.5,371.5 L 439,373.5 L 436,375 L 436,385 L 432,387.5 L 431.5,393.5 L 423,401 L 423,406.5 L 420.5,408 L 413,416.5 L 407.5,416.5 L 400,425 L 394,425.5 L 391.5,429.5 L 382,429.5 L 379,433.5 L 361,433.5 L 358,429.5 L 344,429.5 L 340.5,425 L 335,425 L 332.5,421 L 327,421 L 324.5,417.5 L 322.5,416.5 L 320.5,413.5 L 308,402 L 308,396.5 L 304,394 L 303.5,387.5 L 301,386.5 L 299,383.5 L 299.5,371 L 295,367.5 L 295,350.5 L 299.5,347 L 299,334.5 L 301,331.5 L 302.5,331.5 L 304,329.5 L 304,324 L 308,321.5 L 308,316 L 310.5,314.5 L 312.5,311.5 L 315,310 L 316.5,307.5 L 319.5,305.5 L 331,293 L 336.5,293 L 339.5,289 L 345.5,288.5 Z M 211.5,193.5 L 207.5,197.5 L 204.5,199 L 204.5,202 L 207.5,203.5 L 211,207.5 L 220,207.5 L 222,210 L 221.5,257 L 224.5,259 L 230.5,265.5 L 230,269.5 L 221.5,277 L 221.5,321 L 219,322.5 L 216,326.5 L 210.5,326.5 L 207.5,330.5 L 204.5,332 L 205,335.5 L 207,336 L 210.5,340 L 216.5,340 L 219.5,336 L 230,335.5 L 231,334 L 231,328.5 L 235,326 L 235,278 L 236.5,276 L 242,276 L 243.5,273.5 L 248,270 L 248.5,266 L 248,264 L 235,252 L 235.5,209.5 L 235,208 L 231,205 L 230.5,199 L 229.5,198 L 224,198 L 221.5,194.5 L 219.5,193.5 Z M 147,193.5 L 140.5,199.5 L 139,202 L 136.5,203.5 L 134.5,206.5 L 132.5,207 L 131.5,208.5 L 132,255 L 130,258 L 124,258.5 L 122.5,261.5 L 119,263.5 L 118.5,269 L 119.5,271 L 123,273 L 124,275.5 L 130,276 L 132,279 L 131.5,325.5 L 134.5,327.5 L 142,336 L 147.5,336 L 150.5,340 L 156.5,340 L 159,336.5 L 162,335 L 162.5,332.5 L 161.5,331 L 159.5,330.5 L 157,327 L 151,326.5 L 149,323.5 L 145,320.5 L 145.5,278 L 145,276.5 L 142.5,275 L 140,271.5 L 136.5,269 L 136,267.5 L 136.5,265 L 139.5,263 L 141.5,259.5 L 144,258.5 L 145.5,256 L 145,209.5 L 146.5,207.5 L 156,207.5 L 162.5,201.5 L 162,199 L 159,197.5 L 156.5,194 Z M 72.5,70 L 63,80 L 63,420 L 78,434.5 L 290,434 L 291,427 L 285,421 L 180.5,421 L 177.5,425 L 155,425 L 152,421 L 94.5,421 L 86.5,425 L 72.5,411 L 72,141 L 77,135 L 76.5,85 L 82.5,79 L 259,79 L 260.5,159 L 266.5,164.5 L 331.5,164.5 L 337.5,170.5 L 337,255.5 L 340,259 L 346.5,257 L 346,151.5 L 308,115 L 308,109.5 L 278.5,81.5 L 278,75 L 262.5,65 L 82.5,65 Z M 270.5,92 L 275.5,91.5 L 277.5,94 L 277.5,99 L 280.5,100.5 L 282,103 L 285,105 L 286,107 L 289,109 L 290.5,111.5 L 293.5,113.5 L 294.5,115.5 L 297.5,117.5 L 299,120 L 302,122 L 313.5,134.5 L 315.5,135.5 L 316.5,142.5 L 318.5,143 L 322,147.5 L 323,147.5 L 328.5,152.5 L 328.5,154.5 L 327.5,155.5 L 275,155 L 273.5,152.5 L 269.5,149.5 L 269.5,93.5 Z" fill="#0b1fb3" fill-rule="evenodd"/>
</svg>
