<?xml version="1.0" encoding="UTF-8"?>
<svg xmlns="http://www.w3.org/2000/svg" width="512" height="512" viewBox="0 0 512 512" role="img" aria-label="vector database">
  <title>vector database</title>
  <path d="M 135.0 170.0 L 125.0 179.0 L 121.0 187.0 L 121.0 228.0 L 119.0 249.0 L 119.0 384.0 L 122.0 402.0 L 128.0 408.0 L 140.0 416.0 L 163.0 426.0 L 171.0 427.0 L 178.0 430.0 L 228.0 436.0 L 260.0 436.0 L 270.0 434.0 L 284.0 434.0 L 304.0 429.0 L 310.0 429.0 L 343.0 417.0 L 362.0 406.0 L 368.0 400.0 L 368.0 185.0 L 364.0 175.0 L 351.0 164.0 L 325.0 153.0 L 308.0 149.0 L 298.0 149.0 L 293.0 147.0 L 262.0 145.0 L 234.0 145.0 L 191.0 150.0 L 183.0 153.0 L 171.0 154.0 L 153.0 160.0 Z M 355.0 279.0 L 355.0 326.0 L 350.0 332.0 L 338.0 338.0 L 333.0 344.0 L 335.0 351.0 L 338.0 352.0 L 347.0 349.0 L 353.0 344.0 L 355.0 346.0 L 354.0 393.0 L 341.0 402.0 L 325.0 409.0 L 297.0 416.0 L 269.0 420.0 L 234.0 421.0 L 202.0 419.0 L 168.0 412.0 L 149.0 405.0 L 139.0 399.0 L 134.0 394.0 L 134.0 381.0 L 132.0 370.0 L 132.0 346.0 L 134.0 344.0 L 144.0 351.0 L 163.0 358.0 L 170.0 358.0 L 177.0 361.0 L 184.0 361.0 L 195.0 364.0 L 219.0 367.0 L 252.0 367.0 L 259.0 363.0 L 259.0 358.0 L 254.0 354.0 L 216.0 354.0 L 212.0 352.0 L 192.0 351.0 L 189.0 349.0 L 178.0 348.0 L 158.0 341.0 L 154.0 341.0 L 141.0 334.0 L 132.0 326.0 L 134.0 281.0 L 148.0 289.0 L 176.0 297.0 L 229.0 303.0 L 256.0 303.0 L 263.0 301.0 L 288.0 300.0 L 294.0 297.0 L 305.0 297.0 L 312.0 294.0 L 322.0 293.0 L 346.0 283.0 L 352.0 277.0 Z M 327.0 368.0 L 323.0 369.0 L 319.0 374.0 L 320.0 382.0 L 322.0 385.0 L 325.0 386.0 L 329.0 385.0 L 334.0 379.0 L 334.0 372.0 L 331.0 369.0 Z M 288.0 358.0 L 283.0 362.0 L 282.0 370.0 L 288.0 376.0 L 295.0 375.0 L 299.0 370.0 L 299.0 362.0 L 295.0 358.0 Z M 316.0 349.0 L 308.0 351.0 L 306.0 353.0 L 307.0 358.0 L 317.0 357.0 L 319.0 353.0 Z M 295.0 330.0 L 289.0 330.0 L 284.0 334.0 L 283.0 340.0 L 286.0 344.0 L 292.0 345.0 L 296.0 343.0 L 298.0 334.0 Z M 331.0 311.0 L 325.0 309.0 L 317.0 315.0 L 316.0 323.0 L 318.0 327.0 L 328.0 327.0 L 333.0 322.0 L 334.0 315.0 Z M 355.0 213.0 L 355.0 243.0 L 353.0 261.0 L 334.0 273.0 L 322.0 276.0 L 314.0 280.0 L 309.0 280.0 L 303.0 283.0 L 263.0 287.0 L 197.0 286.0 L 188.0 283.0 L 179.0 283.0 L 173.0 280.0 L 163.0 279.0 L 154.0 276.0 L 141.0 269.0 L 133.0 262.0 L 133.0 215.0 L 135.0 213.0 L 148.0 221.0 L 172.0 228.0 L 177.0 228.0 L 183.0 231.0 L 196.0 232.0 L 208.0 235.0 L 239.0 236.0 L 270.0 235.0 L 300.0 231.0 L 335.0 221.0 L 348.0 215.0 L 352.0 211.0 Z M 135.0 193.0 L 136.0 188.0 L 144.0 180.0 L 162.0 171.0 L 194.0 163.0 L 234.0 159.0 L 273.0 159.0 L 325.0 167.0 L 343.0 175.0 L 354.0 186.0 L 354.0 190.0 L 345.0 200.0 L 330.0 208.0 L 312.0 214.0 L 308.0 214.0 L 302.0 217.0 L 258.0 222.0 L 227.0 222.0 L 184.0 217.0 L 154.0 208.0 L 142.0 201.0 Z" fill="#0b1fb3" fill-rule="evenodd"/>
</svg>
