<?xml version="1.0" encoding="UTF-8"?>
<svg xmlns="http://www.w3.org/2000/svg" width="512" height="512" viewBox="0 0 512 512" role="img" aria-label="news document">
  <title>news document</title>
  <path d="M 402.0 149.0 L 395.0 145.0 L 379.0 145.0 L 374.0 143.0 L 312.0 143.0 L 194.0 146.0 L 187.0 148.0 L 153.0 150.0 L 148.0 152.0 L 142.0 160.0 L 140.0 238.0 L 140.0 314.0 L 142.0 364.0 L 141.0 383.0 L 142.0 396.0 L 144.0 401.0 L 148.0 405.0 L 156.0 408.0 L 183.0 409.0 L 296.0 407.0 L 375.0 408.0 L 387.0 406.0 L 401.0 406.0 L 406.0 400.0 L 409.0 335.0 L 406.0 236.0 L 406.0 172.0 L 405.0 154.0 Z M 389.0 159.0 L 391.0 161.0 L 391.0 187.0 L 393.0 193.0 L 392.0 230.0 L 394.0 327.0 L 392.0 391.0 L 390.0 393.0 L 286.0 392.0 L 242.0 394.0 L 159.0 394.0 L 156.0 391.0 L 154.0 324.0 L 155.0 165.0 L 158.0 162.0 L 224.0 159.0 Z M 179.0 354.0 L 179.0 360.0 L 184.0 364.0 L 228.0 364.0 L 234.0 359.0 L 234.0 353.0 L 229.0 348.0 L 185.0 349.0 L 182.0 350.0 Z M 368.0 354.0 L 360.0 348.0 L 277.0 348.0 L 264.0 350.0 L 261.0 354.0 L 261.0 358.0 L 266.0 363.0 L 345.0 364.0 L 362.0 363.0 L 367.0 359.0 Z M 179.0 317.0 L 179.0 323.0 L 184.0 326.0 L 220.0 327.0 L 306.0 325.0 L 361.0 326.0 L 368.0 321.0 L 367.0 315.0 L 362.0 311.0 L 189.0 312.0 L 183.0 313.0 Z M 299.0 281.0 L 299.0 287.0 L 303.0 290.0 L 363.0 290.0 L 368.0 284.0 L 367.0 280.0 L 362.0 276.0 L 305.0 276.0 L 301.0 278.0 Z M 299.0 249.0 L 299.0 254.0 L 304.0 258.0 L 359.0 258.0 L 363.0 257.0 L 368.0 252.0 L 367.0 247.0 L 360.0 243.0 L 305.0 244.0 L 301.0 246.0 Z M 367.0 218.0 L 366.0 215.0 L 360.0 211.0 L 303.0 213.0 L 299.0 217.0 L 299.0 223.0 L 304.0 227.0 L 360.0 227.0 L 365.0 224.0 Z M 368.0 187.0 L 365.0 183.0 L 361.0 181.0 L 311.0 183.0 L 307.0 182.0 L 300.0 185.0 L 299.0 192.0 L 305.0 196.0 L 361.0 196.0 L 367.0 192.0 Z M 261.0 181.0 L 237.0 180.0 L 215.0 182.0 L 182.0 182.0 L 177.0 185.0 L 176.0 244.0 L 177.0 282.0 L 182.0 287.0 L 212.0 288.0 L 260.0 287.0 L 265.0 284.0 L 268.0 278.0 L 267.0 198.0 L 266.0 187.0 Z M 191.0 256.0 L 194.0 255.0 L 199.0 261.0 L 204.0 264.0 L 207.0 264.0 L 209.0 266.0 L 209.0 270.0 L 201.0 274.0 L 192.0 274.0 L 190.0 272.0 Z M 254.0 255.0 L 253.0 274.0 L 213.0 274.0 L 210.0 272.0 L 212.0 269.0 L 223.0 263.0 L 227.0 267.0 L 231.0 267.0 L 245.0 259.0 L 251.0 253.0 Z M 252.0 239.0 L 250.0 243.0 L 246.0 243.0 L 243.0 245.0 L 240.0 244.0 L 248.0 238.0 Z M 253.0 226.0 L 253.0 229.0 L 251.0 231.0 L 245.0 233.0 L 227.0 244.0 L 220.0 250.0 L 216.0 252.0 L 215.0 251.0 L 216.0 247.0 L 229.0 237.0 L 245.0 230.0 L 250.0 225.0 Z M 212.0 221.0 L 194.0 237.0 L 190.0 237.0 L 189.0 234.0 L 194.0 229.0 L 205.0 222.0 L 210.0 220.0 Z M 215.0 214.0 L 217.0 210.0 L 220.0 211.0 L 218.0 214.0 Z M 252.0 197.0 L 252.0 204.0 L 254.0 209.0 L 253.0 212.0 L 226.0 230.0 L 212.0 245.0 L 206.0 249.0 L 205.0 247.0 L 210.0 240.0 L 227.0 222.0 L 246.0 206.0 L 248.0 200.0 Z M 234.0 195.0 L 234.0 198.0 L 222.0 206.0 L 218.0 204.0 L 213.0 207.0 L 207.0 207.0 L 192.0 218.0 L 189.0 217.0 L 189.0 197.0 L 191.0 195.0 Z" fill="#0b1fb3" fill-rule="evenodd"/>
</svg>
