<svg xmlns="http://www.w3.org/2000/svg" viewBox="0 0 512 512" width="512" height="512" role="img" aria-label="etl_pipeline_dag">
  <title>etl_pipeline_dag</title>
  <desc>DAG из узлов: extract → transform → load</desc>
  <path d="M 307.5,367 L 305,366.5 L 299.5,373 L 226,373 L 225,373.5 L 224.5,376 L 226.5,377.5 L 299,377.5 L 308,369.5 Z M 228,364 L 228,366.5 L 229,367.5 L 293,367.5 L 294.5,366.5 L 294.5,364 L 293,363 L 229.5,363 Z M 92.5,364 L 92.5,366.5 L 93.5,367.5 L 124.5,367.5 L 126,366 L 126,364.5 L 124.5,363 L 94,363 Z M 195,320.5 L 192,320.5 L 191,323 L 188,324.5 L 188,329 L 185,331 L 185,333 L 186,334 L 191.5,333.5 L 192.5,330 L 192,325.5 L 195.5,323.5 Z M 69,325 L 69,329.5 L 70,330.5 L 73,330 L 73,325.5 L 74,324.5 L 81.5,324.5 L 91,334.5 L 93,333 L 93,331 L 90.5,330 L 81.5,320 L 73.5,320.5 L 72.5,322.5 Z M 299,313.5 L 297,315.5 L 297,359 L 298,360.5 L 300.5,360.5 L 301.5,359 L 301.5,315 L 301,314 Z M 310.5,310.5 L 308.5,310.5 L 307,312 L 307,362 L 309,364 L 311.5,362 L 311.5,312.5 Z M 228,307.5 L 228,310 L 229,311 L 296.5,311 L 298,309 L 297,307 Z M 165.5,301 L 162.5,300.5 L 161.5,301.5 L 161.5,365.5 L 159.5,366.5 L 154,373 L 84,373 L 81,369.5 L 79,370.5 L 79,373 L 81.5,374 L 84.5,377.5 L 154.5,377 L 156,374.5 L 158,374 L 159,372 L 162,370 L 163.5,367 L 165.5,366.5 L 166,365 Z M 152.5,300.5 L 151.5,302 L 151.5,362.5 L 154.5,364 L 156,362.5 L 156,302 L 155,300.5 Z M 224.5,298.5 L 225.5,301 L 299,301 L 304.5,307.5 L 306,308 L 308,306 L 308,304.5 L 305.5,303.5 L 300,297 L 225.5,297 Z M 92.5,297.5 L 93,301 L 141.5,301 L 142.5,300 L 142.5,298 L 141.5,297 Z M 82.5,290.5 L 80,290.5 L 79,292.5 L 77,293.5 L 72,299 L 72,315.5 L 73,317 L 75.5,317 L 76.5,316 L 76.5,299 L 83,293.5 Z M 85.5,288.5 L 86,290.5 L 88,291.5 L 142,291.5 L 151.5,291 L 152.5,289.5 L 152,287.5 L 151,287 L 87,287 Z M 265.5,237.5 L 264,239 L 264,266.5 L 264.5,267.5 L 266.5,268 L 268.5,266 L 268.5,239.5 L 267,237.5 Z M 433,231 L 430.5,231 L 429.5,233 L 427.5,234 L 418.5,244 L 416.5,244.5 L 416,246.5 L 417,248 L 419.5,248 L 420,246.5 L 423,244.5 L 423.5,243 L 426,241.5 L 431.5,235 L 433.5,234 Z M 214.5,205 L 214.5,207.5 L 216.5,208.5 L 218.5,211.5 L 220.5,212 L 222.5,215 L 300,215 L 301,214 L 301,211.5 L 300,211 L 223,211 L 216.5,204 Z M 320.5,182 L 321,185 L 322.5,185.5 L 342.5,185.5 L 344,184.5 L 344,182 L 343,181 L 322,181 Z M 191,173.5 L 191.5,177.5 L 193.5,178.5 L 196,182 L 210.5,182 L 212,180.5 L 211.5,178.5 L 209.5,177.5 L 196,177.5 L 195.5,172.5 L 194.5,171.5 L 192.5,171.5 Z M 309.5,148 L 307.5,148.5 L 307,149.5 L 307,203.5 L 304,205 L 303.5,206.5 L 305,208.5 L 306.5,208.5 L 311.5,203 L 311.5,150 Z M 224.5,149 L 225,152 L 227.5,152 L 229.5,149 L 296.5,149 L 297.5,151 L 297.5,198.5 L 296,201 L 229,201 L 228,202 L 228.5,205 L 297,205 L 298,202.5 L 301.5,200.5 L 301.5,149.5 L 299,148 L 296.5,144.5 L 229.5,144.5 Z M 224.5,136 L 224.5,137.5 L 226,139 L 296.5,139 L 298,137.5 L 297.5,135.5 L 296,134.5 L 226.5,134.5 Z" fill="#8fb7df" fill-rule="evenodd"/>
  <path d="M 211.5,335 L 207.5,330.5 L 203,330 L 197,323.5 L 193,323.5 L 191.5,325 L 191.5,332 L 190.5,333.5 L 186.5,333.5 L 183.5,330 L 177,330 L 174.5,333.5 L 173,333.5 L 171,330 L 169,330 L 168,331 L 168,333 L 171.5,334.5 L 171.5,336 L 168,339 L 169,340.5 L 190.5,340.5 L 191.5,342.5 L 188,345.5 L 189.5,347.5 L 196.5,347.5 L 200,344 L 204,344 L 206.5,340.5 L 210.5,340.5 L 211.5,339.5 Z M 215,308 L 214.5,365.5 L 222.5,373.5 L 299,374 L 306,367 L 307.5,366.5 L 308,309 L 303.5,304 L 301,302.5 L 300,300.5 L 222.5,300.5 L 221,303 Z M 225,312 L 227.5,310.5 L 229.5,307.5 L 296,307.5 L 297.5,309 L 297.5,313.5 L 300,314.5 L 301,316 L 300.5,359 L 298,360.5 L 293,366.5 L 229.5,366.5 L 225,362 Z M 56,334.5 L 56,336.5 L 60.5,340.5 L 68.5,341 L 75.5,348.5 L 76,352 L 72.5,354.5 L 72.5,362.5 L 75.5,364.5 L 77,370.5 L 81,370.5 L 84.5,374 L 153.5,374 L 162.5,365 L 162.5,299 L 154,290.5 L 84,290.5 L 75.5,299.5 L 75.5,315 L 77,317.5 L 81.5,317.5 L 83,316 L 83,302 L 84,301 L 91,301 L 94,297.5 L 140.5,297.5 L 143.5,301 L 154,301 L 155.5,303 L 155.5,361.5 L 153.5,363.5 L 150,363.5 L 148,366.5 L 146.5,366.5 L 144.5,363.5 L 126.5,363.5 L 124.5,366.5 L 94,366.5 L 92,363.5 L 90,363.5 L 87,366.5 L 83,362.5 L 83,352 L 80,349.5 L 80,348 L 90.5,337.5 L 92.5,337 L 92.5,334 L 87,330 L 81.5,323.5 L 74,323.5 L 72.5,324.5 L 72.5,329 L 71.5,330 L 61.5,330 Z M 258.5,224.5 L 257.5,226 L 258,266.5 L 256,267.5 L 253,264 L 249.5,264 L 248,265 L 247.5,269 L 261,282.5 L 261.5,284 L 263.5,284.5 L 265,282 L 268,280 L 268,275.5 L 274.5,270 L 275,266.5 L 273,264 L 269,264 L 266.5,267.5 L 264.5,266.5 L 265,226.5 L 263.5,224.5 Z M 318,171.5 L 317,180 L 319,182 L 385,181.5 L 388,185 L 395,185 L 401,191.5 L 405,191.5 L 423,209.5 L 423,213.5 L 426,215.5 L 426.5,220.5 L 430,223.5 L 429.5,229.5 L 433,232.5 L 416.5,248.5 L 416.5,260 L 419.5,262 L 420,267 L 433,279.5 L 429.5,282.5 L 430,288.5 L 426.5,291.5 L 426.5,295.5 L 423.5,297.5 L 423,302.5 L 402,323.5 L 398,323.5 L 395,327 L 388,327 L 385,330.5 L 319,330 L 317,332 L 317.5,340 L 379.5,340.5 L 381.5,337.5 L 392,337.5 L 395,334 L 402.5,334 L 408,327.5 L 413,327 L 426.5,313.5 L 427,308.5 L 433.5,303 L 433,296.5 L 436.5,293.5 L 436.5,286 L 440,283 L 440,275.5 L 448.5,274.5 L 453,270.5 L 453,266.5 L 456.5,263.5 L 456.5,248.5 L 453.5,246.5 L 453,241.5 L 448.5,237.5 L 440,236.5 L 440,225.5 L 436.5,223 L 437,216.5 L 433.5,213.5 L 433.5,209 L 427,203.5 L 426.5,198.5 L 413,185 L 408,184.5 L 406,181.5 L 402,181.5 L 399,178 L 395,178 L 389.5,171.5 L 387.5,171.5 L 385.5,174.5 L 381.5,174.5 L 379.5,171.5 Z M 431.5,244.5 L 441.5,244.5 L 443.5,247.5 L 449.5,252.5 L 449.5,259.5 L 447,261 L 441.5,267.5 L 431.5,267.5 L 429.5,264.5 L 426.5,262.5 L 427,259 L 423.5,256.5 L 423.5,255.5 L 427,253 L 427,249 L 429.5,247.5 Z M 195,172.5 L 194.5,176 L 195.5,178 L 210,178.5 L 211.5,180 L 211.5,187.5 L 213,188.5 L 217,188 L 218,189 L 217.5,190.5 L 214.5,193 L 214.5,203 L 219,208 L 221,209 L 222.5,211.5 L 303.5,211.5 L 304.5,210.5 L 304.5,206 L 308,203 L 308,147 L 307.5,145.5 L 306,145 L 299,138 L 223.5,138 L 214.5,146.5 L 214.5,157 L 217,158.5 L 218,160.5 L 211.5,165.5 L 211.5,170 L 210,171.5 L 196,171.5 Z M 225,150 L 229.5,145.5 L 296.5,145.5 L 301,150.5 L 301,199.5 L 298,201.5 L 296,204.5 L 229.5,204.5 L 228,202 L 225,200 L 224.5,191.5 L 218.5,187.5 L 219.5,185 L 224,185 L 225,183 L 231.5,177.5 L 232,176 L 231.5,172.5 L 227,168 L 223,168 L 221.5,166.5 L 221.5,163.5 L 225,160.5 Z" fill="#0b1fb3" fill-rule="evenodd"/>
</svg>
