<?xml version="1.0" encoding="UTF-8"?>
<svg xmlns="http://www.w3.org/2000/svg" width="512" height="512" viewBox="0 0 512 512" role="img" aria-label="server stack">
  <title>server stack</title>
  <path d="M 129.0 167.0 L 125.0 171.0 L 122.0 181.0 L 122.0 236.0 L 125.0 242.0 L 135.0 249.0 L 127.0 253.0 L 122.0 262.0 L 123.0 323.0 L 126.0 328.0 L 133.0 333.0 L 126.0 339.0 L 123.0 344.0 L 122.0 391.0 L 123.0 404.0 L 126.0 411.0 L 135.0 418.0 L 153.0 420.0 L 328.0 418.0 L 349.0 419.0 L 358.0 416.0 L 365.0 408.0 L 366.0 399.0 L 366.0 344.0 L 365.0 339.0 L 359.0 333.0 L 359.0 331.0 L 366.0 321.0 L 366.0 261.0 L 365.0 256.0 L 358.0 249.0 L 358.0 247.0 L 365.0 240.0 L 366.0 234.0 L 366.0 176.0 L 362.0 166.0 L 352.0 160.0 L 231.0 159.0 L 146.0 162.0 Z M 137.0 349.0 L 139.0 347.0 L 148.0 346.0 L 349.0 345.0 L 352.0 347.0 L 352.0 400.0 L 350.0 403.0 L 246.0 403.0 L 184.0 406.0 L 140.0 405.0 L 137.0 401.0 Z M 323.0 365.0 L 316.0 371.0 L 316.0 377.0 L 322.0 383.0 L 327.0 383.0 L 332.0 379.0 L 333.0 372.0 L 328.0 366.0 Z M 294.0 365.0 L 287.0 371.0 L 286.0 376.0 L 289.0 381.0 L 296.0 384.0 L 304.0 378.0 L 304.0 371.0 L 301.0 367.0 Z M 165.0 362.0 L 156.0 369.0 L 155.0 379.0 L 161.0 387.0 L 171.0 388.0 L 177.0 384.0 L 181.0 377.0 L 181.0 373.0 L 175.0 364.0 L 171.0 362.0 Z M 352.0 263.0 L 353.0 315.0 L 349.0 319.0 L 255.0 318.0 L 250.0 320.0 L 139.0 320.0 L 136.0 316.0 L 136.0 279.0 L 137.0 264.0 L 139.0 262.0 L 230.0 262.0 L 272.0 260.0 L 350.0 261.0 Z M 322.0 281.0 L 317.0 285.0 L 315.0 290.0 L 321.0 298.0 L 325.0 299.0 L 332.0 294.0 L 333.0 287.0 L 329.0 282.0 Z M 293.0 281.0 L 287.0 286.0 L 286.0 290.0 L 290.0 297.0 L 293.0 299.0 L 298.0 299.0 L 303.0 295.0 L 305.0 290.0 L 300.0 282.0 Z M 172.0 277.0 L 168.0 276.0 L 162.0 278.0 L 157.0 282.0 L 155.0 286.0 L 155.0 295.0 L 163.0 303.0 L 172.0 303.0 L 176.0 301.0 L 181.0 293.0 L 181.0 287.0 L 179.0 283.0 Z M 136.0 181.0 L 139.0 177.0 L 142.0 176.0 L 200.0 176.0 L 210.0 174.0 L 350.0 175.0 L 352.0 177.0 L 352.0 232.0 L 350.0 234.0 L 244.0 234.0 L 188.0 236.0 L 142.0 235.0 L 138.0 234.0 L 136.0 231.0 Z M 323.0 196.0 L 320.0 197.0 L 316.0 202.0 L 316.0 207.0 L 320.0 212.0 L 327.0 213.0 L 333.0 207.0 L 333.0 203.0 L 329.0 197.0 Z M 293.0 196.0 L 288.0 200.0 L 286.0 206.0 L 289.0 211.0 L 296.0 214.0 L 304.0 208.0 L 304.0 202.0 L 300.0 197.0 Z M 165.0 193.0 L 160.0 196.0 L 157.0 200.0 L 155.0 210.0 L 160.0 217.0 L 164.0 219.0 L 171.0 219.0 L 178.0 214.0 L 181.0 208.0 L 181.0 204.0 L 176.0 195.0 L 173.0 193.0 Z" fill="#0b1fb3" fill-rule="evenodd"/>
</svg>
