<?xml version="1.0" encoding="UTF-8"?>
<svg xmlns="http://www.w3.org/2000/svg" width="512" height="512" viewBox="0 0 512 512" role="img" aria-label="heartbeat signal">
  <title>heartbeat signal</title>
  <path d="M 279.0 118.0 L 275.0 118.0 L 269.0 123.0 L 262.0 172.0 L 262.0 183.0 L 259.0 190.0 L 259.0 200.0 L 256.0 211.0 L 255.0 228.0 L 252.0 236.0 L 248.0 271.0 L 245.0 280.0 L 245.0 290.0 L 242.0 301.0 L 242.0 310.0 L 238.0 327.0 L 237.0 342.0 L 235.0 341.0 L 233.0 333.0 L 232.0 321.0 L 228.0 310.0 L 228.0 302.0 L 225.0 296.0 L 224.0 282.0 L 221.0 276.0 L 221.0 260.0 L 217.0 255.0 L 209.0 254.0 L 204.0 258.0 L 203.0 262.0 L 200.0 265.0 L 197.0 263.0 L 197.0 254.0 L 194.0 246.0 L 193.0 237.0 L 191.0 234.0 L 190.0 222.0 L 187.0 214.0 L 183.0 189.0 L 178.0 183.0 L 173.0 183.0 L 167.0 190.0 L 162.0 210.0 L 159.0 215.0 L 156.0 230.0 L 153.0 235.0 L 153.0 239.0 L 141.0 271.0 L 82.0 271.0 L 78.0 273.0 L 74.0 279.0 L 79.0 285.0 L 116.0 285.0 L 126.0 288.0 L 150.0 287.0 L 156.0 281.0 L 156.0 276.0 L 160.0 264.0 L 162.0 262.0 L 163.0 255.0 L 166.0 250.0 L 171.0 230.0 L 175.0 227.0 L 177.0 242.0 L 180.0 248.0 L 180.0 257.0 L 184.0 273.0 L 186.0 276.0 L 188.0 291.0 L 192.0 295.0 L 197.0 296.0 L 202.0 292.0 L 206.0 285.0 L 208.0 287.0 L 211.0 300.0 L 211.0 307.0 L 214.0 312.0 L 214.0 323.0 L 217.0 330.0 L 218.0 343.0 L 221.0 349.0 L 221.0 355.0 L 227.0 376.0 L 229.0 395.0 L 232.0 401.0 L 235.0 403.0 L 241.0 402.0 L 245.0 397.0 L 245.0 386.0 L 248.0 380.0 L 249.0 361.0 L 251.0 356.0 L 252.0 341.0 L 254.0 336.0 L 260.0 288.0 L 263.0 276.0 L 263.0 267.0 L 265.0 263.0 L 266.0 248.0 L 269.0 240.0 L 269.0 230.0 L 275.0 201.0 L 276.0 182.0 L 278.0 180.0 L 280.0 182.0 L 283.0 205.0 L 289.0 223.0 L 289.0 230.0 L 293.0 241.0 L 297.0 264.0 L 300.0 272.0 L 300.0 282.0 L 303.0 288.0 L 304.0 298.0 L 311.0 325.0 L 319.0 327.0 L 324.0 323.0 L 338.0 287.0 L 344.0 276.0 L 347.0 278.0 L 352.0 292.0 L 356.0 295.0 L 363.0 294.0 L 369.0 287.0 L 425.0 287.0 L 429.0 285.0 L 433.0 280.0 L 431.0 275.0 L 423.0 271.0 L 376.0 271.0 L 373.0 269.0 L 361.0 271.0 L 351.0 251.0 L 348.0 248.0 L 342.0 248.0 L 338.0 251.0 L 331.0 268.0 L 324.0 279.0 L 322.0 286.0 L 320.0 288.0 L 318.0 287.0 L 318.0 281.0 L 314.0 270.0 L 306.0 226.0 L 304.0 223.0 L 303.0 213.0 L 299.0 203.0 L 296.0 181.0 L 293.0 174.0 L 289.0 151.0 L 287.0 148.0 L 284.0 125.0 Z" fill="#0b1fb3" fill-rule="evenodd"/>
</svg>
