<svg xmlns="http://www.w3.org/2000/svg" viewBox="0 0 512 512" width="512" height="512" role="img" aria-label="red_bear_trend">
  <title>red_bear_trend</title>
  <desc>Голова медведя + красная стрелка вниз</desc>
  <path d="M 408,185 L 401,192 L 401,365.5 L 402,368.5 L 401,370.5 L 399,371 L 394,365.5 L 393.5,359.5 L 391.5,359 L 379.5,346.5 L 375.5,346.5 L 372,350.5 L 369.5,351.5 L 369,362 L 377,369 L 377.5,375 L 379.5,375.5 L 389,385 L 389.5,391 L 392,392 L 401,401 L 401.5,407 L 404,408 L 407.5,412 L 412,412 L 427.5,396 L 430,395 L 430.5,389 L 440,379.5 L 442,379 L 442.5,373 L 454.5,362 L 454.5,352.5 L 449,347 L 444,346.5 L 430,360 L 425,366.5 L 423.5,367 L 421.5,365 L 422.5,361 L 422,194.5 L 418.5,192.5 L 417,185.5 Z M 418,372.5 L 420.5,371.5 L 422,374 L 419.5,375.5 L 418,374.5 Z M 96,100.5 L 93,104.5 L 88,104.5 L 85,108.5 L 80,108.5 L 71,117 L 70,123.5 L 66,126.5 L 66,131.5 L 62,134.5 L 62,156 L 66,159 L 66,168 L 70,171 L 70.5,177 L 78,182.5 L 74,187.5 L 74.5,195 L 70,199.5 L 70.5,207 L 66,211.5 L 66,220.5 L 62,223.5 L 62.5,239 L 58,243.5 L 58,269 L 62.5,273.5 L 62,289 L 66,292 L 66,297.5 L 70,300 L 70,305.5 L 74,308 L 74,313 L 78,316.5 L 78.5,322 L 99.5,343 L 105,343.5 L 116,355.5 L 121,355.5 L 132,367.5 L 138,368 L 154.5,384.5 L 155,390.5 L 172,407.5 L 178,408 L 181,412 L 230.5,412 L 238,404 L 243.5,403.5 L 248.5,398.5 L 249,392.5 L 256.5,386.5 L 256.5,381.5 L 261.5,376 L 267.5,375.5 L 278.5,363.5 L 283.5,363.5 L 294.5,351.5 L 299.5,351.5 L 333,318 L 333.5,312.5 L 341.5,305.5 L 341.5,300.5 L 345.5,297 L 345,289.5 L 349.5,285 L 349.5,268 L 353.5,265 L 353.5,243.5 L 349.5,240.5 L 349.5,223.5 L 345.5,220 L 345.5,211.5 L 341.5,208 L 341.5,203 L 337.5,200 L 337.5,195 L 333,191 L 333,184 L 337,181 L 337.5,175 L 341,173 L 341.5,167 L 345,165 L 345.5,159 L 349.5,156 L 349.5,134.5 L 345.5,131.5 L 345.5,126.5 L 341.5,123.5 L 341,117.5 L 331.5,108.5 L 326.5,108.5 L 323.5,104.5 L 314.5,104.5 L 311.5,100.5 L 298,100.5 L 295,104.5 L 286,104.5 L 283,108.5 L 277,109 L 270.5,116.5 L 262,116.5 L 259.5,113 L 250,112.5 L 246.5,108.5 L 229.5,108.5 L 226.5,104.5 L 185,104.5 L 182,108.5 L 161,108.5 L 157.5,112.5 L 149,112.5 L 145.5,116.5 L 141,116.5 L 137.5,112.5 L 132.5,112.5 L 125.5,104.5 L 116.5,104.5 L 113.5,100.5 Z M 236,382.5 L 235.5,386 L 232.5,387.5 L 230.5,391 L 221.5,391.5 L 218,395 L 193.5,395 L 190,391.5 L 181.5,391 L 176,386 L 176.5,383.5 L 182,384 L 185.5,387.5 L 219,388 L 223,387 L 230,379.5 L 234.5,380 Z M 171,380 L 172,379 L 174.5,379.5 L 175.5,383 L 173,383.5 Z M 242.5,367.5 L 243.5,370 L 240,373 L 240,378 L 237,379 L 236,378 L 236.5,369 L 238,367.5 Z M 160,363.5 L 165,363.5 L 171,369 L 171,379 L 167.5,378 L 167,372 L 160,366 Z M 155,359.5 L 158.5,359.5 L 159.5,363 L 156.5,363 Z M 184,364.5 L 185.5,363 L 194.5,363.5 L 201.5,355.5 L 206,355.5 L 209,359.5 L 214,359.5 L 217,363 L 222,363 L 223.5,364.5 L 223.5,366 L 221.5,367.5 L 217,367.5 L 214,371 L 194,371 L 190.5,367.5 L 185,367 Z M 255.5,355 L 256.5,356 L 256,358 L 253,359.5 L 251,363 L 249,363 L 248,361.5 L 248.5,360 L 251,359 L 254,355 Z M 192,308 L 193.5,306.5 L 214,306.5 L 215.5,308 L 215.5,309.5 L 213.5,311 L 194,311 L 192,309.5 Z M 161,250 L 162.5,250.5 L 163.5,252.5 L 162.5,254 L 160.5,254.5 L 159.5,253.5 L 159.5,251.5 Z M 83,131 L 92.5,121.5 L 117,121.5 L 136.5,137.5 L 146,137.5 L 169,125.5 L 214,121.5 L 217.5,125.5 L 238.5,125.5 L 241.5,129.5 L 250.5,129.5 L 261.5,137.5 L 275,137.5 L 294.5,121.5 L 315,121.5 L 329,132 L 328.5,159.5 L 324.5,168 L 312.5,178.5 L 312.5,188.5 L 324.5,207.5 L 328.5,232.5 L 333,237 L 333,271.5 L 328.5,276 L 329,287.5 L 320.5,305 L 291,334.5 L 286,334.5 L 274,347 L 269,346 L 273,342 L 269,338.5 L 264,344 L 268,350 L 262,355 L 257,354 L 260.5,333 L 265,328.5 L 265,293 L 256.5,276.5 L 256.5,263.5 L 248.5,255.5 L 267,254.5 L 276.5,245.5 L 277,235.5 L 288.5,229.5 L 289,219.5 L 270,217.5 L 266.5,221.5 L 254,221.5 L 238.5,233.5 L 219.5,235.5 L 220,245.5 L 236,256.5 L 235.5,268.5 L 248,292.5 L 248,333 L 244,335.5 L 240,349 L 229.5,350.5 L 212,337 L 217.5,327.5 L 223,327 L 236,314 L 236.5,300 L 226,290 L 181.5,290 L 171,305.5 L 179,321.5 L 195.5,333 L 195.5,341 L 173,350.5 L 163.5,341 L 164,333 L 159.5,329 L 159.5,301 L 164,296.5 L 163.5,284.5 L 168,280.5 L 167.5,272.5 L 176,256 L 192,239 L 185.5,233.5 L 169,233.5 L 162,225.5 L 145.5,217.5 L 128.5,217.5 L 122.5,223.5 L 122.5,232.5 L 134.5,239.5 L 135,249.5 L 140.5,254.5 L 159,256 L 155,272.5 L 151,275.5 L 151,288.5 L 142.5,305.5 L 142.5,324.5 L 147,329 L 147,338 L 151,341 L 155.5,358 L 144.5,354.5 L 134.5,343 L 116.5,334.5 L 91,309 L 91,303.5 L 78.5,283.5 L 79,272 L 74.5,267.5 L 78.5,225 L 91,200.5 L 91,191.5 L 95,188.5 L 95,178.5 L 78.5,146.5 L 83,140 Z M 302.5,128.5 L 298.5,133 L 293.5,133 L 290.5,137 L 284.5,137.5 L 284,147.5 L 292.5,155.5 L 293.5,157.5 L 299.5,158 L 300.5,159.5 L 300.5,164.5 L 306.5,170 L 311,170 L 321.5,159.5 L 321.5,143 L 320,141 L 318,140.5 L 317,138.5 L 310,132.5 L 307,128.5 Z M 109,128.5 L 104.5,128.5 L 102,132 L 94.5,138.5 L 93.5,140.5 L 90.5,142 L 90,159.5 L 94.5,163.5 L 94.5,168.5 L 96.5,170 L 101,170 L 109,161.5 L 110.5,161 L 113,157.5 L 114.5,157 L 117,153.5 L 118.5,153 L 121,149.5 L 122.5,149 L 124.5,146 L 126.5,145.5 L 127.5,144 L 127,141.5 L 124.5,140.5 L 118,133 L 113,133 Z" fill="#d41217" fill-rule="evenodd"/>
</svg>
