<svg xmlns="http://www.w3.org/2000/svg" viewBox="0 0 512 512" width="512" height="512" role="img" aria-label="outlier_magnifier">
  <title>outlier_magnifier</title>
  <desc>Лупа над отдельной аномальной точкой</desc>
  <path d="M 312,342.5 L 310,346 L 310,354 L 311,356.5 L 314,357.5 L 315.5,361 L 318,362 L 320.5,366 L 322.5,366.5 L 325,370.5 L 327,371 L 329.5,375 L 331.5,375.5 L 333.5,377.5 L 334,379.5 L 336,380 L 338,382 L 338.5,384 L 341,385 L 343.5,389 L 345.5,389.5 L 348,393.5 L 350,394 L 352.5,398 L 354.5,398.5 L 357,402.5 L 359,403 L 361.5,407 L 363.5,407.5 L 366,411.5 L 368,412 L 370,414 L 370.5,416 L 373,417 L 375.5,421 L 377.5,421.5 L 380,425.5 L 382,426 L 384.5,430 L 386.5,430.5 L 389,434.5 L 392.5,436.5 L 393.5,439 L 397,439.5 L 398.5,438 L 398,434.5 L 395.5,433.5 L 392,429 L 390,428.5 L 388.5,425.5 L 385.5,424 L 384,421 L 381,419.5 L 379.5,416.5 L 376.5,415 L 375,412 L 372,410.5 L 370.5,407.5 L 367.5,406 L 366,403 L 363,401.5 L 361.5,398.5 L 359,397 L 355.5,392.5 L 353.5,392 L 352,389 L 349,387.5 L 347.5,384.5 L 344.5,383 L 343,380 L 340,378.5 L 338.5,375.5 L 335.5,374 L 334,371 L 331,369.5 L 329.5,366.5 L 326.5,365 L 325,362 L 321.5,360 L 319,356 L 316.5,355 L 316.5,345 L 315.5,343 Z M 348.5,328.5 L 347,330 L 347.5,334 L 350,334.5 L 352,338 L 354.5,339 L 357,343 L 359,343.5 L 361.5,347.5 L 364,348.5 L 366,352 L 368.5,353 L 370.5,356.5 L 373,357.5 L 375,361 L 377.5,362 L 379.5,365.5 L 382,366.5 L 384,370 L 386.5,371 L 388.5,374.5 L 391,375.5 L 393.5,379.5 L 396,380.5 L 398,384 L 400.5,385 L 402.5,388.5 L 405,389.5 L 407,393 L 409.5,394 L 411.5,397.5 L 414,398.5 L 416,402 L 418.5,403 L 420.5,406.5 L 423,407.5 L 425,411 L 427.5,412 L 430,416 L 433.5,418 L 435,421 L 438.5,421 L 439.5,420 L 439,416 L 436,415 L 434,411.5 L 431.5,410.5 L 429.5,407 L 427,406 L 425,402.5 L 422.5,401.5 L 420.5,398 L 418,397 L 416,393.5 L 413.5,392.5 L 411.5,389 L 409,388 L 407,384.5 L 404.5,383.5 L 402.5,380 L 399.5,378.5 L 397.5,375 L 395,374 L 393,370.5 L 390.5,369.5 L 388.5,366 L 386,365 L 384,361.5 L 381.5,360.5 L 379.5,357 L 377,356 L 375,352.5 L 372.5,351.5 L 370.5,348 L 368,347 L 366,343.5 L 363,342 L 361,338.5 L 358.5,337.5 L 356.5,334 L 353,332 L 351.5,329 Z M 356.5,315.5 L 356,319.5 L 359.5,321 L 361,324 L 363.5,325.5 L 367,330 L 369,330.5 L 370.5,333.5 L 373.5,335 L 375,338 L 378,339.5 L 379.5,342.5 L 382.5,344 L 384,347 L 387,348.5 L 388.5,351.5 L 391.5,353 L 394,357 L 397.5,357 L 398.5,355.5 L 398.5,353 L 397,351.5 L 395.5,351.5 L 393,347.5 L 391,347 L 389,345 L 388.5,343 L 386.5,342.5 L 384.5,340.5 L 384,338.5 L 381.5,337.5 L 379,333.5 L 377,333 L 374.5,329 L 372.5,328.5 L 370,324.5 L 368,324 L 365.5,320 L 362,318 L 361,315.5 Z M 301.5,278.5 L 298.5,278.5 L 295,283 L 293,283.5 L 292,286 L 289.5,287.5 L 277,301 L 274,302.5 L 274,306 L 275,307 L 278,307 L 279.5,304.5 L 282.5,302.5 L 284,300 L 287,298 L 299.5,284.5 L 302.5,283 L 302.5,280 Z M 101.5,278.5 L 100.5,279.5 L 100.5,283 L 103.5,284.5 L 106,288.5 L 108,289 L 110.5,293 L 112.5,293.5 L 115,297.5 L 118.5,299.5 L 119.5,302 L 124,302 L 124.5,298 L 121.5,296.5 L 119.5,293.5 L 106,281 L 104.5,278.5 Z M 325.5,183 L 324,184.5 L 324,218.5 L 325.5,220 L 328.5,220 L 330,218.5 L 330,184.5 L 328.5,183 Z M 61.5,178 L 59,181 L 59,226.5 L 60.5,229 L 62.5,229.5 L 64,229 L 65.5,226.5 L 65.5,181 L 64,178.5 Z M 119,87 L 115.5,87 L 114,90 L 111,91.5 L 109,95 L 106.5,96 L 104.5,99.5 L 102,100.5 L 100,104 L 97.5,105 L 95.5,108.5 L 93,109.5 L 90,114 L 87,115 L 86.5,118 L 88,120 L 91.5,119.5 L 92.5,117 L 96,115 L 97,112.5 L 100.5,110.5 L 101.5,108 L 105,106 L 106,103.5 L 109.5,101.5 L 112.5,97 L 114,97 L 117,92.5 L 119.5,92 L 120,88 Z M 183,60.5 L 183,64 L 184,65 L 223.5,65 L 224.5,64 L 224.5,60.5 L 222,59 L 185.5,59 Z" fill="#8fb7df" fill-rule="evenodd"/>
  <path d="M 189.5,164.5 L 186,169 L 184,169.5 L 181.5,173.5 L 175.5,173.5 L 174,174.5 L 173.5,181.5 L 169,184.5 L 169,190.5 L 167.5,192 L 166,192 L 164.5,194 L 164.5,213.5 L 166,215.5 L 167.5,215.5 L 169,217 L 169,223 L 172.5,225 L 174,227.5 L 178,230.5 L 179,233 L 182.5,235 L 184,238 L 199.5,238.5 L 202.5,243 L 205,243 L 208,238.5 L 218,238.5 L 220.5,235 L 233.5,223 L 235,220.5 L 238,219 L 238.5,189.5 L 237,187.5 L 234,186 L 233.5,179.5 L 230.5,178 L 228.5,174.5 L 225,172.5 L 223.5,169.5 L 217,169 L 213.5,164.5 Z" fill="#d41217" fill-rule="evenodd"/>
  <path d="M 129.5,78 L 128,85.5 L 120.5,87 L 82.5,125 L 82.5,130.5 L 73,144.5 L 73.5,153 L 68.5,158 L 69,166.5 L 64,171.5 L 64,236 L 69,241 L 68.5,249.5 L 73.5,254.5 L 73.5,264.5 L 77.5,267 L 78,273.5 L 86.5,280.5 L 87,287 L 116,316 L 122,316 L 125,325 L 135,325 L 140.5,330 L 148.5,329.5 L 162.5,339 L 181.5,339 L 185,343.5 L 222.5,343.5 L 226,339 L 240.5,339 L 254,329.5 L 264,329.5 L 267.5,325 L 273.5,325 L 276.5,320.5 L 292,316 L 292.5,309 L 296,307 L 320,332 L 320,336 L 315,340.5 L 315.5,356 L 397.5,436.5 L 397.5,442.5 L 403,448 L 409.5,448.5 L 413,453 L 428,453 L 436,444 L 442.5,443.5 L 453,428 L 453,417.5 L 448.5,414 L 448,407.5 L 355.5,315.5 L 340.5,315 L 336.5,319.5 L 331,319.5 L 307,296 L 316,287 L 316,281 L 325,273.5 L 325,267.5 L 329.5,264.5 L 329.5,259 L 334,255.5 L 334,245.5 L 339,240.5 L 338.5,227.5 L 343.5,222.5 L 343.5,180.5 L 338.5,175.5 L 339,162.5 L 329.5,148.5 L 330,140 L 325,135 L 325,129.5 L 311.5,117.5 L 311.5,111.5 L 291.5,91.5 L 285.5,91.5 L 282.5,82.5 L 272.5,82.5 L 269,78 L 263.5,78 L 249.5,68.5 L 240,68.5 L 236,64 L 185.5,64 L 180,59.5 L 176.5,64 L 170.5,64.5 L 168.5,68.5 L 161.5,64 L 154,73 L 144.5,73 L 139.5,78 Z M 345.5,329.5 L 349.5,329.5 L 352.5,333.5 L 355,334.5 L 356.5,337 L 359.5,339 L 361,341.5 L 364,343.5 L 365.5,346 L 368.5,348 L 370.5,351 L 373.5,353 L 375,355.5 L 378,357.5 L 379.5,360 L 382.5,362 L 384,364.5 L 387,366.5 L 388.5,369 L 391.5,371 L 393,373.5 L 396,375.5 L 397.5,378 L 400.5,380 L 402,382.5 L 405,384.5 L 407,387.5 L 410,389.5 L 411.5,392 L 414.5,394 L 416,396.5 L 419,398.5 L 431.5,412 L 433.5,413 L 435,415.5 L 438.5,417.5 L 437,420 L 434,421.5 L 434,424.5 L 438.5,427 L 438,429 L 435.5,430 L 432,434 L 431,434 L 427.5,438.5 L 417.5,438 L 416,435.5 L 413,433.5 L 411.5,431 L 408.5,429 L 407,426.5 L 404,424.5 L 402.5,422 L 399.5,420 L 398,417.5 L 395,415.5 L 393.5,413 L 390.5,411 L 388.5,408 L 386,406.5 L 384,403.5 L 381,401.5 L 379.5,399 L 376.5,397 L 375,394.5 L 372,392.5 L 370.5,390 L 367.5,388 L 366,385.5 L 363,383.5 L 361.5,381 L 358.5,379 L 357,376.5 L 354,374.5 L 352,371.5 L 349,369.5 L 337,356.5 L 334.5,355 L 333.5,352.5 L 330,350.5 L 329.5,345.5 L 332.5,343.5 L 334,341 L 338,338 L 339.5,335 L 342,334 Z M 199,74 L 208.5,74 L 212,78.5 L 235.5,78.5 L 239.5,83 L 249,83 L 253,87.5 L 259,88 L 263,92.5 L 268,92.5 L 280.5,106 L 286,106 L 301.5,121.5 L 302,132.5 L 310.5,135 L 310.5,140.5 L 315,144 L 315,149.5 L 320,154 L 320,164 L 324.5,167.5 L 324.5,182 L 329,185.5 L 329,217.5 L 324.5,220.5 L 324.5,226.5 L 319.5,231 L 325,237.5 L 324,241 L 319.5,245 L 320,253.5 L 318,256 L 312,255.5 L 310.5,259.5 L 315,264 L 302,275 L 301.5,281.5 L 277,306 L 271.5,306 L 263.5,315 L 258,315 L 254,320 L 245,319.5 L 240,324.5 L 230,324.5 L 226.5,329 L 217.5,329 L 213.5,324.5 L 207.5,324.5 L 203.5,329 L 198.5,328.5 L 195.5,324.5 L 189,324.5 L 185.5,329 L 181,329 L 177.5,324.5 L 163,324.5 L 154.5,315.5 L 144,315 L 140.5,310.5 L 135,310.5 L 127,301.5 L 121.5,301.5 L 101.5,281.5 L 101,275 L 92.5,268 L 92.5,262.5 L 88,259 L 87.5,252.5 L 83,249 L 83,239 L 78.5,235.5 L 79,214 L 78,211 L 74,208.5 L 73.5,196 L 79,189 L 78.5,172 L 83,168.5 L 83,158.5 L 87.5,155 L 87.5,149.5 L 92,146 L 92,140.5 L 96.5,137 L 97,130.5 L 130.5,97 L 136,97 L 139.5,92.5 L 145,92.5 L 148.5,88 L 155,87.5 L 158.5,83 L 168,83 L 172,78.5 L 195.5,78.5 Z" fill="#0b1fb3" fill-rule="evenodd"/>
</svg>
