<?xml version="1.0" encoding="UTF-8"?>
<svg xmlns="http://www.w3.org/2000/svg" width="512" height="512" viewBox="0 0 512 512" role="img" aria-label="liquidity drops">
  <title>liquidity drops</title>
  <path d="M 312.0 297.0 L 309.0 300.0 L 308.0 304.0 L 302.0 312.0 L 301.0 316.0 L 295.0 324.0 L 294.0 328.0 L 285.0 341.0 L 278.0 355.0 L 274.0 368.0 L 274.0 382.0 L 277.0 388.0 L 277.0 392.0 L 281.0 399.0 L 292.0 410.0 L 303.0 415.0 L 319.0 417.0 L 335.0 411.0 L 349.0 397.0 L 355.0 383.0 L 355.0 365.0 L 352.0 360.0 L 352.0 356.0 L 331.0 317.0 L 322.0 304.0 L 321.0 300.0 L 318.0 297.0 Z M 314.0 317.0 L 317.0 318.0 L 334.0 347.0 L 342.0 364.0 L 343.0 378.0 L 339.0 390.0 L 331.0 398.0 L 319.0 403.0 L 310.0 403.0 L 300.0 399.0 L 292.0 392.0 L 287.0 381.0 L 288.0 362.0 Z M 182.0 203.0 L 178.0 203.0 L 175.0 205.0 L 159.0 232.0 L 158.0 236.0 L 146.0 253.0 L 131.0 281.0 L 121.0 309.0 L 122.0 336.0 L 125.0 345.0 L 132.0 357.0 L 140.0 366.0 L 155.0 376.0 L 169.0 380.0 L 186.0 380.0 L 197.0 378.0 L 219.0 365.0 L 227.0 356.0 L 236.0 339.0 L 238.0 327.0 L 237.0 301.0 L 233.0 288.0 L 209.0 244.0 L 203.0 237.0 L 198.0 226.0 L 193.0 220.0 L 185.0 205.0 Z M 180.0 223.0 L 209.0 269.0 L 219.0 290.0 L 226.0 311.0 L 226.0 326.0 L 224.0 328.0 L 222.0 338.0 L 211.0 354.0 L 195.0 364.0 L 183.0 367.0 L 175.0 367.0 L 165.0 365.0 L 156.0 361.0 L 142.0 349.0 L 135.0 334.0 L 134.0 317.0 L 135.0 303.0 L 138.0 299.0 L 142.0 286.0 L 148.0 278.0 L 152.0 268.0 Z M 148.0 305.0 L 145.0 311.0 L 145.0 329.0 L 150.0 340.0 L 155.0 345.0 L 160.0 346.0 L 164.0 344.0 L 165.0 338.0 L 159.0 332.0 L 157.0 326.0 L 156.0 316.0 L 158.0 309.0 L 154.0 304.0 Z M 295.0 141.0 L 291.0 145.0 L 284.0 160.0 L 271.0 180.0 L 267.0 190.0 L 266.0 203.0 L 271.0 217.0 L 279.0 225.0 L 290.0 230.0 L 298.0 231.0 L 310.0 228.0 L 322.0 217.0 L 328.0 203.0 L 328.0 193.0 L 322.0 178.0 L 315.0 168.0 L 304.0 146.0 L 301.0 142.0 Z M 296.0 161.0 L 299.0 163.0 L 302.0 170.0 L 308.0 178.0 L 315.0 194.0 L 315.0 201.0 L 311.0 211.0 L 301.0 218.0 L 293.0 218.0 L 286.0 215.0 L 281.0 209.0 L 278.0 202.0 L 281.0 187.0 L 285.0 179.0 L 291.0 172.0 Z" fill="#0b1fb3" fill-rule="evenodd"/>
</svg>
