<svg xmlns="http://www.w3.org/2000/svg" viewBox="0 0 512 512" width="512" height="512" role="img" aria-label="arbitrage_triangle">
  <title>arbitrage_triangle</title>
  <desc>Треугольник из трёх активов со стрелками</desc>
  <path d="M 223.5,384 L 225,385 L 313,385 L 314.5,382.5 L 318,380 L 318.5,375.5 L 318,374 L 316,373.5 L 313,369.5 L 228.5,369.5 L 227,370.5 L 227,373 L 228,374 L 312,374 L 314,376 L 314,378.5 L 313,380 L 228.5,380 L 224.5,380.5 L 223.5,381.5 Z M 111.5,370 L 111,383.5 L 113.5,385 L 116,388.5 L 125,388.5 L 126,387.5 L 126,385 L 125,384 L 116.5,384 L 115.5,383 L 115.5,371 L 114,369.5 Z M 130,356 L 129,355 L 127,355 L 124.5,358.5 L 113,358.5 L 111,360 L 111,361.5 L 113,363.5 L 124,363.5 L 127,360 L 130,358.5 Z M 170.5,351.5 L 169,352.5 L 168.5,354.5 L 168.5,378 L 170,381 L 172.5,381 L 173.5,380 L 173.5,352.5 Z M 181,348 L 179.5,350 L 179.5,379.5 L 180.5,381 L 183.5,381 L 184.5,379.5 L 184.5,350 L 183,348 Z M 419.5,319 L 418.5,320.5 L 419,323 L 421,323.5 L 423,326.5 L 424.5,327 L 426.5,330 L 433.5,336 L 434,337.5 L 436.5,338 L 438,336 L 437.5,334 L 435.5,333.5 L 434,331 L 431.5,329.5 L 422,319 Z M 148,319 L 147,320.5 L 147.5,323 L 149.5,323.5 L 151.5,326.5 L 153,327 L 155,330 L 162,336 L 163,338 L 165,338 L 166.5,335.5 L 166,334 L 164,333.5 L 162,330.5 L 160,329.5 L 158.5,327 L 151.5,321 L 150.5,319 Z M 93,319 L 90.5,319 L 89,321.5 L 87,322.5 L 77,333.5 L 75,334 L 74.5,336 L 76,338 L 78.5,337.5 L 79,336 L 82,334 L 83,332 L 85.5,330.5 L 91.5,323.5 L 93.5,323 L 94,320.5 Z M 379,313 L 379,315 L 380,316 L 404,316 L 405,315 L 405,313 L 403.5,311.5 L 380.5,311.5 Z M 357,311.5 L 355,311.5 L 353.5,314 L 351,315.5 L 350,317.5 L 347.5,319 L 346.5,321 L 344,322.5 L 338,329.5 L 335.5,330.5 L 336,334 L 339,334 L 340,332 L 342.5,330.5 L 343.5,328.5 L 346,327 L 347,325 L 349.5,323.5 L 356,316 L 358,315.5 L 358,312.5 Z M 104,312.5 L 104,315 L 105,316 L 136,316 L 137,315 L 137,312.5 L 135.5,311.5 L 105,311.5 Z M 104,302 L 104,304.5 L 105.5,305.5 L 132,305.5 L 133.5,304 L 133.5,302 L 131.5,300.5 L 106,300.5 Z M 309,206.5 L 304,207 L 303,209 L 299,212.5 L 299.5,217.5 L 302,218.5 L 304,222 L 306.5,222 L 307.5,221 L 307.5,218.5 L 305,217.5 L 303.5,215.5 L 303.5,213.5 L 305,211.5 L 309,211.5 L 311.5,215 L 314.5,214 L 314.5,211 L 312,210 Z M 199.5,206.5 L 198,208 L 198,210 L 199,211 L 208,211.5 L 209,213.5 L 209,244.5 L 207.5,246.5 L 205,247.5 L 205,250 L 206,251 L 208.5,251 L 210,248 L 212.5,247 L 213.5,245.5 L 213.5,212.5 L 207.5,206.5 Z M 282,168 L 280.5,167 L 277.5,168 L 277.5,172.5 L 276.5,174 L 272.5,174 L 270,170.5 L 268,170.5 L 266.5,174 L 269,175 L 271.5,178.5 L 280.5,178.5 L 282,176.5 Z M 230.5,168 L 230.5,176.5 L 232,178.5 L 241,178.5 L 242.5,175.5 L 245,174.5 L 246,173 L 246,168.5 L 244.5,167 L 242.5,167 L 241.5,168 L 241.5,172 L 240,174 L 235.5,173.5 L 234.5,167.5 L 232,167 Z M 248.5,161.5 L 249.5,164 L 262,164.5 L 265,168 L 267.5,166.5 L 267.5,164 L 265,163 L 262,159.5 L 250.5,159.5 Z M 203,138 L 201.5,139 L 201,141 L 201,153.5 L 202,156.5 L 204,157 L 206,155.5 L 206,139.5 L 205.5,138.5 Z M 192,138 L 190.5,139.5 L 190.5,155.5 L 193,157 L 195.5,155 L 195.5,140 L 194.5,138.5 Z M 227,102 L 224,102 L 223,104.5 L 220.5,105.5 L 219.5,108 L 216.5,109.5 L 215.5,112 L 213,113 L 211.5,116 L 209,117 L 208.5,119 L 209.5,120.5 L 212.5,120.5 L 213.5,118 L 216,117 L 217,114.5 L 219,113.5 L 221.5,110 L 223.5,109.5 L 225,106.5 L 227.5,105.5 L 228,103.5 Z M 293,94.5 L 292,95.5 L 292,98 L 295,99.5 L 296.5,102.5 L 298.5,103 L 300,106 L 302,106.5 L 303.5,109.5 L 306.5,111 L 307,113 L 310,113.5 L 311,112.5 L 311,110 L 308.5,109 L 306.5,105.5 L 304.5,105 L 303,102 L 301,101.5 L 299.5,98.5 L 296.5,97 L 296,95 Z" fill="#8fb7df" fill-rule="evenodd"/>
  <path d="M 198,374.5 L 198,376.5 L 204.5,381.5 L 205.5,383.5 L 208,385 L 214,392 L 218.5,392 L 220,394.5 L 222,395.5 L 225.5,399.5 L 229,399.5 L 231,398 L 231.5,390.5 L 230.5,388 L 228.5,387.5 L 224,383.5 L 225,381 L 313,381 L 314.5,379.5 L 314.5,375 L 313.5,373.5 L 229.5,373.5 L 227.5,372 L 227,369.5 L 228.5,367 L 231,366 L 231,361 L 235,358 L 233.5,355 L 224.5,355.5 L 218.5,362.5 L 214,362.5 L 208,369.5 L 203.5,369.5 Z M 102,304.5 L 99,308 L 90.5,308.5 L 84.5,315.5 L 80,315.5 L 74,322.5 L 71.5,323.5 L 71,329 L 69,330 L 66.5,333.5 L 64.5,334 L 64,339.5 L 60.5,342 L 60.5,354 L 58,355.5 L 56.5,358 L 56.5,371 L 57,373 L 60.5,375 L 60.5,387 L 64,389.5 L 64,394 L 65,395.5 L 67.5,396.5 L 68,402 L 70,403 L 82.5,415.5 L 83,417 L 88.5,417.5 L 94.5,424.5 L 102.5,424.5 L 105,428 L 132,428 L 135,424.5 L 143,424.5 L 145.5,421 L 150,421 L 152.5,417.5 L 158,417 L 158.5,415.5 L 171,403 L 173,402 L 173,397.5 L 174,396 L 176.5,395 L 177,389.5 L 180.5,387 L 180.5,346 L 179.5,344.5 L 177,343.5 L 177,338.5 L 173,335.5 L 173,331 L 166,325 L 166,320 L 164.5,319 L 160,319 L 154,312 L 149.5,312 L 147,308.5 L 142,308 L 139,304.5 Z M 105.5,312.5 L 135.5,312.5 L 138,316 L 142.5,316 L 145,319.5 L 149.5,319.5 L 151.5,322.5 L 153,323 L 155,326 L 157,327 L 159,330 L 165.5,335.5 L 165.5,340 L 169.5,343.5 L 169,350.5 L 173,354 L 173,378.5 L 169,382 L 169,386.5 L 165.5,389 L 165.5,393.5 L 146,413 L 141,413.5 L 138.5,417 L 128,416.5 L 124,420.5 L 117,420.5 L 113,416.5 L 102.5,417 L 100,413.5 L 95,413 L 88.5,406 L 84,406 L 83,405 L 82.5,399.5 L 72,390.5 L 72,382.5 L 68,379 L 68,350.5 L 69.5,348.5 L 71.5,348 L 72,342.5 L 75.5,340 L 75.5,335.5 L 78.5,333.5 L 79,332 L 82,330 L 82.5,328.5 L 85.5,326.5 L 91.5,319.5 L 96,319.5 L 98.5,316 L 103,316 Z M 106,337 L 100,343 L 100.5,394.5 L 101.5,395.5 L 132,395.5 L 138.5,388.5 L 140.5,387.5 L 141,385.5 L 141,372.5 L 140,370 L 137,368.5 L 137,361 L 140.5,358.5 L 141,356.5 L 140.5,349 L 137,346.5 L 137,342 L 136,341 L 131,340.5 L 128,337 Z M 111.5,372 L 112.5,370.5 L 128,370.5 L 130,373.5 L 133,375.5 L 133.5,377.5 L 133,379 L 130,381 L 124,388 L 117,388 L 111.5,382.5 Z M 113,345 L 124.5,345 L 126,347.5 L 129,349.5 L 129.5,357 L 124.5,362.5 L 113,362.5 L 112,361.5 L 111.5,346.5 Z M 384,301 L 381.5,304.5 L 373.5,304.5 L 370.5,308 L 365.5,308.5 L 363,312 L 358.5,312 L 357.5,314 L 355,315.5 L 353.5,318 L 351,319.5 L 350,321.5 L 347.5,323 L 346.5,325 L 335.5,335 L 336,342.5 L 332,346 L 332.5,356 L 332,357.5 L 328.5,360 L 328.5,372.5 L 332,375 L 332,387 L 335.5,389.5 L 335.5,394 L 336.5,395.5 L 339,396.5 L 339.5,402 L 341.5,403 L 357.5,419 L 358,420.5 L 363.5,421 L 366,424.5 L 374,424.5 L 376.5,428 L 407.5,428 L 410,424.5 L 418,424.5 L 424,417.5 L 429.5,417 L 430,415.5 L 442.5,403 L 444.5,402 L 444.5,397.5 L 445.5,396 L 448,395 L 448.5,389.5 L 452,387 L 452,375 L 455.5,373 L 456,361.5 L 455.5,360 L 452,357.5 L 452,342 L 448.5,339.5 L 448,334 L 446,333.5 L 444.5,331 L 437.5,325 L 437.5,320 L 436.5,319 L 431.5,319 L 425.5,312 L 421,312 L 418.5,308.5 L 413.5,308 L 410.5,304.5 L 402.5,304.5 L 400,301 Z M 381,312.5 L 403,312.5 L 406,316 L 414,316 L 416.5,319.5 L 421,319.5 L 423,322.5 L 424.5,323 L 427,326.5 L 428.5,327 L 430.5,330 L 437,335.5 L 437,340 L 440.5,342.5 L 440.5,347 L 444.5,350.5 L 444.5,379 L 440.5,382 L 440.5,386.5 L 437,389 L 437,393.5 L 417.5,413 L 412.5,413.5 L 410,417 L 399.5,416.5 L 395.5,420.5 L 392,420.5 L 388.5,416.5 L 384.5,416.5 L 382,413 L 379.5,413.5 L 378,416.5 L 374,417 L 371.5,413.5 L 366.5,413 L 360.5,406 L 355,405.5 L 350.5,400.5 L 350.5,396 L 343.5,390 L 343.5,382 L 339.5,378.5 L 339.5,354 L 343.5,350.5 L 343.5,342.5 L 350.5,336.5 L 350.5,332 L 353.5,330 L 359,323.5 L 363,323.5 L 366.5,319.5 L 368.5,318.5 L 370,316 L 378,316 Z M 384.5,337 L 377.5,344.5 L 375.5,345.5 L 375.5,350.5 L 372,352.5 L 371.5,378.5 L 372,380 L 375.5,382.5 L 376,388 L 378,388.5 L 384,395.5 L 400,395.5 L 402.5,392 L 407,392 L 412,387.5 L 412,381.5 L 410,380.5 L 407.5,377 L 405.5,377 L 395.5,388 L 392,388 L 390,385 L 388,384 L 383,378.5 L 383.5,372 L 383,370.5 L 380.5,369.5 L 379.5,368 L 379.5,361 L 383,358.5 L 383.5,349.5 L 384.5,348.5 L 389,348.5 L 392,345 L 396,345 L 406,356 L 408,355.5 L 408.5,354 L 412,351.5 L 412,348.5 L 408.5,346.5 L 408,341 L 402.5,340.5 L 399.5,337 Z M 304.5,210.5 L 303,212 L 303,216.5 L 307,220.5 L 307,225 L 309,225.5 L 310.5,227.5 L 310.5,232 L 313,233 L 314,235 L 317.5,237.5 L 317.5,242.5 L 321,244.5 L 321,249.5 L 328.5,256 L 328.5,260.5 L 332,263 L 332.5,268.5 L 334.5,269 L 339.5,274.5 L 339.5,277 L 338,279 L 333.5,279 L 331,275.5 L 322,275.5 L 321,277 L 321.5,279.5 L 323.5,280 L 329.5,287 L 334.5,287 L 337,290.5 L 341,290.5 L 344,294 L 349,294.5 L 352,298 L 357,297.5 L 358,295.5 L 361.5,293 L 361.5,262.5 L 358.5,260.5 L 357.5,258 L 355,257.5 L 353.5,260 L 350,262.5 L 350.5,270.5 L 349.5,272 L 348,272 L 343.5,267 L 343.5,262.5 L 339.5,259 L 339.5,254.5 L 337.5,254 L 336,251.5 L 332.5,249 L 332.5,244 L 325.5,238.5 L 325.5,234 L 324.5,232.5 L 322,231.5 L 321.5,226 L 314.5,220 L 314,214.5 L 312,214 L 309,210.5 Z M 209,211 L 196,210.5 L 193,214 L 189,214 L 186,217.5 L 181,218 L 175.5,224.5 L 173,225.5 L 173,228.5 L 175,229.5 L 177,232.5 L 180,232.5 L 182,229 L 184.5,229 L 187,230.5 L 187.5,234 L 183.5,237 L 183.5,242 L 180,244 L 180,249 L 176.5,251 L 176.5,256 L 169,262.5 L 169,267 L 165.5,269.5 L 165,275 L 162,276.5 L 162,281.5 L 154.5,287.5 L 154.5,289.5 L 159.5,294 L 164,294.5 L 166,293 L 166,288.5 L 169.5,286 L 170,280.5 L 176.5,275.5 L 177,270 L 180,268.5 L 180.5,263 L 184,260.5 L 184,256 L 191.5,249.5 L 191.5,244.5 L 195,242.5 L 195,238 L 196,236.5 L 200.5,236.5 L 201.5,237.5 L 201.5,245 L 202.5,247 L 207,247.5 L 209,246.5 Z M 243,84 L 240,87.5 L 232,87.5 L 229.5,91 L 225,91 L 218,98.5 L 213.5,98.5 L 212.5,99.5 L 212.5,104.5 L 202,113.5 L 202,118 L 198,121.5 L 198.5,128.5 L 194.5,132 L 194.5,163 L 198,165 L 198,173.5 L 201.5,176 L 202,181.5 L 204,182 L 205.5,184.5 L 208,186 L 209.5,188.5 L 211.5,189.5 L 221,200 L 225.5,200 L 228,203.5 L 233,204 L 236,207.5 L 244,207.5 L 246.5,211 L 266,211 L 268.5,207.5 L 276.5,207.5 L 279.5,204 L 284.5,203.5 L 287,200 L 291.5,200 L 293,197.5 L 295,196.5 L 304.5,186 L 307,185 L 307,180 L 311,177 L 310.5,173.5 L 314.5,170 L 314.5,161.5 L 318,159 L 318,132 L 314,128.5 L 314.5,121.5 L 311,119 L 310.5,113.5 L 309,113 L 287.5,91 L 283,91 L 280.5,87.5 L 269,87.5 L 266,84 Z M 240,95 L 272.5,95 L 275,98.5 L 280,99 L 286,106 L 290.5,106 L 295.5,110.5 L 296,116 L 303,122 L 303,126.5 L 307,130 L 306.5,144 L 310,146.5 L 310,148.5 L 307.5,149.5 L 306.5,151 L 307,165 L 305.5,167 L 303.5,167.5 L 303,173 L 300.5,174.5 L 299.5,176.5 L 297,178 L 296,180 L 293,182 L 292,184 L 289.5,185.5 L 288.5,187.5 L 286,189 L 280,196 L 272,196 L 269.5,199.5 L 243,199.5 L 240.5,196 L 232.5,196 L 226.5,189 L 221.5,188.5 L 219.5,185.5 L 213,180 L 213,175.5 L 209.5,173 L 209.5,168.5 L 205.5,165 L 206,158 L 202,154.5 L 202,140.5 L 206,137 L 205.5,130 L 209.5,126.5 L 209.5,118 L 211.5,117 L 213.5,114 L 215.5,113 L 217,110.5 L 219,109.5 L 225.5,102.5 L 230,102.5 L 232.5,99 L 237.5,98.5 Z M 254,120 L 249,124.5 L 249,132.5 L 245,136 L 245,140.5 L 241.5,143 L 241.5,151.5 L 238,153.5 L 238,162 L 234,165.5 L 234.5,174 L 236,175 L 241,174.5 L 242,173.5 L 242,169 L 244.5,167.5 L 250.5,160.5 L 262,160.5 L 264,163.5 L 267,165.5 L 267,170.5 L 269.5,171.5 L 272.5,175 L 276.5,175 L 278.5,172.5 L 278.5,165.5 L 274.5,162 L 274.5,153.5 L 271,151.5 L 271,143 L 267,139.5 L 267.5,132.5 L 266.5,131 L 264,130 L 264,125.5 L 263,124 L 261.5,123.5 L 258.5,120 Z M 254.5,135 L 258,135 L 259.5,136.5 L 259.5,144.5 L 263.5,147.5 L 263.5,151 L 262,152.5 L 250.5,152.5 L 249,151 L 249,147.5 L 253,144.5 L 252.5,138 Z" fill="#0b1fb3" fill-rule="evenodd"/>
</svg>
