<?xml version="1.0" encoding="UTF-8"?>
<svg xmlns="http://www.w3.org/2000/svg" width="512" height="512" viewBox="0 0 512 512" role="img" aria-label="order book">
  <title>order book</title>
  <path d="M 127.0 153.0 L 122.0 161.0 L 123.0 168.0 L 121.0 188.0 L 121.0 376.0 L 122.0 409.0 L 129.0 416.0 L 164.0 418.0 L 204.0 418.0 L 227.0 416.0 L 356.0 417.0 L 368.0 415.0 L 388.0 416.0 L 394.0 411.0 L 396.0 382.0 L 396.0 245.0 L 393.0 153.0 L 390.0 149.0 L 385.0 146.0 L 357.0 145.0 L 243.0 145.0 L 218.0 147.0 L 179.0 147.0 L 175.0 149.0 L 138.0 150.0 L 135.0 152.0 Z M 277.0 160.0 L 354.0 160.0 L 371.0 162.0 L 376.0 161.0 L 380.0 164.0 L 381.0 384.0 L 380.0 399.0 L 378.0 401.0 L 276.0 400.0 L 276.0 360.0 L 273.0 352.0 L 276.0 345.0 L 276.0 220.0 L 274.0 215.0 L 276.0 167.0 L 275.0 162.0 Z M 304.0 352.0 L 304.0 356.0 L 310.0 361.0 L 349.0 361.0 L 355.0 358.0 L 357.0 355.0 L 356.0 350.0 L 350.0 345.0 L 310.0 346.0 Z M 357.0 301.0 L 355.0 297.0 L 350.0 293.0 L 310.0 294.0 L 305.0 298.0 L 304.0 303.0 L 308.0 308.0 L 312.0 309.0 L 349.0 309.0 L 353.0 307.0 Z M 304.0 251.0 L 305.0 254.0 L 311.0 258.0 L 350.0 258.0 L 355.0 254.0 L 356.0 248.0 L 351.0 243.0 L 318.0 243.0 L 308.0 245.0 Z M 356.0 200.0 L 352.0 195.0 L 349.0 194.0 L 313.0 195.0 L 305.0 200.0 L 305.0 206.0 L 310.0 210.0 L 334.0 209.0 L 348.0 211.0 L 356.0 205.0 Z M 261.0 160.0 L 264.0 163.0 L 264.0 346.0 L 266.0 350.0 L 264.0 362.0 L 264.0 399.0 L 262.0 401.0 L 229.0 402.0 L 138.0 402.0 L 136.0 399.0 L 134.0 285.0 L 134.0 182.0 L 136.0 165.0 L 164.0 163.0 L 173.0 164.0 L 180.0 162.0 Z M 237.0 354.0 L 233.0 348.0 L 227.0 346.0 L 204.0 346.0 L 167.0 348.0 L 162.0 355.0 L 163.0 358.0 L 167.0 361.0 L 230.0 362.0 L 234.0 360.0 Z M 237.0 300.0 L 234.0 296.0 L 230.0 294.0 L 209.0 294.0 L 198.0 296.0 L 182.0 295.0 L 165.0 297.0 L 162.0 303.0 L 164.0 307.0 L 169.0 309.0 L 232.0 309.0 L 237.0 304.0 Z M 236.0 249.0 L 232.0 245.0 L 228.0 244.0 L 168.0 245.0 L 163.0 249.0 L 162.0 254.0 L 167.0 259.0 L 231.0 259.0 L 235.0 256.0 Z M 237.0 203.0 L 230.0 196.0 L 203.0 196.0 L 167.0 198.0 L 163.0 201.0 L 162.0 205.0 L 166.0 210.0 L 169.0 211.0 L 231.0 211.0 L 235.0 208.0 Z" fill="#0b1fb3" fill-rule="evenodd"/>
</svg>
