<?xml version="1.0" encoding="UTF-8"?>
<svg xmlns="http://www.w3.org/2000/svg" width="512" height="512" viewBox="0 0 512 512" role="img" aria-label="market regime pie">
  <title>market regime pie</title>
  <path d="M 237.0 136.0 L 219.0 139.0 L 192.0 149.0 L 168.0 166.0 L 153.0 181.0 L 136.0 205.0 L 125.0 232.0 L 120.0 257.0 L 120.0 281.0 L 123.0 305.0 L 129.0 323.0 L 143.0 348.0 L 166.0 373.0 L 190.0 389.0 L 216.0 400.0 L 229.0 403.0 L 258.0 406.0 L 265.0 404.0 L 282.0 403.0 L 315.0 393.0 L 342.0 376.0 L 355.0 364.0 L 373.0 341.0 L 381.0 326.0 L 388.0 307.0 L 391.0 290.0 L 386.0 283.0 L 254.0 283.0 L 251.0 280.0 L 251.0 258.0 L 249.0 244.0 L 250.0 229.0 L 248.0 195.0 L 248.0 140.0 L 244.0 136.0 Z M 252.0 388.0 L 257.0 385.0 L 261.0 386.0 L 256.0 391.0 Z M 231.0 381.0 L 231.0 385.0 L 227.0 388.0 L 225.0 384.0 Z M 277.0 379.0 L 278.0 382.0 L 272.0 390.0 L 269.0 390.0 L 268.0 387.0 Z M 219.0 378.0 L 220.0 381.0 L 217.0 383.0 L 215.0 381.0 Z M 295.0 376.0 L 297.0 380.0 L 287.0 387.0 L 285.0 385.0 Z M 195.0 372.0 L 198.0 371.0 L 199.0 374.0 L 196.0 375.0 Z M 312.0 370.0 L 314.0 373.0 L 313.0 375.0 L 307.0 378.0 L 306.0 375.0 Z M 253.0 370.0 L 254.0 371.0 L 248.0 380.0 L 245.0 388.0 L 241.0 390.0 L 239.0 386.0 L 243.0 383.0 L 246.0 377.0 Z M 215.0 365.0 L 216.0 367.0 L 212.0 371.0 L 210.0 376.0 L 207.0 379.0 L 204.0 379.0 L 203.0 376.0 Z M 328.0 363.0 L 328.0 367.0 L 323.0 371.0 L 322.0 368.0 Z M 181.0 364.0 L 186.0 362.0 L 190.0 364.0 L 187.0 369.0 L 184.0 369.0 Z M 193.0 358.0 L 194.0 359.0 L 191.0 362.0 L 190.0 360.0 Z M 168.0 355.0 L 172.0 352.0 L 177.0 353.0 L 173.0 358.0 L 171.0 358.0 Z M 181.0 348.0 L 181.0 351.0 L 178.0 352.0 L 177.0 350.0 Z M 348.0 346.0 L 349.0 349.0 L 345.0 352.0 L 344.0 350.0 Z M 244.0 345.0 L 244.0 349.0 L 228.0 366.0 L 227.0 362.0 Z M 353.0 341.0 L 353.0 344.0 L 350.0 346.0 L 349.0 344.0 Z M 163.0 338.0 L 163.0 341.0 L 160.0 344.0 L 158.0 344.0 L 157.0 342.0 L 161.0 338.0 Z M 223.0 336.0 L 223.0 339.0 L 218.0 344.0 L 217.0 341.0 Z M 308.0 333.0 L 309.0 335.0 L 306.0 339.0 L 286.0 357.0 L 285.0 355.0 L 303.0 336.0 Z M 277.0 332.0 L 278.0 334.0 L 269.0 342.0 L 268.0 340.0 Z M 211.0 326.0 L 212.0 328.0 L 195.0 346.0 L 192.0 347.0 L 191.0 346.0 L 193.0 342.0 Z M 342.0 325.0 L 343.0 326.0 L 322.0 346.0 L 322.0 343.0 L 337.0 328.0 Z M 305.0 322.0 L 306.0 324.0 L 299.0 330.0 L 298.0 328.0 Z M 148.0 324.0 L 150.0 322.0 L 152.0 323.0 L 150.0 326.0 Z M 364.0 321.0 L 366.0 323.0 L 361.0 328.0 L 360.0 325.0 Z M 213.0 324.0 L 215.0 321.0 L 217.0 322.0 L 214.0 325.0 Z M 243.0 320.0 L 229.0 332.0 L 227.0 331.0 L 241.0 319.0 Z M 270.0 308.0 L 271.0 311.0 L 267.0 314.0 L 266.0 312.0 Z M 190.0 308.0 L 192.0 311.0 L 190.0 313.0 L 187.0 313.0 L 187.0 310.0 Z M 225.0 300.0 L 225.0 303.0 L 211.0 316.0 L 210.0 314.0 L 214.0 307.0 L 221.0 301.0 Z M 341.0 299.0 L 342.0 300.0 L 337.0 304.0 L 336.0 302.0 Z M 322.0 301.0 L 323.0 299.0 L 326.0 300.0 L 324.0 302.0 Z M 292.0 299.0 L 293.0 301.0 L 289.0 307.0 L 281.0 315.0 L 278.0 316.0 L 277.0 314.0 Z M 374.0 300.0 L 371.0 308.0 L 368.0 311.0 L 361.0 312.0 L 345.0 325.0 L 343.0 324.0 L 352.0 315.0 L 362.0 308.0 L 370.0 298.0 Z M 359.0 299.0 L 334.0 323.0 L 332.0 322.0 L 343.0 309.0 L 356.0 298.0 Z M 308.0 297.0 L 309.0 300.0 L 300.0 308.0 L 299.0 306.0 L 306.0 297.0 Z M 278.0 297.0 L 279.0 300.0 L 275.0 303.0 L 274.0 301.0 Z M 265.0 297.0 L 267.0 299.0 L 266.0 301.0 L 259.0 306.0 L 259.0 302.0 Z M 252.0 296.0 L 254.0 299.0 L 251.0 302.0 L 249.0 302.0 L 248.0 298.0 Z M 244.0 294.0 L 245.0 297.0 L 233.0 306.0 L 232.0 304.0 L 234.0 299.0 L 238.0 295.0 Z M 233.0 152.0 L 235.0 204.0 L 234.0 251.0 L 236.0 262.0 L 235.0 280.0 L 195.0 295.0 L 191.0 295.0 L 164.0 305.0 L 142.0 310.0 L 139.0 305.0 L 135.0 285.0 L 135.0 257.0 L 142.0 228.0 L 153.0 205.0 L 169.0 185.0 L 191.0 166.0 L 214.0 156.0 L 218.0 156.0 L 227.0 152.0 Z M 270.0 135.0 L 265.0 141.0 L 266.0 266.0 L 269.0 268.0 L 299.0 269.0 L 390.0 268.0 L 395.0 263.0 L 395.0 243.0 L 393.0 239.0 L 392.0 227.0 L 386.0 210.0 L 378.0 194.0 L 365.0 176.0 L 341.0 155.0 L 323.0 145.0 L 304.0 138.0 L 278.0 134.0 Z M 359.0 253.0 L 361.0 250.0 L 365.0 251.0 L 362.0 254.0 Z M 377.0 248.0 L 380.0 249.0 L 380.0 252.0 L 378.0 254.0 L 375.0 253.0 L 375.0 250.0 Z M 334.0 248.0 L 336.0 248.0 L 337.0 251.0 L 335.0 254.0 L 332.0 254.0 L 331.0 252.0 Z M 354.0 246.0 L 354.0 249.0 L 347.0 255.0 L 345.0 252.0 Z M 326.0 247.0 L 321.0 254.0 L 314.0 253.0 L 316.0 249.0 L 323.0 246.0 Z M 308.0 242.0 L 308.0 248.0 L 303.0 253.0 L 302.0 250.0 Z M 285.0 231.0 L 285.0 235.0 L 281.0 238.0 L 279.0 234.0 Z M 372.0 231.0 L 375.0 230.0 L 377.0 232.0 L 377.0 235.0 L 374.0 236.0 L 372.0 234.0 Z M 320.0 226.0 L 321.0 228.0 L 315.0 234.0 L 314.0 232.0 Z M 311.0 227.0 L 289.0 249.0 L 286.0 254.0 L 282.0 254.0 L 279.0 251.0 L 279.0 249.0 L 297.0 233.0 L 309.0 226.0 Z M 279.0 224.0 L 281.0 221.0 L 284.0 222.0 L 282.0 225.0 Z M 372.0 217.0 L 374.0 221.0 L 371.0 224.0 L 369.0 224.0 L 368.0 221.0 Z M 359.0 220.0 L 361.0 217.0 L 363.0 218.0 L 361.0 221.0 Z M 368.0 211.0 L 370.0 215.0 L 365.0 217.0 L 364.0 215.0 Z M 279.0 212.0 L 281.0 210.0 L 283.0 211.0 L 282.0 213.0 Z M 348.0 202.0 L 325.0 224.0 L 321.0 224.0 L 322.0 221.0 L 332.0 211.0 L 346.0 201.0 Z M 362.0 199.0 L 366.0 203.0 L 366.0 205.0 L 356.0 212.0 L 354.0 212.0 L 354.0 209.0 Z M 278.0 200.0 L 281.0 197.0 L 284.0 199.0 L 282.0 202.0 Z M 348.0 179.0 L 350.0 181.0 L 350.0 184.0 L 339.0 195.0 L 336.0 196.0 L 335.0 193.0 L 344.0 181.0 Z M 284.0 172.0 L 284.0 175.0 L 280.0 178.0 L 278.0 176.0 Z M 331.0 166.0 L 332.0 169.0 L 322.0 178.0 L 321.0 175.0 L 329.0 166.0 Z M 279.0 164.0 L 282.0 161.0 L 284.0 162.0 L 282.0 165.0 Z M 318.0 159.0 L 319.0 163.0 L 315.0 166.0 L 314.0 160.0 Z M 308.0 154.0 L 310.0 157.0 L 301.0 164.0 L 300.0 163.0 L 303.0 157.0 L 306.0 154.0 Z M 278.0 152.0 L 280.0 150.0 L 284.0 152.0 L 281.0 155.0 Z" fill="#0b1fb3" fill-rule="evenodd"/>
</svg>
