<svg xmlns="http://www.w3.org/2000/svg" viewBox="0 0 512 512" width="512" height="512" role="img" aria-label="correlation_matrix">
  <title>correlation_matrix</title>
  <desc>Квадратная матрица/heatmap из ячеек</desc>
  <path d="M 177,431 L 177,434 L 179,435.5 L 248,435.5 L 250,433.5 L 250,431.5 L 248,429.5 L 178.5,429.5 Z M 371.5,417.5 L 371.5,420.5 L 373.5,422 L 432.5,422 L 435,420.5 L 435,417.5 L 433.5,416 L 373,416 Z M 367.5,390.5 L 365.5,389 L 363.5,389 L 361.5,391.5 L 362,414 L 360,416 L 301.5,416 L 300,415 L 300,409 L 298,407 L 294.5,408.5 L 294,414 L 294.5,415.5 L 297,417 L 301,422 L 365,421.5 L 366.5,420.5 L 367.5,417 Z M 223,345 L 222,347.5 L 222.5,393 L 226.5,396.5 L 226,412 L 227,416 L 228.5,417 L 265.5,417 L 269,421.5 L 279.5,421.5 L 281,418.5 L 283.5,417 L 287,421.5 L 290.5,421 L 290,346 L 288.5,344.5 Z M 295.5,344 L 294,347 L 294,386.5 L 296,390 L 298.5,390 L 300,388 L 300,346.5 L 298.5,344 Z M 216.5,344 L 156,344.5 L 153.5,347.5 L 150.5,348.5 L 149.5,350.5 L 150,353 L 153,354.5 L 154.5,357 L 153.5,361 L 151.5,362 L 149.5,365 L 149.5,410 L 150.5,412 L 152.5,412.5 L 156.5,417 L 162,417 L 166,412.5 L 216,413 L 218,412 L 218.5,409 L 214,405.5 L 214,404.5 L 218.5,401 L 218,346.5 Z M 204,405 L 205.5,403 L 207,403 L 208.5,404.5 L 208.5,406 L 207.5,407 L 205.5,407 Z M 160.5,354 L 162.5,354 L 164,356 L 164,368.5 L 162,371 L 160.5,371 L 159,369.5 L 159.5,355 Z M 224.5,303 L 222,305 L 222,329 L 223,330.5 L 226.5,330.5 L 228,328 L 228,307.5 L 227.5,304.5 Z M 449.5,276 L 447.5,277.5 L 447,280.5 L 447,299.5 L 448,303.5 L 452,304 L 453.5,302 L 453.5,278.5 L 452.5,276.5 Z M 87,263.5 L 86,267 L 86.5,325.5 L 87.5,326.5 L 91,326.5 L 92,325 L 92.5,309.5 L 93.5,308.5 L 99.5,308.5 L 101,306.5 L 101,301 L 102.5,299.5 L 108,299.5 L 109.5,296.5 L 112,295 L 114,296.5 L 115.5,299.5 L 121,299.5 L 124.5,304 L 130.5,304 L 133.5,299.5 L 136,300.5 L 135.5,331.5 L 137,335.5 L 139,336 L 141.5,335 L 141.5,264 L 139.5,262.5 L 89,262.5 Z M 92,270 L 93.5,268.5 L 98.5,268.5 L 100.5,271 L 100,274.5 L 98.5,276 L 93.5,276 L 92,274 Z M 222,336 L 222,339 L 223,340 L 292,340.5 L 296.5,336 L 298,336 L 301,340.5 L 365.5,340.5 L 367.5,339 L 366.5,335.5 L 361.5,334.5 L 301,334.5 L 299,331.5 L 295.5,329 L 295.5,260 L 294,258.5 L 291,258.5 L 289.5,260 L 290,333 L 288.5,334.5 L 227,334.5 Z M 372.5,258.5 L 371.5,259.5 L 371.5,329.5 L 373.5,331.5 L 379,331 L 380,334 L 374,339 L 371.5,340 L 371,343.5 L 372.5,345 L 438,344.5 L 440,341 L 439.5,260 L 437.5,258.5 L 433.5,258 Z M 432,335 L 434.5,337 L 433,339.5 L 431.5,339.5 L 430,338 L 430,336.5 Z M 304.5,258.5 L 303,262 L 306,264 L 359,263.5 L 361.5,265 L 361.5,328.5 L 363,330.5 L 366,330.5 L 367.5,328 L 366.5,259.5 L 361,258 Z M 151,258.5 L 149.5,261 L 150,339 L 152,340.5 L 211,340 L 213,339 L 218,334.5 L 218.5,333 L 217.5,328 L 217.5,306.5 L 218.5,302 L 218.5,261 L 217.5,259 L 216,258 Z M 435.5,213 L 434,214.5 L 433.5,251 L 435,253.5 L 438.5,254 L 440,252 L 440,215 L 438.5,213 Z M 448.5,186 L 447.5,187.5 L 447.5,207.5 L 450.5,209.5 L 453.5,207 L 453.5,188 L 452,186 Z M 248.5,186 L 234,185.5 L 231.5,187.5 L 231,225.5 L 233,227.5 L 235.5,227 L 236.5,224.5 L 242,218.5 L 251.5,218.5 L 254.5,216 L 254.5,201.5 L 253,199.5 L 250,198 L 250,188 Z M 291,177 L 289,180 L 289,250.5 L 290,253.5 L 293,254 L 295,252 L 295,178.5 L 293.5,177 Z M 301,176.5 L 299,179.5 L 299,251.5 L 300,254 L 366.5,253.5 L 367.5,252 L 367,178 L 364.5,176.5 Z M 224.5,176.5 L 219,177.5 L 217,180.5 L 217.5,252 L 220,254.5 L 225,254.5 L 227.5,251.5 L 227.5,229 L 226.5,224.5 L 227.5,179.5 Z M 143,176.5 L 140,180 L 140.5,251.5 L 143,254.5 L 149,254.5 L 150.5,252.5 L 150.5,250.5 L 146.5,248 L 146.5,246 L 150,244 L 151,240 L 150.5,237.5 L 147.5,235.5 L 146,233 L 146.5,179 L 145,177 Z M 436.5,158.5 L 434,160.5 L 434,198.5 L 435.5,200 L 438.5,200 L 440,198.5 L 440,161 L 438.5,159 Z M 228.5,100 L 227,101.5 L 226.5,169 L 227.5,172 L 228.5,173 L 289.5,172.5 L 291,169.5 L 290,101 L 288.5,100 Z M 60.5,100 L 59,102 L 59,139.5 L 60,141 L 63,141.5 L 65,139.5 L 65,101.5 L 63.5,100 Z M 366,100 L 346,99.5 L 337.5,100 L 335.5,101 L 335.5,105 L 346.5,105.5 L 348.5,107 L 349,110.5 L 347.5,113 L 344.5,114 L 344,115 L 344,121 L 339.5,124 L 339.5,130 L 333,136 L 328.5,131.5 L 319,131.5 L 316.5,135 L 313.5,137 L 311.5,140.5 L 309.5,140.5 L 307,136.5 L 304.5,135 L 304,128 L 302.5,127 L 300,127 L 298.5,128.5 L 298.5,166.5 L 300,168.5 L 330.5,168.5 L 330.5,163.5 L 325.5,162.5 L 319.5,163.5 L 317.5,160.5 L 321,158.5 L 324,155 L 326,154.5 L 327,147 L 330,145.5 L 332.5,142 L 355.5,141.5 L 359,146 L 361.5,146 L 363,144.5 L 362.5,107.5 L 364.5,105.5 L 366,105.5 L 367.5,103.5 Z M 449,95.5 L 447.5,97 L 447.5,117 L 448.5,118.5 L 451.5,119 L 453.5,117 L 453.5,97.5 L 452,95.5 Z M 140.5,95.5 L 137,95.5 L 134.5,100 L 84.5,100 L 81.5,95.5 L 78.5,95.5 L 77.5,96.5 L 77.5,167 L 81,169 L 83,172.5 L 139,173.5 L 141,172 L 142.5,169 L 149,168.5 L 150,167.5 L 150.5,120 L 146,116.5 L 146.5,102 L 145,100 L 143.5,100 Z M 138,163.5 L 139.5,163.5 L 141,165 L 141,167 L 140,168 L 137.5,167.5 L 136.5,166 Z M 138,100.5 L 140.5,101.5 L 140.5,104 L 139.5,105 L 138,105 L 136.5,103.5 L 136.5,101.5 Z M 317,95.5 L 318.5,96.5 L 343,96 L 345,93 L 344.5,91.5 L 342.5,90.5 L 319,90.5 L 317,92 Z M 151.5,91 L 150,92.5 L 149,96 L 149.5,99.5 L 151.5,101 L 153.5,100.5 L 155,98 L 157.5,96.5 L 161.5,101 L 215.5,101 L 217,102 L 217.5,165.5 L 213,169 L 213,171.5 L 215,173.5 L 221.5,172 L 222.5,170.5 L 223,106.5 L 222,100.5 L 220,100 L 216,95 L 192.5,95 L 189.5,91 Z M 362,78.5 L 362,81.5 L 363.5,83 L 415,83 L 417,81.5 L 417,79 L 415,77 L 364,77 Z M 145.5,79 L 145.5,81 L 147,83 L 311.5,83 L 313,81.5 L 313,78.5 L 311,77 L 147.5,77 Z M 82,78.5 L 82,81.5 L 83.5,83 L 139.5,83 L 141,81.5 L 141,78.5 L 139,77 L 84,77 Z" fill="#8fb7df" fill-rule="evenodd"/>
  <path d="M 69,87 L 68.5,93.5 L 63.5,99.5 L 64,139 L 59.5,142 L 64,148 L 64,283.5 L 59,289 L 59,305 L 64,310.5 L 63.5,417.5 L 74.5,430.5 L 80,430.5 L 83,435 L 89,430.5 L 93,435 L 176,435 L 179.5,430.5 L 247.5,430.5 L 251,435 L 433,435 L 448.5,424.5 L 448.5,419 L 453.5,413.5 L 453.5,307 L 448.5,301.5 L 448.5,278.5 L 453.5,273 L 453.5,212 L 448.5,206.5 L 448.5,188.5 L 453.5,183 L 453.5,122 L 448.5,116 L 448.5,92.5 L 434.5,78 L 431,77.5 L 428,82 L 423.5,82 L 420,77.5 L 414.5,82 L 364.5,82 L 361,77.5 L 314,77.5 L 310.5,82 L 148,82 L 142,77.5 L 139,82 L 79.5,82 L 75.5,86.5 Z M 78.5,97.5 L 148,96.5 L 153.5,91.5 L 189,92 L 193,96 L 315,96.5 L 319,92 L 342.5,92 L 346.5,96.5 L 437.5,96.5 L 439,111.5 L 434,116 L 434,134.5 L 439,139 L 439,147.5 L 434.5,151 L 434,157 L 439,161.5 L 439,341.5 L 437,344 L 372.5,344 L 370.5,356.5 L 371,415 L 432.5,416.5 L 434,420 L 138.5,420.5 L 135.5,416.5 L 130,416 L 126,420.5 L 79.5,420.5 L 78,256.5 L 141.5,253 L 142,180.5 L 138.5,176.5 L 78.5,175.5 Z M 299.5,344.5 L 298.5,346.5 L 299,415 L 300.5,416.5 L 362,416 L 363,414.5 L 362.5,392.5 L 366.5,389 L 367,387.5 L 367,364 L 363,360.5 L 362.5,356.5 L 366.5,353 L 366.5,349 L 364.5,348 L 361,344 Z M 223,263 L 222,264.5 L 222,302.5 L 226.5,306 L 227,327.5 L 225,330 L 222,331.5 L 222,334.5 L 223.5,336 L 287.5,336 L 290,335 L 291,332.5 L 290.5,260 L 288.5,258.5 L 228.5,258.5 L 225,262.5 Z M 300,258 L 298.5,259.5 L 299,334.5 L 301,336 L 366.5,335.5 L 367.5,333.5 L 367,331 L 364,330 L 362.5,328 L 362.5,264 L 360.5,262.5 L 305.5,262.5 L 302.5,258 Z M 227,177.5 L 226,180.5 L 226.5,252.5 L 228.5,254 L 289.5,253.5 L 290.5,252.5 L 290.5,178.5 L 287.5,176.5 L 229.5,176.5 Z M 278,240.5 L 280,240.5 L 281,241.5 L 281,244 L 280,245 L 278.5,245 L 277,243.5 L 277,241.5 Z M 263.5,242 L 265,240.5 L 270,240.5 L 271,241.5 L 271,244 L 270,245 L 265,245 L 263.5,243.5 Z M 247.5,186.5 L 249.5,189.5 L 249,198 L 250.5,200 L 252.5,200.5 L 254,203 L 253.5,216 L 252,217.5 L 241,218 L 239.5,221 L 236.5,223 L 236,225 L 234.5,226.5 L 233,226.5 L 231.5,224.5 L 232.5,220 L 232,188.5 L 233.5,186.5 Z M 217,177 L 152.5,177 L 149.5,179 L 149.5,252.5 L 151,254 L 216,254.5 L 218,253 L 218.5,179 Z M 155.5,96 L 149.5,102.5 L 150,171.5 L 151,172.5 L 212,172.5 L 215,169 L 217,168.5 L 218.5,166 L 218,102 L 216.5,100.5 L 161.5,100 L 159,96.5 Z" fill="#0b1fb3" fill-rule="evenodd"/>
</svg>
