<?xml version="1.0" encoding="UTF-8"?>
<svg xmlns="http://www.w3.org/2000/svg" width="512" height="512" viewBox="0 0 512 512" role="img" aria-label="portfolio briefcase">
  <title>portfolio briefcase</title>
  <path d="M 250.0 280.0 L 245.0 282.0 L 240.0 287.0 L 237.0 293.0 L 237.0 299.0 L 240.0 305.0 L 246.0 310.0 L 256.0 311.0 L 265.0 304.0 L 268.0 294.0 L 267.0 289.0 L 262.0 283.0 L 255.0 280.0 Z M 389.0 283.0 L 386.0 279.0 L 382.0 278.0 L 375.0 282.0 L 350.0 285.0 L 317.0 291.0 L 283.0 294.0 L 278.0 298.0 L 278.0 304.0 L 274.0 312.0 L 263.0 322.0 L 252.0 324.0 L 244.0 323.0 L 237.0 319.0 L 229.0 309.0 L 227.0 298.0 L 221.0 294.0 L 205.0 295.0 L 166.0 291.0 L 149.0 291.0 L 136.0 288.0 L 129.0 288.0 L 122.0 284.0 L 118.0 284.0 L 114.0 289.0 L 112.0 315.0 L 112.0 380.0 L 116.0 389.0 L 125.0 396.0 L 143.0 396.0 L 153.0 399.0 L 350.0 399.0 L 371.0 398.0 L 380.0 396.0 L 385.0 393.0 L 390.0 380.0 Z M 286.0 384.0 L 289.0 381.0 L 292.0 382.0 L 290.0 385.0 Z M 276.0 381.0 L 277.0 383.0 L 273.0 386.0 L 272.0 384.0 Z M 338.0 380.0 L 338.0 384.0 L 334.0 385.0 L 333.0 383.0 Z M 264.0 380.0 L 265.0 383.0 L 262.0 385.0 L 261.0 382.0 Z M 234.0 380.0 L 235.0 382.0 L 232.0 385.0 L 229.0 384.0 Z M 174.0 380.0 L 175.0 383.0 L 171.0 385.0 L 170.0 383.0 Z M 160.0 380.0 L 162.0 383.0 L 159.0 385.0 L 157.0 383.0 Z M 306.0 379.0 L 307.0 383.0 L 304.0 386.0 L 301.0 386.0 L 299.0 383.0 Z M 193.0 380.0 L 187.0 386.0 L 184.0 385.0 L 190.0 379.0 Z M 326.0 378.0 L 327.0 380.0 L 322.0 386.0 L 319.0 386.0 L 317.0 384.0 L 318.0 382.0 Z M 251.0 378.0 L 253.0 380.0 L 252.0 383.0 L 246.0 386.0 L 244.0 384.0 Z M 127.0 379.0 L 131.0 377.0 L 132.0 381.0 L 128.0 382.0 Z M 159.0 365.0 L 160.0 367.0 L 143.0 385.0 L 141.0 383.0 L 142.0 380.0 Z M 179.0 349.0 L 161.0 366.0 L 159.0 365.0 L 169.0 354.0 L 177.0 348.0 Z M 237.0 336.0 L 239.0 335.0 L 240.0 337.0 L 238.0 339.0 Z M 192.0 334.0 L 193.0 336.0 L 190.0 340.0 L 180.0 348.0 L 179.0 346.0 Z M 376.0 330.0 L 377.0 334.0 L 373.0 337.0 L 371.0 335.0 L 372.0 332.0 Z M 376.0 317.0 L 377.0 320.0 L 373.0 323.0 L 372.0 319.0 Z M 374.0 308.0 L 375.0 310.0 L 372.0 313.0 L 370.0 313.0 L 370.0 310.0 Z M 288.0 311.0 L 290.0 308.0 L 292.0 309.0 L 290.0 312.0 Z M 206.0 308.0 L 207.0 311.0 L 203.0 315.0 L 202.0 310.0 Z M 213.0 307.0 L 216.0 309.0 L 214.0 313.0 L 211.0 311.0 Z M 301.0 307.0 L 303.0 306.0 L 304.0 308.0 L 302.0 310.0 Z M 161.0 307.0 L 162.0 304.0 L 165.0 304.0 L 167.0 306.0 L 165.0 309.0 Z M 153.0 304.0 L 155.0 307.0 L 152.0 309.0 L 151.0 306.0 Z M 329.0 304.0 L 331.0 302.0 L 334.0 303.0 L 332.0 305.0 Z M 128.0 299.0 L 130.0 302.0 L 127.0 305.0 L 125.0 301.0 Z M 357.0 298.0 L 358.0 300.0 L 353.0 303.0 L 352.0 301.0 Z M 375.0 295.0 L 376.0 298.0 L 371.0 301.0 L 370.0 299.0 Z M 389.0 201.0 L 383.0 194.0 L 377.0 191.0 L 314.0 191.0 L 312.0 189.0 L 314.0 182.0 L 313.0 150.0 L 309.0 142.0 L 300.0 135.0 L 277.0 132.0 L 259.0 134.0 L 233.0 133.0 L 223.0 135.0 L 211.0 135.0 L 201.0 139.0 L 193.0 150.0 L 190.0 191.0 L 183.0 190.0 L 153.0 193.0 L 128.0 193.0 L 120.0 197.0 L 115.0 203.0 L 113.0 208.0 L 112.0 268.0 L 116.0 273.0 L 123.0 276.0 L 148.0 277.0 L 159.0 280.0 L 189.0 281.0 L 196.0 283.0 L 227.0 284.0 L 238.0 271.0 L 248.0 267.0 L 259.0 267.0 L 271.0 273.0 L 279.0 285.0 L 299.0 281.0 L 330.0 278.0 L 380.0 270.0 L 388.0 265.0 L 390.0 256.0 Z M 224.0 265.0 L 225.0 266.0 L 221.0 271.0 L 220.0 268.0 Z M 210.0 265.0 L 212.0 266.0 L 211.0 270.0 L 208.0 269.0 Z M 195.0 264.0 L 198.0 266.0 L 196.0 270.0 L 193.0 269.0 L 193.0 266.0 Z M 160.0 266.0 L 163.0 263.0 L 166.0 264.0 L 164.0 268.0 Z M 331.0 260.0 L 332.0 263.0 L 327.0 267.0 L 327.0 262.0 Z M 319.0 260.0 L 319.0 264.0 L 315.0 267.0 L 315.0 263.0 Z M 151.0 258.0 L 151.0 262.0 L 146.0 266.0 L 145.0 263.0 Z M 126.0 257.0 L 128.0 256.0 L 130.0 258.0 L 134.0 258.0 L 135.0 261.0 L 130.0 264.0 L 126.0 260.0 Z M 127.0 238.0 L 128.0 241.0 L 126.0 242.0 L 125.0 240.0 Z M 375.0 232.0 L 378.0 233.0 L 376.0 237.0 L 374.0 236.0 Z M 165.0 232.0 L 165.0 235.0 L 162.0 237.0 L 161.0 235.0 Z M 169.0 228.0 L 170.0 229.0 L 166.0 233.0 L 165.0 231.0 Z M 376.0 220.0 L 376.0 224.0 L 371.0 228.0 L 370.0 226.0 Z M 346.0 215.0 L 347.0 217.0 L 343.0 223.0 L 330.0 233.0 L 329.0 232.0 Z M 376.0 206.0 L 377.0 210.0 L 370.0 216.0 L 369.0 214.0 L 371.0 212.0 L 371.0 209.0 L 374.0 206.0 Z M 125.0 209.0 L 128.0 206.0 L 131.0 208.0 L 128.0 211.0 Z M 361.0 208.0 L 363.0 205.0 L 365.0 206.0 L 364.0 208.0 Z M 218.0 205.0 L 219.0 208.0 L 215.0 211.0 L 214.0 207.0 Z M 353.0 204.0 L 354.0 207.0 L 351.0 209.0 L 350.0 207.0 Z M 341.0 204.0 L 341.0 207.0 L 337.0 209.0 L 336.0 207.0 L 339.0 204.0 Z M 323.0 208.0 L 325.0 204.0 L 328.0 205.0 L 325.0 209.0 Z M 314.0 204.0 L 315.0 206.0 L 310.0 210.0 L 309.0 207.0 L 312.0 204.0 Z M 299.0 204.0 L 301.0 206.0 L 297.0 210.0 L 296.0 207.0 Z M 283.0 207.0 L 286.0 204.0 L 289.0 205.0 L 286.0 209.0 Z M 270.0 208.0 L 272.0 204.0 L 275.0 205.0 L 273.0 208.0 Z M 190.0 204.0 L 192.0 206.0 L 176.0 221.0 L 175.0 220.0 L 179.0 214.0 Z M 164.0 203.0 L 166.0 206.0 L 161.0 209.0 L 160.0 206.0 Z M 207.0 155.0 L 214.0 150.0 L 294.0 150.0 L 298.0 153.0 L 298.0 174.0 L 300.0 187.0 L 297.0 191.0 L 274.0 190.0 L 209.0 192.0 L 206.0 190.0 Z" fill="#0b1fb3" fill-rule="evenodd"/>
</svg>
