<svg xmlns="http://www.w3.org/2000/svg" viewBox="0 0 512 512" width="512" height="512" role="img" aria-label="value_at_risk">
  <title>value_at_risk</title>
  <desc>VaR + кривая распределения с выделенным хвостом</desc>
  <path d="M 190.5,397.5 L 190.5,400.5 L 191.5,401 L 206,401 L 207,399.5 L 206,397 Z M 113.5,398 L 113.5,400 L 114.5,401 L 138.5,401 L 139.5,400 L 139.5,398 L 138.5,397 L 114.5,397 Z M 302.5,388.5 L 302.5,390.5 L 304,391.5 L 350,391.5 L 351,390.5 L 351,388.5 L 350,387.5 L 303.5,387.5 Z M 184,388 L 184,390.5 L 185,391.5 L 247,391.5 L 248.5,390.5 L 248.5,388.5 L 247.5,387.5 Z M 361,326.5 L 360,327.5 L 360,329.5 L 363.5,332 L 363,347.5 L 363.5,349 L 366.5,349.5 L 367.5,347.5 L 367.5,331.5 L 363,326.5 Z M 300,310.5 L 299,311.5 L 299.5,314 L 301.5,314.5 L 302.5,316.5 L 304.5,317.5 L 306,320 L 308,321 L 309,323 L 311,324 L 319.5,333.5 L 321.5,333.5 L 322.5,332.5 L 322,330 L 320,329.5 L 319,327.5 L 317,326.5 L 315.5,324 L 313.5,323 L 312.5,321 L 303,312.5 L 302,310.5 Z M 364.5,288 L 363,290 L 363,312.5 L 364,314 L 366.5,314 L 367.5,312.5 L 367.5,290 L 366,288 Z M 355,249.5 L 353.5,251 L 353.5,268 L 356,269.5 L 358,267.5 L 358,251.5 L 357,250 Z M 358,243 L 357,244 L 357.5,246.5 L 362,247 L 363.5,248.5 L 363.5,270.5 L 360,273 L 360,275 L 362.5,276 L 365,272.5 L 367,272 L 367.5,270.5 L 367.5,248 L 366.5,246.5 L 365,246.5 L 362.5,243 Z M 362.5,198 L 360,199 L 360,201 L 363.5,203.5 L 363.5,225.5 L 362,227 L 358,227 L 357,228 L 357,230 L 358,231 L 362.5,231 L 364,228.5 L 366.5,227.5 L 367.5,226 L 367.5,203.5 L 367,202 L 365,201.5 Z M 366,156.5 L 364.5,156.5 L 363,158.5 L 363.5,180.5 L 362.5,182 L 358,182 L 357,183 L 357,185 L 358,186 L 362.5,186 L 364,183.5 L 366.5,182.5 L 367.5,181 L 367.5,158.5 Z M 203.5,151 L 202.5,150 L 194.5,150 L 193.5,152 L 190.5,154 L 190,159 L 191,160 L 193.5,160 L 194,155 L 195,154 L 202.5,154 L 203.5,153 Z M 193.5,128.5 L 193.5,130.5 L 194.5,131.5 L 205,131.5 L 210.5,138 L 212.5,138 L 213.5,136.5 L 213.5,135 L 211.5,134 L 209.5,131 L 207.5,130.5 L 205.5,127.5 L 194.5,127.5 Z M 232,112.5 L 232,114.5 L 233,115.5 L 250.5,115.5 L 251.5,114.5 L 251.5,112 L 250.5,111.5 L 233,111.5 Z" fill="#8fb7df" fill-rule="evenodd"/>
  <path d="M 363.5,363 L 363.5,390 L 368,394.5 L 372,394.5 L 375,391 L 452.5,391.5 L 453.5,390.5 L 453.5,388 L 450.5,386.5 L 450.5,382.5 L 449,381 L 445.5,381 L 442,384.5 L 420,384.5 L 416.5,381 L 410,381 L 407.5,378 L 400.5,378 L 398.5,375 L 393.5,374.5 L 391.5,371.5 L 387.5,371.5 L 385.5,368.5 L 381.5,368.5 L 378.5,365 L 374.5,365 L 372.5,362 L 364.5,362 Z" fill="#d41217" fill-rule="evenodd"/>
  <path d="M 361.5,288 L 357,292.5 L 357,313 L 359.5,314.5 L 361,317 L 366,317.5 L 367,316.5 L 367,314.5 L 363.5,312 L 364,289 Z M 358,246.5 L 357,248 L 357,271 L 358.5,272.5 L 362.5,272.5 L 364,271 L 364,248 L 363,246.5 Z M 357.5,198.5 L 357,226 L 358,227.5 L 363,227.5 L 364,226 L 364,203 L 360,198.5 Z M 55.5,392.5 L 60.5,401 L 112,401 L 115,397.5 L 137.5,397.5 L 140.5,401 L 189,401 L 192,397.5 L 205,397.5 L 208,401 L 356,401 L 359,397.5 L 368.5,401 L 452,401 L 457,396 L 457,388.5 L 374,391 L 368.5,394 L 363.5,389 L 365,362.5 L 372,362.5 L 419.5,385 L 443,385 L 447.5,379 L 441.5,381 L 397.5,368.5 L 391.5,362 L 374.5,358.5 L 363.5,347 L 364,331.5 L 359.5,326.5 L 356,346 L 336,333 L 290,283.5 L 274,250.5 L 267.5,245 L 267.5,237.5 L 261,232 L 245,202 L 231,195 L 210.5,192 L 191,198.5 L 190,204 L 181,208.5 L 155,263.5 L 142.5,305.5 L 120,347.5 L 114.5,349 L 99,368.5 L 73.5,374.5 L 71,378 L 65.5,375 L 65,383 L 83.5,385 L 86.5,381.5 L 90.5,385 L 123.5,358 L 149,313 L 158.5,280.5 L 181,229 L 201,205.5 L 224.5,202 L 248,222.5 L 277,281.5 L 293,303.5 L 321.5,331 L 317,333 L 302.5,321 L 302.5,380 L 299.5,381.5 L 302.5,387.5 L 249.5,387.5 L 246.5,391 L 186,391 L 183,387.5 L 102.5,391 L 98.5,387.5 L 95.5,391 Z M 354,388 L 356,387.5 L 357.5,390 L 355.5,391 L 354,389.5 Z M 303,388.5 L 304.5,387.5 L 349,387.5 L 350.5,389.5 L 349.5,391 L 304,391 Z M 350.5,386.5 L 352,384.5 L 353,384.5 L 354.5,387.5 L 352,388 Z M 349,352.5 L 353,353 L 357,357 L 354,360.5 L 354.5,366 L 353.5,368 L 351.5,368 L 350.5,366.5 L 350.5,361 L 351.5,358 L 351,356.5 L 348,354.5 Z M 338.5,346.5 L 343,346.5 L 344.5,348 L 344.5,351 L 342,352 L 338.5,348.5 Z M 328.5,340.5 L 329.5,339.5 L 333.5,340 L 337.5,344 L 337.5,345.5 L 333.5,346 L 329,342 Z M 322,333.5 L 324.5,333.5 L 325.5,336 L 328.5,337.5 L 328.5,339.5 L 326,339.5 L 325,337.5 L 322,335.5 Z M 358.5,156.5 L 357,158 L 357,181.5 L 358,182.5 L 363,182.5 L 364,181 L 364,158 L 362.5,156.5 Z M 191,128 L 190,130 L 184,135 L 184,140 L 185.5,141 L 192.5,141 L 195,138 L 202,138 L 203.5,141.5 L 202,143.5 L 195.5,143.5 L 192.5,147 L 189.5,144 L 187,145 L 187,149 L 184,151 L 184,162.5 L 186,163.5 L 188,166.5 L 212.5,166.5 L 213.5,164.5 L 213,138 L 211.5,137.5 L 205.5,131 L 195.5,131 L 193.5,128 Z M 190.5,155.5 L 195.5,150.5 L 202,150.5 L 203.5,153 L 203.5,157.5 L 201.5,160 L 191.5,159.5 L 190.5,158 Z M 226.5,112 L 222.5,116 L 222.5,165.5 L 223.5,166.5 L 231.5,166.5 L 232.5,165.5 L 232.5,148.5 L 233.5,147.5 L 240.5,147.5 L 241.5,148.5 L 241.5,152.5 L 248,158 L 248.5,163 L 250,163.5 L 252.5,166.5 L 260.5,166.5 L 261.5,164.5 L 258,161.5 L 258,157.5 L 255,155.5 L 254.5,150.5 L 251.5,148.5 L 251.5,145.5 L 258,140 L 258,132.5 L 260.5,131.5 L 261.5,130 L 261,128 L 258,126.5 L 258,119 L 256,118 L 254,115 L 234,115 L 230.5,111.5 Z M 232,124 L 233.5,122 L 246.5,121.5 L 251.5,126.5 L 251.5,132.5 L 246.5,137.5 L 239.5,137.5 L 239,139 L 236.5,140.5 L 232,135 L 232.5,132.5 L 235.5,131 L 235.5,128 L 232.5,126.5 Z M 179.5,111.5 L 175,112 L 174.5,113.5 L 171,116 L 171,123.5 L 168,125.5 L 168,132.5 L 164.5,135.5 L 165,141.5 L 161.5,145.5 L 162,148.5 L 161,150 L 159.5,150 L 158,148 L 159,142.5 L 158.5,141 L 155.5,139.5 L 155.5,132 L 152,129.5 L 152.5,123 L 149,120 L 149,116 L 148,115 L 140,115 L 139,116 L 139,120.5 L 142,122.5 L 142,126.5 L 145.5,129.5 L 145.5,140 L 149,143 L 148.5,149 L 152,152 L 152,159.5 L 155,161.5 L 155,165.5 L 156,166.5 L 164,166.5 L 165,165.5 L 165,161.5 L 168.5,158.5 L 168.5,154.5 L 171.5,152.5 L 171.5,145.5 L 174,144 L 175,142 L 174.5,133 L 175.5,131.5 L 177.5,131 L 178,126 L 181,124 L 181,112.5 Z" fill="#0b1fb3" fill-rule="evenodd"/>
</svg>
