<?xml version="1.0" encoding="UTF-8"?>
<svg xmlns="http://www.w3.org/2000/svg" width="512" height="512" viewBox="0 0 512 512" role="img" aria-label="exchange building">
  <title>exchange building</title>
  <path d="M 382.0 241.0 L 377.0 238.0 L 305.0 239.0 L 300.0 241.0 L 291.0 241.0 L 286.0 239.0 L 257.0 239.0 L 242.0 241.0 L 221.0 241.0 L 211.0 243.0 L 203.0 241.0 L 173.0 240.0 L 162.0 242.0 L 128.0 243.0 L 125.0 246.0 L 125.0 251.0 L 131.0 255.0 L 143.0 255.0 L 145.0 257.0 L 144.0 378.0 L 142.0 380.0 L 134.0 380.0 L 127.0 383.0 L 125.0 387.0 L 125.0 407.0 L 123.0 409.0 L 116.0 408.0 L 109.0 410.0 L 105.0 414.0 L 106.0 418.0 L 111.0 421.0 L 133.0 421.0 L 151.0 423.0 L 214.0 422.0 L 243.0 420.0 L 399.0 420.0 L 403.0 416.0 L 402.0 410.0 L 396.0 406.0 L 387.0 407.0 L 383.0 404.0 L 384.0 385.0 L 382.0 381.0 L 379.0 379.0 L 366.0 379.0 L 364.0 377.0 L 363.0 304.0 L 361.0 282.0 L 362.0 254.0 L 364.0 252.0 L 380.0 251.0 L 383.0 248.0 Z M 370.0 395.0 L 370.0 404.0 L 367.0 407.0 L 255.0 406.0 L 214.0 407.0 L 198.0 409.0 L 142.0 409.0 L 139.0 407.0 L 139.0 395.0 L 141.0 393.0 L 275.0 393.0 L 291.0 392.0 L 296.0 390.0 L 299.0 392.0 L 308.0 393.0 L 367.0 392.0 Z M 158.0 255.0 L 181.0 256.0 L 182.0 378.0 L 179.0 380.0 L 159.0 380.0 L 157.0 378.0 Z M 244.0 253.0 L 264.0 253.0 L 266.0 255.0 L 266.0 377.0 L 264.0 379.0 L 242.0 379.0 L 240.0 377.0 L 242.0 265.0 L 241.0 256.0 Z M 328.0 252.0 L 348.0 252.0 L 351.0 255.0 L 349.0 261.0 L 351.0 377.0 L 349.0 379.0 L 328.0 379.0 L 326.0 377.0 L 325.0 282.0 L 326.0 254.0 Z M 206.0 252.0 L 217.0 252.0 L 221.0 254.0 L 226.0 254.0 L 228.0 256.0 L 228.0 378.0 L 226.0 380.0 L 220.0 379.0 L 216.0 381.0 L 196.0 380.0 L 194.0 377.0 L 194.0 256.0 L 196.0 254.0 L 203.0 254.0 Z M 296.0 249.0 L 301.0 252.0 L 310.0 252.0 L 313.0 255.0 L 313.0 376.0 L 310.0 379.0 L 301.0 379.0 L 294.0 382.0 L 290.0 379.0 L 282.0 379.0 L 280.0 377.0 L 280.0 339.0 L 278.0 318.0 L 278.0 255.0 L 281.0 252.0 L 290.0 252.0 Z M 402.0 216.0 L 399.0 212.0 L 391.0 208.0 L 388.0 208.0 L 377.0 201.0 L 353.0 190.0 L 285.0 153.0 L 282.0 150.0 L 253.0 136.0 L 225.0 152.0 L 219.0 154.0 L 162.0 188.0 L 128.0 205.0 L 120.0 211.0 L 110.0 215.0 L 105.0 219.0 L 105.0 223.0 L 110.0 227.0 L 396.0 224.0 L 401.0 221.0 Z M 145.0 213.0 L 149.0 209.0 L 161.0 204.0 L 177.0 194.0 L 192.0 187.0 L 224.0 167.0 L 228.0 166.0 L 252.0 152.0 L 258.0 153.0 L 261.0 156.0 L 291.0 173.0 L 295.0 174.0 L 343.0 201.0 L 354.0 205.0 L 359.0 209.0 L 358.0 211.0 L 293.0 209.0 L 286.0 211.0 L 206.0 211.0 L 182.0 213.0 Z" fill="#0b1fb3" fill-rule="evenodd"/>
</svg>
