<?xml version="1.0" encoding="UTF-8"?>
<svg xmlns="http://www.w3.org/2000/svg" width="512" height="512" viewBox="0 0 512 512" role="img" aria-label="indicator line">
  <title>indicator line</title>
  <path d="M 414.0 149.0 L 409.0 143.0 L 399.0 138.0 L 385.0 139.0 L 373.0 148.0 L 368.0 162.0 L 370.0 172.0 L 373.0 177.0 L 373.0 181.0 L 348.0 217.0 L 346.0 222.0 L 340.0 228.0 L 334.0 239.0 L 313.0 267.0 L 304.0 265.0 L 297.0 267.0 L 290.0 272.0 L 286.0 271.0 L 230.0 229.0 L 230.0 213.0 L 227.0 207.0 L 220.0 200.0 L 212.0 196.0 L 203.0 196.0 L 193.0 200.0 L 187.0 206.0 L 182.0 216.0 L 182.0 227.0 L 185.0 236.0 L 171.0 252.0 L 152.0 280.0 L 128.0 309.0 L 112.0 309.0 L 106.0 312.0 L 99.0 319.0 L 94.0 329.0 L 94.0 340.0 L 98.0 349.0 L 106.0 356.0 L 112.0 359.0 L 124.0 359.0 L 131.0 356.0 L 139.0 348.0 L 143.0 339.0 L 143.0 327.0 L 139.0 321.0 L 139.0 318.0 L 196.0 245.0 L 202.0 247.0 L 213.0 247.0 L 223.0 241.0 L 282.0 284.0 L 280.0 290.0 L 281.0 301.0 L 284.0 307.0 L 291.0 314.0 L 300.0 318.0 L 309.0 318.0 L 317.0 315.0 L 325.0 308.0 L 331.0 297.0 L 331.0 285.0 L 326.0 275.0 L 349.0 240.0 L 361.0 225.0 L 377.0 199.0 L 387.0 186.0 L 401.0 186.0 L 413.0 177.0 L 418.0 164.0 Z M 125.0 338.0 L 126.0 341.0 L 123.0 343.0 L 122.0 340.0 Z M 118.0 324.0 L 119.0 325.0 L 113.0 334.0 L 113.0 337.0 L 117.0 341.0 L 116.0 343.0 L 114.0 343.0 L 109.0 338.0 L 108.0 334.0 L 110.0 329.0 L 115.0 324.0 Z M 304.0 280.0 L 309.0 282.0 L 315.0 289.0 L 315.0 294.0 L 306.0 302.0 L 301.0 301.0 L 296.0 296.0 L 296.0 289.0 L 298.0 285.0 Z M 203.0 213.0 L 209.0 213.0 L 215.0 219.0 L 216.0 224.0 L 214.0 228.0 L 208.0 233.0 L 202.0 231.0 L 197.0 225.0 L 197.0 221.0 Z M 386.0 166.0 L 387.0 165.0 L 392.0 169.0 L 395.0 169.0 L 398.0 166.0 L 400.0 166.0 L 401.0 168.0 L 395.0 173.0 L 390.0 173.0 L 387.0 170.0 Z M 394.0 152.0 L 396.0 154.0 L 391.0 157.0 L 385.0 164.0 L 385.0 156.0 L 390.0 152.0 Z" fill="#0b1fb3" fill-rule="evenodd"/>
</svg>
