<svg xmlns="http://www.w3.org/2000/svg" viewBox="0 0 512 512" width="512" height="512" role="img" aria-label="futures_contract">
  <title>futures_contract</title>
  <desc>Документ-контракт + дата экспирации</desc>
  <path d="M 302.5,450 L 302.5,453 L 303.5,454 L 344,454 L 345.5,452.5 L 345.5,450 L 343.5,448.5 L 304.5,448.5 Z M 298,408 L 298,414.5 L 300.5,415.5 L 303.5,420 L 310,420.5 L 313,424.5 L 318,424.5 L 321,420.5 L 324.5,419 L 324.5,416 L 322.5,414.5 L 320,415 L 317.5,419 L 313,419 L 310.5,415 L 303.5,414 L 303.5,408.5 L 302.5,407 L 299.5,406.5 Z M 175,382 L 175.5,385.5 L 177.5,386.5 L 237,386.5 L 239.5,384.5 L 239.5,382.5 L 237.5,380.5 L 177,380.5 Z M 166,375 L 166.5,380.5 L 168.5,382 L 171.5,380.5 L 171.5,375.5 L 173,373.5 L 262.5,373.5 L 264,375 L 264,380.5 L 265,381.5 L 268,381.5 L 269.5,379.5 L 269,373.5 L 266.5,372.5 L 263,368 L 172.5,368 L 170.5,371.5 L 167,373 Z M 175,327 L 175,329.5 L 176.5,331 L 263.5,331 L 265,329 L 264.5,326.5 L 263,325.5 L 177,325.5 Z M 196,315 L 196.5,317.5 L 198,318.5 L 263,318.5 L 265,316.5 L 263.5,313 L 197.5,313 Z M 166,269 L 168,271.5 L 171,271 L 172,269 L 171.5,265 L 172.5,263.5 L 334.5,263.5 L 336.5,262.5 L 337,259.5 L 334.5,257.5 L 173.5,257.5 L 171.5,258.5 L 169,262.5 L 166.5,263.5 Z M 166,209.5 L 166.5,215 L 169.5,216.5 L 173,221 L 335,221 L 337,219.5 L 337,217 L 335.5,215.5 L 172.5,215 L 171.5,213.5 L 171.5,210 L 173.5,208 L 259.5,208 L 260.5,207 L 260.5,204 L 258.5,202.5 L 173,202.5 L 170.5,206 L 168,207 Z M 313,160 L 311,161.5 L 312,165.5 L 377,165.5 L 378.5,167 L 378.5,427 L 380,428.5 L 382.5,428.5 L 384,427 L 384,163 L 383,161 L 378.5,160 Z M 395,152 L 392.5,152 L 391,154 L 391.5,433.5 L 390.5,435.5 L 387,437 L 387,440 L 388.5,441.5 L 391.5,441 L 393,437.5 L 396,436.5 L 397,433.5 L 397,155 Z M 315,149.5 L 315,151.5 L 316.5,153 L 340,153 L 341.5,150.5 L 340,147.5 L 317,147.5 Z M 166,158.5 L 167.5,161 L 170.5,161 L 172,159 L 171.5,155 L 173,153 L 263,153 L 264.5,152 L 265,149.5 L 263.5,147.5 L 172.5,147.5 L 170,151.5 L 166.5,153 Z M 328.5,84 L 327.5,85 L 327.5,88 L 330.5,89.5 L 332.5,93 L 334.5,93.5 L 337,97.5 L 339,98 L 340.5,100.5 L 343,102 L 345,105 L 347.5,106.5 L 349,109 L 361.5,120.5 L 363,123 L 366,123 L 367,121.5 L 366.5,118.5 L 364,117.5 L 362,114.5 L 360,113.5 L 358,110.5 L 355.5,109 L 353.5,106 L 351.5,105 L 349.5,102 L 347.5,101 L 345,97.5 L 343,96.5 L 341,93.5 L 333,86.5 L 331.5,84 Z M 129.5,84 L 128,85.5 L 128,427 L 129.5,428.5 L 132,428.5 L 133.5,427 L 134,87.5 L 132.5,84.5 Z M 313,83.5 L 310.5,85 L 311,88.5 L 313.5,89 L 315,91 L 313.5,93 L 310.5,94 L 310.5,142.5 L 311.5,144 L 314.5,144 L 316,142.5 L 316,94 L 318,93.5 L 320,97 L 322,98 L 333.5,110.5 L 336,110.5 L 337.5,108 L 337,106 L 334.5,105 L 332.5,102 L 330.5,101 L 328.5,98 L 316,86.5 L 314.5,84 Z M 116.5,80 L 115,83 L 115,429.5 L 116.5,432.5 L 119.5,432.5 L 121,430.5 L 121,82 L 119.5,80 Z M 132.5,76.5 L 132.5,79.5 L 134.5,81 L 136.5,80.5 L 139.5,76.5 L 296.5,76.5 L 298,78.5 L 297.5,141.5 L 299,144 L 302,144 L 303.5,142.5 L 303.5,78 L 302.5,76 L 299,74.5 L 298,71.5 L 297,71 L 138.5,71 L 136,75 Z M 137,59.5 L 137,62.5 L 138.5,64 L 305,64 L 306.5,63.5 L 307.5,61.5 L 306,58.5 L 138,58.5 Z" fill="#8fb7df" fill-rule="evenodd"/>
  <path d="M 125.5,67 L 124,74 L 119.5,79 L 119.5,433.5 L 124,438.5 L 124.5,444.5 L 131,445.5 L 134,449.5 L 378,449.5 L 381,445.5 L 386.5,445.5 L 388,438.5 L 392.5,433.5 L 392,149 L 328.5,87 L 328,80.5 L 310,63 L 134,63 L 131,67 Z M 316,89 L 318,89 L 324.5,97 L 326,97.5 L 333,105.5 L 336,107 L 336.5,113.5 L 339,114.5 L 341,117.5 L 343.5,119 L 345,121.5 L 347.5,123 L 349.5,126 L 352,127.5 L 353.5,130 L 356,131.5 L 358,134.5 L 370,145.5 L 371,149.5 L 369,152 L 368,152 L 364.5,147.5 L 343,147.5 L 339,152 L 317.5,152 L 316,151 L 316,145.5 L 311.5,142 L 311,97.5 L 311.5,95 L 315,92.5 Z M 311.5,85 L 314,84.5 L 315.5,86 L 315.5,88 L 312.5,88.5 L 311,87 Z M 139,72 L 296.5,72 L 302.5,78.5 L 302.5,141.5 L 298,145 L 298.5,148 L 302.5,150.5 L 302.5,155.5 L 308,161 L 382.5,162 L 383,426 L 379,428.5 L 377.5,436 L 133.5,435 L 133.5,429.5 L 129,426 L 129,86.5 L 133,84 L 133.5,77.5 Z M 170.5,375 L 171,380.5 L 173.5,382 L 262,382 L 265,379.5 L 265,375 L 263,372.5 L 173,372.5 Z M 326,313 L 322,317.5 L 312.5,317.5 L 301,330 L 298.5,331 L 298,337 L 295,339 L 293.5,341.5 L 293.5,362 L 295,364.5 L 298,366 L 298.5,372.5 L 301,373.5 L 304,377.5 L 305,377.5 L 310.5,382.5 L 310.5,384.5 L 306.5,387.5 L 306.5,401 L 303.5,402.5 L 302,405 L 302.5,414.5 L 303.5,415.5 L 309,415.5 L 313,420 L 318,420 L 321,416 L 324,414.5 L 324.5,408.5 L 325.5,407.5 L 330.5,407.5 L 333,411 L 336,412.5 L 336.5,418.5 L 340,421 L 341.5,424 L 344.5,424 L 346,422 L 345.5,417 L 346.5,416 L 357,415.5 L 358.5,413 L 358.5,405 L 357,402.5 L 354,401 L 354,391.5 L 349.5,387.5 L 349.5,379.5 L 350.5,378 L 353,377 L 360,369 L 362,368 L 362,359 L 363.5,356.5 L 366.5,355 L 367,345.5 L 365.5,343 L 362.5,341.5 L 362,335 L 359,334 L 358,332.5 L 358,327 L 355,325.5 L 352,321.5 L 347,321.5 L 344,317.5 L 338.5,317.5 L 334.5,313 Z M 338,386 L 339.5,386 L 341,387.5 L 341,393 L 345,396.5 L 345.5,400 L 344,402 L 342,402 L 337,396 L 336.5,387.5 Z M 322.5,386 L 324,387.5 L 324,391 L 319.5,396 L 319.5,401 L 318.5,402 L 316.5,402 L 315,400 L 315.5,392.5 L 318.5,390 L 320.5,386.5 Z M 317.5,326.5 L 343,326.5 L 345.5,330 L 349,332.5 L 349,338 L 352,339.5 L 353.5,341.5 L 353.5,358 L 351.5,360 L 349.5,360.5 L 349,367 L 346,368.5 L 344,372 L 338,372.5 L 334.5,377 L 326,377 L 322.5,372.5 L 316.5,372 L 315,369 L 313.5,368.5 L 310.5,364.5 L 307.5,363 L 307,356.5 L 303,354 L 303,345 L 307,342.5 L 307,337 L 310,335 Z M 170.5,320 L 170.5,324 L 172.5,326.5 L 267.5,326.5 L 269.5,323.5 L 269.5,320.5 L 267.5,317.5 L 198.5,317.5 L 194.5,313 L 186,313 L 182,317.5 L 172.5,317.5 Z M 170.5,265 L 170.5,269 L 173,271.5 L 335,271.5 L 337,269.5 L 337,264 L 335.5,262.5 L 172,262.5 Z M 341.5,214 L 341,212 L 337,209.5 L 337,204.5 L 335.5,203 L 261.5,203 L 258.5,207 L 173,207 L 170.5,209.5 L 171,215 L 173.5,216.5 L 340,216.5 Z M 170.5,154.5 L 170.5,158.5 L 172.5,161 L 263.5,161 L 265,159 L 265,154 L 263,152 L 172.5,152 Z" fill="#0b1fb3" fill-rule="evenodd"/>
</svg>
