<?xml version="1.0" encoding="UTF-8"?>
<svg xmlns="http://www.w3.org/2000/svg" width="512" height="512" viewBox="0 0 512 512" role="img" aria-label="bear">
  <title>bear</title>
  <path d="M 147.0 344.0 L 146.0 347.0 L 155.0 360.0 L 163.0 378.0 L 168.0 382.0 L 179.0 384.0 L 202.0 383.0 L 207.0 379.0 L 208.0 373.0 L 199.0 363.0 L 190.0 359.0 L 187.0 356.0 L 187.0 346.0 L 191.0 334.0 L 181.0 321.0 L 177.0 321.0 L 166.0 332.0 Z M 174.0 367.0 L 177.0 366.0 L 180.0 370.0 L 176.0 371.0 Z M 64.0 279.0 L 65.0 283.0 L 74.0 292.0 L 79.0 292.0 L 90.0 284.0 L 97.0 275.0 L 99.0 277.0 L 101.0 293.0 L 105.0 304.0 L 108.0 308.0 L 101.0 321.0 L 86.0 342.0 L 85.0 352.0 L 80.0 364.0 L 80.0 370.0 L 87.0 380.0 L 122.0 381.0 L 127.0 379.0 L 129.0 376.0 L 129.0 372.0 L 123.0 365.0 L 114.0 359.0 L 114.0 355.0 L 124.0 347.0 L 140.0 342.0 L 151.0 336.0 L 169.0 323.0 L 180.0 301.0 L 181.0 277.0 L 184.0 274.0 L 186.0 276.0 L 187.0 281.0 L 187.0 294.0 L 181.0 315.0 L 191.0 325.0 L 204.0 332.0 L 217.0 335.0 L 240.0 334.0 L 242.0 336.0 L 241.0 348.0 L 244.0 359.0 L 242.0 380.0 L 249.0 388.0 L 255.0 390.0 L 284.0 389.0 L 288.0 386.0 L 290.0 381.0 L 287.0 375.0 L 284.0 372.0 L 279.0 371.0 L 274.0 365.0 L 274.0 357.0 L 287.0 345.0 L 292.0 349.0 L 302.0 362.0 L 328.0 387.0 L 356.0 388.0 L 364.0 384.0 L 368.0 379.0 L 368.0 376.0 L 363.0 370.0 L 357.0 367.0 L 350.0 366.0 L 344.0 360.0 L 329.0 332.0 L 329.0 323.0 L 323.0 323.0 L 306.0 332.0 L 294.0 336.0 L 272.0 337.0 L 256.0 332.0 L 243.0 321.0 L 240.0 313.0 L 240.0 303.0 L 242.0 300.0 L 247.0 279.0 L 252.0 273.0 L 256.0 263.0 L 259.0 260.0 L 262.0 261.0 L 262.0 264.0 L 255.0 273.0 L 248.0 294.0 L 248.0 299.0 L 245.0 305.0 L 245.0 312.0 L 248.0 319.0 L 254.0 325.0 L 269.0 331.0 L 296.0 330.0 L 323.0 318.0 L 332.0 317.0 L 343.0 308.0 L 360.0 309.0 L 379.0 305.0 L 392.0 305.0 L 406.0 311.0 L 410.0 311.0 L 416.0 306.0 L 420.0 297.0 L 429.0 292.0 L 434.0 285.0 L 432.0 277.0 L 410.0 254.0 L 410.0 247.0 L 406.0 239.0 L 400.0 231.0 L 388.0 221.0 L 385.0 212.0 L 379.0 206.0 L 374.0 206.0 L 367.0 213.0 L 348.0 211.0 L 334.0 202.0 L 324.0 193.0 L 314.0 189.0 L 295.0 190.0 L 277.0 197.0 L 252.0 197.0 L 205.0 179.0 L 179.0 179.0 L 165.0 183.0 L 161.0 186.0 L 158.0 186.0 L 148.0 191.0 L 128.0 204.0 L 98.0 235.0 L 79.0 262.0 L 76.0 269.0 L 66.0 275.0 Z M 265.0 372.0 L 266.0 375.0 L 264.0 376.0 L 263.0 374.0 Z M 326.0 367.0 L 328.0 366.0 L 329.0 369.0 L 328.0 370.0 Z M 102.0 367.0 L 104.0 365.0 L 106.0 367.0 L 104.0 369.0 Z M 329.0 362.0 L 331.0 361.0 L 333.0 364.0 L 330.0 365.0 Z M 224.0 319.0 L 226.0 317.0 L 228.0 318.0 L 227.0 321.0 L 225.0 321.0 Z M 276.0 312.0 L 276.0 316.0 L 273.0 319.0 L 271.0 319.0 L 270.0 316.0 Z M 196.0 312.0 L 198.0 311.0 L 199.0 314.0 L 197.0 315.0 Z M 384.0 293.0 L 386.0 291.0 L 397.0 289.0 L 403.0 292.0 L 407.0 296.0 L 407.0 298.0 L 403.0 299.0 L 397.0 295.0 L 388.0 295.0 Z M 130.0 289.0 L 133.0 287.0 L 135.0 290.0 L 132.0 292.0 Z M 413.0 286.0 L 416.0 282.0 L 420.0 283.0 L 416.0 288.0 Z M 165.0 278.0 L 169.0 274.0 L 173.0 276.0 L 167.0 280.0 Z M 300.0 268.0 L 301.0 270.0 L 294.0 275.0 L 294.0 271.0 L 297.0 268.0 Z M 399.0 262.0 L 401.0 260.0 L 403.0 263.0 L 400.0 264.0 Z M 368.0 257.0 L 372.0 251.0 L 378.0 251.0 L 383.0 256.0 L 383.0 259.0 L 376.0 264.0 L 371.0 264.0 L 369.0 262.0 Z M 394.0 250.0 L 398.0 251.0 L 397.0 257.0 L 393.0 255.0 Z M 189.0 250.0 L 177.0 261.0 L 168.0 266.0 L 165.0 265.0 L 168.0 261.0 L 177.0 257.0 L 185.0 250.0 Z M 275.0 243.0 L 275.0 248.0 L 273.0 251.0 L 260.0 251.0 L 271.0 242.0 Z M 383.0 236.0 L 386.0 235.0 L 389.0 239.0 L 388.0 240.0 Z M 195.0 234.0 L 183.0 244.0 L 175.0 248.0 L 173.0 247.0 L 175.0 244.0 L 193.0 233.0 Z M 149.0 231.0 L 134.0 244.0 L 130.0 243.0 L 131.0 240.0 L 138.0 234.0 L 146.0 230.0 Z M 149.0 229.0 L 151.0 227.0 L 154.0 228.0 L 152.0 230.0 Z M 372.0 227.0 L 376.0 225.0 L 378.0 227.0 L 378.0 230.0 L 376.0 231.0 Z M 358.0 226.0 L 362.0 223.0 L 365.0 224.0 L 367.0 227.0 L 361.0 231.0 Z M 171.0 217.0 L 169.0 220.0 L 167.0 220.0 L 159.0 226.0 L 155.0 226.0 L 167.0 217.0 Z M 325.0 211.0 L 329.0 212.0 L 343.0 223.0 L 353.0 223.0 L 355.0 225.0 L 350.0 229.0 L 347.0 229.0 L 343.0 226.0 L 336.0 228.0 L 334.0 222.0 L 328.0 217.0 L 323.0 218.0 L 321.0 222.0 L 323.0 235.0 L 314.0 254.0 L 315.0 268.0 L 318.0 277.0 L 327.0 287.0 L 341.0 294.0 L 355.0 294.0 L 359.0 296.0 L 354.0 299.0 L 341.0 299.0 L 328.0 294.0 L 317.0 285.0 L 311.0 274.0 L 309.0 252.0 L 311.0 246.0 L 318.0 235.0 L 315.0 229.0 L 315.0 223.0 L 317.0 219.0 Z M 251.0 211.0 L 254.0 210.0 L 255.0 212.0 L 252.0 213.0 Z M 263.0 213.0 L 267.0 209.0 L 274.0 210.0 L 273.0 213.0 L 267.0 215.0 Z M 245.0 208.0 L 244.0 211.0 L 237.0 214.0 L 226.0 223.0 L 219.0 227.0 L 216.0 226.0 L 223.0 219.0 L 235.0 212.0 L 238.0 207.0 Z M 285.0 209.0 L 287.0 206.0 L 290.0 207.0 L 288.0 210.0 Z M 225.0 203.0 L 230.0 202.0 L 232.0 204.0 L 228.0 206.0 Z M 168.0 196.0 L 170.0 198.0 L 142.0 216.0 L 131.0 225.0 L 121.0 237.0 L 120.0 244.0 L 115.0 252.0 L 115.0 274.0 L 120.0 296.0 L 130.0 318.0 L 135.0 324.0 L 141.0 326.0 L 139.0 329.0 L 134.0 330.0 L 125.0 320.0 L 114.0 296.0 L 110.0 278.0 L 110.0 251.0 L 116.0 236.0 L 136.0 215.0 L 158.0 200.0 Z M 185.0 197.0 L 186.0 193.0 L 193.0 193.0 L 192.0 196.0 L 188.0 198.0 Z" fill="#0b1fb3" fill-rule="evenodd"/>
</svg>
