<svg xmlns="http://www.w3.org/2000/svg" viewBox="0 0 512 512" width="512" height="512" role="img" aria-label="options_chain">
  <title>options_chain</title>
  <desc>Таблица опционов с колонками call/put</desc>
  <path d="M 366,407 L 366,408.5 L 367.5,410 L 427,410 L 428.5,409 L 428.5,406.5 L 427.5,405.5 L 367.5,405.5 Z M 290.5,406.5 L 290.5,409 L 292,410 L 330.5,410 L 332.5,408 L 331,405.5 L 291.5,405.5 Z M 208,409 L 209.5,410 L 241,410 L 243,407.5 L 241.5,405.5 L 209,405.5 L 208,406.5 Z M 128.5,396.5 L 129.5,399.5 L 159,399.5 L 160,398.5 L 160,396 L 158.5,395 L 130.5,395 Z M 390,387 L 390.5,388.5 L 392.5,389.5 L 430,389.5 L 432,388 L 432,386 L 431,385 L 391,385 Z M 401,375.5 L 401,378 L 402,379 L 417,379 L 418.5,377.5 L 418.5,376 L 417,374.5 L 402,374.5 Z M 211,376.5 L 211.5,378.5 L 212.5,379 L 238,379 L 239.5,377.5 L 239.5,376 L 238,374.5 L 212.5,374.5 Z M 455.5,371.5 L 452.5,371.5 L 452,372.5 L 452,397.5 L 450,398.5 L 447.5,402 L 445.5,402.5 L 445,405 L 446.5,406.5 L 448,406.5 L 449.5,404 L 456.5,398 L 456.5,373 Z M 393.5,377.5 L 395,379 L 397,378.5 L 398,375.5 L 398,369.5 L 399,368.5 L 424,368.5 L 425,367.5 L 425,365 L 423.5,364 L 399,364 L 397.5,365 L 396.5,367.5 L 393.5,369 Z M 204.5,365 L 204.5,367.5 L 205.5,368.5 L 238.5,368.5 L 239.5,367 L 239.5,365.5 L 238,364 L 206,364 Z M 270.5,357.5 L 269.5,359 L 269.5,394.5 L 273,397 L 274,399.5 L 276.5,399.5 L 277.5,396.5 L 274,394 L 274,359 L 273,357.5 Z M 67.5,357.5 L 66,360.5 L 66.5,388 L 67.5,389 L 69.5,389 L 71,387.5 L 71,361.5 L 70,358 Z M 74,358 L 74,360.5 L 76,362 L 104,361.5 L 105,360.5 L 104.5,357.5 L 103,357 L 75.5,357 Z M 404,355 L 404,357 L 405.5,358.5 L 430,358.5 L 432,357.5 L 432,355 L 431,354 L 405,354 Z M 201,355 L 201,357.5 L 203,358.5 L 244.5,358.5 L 245.5,359.5 L 245.5,384 L 244,385 L 199.5,385 L 197,381.5 L 194.5,381.5 L 194,385 L 196.5,386 L 198.5,389 L 244,389.5 L 247.5,385.5 L 249.5,385 L 250,359 L 249.5,358 L 247.5,357.5 L 245,354 L 202,354 Z M 387,341.5 L 387,343.5 L 388,344.5 L 434.5,344.5 L 435.5,343.5 L 435.5,341 L 434,340 L 388.5,340 Z M 393.5,324 L 393.5,333 L 394.5,334 L 397,334 L 398,332.5 L 397.5,326 L 398.5,324 L 423.5,324 L 424.5,325 L 424.5,329.5 L 425.5,330.5 L 427.5,330.5 L 429,329 L 428.5,324 L 426.5,323 L 424,319.5 L 398.5,319.5 L 396,323 Z M 204.5,320.5 L 204.5,323 L 206,324 L 237.5,324 L 239.5,322.5 L 239.5,321 L 238,319.5 L 205.5,319.5 Z M 269.5,314 L 269.5,349 L 270.5,351 L 334,351.5 L 335.5,350.5 L 335.5,348 L 334.5,347 L 275,347 L 273.5,345 L 274,314 L 273,313 L 270.5,313 Z M 250,314.5 L 249,313 L 246.5,313 L 245.5,314 L 245.5,339 L 244.5,340 L 199,340 L 197.5,337 L 195.5,336.5 L 194,337.5 L 194,340.5 L 196,341 L 199,344.5 L 245,344.5 L 246,342.5 L 250,339 Z M 66.5,313.5 L 66,344.5 L 67,347.5 L 68.5,347.5 L 71.5,351.5 L 148,351.5 L 149,352.5 L 149,357 L 150,358 L 153,357.5 L 153.5,352 L 151,350.5 L 148.5,347 L 72,347 L 70.5,345 L 71,314.5 L 69.5,313 Z M 389.5,312.5 L 388,312.5 L 383,318 L 383,335.5 L 384.5,337.5 L 386,337.5 L 387.5,336 L 387.5,318 L 391,316 L 391,313.5 Z M 304,307.5 L 304.5,309.5 L 305.5,310 L 345,310 L 346,309 L 345.5,306 L 344,305.5 L 305.5,305.5 Z M 70,307 L 70,308.5 L 71.5,310 L 117.5,310 L 119,308.5 L 117.5,305.5 L 72,305.5 Z M 277,296.5 L 277.5,299.5 L 279,300 L 306.5,300 L 308,299 L 308,296.5 L 307,295.5 L 278,295.5 Z M 90.5,297.5 L 92.5,300 L 148.5,300 L 149.5,306 L 152,306.5 L 153.5,305 L 153,299.5 L 151,299 L 148.5,295.5 L 91.5,295.5 Z M 204.5,286 L 204.5,288.5 L 206,289.5 L 238,289.5 L 239.5,288 L 239.5,286.5 L 238,285 L 205.5,285 Z M 393.5,276 L 393.5,284.5 L 394,285.5 L 396,286 L 398.5,289.5 L 424,289.5 L 425,288.5 L 425,286 L 424,285 L 399,285 L 397.5,282.5 L 397.5,275.5 L 394,275 Z M 384.5,271.5 L 383,273 L 383,291 L 384,292.5 L 386.5,292.5 L 387.5,291.5 L 387.5,273 L 387,272 Z M 270.5,265 L 269.5,266 L 269.5,298.5 L 270.5,299.5 L 272.5,299.5 L 274,297 L 274,266.5 L 272.5,265 Z M 387,265 L 387,267.5 L 389,269 L 433.5,269 L 435.5,268 L 435.5,265.5 L 434.5,264.5 Z M 194,268.5 L 194.5,272 L 197,272 L 199,269 L 244.5,269 L 245.5,270 L 245.5,291.5 L 246.5,292.5 L 249,292.5 L 250,291 L 250,269.5 L 249.5,268.5 L 247.5,268 L 245,264.5 L 198.5,264.5 L 196,268 Z M 269.5,259.5 L 270,261 L 274,262 L 341,262 L 342.5,261 L 342.5,258.5 L 341.5,257.5 L 271,257.5 Z M 214.5,252 L 214.5,253.5 L 216,255 L 231,255 L 232.5,253.5 L 232.5,252 L 231,250.5 L 216,250.5 Z M 436,248.5 L 435.5,247.5 L 433,247 L 430.5,250.5 L 395,250.5 L 393.5,253.5 L 395,255 L 430.5,255 L 433.5,251.5 L 435.5,251 Z M 269.5,249.5 L 270.5,251.5 L 345,251.5 L 346,250.5 L 346,248.5 L 344.5,247 L 271.5,247 Z M 239.5,237.5 L 236,237 L 235,239.5 L 233.5,240.5 L 205,240.5 L 204.5,244 L 215.5,245 L 234.5,244.5 L 236.5,241.5 L 239.5,240.5 Z M 393.5,231 L 393.5,240 L 396,241 L 399,245 L 423,245 L 425,244 L 424.5,240.5 L 399.5,240.5 L 397.5,238 L 398,231.5 L 396,230 Z M 385,226.5 L 383,228.5 L 383,246 L 384.5,248 L 386,248 L 387.5,246.5 L 387.5,228 L 387,227 Z M 243.5,219.5 L 242,220.5 L 242,223 L 245.5,225 L 245.5,250 L 246,251 L 248.5,251.5 L 250,249.5 L 250,225 L 245.5,220 Z M 453,213 L 452,214 L 452,267.5 L 453,268.5 L 455.5,268.5 L 456.5,267 L 456.5,214.5 L 455.5,213 Z M 443,209.5 L 441.5,211.5 L 441.5,390.5 L 442,392 L 445,392.5 L 446,391.5 L 446,210.5 L 445,209.5 Z M 66.5,210.5 L 66.5,250 L 68,251.5 L 148,251.5 L 149.5,254 L 148,257.5 L 68.5,257.5 L 66.5,259 L 67,292.5 L 70,292.5 L 71,291 L 70.5,263.5 L 72,262 L 148,262 L 149.5,261 L 150.5,258.5 L 153.5,257 L 153,251.5 L 150.5,250.5 L 148,247 L 71.5,247 L 70.5,245.5 L 71,211.5 L 69.5,209.5 L 67.5,209.5 Z M 58,199 L 56,200.5 L 56,398 L 58.5,399.5 L 64.5,406.5 L 66,406.5 L 67.5,405 L 67,402.5 L 65,402 L 63.5,399.5 L 60.5,397.5 L 60.5,200.5 L 60,199.5 Z" fill="#8fb7df" fill-rule="evenodd"/>
  <path d="M 269.5,208 L 269.5,209 L 271.5,210.5 L 306.5,210.5 L 309.5,213.5 L 334,213.5 L 336.5,210.5 L 365,210.5 L 367.5,213.5 L 369,213.5 L 371,210.5 L 385.5,210.5 L 388,213.5 L 389.5,213.5 L 392,210.5 L 396,210.5 L 399,213.5 L 441,213.5 L 446,209 L 445.5,206.5 L 444,206 L 271.5,206 Z M 56,121.5 L 58,200 L 62.5,196.5 L 68,203 L 262.5,203.5 L 247,206.5 L 72,206 L 72,210.5 L 86.5,210.5 L 89,213.5 L 102,210.5 L 106.5,213.5 L 113,210.5 L 179.5,210.5 L 182,213.5 L 238,210.5 L 244.5,213.5 L 247,210.5 L 261.5,210.5 L 268.5,203 L 443,203 L 449,198 L 446.5,192.5 L 440.5,199 L 275,199 L 274.5,117.5 L 440.5,117.5 L 445.5,123 L 442,127.5 L 445.5,133.5 L 442,184.5 L 446,189 L 449,188.5 L 449,121 L 440.5,113 L 268,113.5 L 267,200.5 L 264,202.5 L 262,113.5 L 72,113 L 65.5,120 L 64,115 L 70,110 L 447.5,110.5 L 452.5,120.5 L 452,205.5 L 456.5,205 L 456.5,118 L 448,106 L 441,103 L 71.5,103 L 60,111 Z M 61.5,172 L 63,172.5 L 64,174.5 L 64,183.5 L 62.5,185.5 L 60,184 L 60,174 Z M 61.5,120.5 L 63.5,121 L 63.5,125.5 L 66.5,129 L 67,156 L 65.5,158 L 64.5,158 L 63,156 L 63.5,149.5 L 60.5,146 L 60,122 Z M 71,118 L 258.5,117.5 L 259.5,119 L 259.5,197.5 L 258,199 L 72,199 L 70.5,197.5 Z M 199.5,137 L 197.5,138.5 L 197,140.5 L 198,178 L 202.5,182.5 L 220.5,182.5 L 223.5,179 L 225,178.5 L 225.5,173 L 223.5,171.5 L 209.5,171.5 L 208.5,170.5 L 208.5,139 L 206,137 Z M 202.5,141 L 204.5,142.5 L 203.5,144.5 L 201.5,143.5 Z M 172,137 L 170,138.5 L 170,180.5 L 171.5,182.5 L 193.5,182.5 L 194.5,181.5 L 194.5,174 L 193.5,172 L 182,171.5 L 180.5,170 L 180.5,138 L 178.5,137 Z M 104.5,142 L 104.5,146.5 L 101,149 L 101,170.5 L 111.5,180.5 L 112,182 L 124,182.5 L 129,176.5 L 131,175.5 L 136.5,182.5 L 138.5,182.5 L 139.5,180.5 L 142.5,178.5 L 143,173.5 L 144.5,172 L 154.5,172 L 156,173.5 L 156,177.5 L 160.5,182 L 165.5,182.5 L 166.5,181.5 L 167,171 L 166,168.5 L 163.5,166 L 163.5,155.5 L 160,153 L 160,148.5 L 156.5,146 L 156.5,141.5 L 152,137.5 L 148,137 L 142.5,142 L 142.5,149.5 L 139,152 L 139,160 L 135.5,162.5 L 135.5,172 L 133.5,171.5 L 128.5,165 L 126,165 L 120.5,171.5 L 116.5,171.5 L 111.5,165.5 L 111.5,154 L 112,152.5 L 117,148 L 121,148.5 L 126.5,155 L 128,155 L 129.5,152.5 L 132,151 L 133,146 L 131.5,144 L 129.5,143.5 L 128,140.5 L 127,140.5 L 123.5,137 L 110,137 Z M 161,172 L 163,173 L 162,175.5 L 160,174.5 Z M 135.5,172 L 138,172 L 139,174.5 L 137,175.5 Z M 157.5,165 L 159.5,166 L 158.5,168.5 L 156.5,167.5 Z M 151,158 L 153,159 L 152,161.5 L 149.5,160.5 L 149.5,159 Z M 126.5,144.5 L 128.5,145 L 128.5,147 L 127.5,148 L 125.5,147 Z" fill="#08741c" fill-rule="evenodd"/>
  <path d="M 378.5,137 L 377,138 L 376.5,140 L 377,147 L 378,148 L 382,148 L 383.5,149.5 L 383.5,178 L 385.5,179 L 387.5,182 L 392.5,182.5 L 397.5,178 L 398,176 L 397.5,149.5 L 399,148 L 403.5,148 L 404.5,147 L 404.5,138.5 L 402.5,137 Z M 344,137 L 342,138.5 L 342,174 L 346.5,179 L 351,179 L 354,182.5 L 365,182.5 L 371.5,175.5 L 373.5,174.5 L 373,138 L 371.5,137 L 365,137 L 362.5,139 L 363,166.5 L 358.5,171.5 L 357,171.5 L 352.5,165.5 L 353,139 L 351,137 Z M 333.5,137 L 313,137 L 311,138.5 L 311,181 L 312.5,182.5 L 321.5,182 L 321.5,168 L 323,165.5 L 333.5,165.5 L 339,160 L 339,142.5 Z M 323.5,148 L 326.5,148 L 328,149 L 328.5,152.5 L 327.5,154 L 323.5,154.5 L 322,153 L 321.5,150.5 Z" fill="#d41217" fill-rule="evenodd"/>
  <path d="M 387,362 L 386.5,383 L 388,385.5 L 434.5,385.5 L 435.5,384.5 L 435.5,359 L 434,357.5 L 392,357.5 Z M 394,370 L 399,365 L 423.5,365 L 425,367 L 425,376 L 423.5,378 L 395,378 L 394,376.5 Z M 194,362.5 L 194,381 L 199,385.5 L 245,385.5 L 246,384.5 L 246.5,360 L 245,357.5 L 199,357.5 Z M 204.5,367 L 206,365 L 237.5,365 L 239,366.5 L 239,376.5 L 238,378 L 206,378 L 204.5,376 Z M 387,317 L 386.5,338.5 L 388.5,341 L 434,341 L 435.5,339.5 L 435.5,317.5 L 433,316 L 431,313 L 391.5,313 L 388.5,316.5 Z M 394,332 L 394,325 L 396.5,323.5 L 399,320 L 423,320 L 428.5,325.5 L 428,329 L 426,330 L 423.5,333.5 L 395.5,333.5 Z M 194,317.5 L 194,336 L 199.5,341 L 244.5,341 L 246,340 L 246.5,315.5 L 245,313 L 198.5,313 L 197.5,315 Z M 204.5,322.5 L 206.5,320 L 237.5,320 L 239,322 L 239,332 L 237.5,333.5 L 206,333.5 L 204.5,331 Z M 387,269 L 386.5,293.5 L 388,296 L 431,296 L 432,294 L 435.5,291.5 L 435.5,269.5 L 434,268 L 388,268 Z M 394,277 L 395.5,275.5 L 423.5,275.5 L 425,277.5 L 425,286.5 L 423.5,288.5 L 398.5,288.5 L 394,283.5 Z M 194,273 L 194,281 L 197.5,283 L 197.5,284 L 194,286.5 L 194,288.5 L 197.5,290.5 L 197.5,295 L 198.5,296 L 245,296 L 246,295 L 246.5,270.5 L 245,268 L 199,268 Z M 204.5,277.5 L 206,275.5 L 237.5,275.5 L 239,277 L 239,287 L 238,288.5 L 206,288.5 L 204.5,286.5 Z M 387,224.5 L 386.5,249 L 388.5,251.5 L 430.5,251.5 L 435.5,246.5 L 435.5,224.5 L 433.5,223.5 L 431,220 L 391.5,220 L 390,222.5 Z M 394,232.5 L 396,230.5 L 423,230.5 L 428,235 L 428,236.5 L 425,238 L 425,242 L 423.5,244 L 399,244 L 397,241 L 394,239 Z M 246,224.5 L 243.5,223 L 241.5,220 L 238,219.5 L 202,220 L 200,223 L 195,223.5 L 194,224.5 L 194,246.5 L 199.5,251.5 L 244.5,251.5 L 246.5,249 Z M 204.5,233 L 206.5,230.5 L 237,230.5 L 239,232.5 L 239,239 L 236,241 L 234,244 L 206,244 L 204.5,241.5 Z M 370,210.5 L 370.5,213.5 L 386.5,213.5 L 387.5,212 L 386.5,209.5 L 370.5,209.5 Z M 335,211 L 336,213.5 L 365.5,213.5 L 366.5,212 L 365.5,209.5 L 336,209.5 Z M 273.5,210.5 L 273.5,212.5 L 276,214 L 308,213 L 307.5,209.5 L 274.5,209.5 Z M 221.5,210.5 L 221.5,212.5 L 223.5,214 L 237.5,214 L 239.5,212 L 238.5,209.5 L 222.5,209.5 Z M 152.5,204 L 153,206 L 154.5,207 L 179,207 L 181,205 L 180.5,203 L 179.5,202.5 L 154,202.5 Z M 60,200 L 59.5,397 L 68,406 L 443.5,406.5 L 452.5,398.5 L 452.5,373.5 L 456.5,369.5 L 456.5,270.5 L 452.5,266.5 L 452.5,215 L 456.5,208.5 L 452,199.5 L 445.5,200.5 L 445.5,390.5 L 440.5,395.5 L 429.5,395.5 L 426.5,399 L 417,395.5 L 278,395.5 L 275,399 L 270.5,394.5 L 271.5,358 L 346,356.5 L 340.5,347 L 334,350.5 L 270,349 L 270,315 L 275,310 L 346,305.5 L 337.5,295.5 L 327.5,299 L 323.5,295.5 L 309,295.5 L 306.5,299 L 278.5,299 L 274.5,295.5 L 271,299 L 270,267 L 274,263.5 L 270.5,258.5 L 345,258 L 346,252 L 271,250.5 L 270.5,214 L 267,208.5 L 270.5,203.5 L 266,199 L 259,204 L 262.5,207.5 L 259.5,211 L 259.5,398 L 161,395.5 L 158,399 L 130.5,399 L 128,395.5 L 92,395.5 L 86,399 L 78.5,395.5 L 75,399 L 67,387 L 68.5,358 L 148.5,358 L 150,352.5 L 71.5,350.5 L 67,345.5 L 67.5,310.5 L 72,306.5 L 117,306.5 L 120,310 L 141,306.5 L 148,310 L 150,301 L 89,299 L 86.5,295.5 L 82.5,299 L 75,295.5 L 68.5,299.5 L 67,259.5 L 149,258 L 150,253 L 68.5,251 L 67,211.5 L 71,205.5 L 66,199.5 Z M 264.5,203 L 266.5,204 L 265.5,206.5 L 263.5,206 L 263.5,204 Z M 264.5,140.5 L 262.5,142.5 L 262.5,163.5 L 263.5,165 L 265.5,165.5 L 267,164 L 267,142 L 266.5,141 Z M 443.5,130.5 L 441.5,132 L 441.5,160 L 443,162 L 444.5,162 L 446,161 L 446,131.5 Z M 64,127 L 63,128 L 63,132.5 L 60,134.5 L 60,137 L 61.5,137.5 L 63,140 L 60,142 L 59.5,145.5 L 60,147 L 63,149.5 L 63,157 L 63.5,158 L 66,158.5 L 67.5,157 L 67.5,128.5 L 66.5,127 Z M 455.5,113 L 453,113 L 451,116.5 L 446.5,116.5 L 445.5,118.5 L 442,121 L 441.5,125.5 L 442.5,127 L 445,127 L 446,126 L 446,122 L 447,121 L 450.5,121 L 453.5,117.5 L 456,117 L 456.5,114.5 Z" fill="#0b1fb3" fill-rule="evenodd"/>
  <path d="M 266,209 L 268.5,210.5 L 271.5,207 L 444,207 L 446,205.5 L 446,204 L 445,202.5 L 271,202.5 L 268.5,206 L 266,207 Z M 180,204.5 L 182,207 L 258,207 L 260,205.5 L 260,203.5 L 259,202.5 L 181.5,202.5 Z M 70,205.5 L 72,207 L 151.5,207 L 153.5,204.5 L 152,202.5 L 71,202.5 Z M 263.5,165 L 262.5,166.5 L 262.5,198 L 263.5,199.5 L 266.5,199.5 L 267,166 L 266,165 Z M 450,120 L 448.5,121.5 L 449,186.5 L 445.5,189.5 L 445.5,192 L 448.5,194 L 448.5,198.5 L 449.5,199.5 L 452,199.5 L 453,198.5 L 453,121.5 L 452.5,120.5 Z M 264,116.5 L 262.5,118.5 L 262.5,139.5 L 263.5,141 L 266,141 L 267,140 L 267,118 L 265.5,116.5 Z M 266.5,111 L 268,114 L 444,114 L 447,117.5 L 449.5,116 L 449.5,114 L 447,113 L 444.5,109.5 L 267.5,109.5 Z M 63,116.5 L 65.5,117.5 L 68.5,114 L 261.5,114 L 263,112.5 L 263,110.5 L 262,109.5 L 68,109.5 L 65.5,113 L 63,114 Z" fill="#1a245f" fill-rule="evenodd"/>
</svg>
