<?xml version="1.0" encoding="UTF-8"?>
<svg xmlns="http://www.w3.org/2000/svg" width="512" height="512" viewBox="0 0 512 512" role="img" aria-label="trade command plane">
  <title>trade command plane</title>
  <path d="M 414.0 126.0 L 407.0 126.0 L 352.0 150.0 L 342.0 153.0 L 328.0 161.0 L 314.0 166.0 L 297.0 175.0 L 253.0 193.0 L 192.0 222.0 L 177.0 227.0 L 167.0 233.0 L 159.0 235.0 L 123.0 253.0 L 105.0 260.0 L 95.0 267.0 L 94.0 272.0 L 97.0 277.0 L 118.0 289.0 L 124.0 294.0 L 147.0 305.0 L 169.0 318.0 L 172.0 318.0 L 175.0 321.0 L 174.0 359.0 L 177.0 410.0 L 182.0 413.0 L 189.0 410.0 L 222.0 376.0 L 234.0 366.0 L 280.0 413.0 L 285.0 416.0 L 289.0 416.0 L 294.0 413.0 L 302.0 393.0 L 319.0 361.0 L 322.0 350.0 L 328.0 341.0 L 329.0 336.0 L 342.0 311.0 L 356.0 276.0 L 376.0 235.0 L 383.0 216.0 L 387.0 210.0 L 391.0 198.0 L 410.0 157.0 L 414.0 144.0 L 418.0 137.0 L 418.0 131.0 Z M 299.0 232.0 L 300.0 234.0 L 275.0 258.0 L 270.0 265.0 L 210.0 327.0 L 210.0 333.0 L 207.0 336.0 L 199.0 356.0 L 196.0 360.0 L 193.0 370.0 L 190.0 373.0 L 189.0 333.0 L 186.0 321.0 L 187.0 319.0 L 272.0 254.0 L 296.0 233.0 Z M 388.0 164.0 L 389.0 167.0 L 376.0 193.0 L 376.0 196.0 L 373.0 200.0 L 366.0 220.0 L 356.0 238.0 L 355.0 243.0 L 329.0 297.0 L 325.0 310.0 L 322.0 313.0 L 318.0 326.0 L 312.0 335.0 L 311.0 341.0 L 295.0 371.0 L 295.0 374.0 L 286.0 392.0 L 282.0 393.0 L 236.0 346.0 L 231.0 347.0 L 207.0 372.0 L 206.0 369.0 L 213.0 356.0 L 220.0 336.0 L 227.0 331.0 L 274.0 279.0 L 288.0 266.0 L 346.0 204.0 Z M 370.0 160.0 L 366.0 165.0 L 343.0 180.0 L 180.0 307.0 L 127.0 276.0 L 119.0 273.0 L 120.0 270.0 L 128.0 268.0 L 142.0 260.0 L 182.0 243.0 L 185.0 243.0 L 210.0 230.0 L 245.0 216.0 L 312.0 185.0 L 339.0 175.0 L 367.0 159.0 Z" fill="#0b1fb3" fill-rule="evenodd"/>
</svg>
