<?xml version="1.0" encoding="UTF-8"?>
<svg xmlns="http://www.w3.org/2000/svg" width="512" height="512" viewBox="0 0 512 512" role="img" aria-label="candles ohlc">
  <title>candles ohlc</title>
  <path d="M 209.0 276.0 L 204.0 281.0 L 204.0 310.0 L 202.0 312.0 L 196.0 312.0 L 192.0 317.0 L 192.0 376.0 L 196.0 381.0 L 204.0 383.0 L 204.0 420.0 L 208.0 425.0 L 211.0 426.0 L 217.0 420.0 L 216.0 385.0 L 218.0 382.0 L 226.0 381.0 L 230.0 376.0 L 230.0 317.0 L 226.0 312.0 L 219.0 312.0 L 217.0 310.0 L 217.0 284.0 L 215.0 278.0 Z M 207.0 324.0 L 215.0 324.0 L 218.0 327.0 L 217.0 339.0 L 219.0 347.0 L 218.0 367.0 L 216.0 369.0 L 206.0 369.0 L 204.0 367.0 L 204.0 326.0 Z M 146.0 182.0 L 142.0 186.0 L 143.0 238.0 L 140.0 241.0 L 128.0 241.0 L 125.0 245.0 L 126.0 348.0 L 124.0 355.0 L 125.0 358.0 L 130.0 362.0 L 141.0 361.0 L 143.0 363.0 L 142.0 417.0 L 146.0 423.0 L 150.0 424.0 L 155.0 419.0 L 155.0 364.0 L 159.0 360.0 L 168.0 361.0 L 174.0 355.0 L 172.0 347.0 L 173.0 244.0 L 169.0 240.0 L 158.0 241.0 L 155.0 238.0 L 154.0 185.0 L 151.0 182.0 Z M 158.0 253.0 L 160.0 255.0 L 160.0 344.0 L 158.0 347.0 L 141.0 347.0 L 139.0 345.0 L 140.0 305.0 L 138.0 256.0 L 140.0 254.0 Z M 264.0 156.0 L 261.0 160.0 L 260.0 172.0 L 260.0 208.0 L 258.0 210.0 L 250.0 210.0 L 246.0 214.0 L 246.0 312.0 L 250.0 317.0 L 258.0 317.0 L 261.0 320.0 L 260.0 358.0 L 263.0 362.0 L 268.0 363.0 L 273.0 359.0 L 274.0 356.0 L 273.0 320.0 L 275.0 317.0 L 281.0 318.0 L 287.0 316.0 L 290.0 310.0 L 288.0 289.0 L 289.0 214.0 L 284.0 209.0 L 276.0 210.0 L 273.0 207.0 L 274.0 184.0 L 271.0 159.0 L 268.0 156.0 Z M 260.0 223.0 L 274.0 223.0 L 277.0 226.0 L 276.0 301.0 L 272.0 304.0 L 259.0 302.0 L 260.0 251.0 L 258.0 243.0 L 258.0 226.0 Z M 348.0 120.0 L 345.0 122.0 L 343.0 128.0 L 343.0 167.0 L 341.0 169.0 L 329.0 170.0 L 325.0 177.0 L 328.0 186.0 L 328.0 193.0 L 326.0 198.0 L 326.0 269.0 L 324.0 274.0 L 325.0 277.0 L 330.0 281.0 L 340.0 280.0 L 344.0 283.0 L 343.0 329.0 L 347.0 335.0 L 352.0 335.0 L 356.0 331.0 L 356.0 284.0 L 360.0 280.0 L 370.0 281.0 L 375.0 275.0 L 373.0 245.0 L 373.0 194.0 L 375.0 174.0 L 371.0 169.0 L 356.0 168.0 L 356.0 128.0 L 355.0 123.0 L 351.0 120.0 Z M 339.0 181.0 L 358.0 181.0 L 361.0 183.0 L 360.0 267.0 L 344.0 266.0 L 340.0 268.0 L 338.0 266.0 L 337.0 184.0 Z" fill="#0b1fb3" fill-rule="evenodd"/>
</svg>
