<svg xmlns="http://www.w3.org/2000/svg" viewBox="0 0 512 512" width="512" height="512" role="img" aria-label="scenario_tree">
  <title>scenario_tree</title>
  <desc>Дерево сценариев с несколькими ветками</desc>
  <path d="M 417,396 L 416.5,400 L 419,401 L 421,404 L 428.5,410.5 L 429,416.5 L 433.5,416.5 L 433.5,409 L 431.5,408.5 L 429.5,405 L 426.5,403.5 L 424.5,400 L 422,399 L 420.5,396 Z M 290.5,358.5 L 287,363 L 285,363.5 L 284.5,370.5 L 288.5,373 L 289,379.5 L 292.5,380 L 294,378.5 L 294,373 L 290,370 L 289.5,366 L 291,364 L 293.5,363.5 L 294,360 L 292.5,358.5 Z M 285.5,351.5 L 284.5,350.5 L 282,350.5 L 279,354.5 L 277,355 L 275,358.5 L 216.5,358.5 L 215,359.5 L 214.5,362 L 216.5,364 L 275.5,364 L 278.5,360 L 280.5,359.5 L 283,355.5 L 285.5,355 Z M 326,331.5 L 326,334 L 327,335 L 370.5,335 L 372,334 L 371.5,331 L 369.5,330 L 328.5,330 Z M 305.5,322.5 L 305.5,325.5 L 307.5,327 L 374,327 L 376,325.5 L 376,323 L 374.5,321.5 L 307,321.5 Z M 81,268 L 78.5,270 L 78.5,288 L 80,289.5 L 82.5,289.5 L 84,287.5 L 84,270.5 L 83,268.5 Z M 334,216.5 L 334.5,219 L 336.5,220 L 361.5,220 L 363.5,218.5 L 363.5,215.5 L 362,214.5 L 335.5,214.5 Z M 417.5,190 L 416.5,191 L 416.5,194 L 419,195 L 421,198 L 428.5,204.5 L 429,210.5 L 431,211.5 L 433,211 L 434,209.5 L 433.5,203 L 431.5,202.5 L 429,198.5 L 427,198 L 425,194.5 L 421.5,192.5 L 420.5,190 Z M 247.5,179.5 L 248,182 L 250,183 L 274.5,183 L 277,181.5 L 277,178.5 L 276,177.5 L 249,177.5 Z M 342.5,93 L 342.5,95 L 344.5,96.5 L 361.5,96.5 L 364,94.5 L 363.5,92.5 L 362,91.5 L 344,91.5 Z M 326,84 L 326,86.5 L 327.5,88 L 374.5,88 L 376,86.5 L 376,84 L 374,82.5 L 328,82.5 Z M 396,71.5 L 396,74.5 L 397,75.5 L 410.5,75.5 L 418,84 L 421.5,83 L 421.5,79.5 L 419,78.5 L 416,74.5 L 414.5,74.5 L 411.5,70.5 L 397,70.5 Z" fill="#8fb7df" fill-rule="evenodd"/>
  <path d="M 402.5,58 L 398.5,62.5 L 388.5,63 L 371.5,79.5 L 374,87.5 L 324,87 L 306.5,95.5 L 301,106 L 301.5,114 L 297,118 L 297.5,126 L 293,130 L 293,139 L 289,142 L 289,151.5 L 280.5,163 L 281,171.5 L 275.5,181.5 L 250,182 L 241.5,177.5 L 237.5,182 L 213,181.5 L 209,186 L 200,186 L 182,203.5 L 182,213 L 173.5,224.5 L 173.5,234 L 161,258 L 161.5,266 L 151.5,276.5 L 142,276 L 123.5,252 L 98,251.5 L 83,265.5 L 82.5,290.5 L 97,306 L 115,310 L 137,292.5 L 138.5,285.5 L 155.5,285.5 L 161.5,291.5 L 161,300 L 178,333 L 181.5,353 L 191.5,363.5 L 208.5,372 L 275,372 L 285,386 L 293,407.5 L 306.5,425 L 316.5,425.5 L 319.5,429.5 L 374,429.5 L 385,450 L 394.5,454.5 L 414.5,454.5 L 429.5,440.5 L 434,431 L 429.5,409.5 L 415.5,396 L 393.5,396 L 375.5,413.5 L 374,420.5 L 324,420.5 L 306.5,407.5 L 285,366 L 311.5,335 L 324,335 L 328,331 L 370,331 L 383.5,348.5 L 384.5,355 L 398.5,355.5 L 402,359.5 L 411,355.5 L 416.5,359.5 L 417.5,352.5 L 424.5,351 L 434,336.5 L 434,320 L 420,301.5 L 411,297 L 398,297 L 380,310 L 374,326 L 298.5,326 L 293,341 L 275,363 L 217,363 L 210,355 L 190.5,349 L 191,341 L 178,315.5 L 174,294 L 166,283.5 L 166,274.5 L 178.5,250.5 L 178,242.5 L 182.5,238.5 L 182,230.5 L 186.5,226.5 L 191,208 L 217.5,190.5 L 274.5,190.5 L 303,223.5 L 373.5,223.5 L 380,239.5 L 386,240 L 394,248.5 L 411,248.5 L 429,235.5 L 434,225 L 434,213 L 429.5,203.5 L 412,186 L 385.5,194 L 379.5,199.5 L 374,214.5 L 365.5,214.5 L 361.5,218.5 L 336.5,218.5 L 332.5,214.5 L 307.5,210.5 L 285,183.5 L 289.5,177 L 289.5,167.5 L 298,155.5 L 297.5,147.5 L 302,143.5 L 301.5,131.5 L 306,127 L 310,106 L 316,100 L 341,96 L 345,92 L 361,92 L 365,96 L 374,96 L 380,112 L 398.5,121 L 410.5,121 L 425.5,111 L 434,93.5 L 429.5,72 L 417.5,65.5 L 416.5,58.5 L 410,62.5 Z M 402,405 L 407,405 L 410,409 L 415,409 L 417,412 L 421,415 L 421,435 L 419.5,437 L 417.5,437.5 L 415.5,441 L 410.5,441 L 406.5,445.5 L 402.5,445.5 L 398.5,441 L 394,441 L 392,438 L 388.5,435.5 L 388,429.5 L 385.5,428.5 L 384,426.5 L 384.5,422.5 L 388.5,419.5 L 388.5,414.5 L 391,413 L 394,409 L 400,408.5 Z M 398.5,310 L 410.5,310 L 421,320.5 L 421,336 L 415,342.5 L 413,343.5 L 411,346.5 L 398,346.5 L 396.5,344 L 388.5,337 L 388.5,315.5 L 389.5,314.5 L 395.5,314 Z M 102,260.5 L 118,260.5 L 128.5,271 L 128.5,287 L 125.5,289 L 118.5,297 L 101.5,297 L 99.5,294 L 96,291.5 L 95.5,285.5 L 93,284.5 L 91.5,282.5 L 91.5,275 L 96,271.5 L 96,266 L 99,264.5 Z M 394,203 L 399.5,203 L 402.5,199 L 407,199 L 409,202.5 L 415,203 L 417,206 L 420.5,208.5 L 421,229 L 415,235.5 L 394.5,235.5 L 388.5,230 L 388,210 Z M 398,71.5 L 411,71.5 L 413,74.5 L 421,81.5 L 421,97.5 L 417.5,100 L 411,107.5 L 394,107.5 L 392,104.5 L 388.5,102 L 388,96 L 386,95.5 L 384,93 L 384,85.5 L 387,83.5 Z" fill="#0b1fb3" fill-rule="evenodd"/>
</svg>
