<svg xmlns="http://www.w3.org/2000/svg" viewBox="0 0 512 512" width="512" height="512" role="img" aria-label="short_position">
  <title>short_position</title>
  <desc>Буква S или свеча + стрелка вниз</desc>
  <path d="M 104,336 L 102,338 L 102,365 L 101,366 L 87.5,366 L 85,367.5 L 84.5,369.5 L 84.5,424.5 L 85.5,427 L 87.5,427.5 L 91,432 L 96.5,432 L 100,427.5 L 102.5,429 L 102,451.5 L 103.5,453.5 L 114,453.5 L 120,448 L 120.5,446.5 L 120,428.5 L 122,427.5 L 125.5,432 L 127.5,432 L 131,427.5 L 136.5,427.5 L 137.5,426 L 137.5,368 L 135,366 L 121.5,366 L 120.5,365 L 120.5,338.5 L 119.5,336.5 Z M 118.5,380 L 120,381.5 L 119.5,408 L 118,409.5 L 100,410 L 98.5,407.5 L 103,403.5 L 103,386 L 104.5,384.5 L 113.5,384.5 L 117,380 Z M 186.5,292.5 L 184.5,294.5 L 184.5,321.5 L 183,323 L 172.5,323.5 L 171.5,325.5 L 163,333 L 162.5,334.5 L 162.5,390.5 L 163.5,392.5 L 165.5,393 L 169.5,397.5 L 183,397 L 184.5,398.5 L 184,400.5 L 181.5,401.5 L 180,403.5 L 180,417 L 184.5,420.5 L 185,427 L 197,427.5 L 198,426.5 L 198.5,420 L 202.5,417.5 L 203,404.5 L 202.5,403 L 198,399.5 L 199.5,397 L 217.5,397.5 L 220,395 L 220,329.5 L 218.5,327.5 L 216.5,327 L 213.5,323 L 204,323 L 202.5,321.5 L 202.5,303 L 198,299.5 L 198,294 L 196,292.5 Z M 182.5,341 L 200,341 L 202,343 L 202,377 L 200.5,379 L 182,379 L 180.5,377 L 180.5,343.5 Z M 291.5,232 L 281.5,232 L 279.5,235 L 275.5,238 L 275,270 L 274,271 L 260,271 L 257,275 L 254,276.5 L 253.5,278 L 253.5,382 L 259.5,388.5 L 273.5,388.5 L 275.5,390.5 L 275,415.5 L 275.5,417.5 L 282,423.5 L 287.5,423 L 289.5,420 L 293.5,417 L 293.5,390 L 295.5,388.5 L 309,388.5 L 312,384.5 L 315,383 L 315,277 L 314.5,276 L 312.5,275.5 L 309,271 L 295,271 L 293.5,269.5 L 293.5,234 Z M 273.5,289 L 295,289 L 297,290.5 L 297,369 L 295.5,370.5 L 273,370.5 L 271.5,368.5 L 271.5,291.5 Z M 402,124 L 401,131 L 396.5,134.5 L 397,357 L 394,357.5 L 392.5,356 L 392,349.5 L 373.5,331.5 L 368.5,331.5 L 362,337.5 L 362,348 L 375,360 L 375,365.5 L 387.5,376.5 L 388,383 L 401,394.5 L 401,400.5 L 413.5,401.5 L 415,394 L 427.5,383 L 427.5,377.5 L 438,367 L 440,366.5 L 440.5,360 L 453,349 L 454,339.5 L 448,332 L 442.5,331.5 L 430,344.5 L 427,346 L 427,351 L 421.5,357.5 L 418.5,356 L 419,333.5 L 414.5,329.5 L 415,127 L 413.5,124 Z M 397,358.5 L 400,358 L 401.5,360 L 401,361.5 L 399.5,362.5 L 398,362 Z M 64,68 L 63,69.5 L 63.5,74 L 59,77.5 L 58.5,225 L 59,227 L 63.5,231 L 63.5,236 L 66.5,237.5 L 74.5,246 L 221.5,246 L 225.5,241.5 L 231.5,241.5 L 233,239.5 L 233,234 L 236,232.5 L 237.5,229.5 L 237.5,75 L 236.5,72.5 L 234.5,72 L 226.5,63 L 221,63 L 218,59 L 78,59 L 75,63 L 70,63 L 66,67.5 Z M 78,81.5 L 80,81 L 83,77 L 217.5,77 L 219,78.5 L 219.5,224.5 L 218,227.5 L 82.5,227.5 L 81,225 L 77,222 L 76.5,84.5 Z M 134,98 L 131,102 L 125,102.5 L 124,104.5 L 120.5,107 L 119,110 L 115.5,112 L 115,118 L 111.5,120 L 110.5,122.5 L 111,136 L 115,139 L 115,144.5 L 117.5,146 L 125,154.5 L 131,155 L 134,159 L 139,159 L 143,163.5 L 152.5,163.5 L 156,168 L 161.5,168 L 163.5,171.5 L 167,173.5 L 167.5,177.5 L 165.5,180 L 163,181 L 163,186.5 L 161.5,188.5 L 156.5,188.5 L 152.5,193 L 148,193 L 145.5,189.5 L 143.5,188.5 L 134.5,188.5 L 133,186 L 129,183 L 128.5,176.5 L 126,175.5 L 118,175.5 L 111,181.5 L 110.5,191 L 125,206.5 L 131,207 L 134,211 L 162,211 L 165,207 L 171,206.5 L 172,204.5 L 185,192.5 L 185.5,165.5 L 184,163 L 181,161.5 L 180.5,155 L 178,154 L 175,150 L 169,149.5 L 166,145.5 L 156.5,145.5 L 153,141 L 147.5,141 L 144.5,137 L 135,137 L 133,134.5 L 133,122.5 L 139,116 L 157,116 L 168.5,128.5 L 174.5,129 L 182,120.5 L 184.5,119.5 L 185.5,113.5 L 174.5,102 L 169,102 L 166,98 Z" fill="#d41217" fill-rule="evenodd"/>
</svg>
