<svg xmlns="http://www.w3.org/2000/svg" viewBox="0 0 512 512" width="512" height="512" role="img" aria-label="fees_commission">
  <title>fees_commission</title>
  <desc>Монета + знак % или чек комиссии</desc>
  <path d="M 161,411 L 161,414.5 L 163,416 L 216.5,416 L 219,414.5 L 219,411.5 L 217,410 L 162.5,410 Z M 161,398 L 161,401.5 L 162,402.5 L 213.5,402.5 L 214.5,401.5 L 214.5,398 L 212,396.5 L 163.5,396.5 Z M 297.5,381.5 L 298,388 L 301.5,389.5 L 304,393.5 L 310,393.5 L 313,389.5 L 316.5,388 L 316.5,385 L 315,383.5 L 312.5,383.5 L 309.5,388 L 305,388 L 303.5,386.5 L 303.5,381.5 L 302,379.5 L 299,379.5 Z M 395,353 L 392,353 L 390.5,354.5 L 390.5,374 L 393,376 L 395,375.5 L 396.5,372.5 L 396.5,356 Z M 169.5,354.5 L 170,357.5 L 172,358.5 L 199,358.5 L 201.5,356.5 L 201.5,354.5 L 200,352.5 L 171.5,352.5 Z M 169.5,341.5 L 171,345 L 204.5,345 L 206,343 L 204.5,339.5 L 171,339.5 Z M 334,314.5 L 332.5,313 L 330.5,313 L 328.5,314.5 L 328.5,320.5 L 325.5,322 L 324,325 L 321.5,326 L 318.5,330.5 L 304,330.5 L 302.5,331.5 L 302.5,335 L 305,336.5 L 319,336 L 322,332 L 325,330.5 L 326.5,327.5 L 329.5,326 L 331.5,322.5 L 334,321.5 Z M 156.5,292 L 156.5,295 L 158,296.5 L 221.5,296.5 L 223.5,295 L 223,291.5 L 221,290.5 L 158.5,290.5 Z M 161,221 L 161,224.5 L 163.5,226 L 216.5,226 L 219,224 L 219,221.5 L 217.5,220 L 162.5,220 Z M 165,173.5 L 166.5,177 L 208.5,177 L 210,176 L 210.5,174 L 210,172.5 L 207.5,171 L 168,171 Z M 165,160.5 L 165.5,163 L 167,164 L 208.5,164 L 210.5,161 L 208.5,158 L 167,158 Z M 156.5,75.5 L 156.5,78.5 L 158.5,80 L 212.5,80 L 214.5,78.5 L 214.5,75.5 L 213,74 L 158.5,74 Z M 161,62 L 161,65.5 L 162,66.5 L 217.5,66.5 L 219,65 L 219,62.5 L 217.5,61 L 162,61 Z" fill="#8fb7df" fill-rule="evenodd"/>
  <path d="M 73.5,92.5 L 68,98 L 68,103.5 L 64,106 L 63.5,112.5 L 59,116.5 L 59,369 L 68,377.5 L 68.5,384 L 75,384.5 L 83,393.5 L 88.5,393.5 L 101.5,402.5 L 114.5,402 L 118.5,406.5 L 137,406.5 L 140.5,411 L 230.5,411 L 234,406.5 L 247,406.5 L 273,433 L 278,433 L 281,437 L 287,437.5 L 300,446.5 L 314,446.5 L 318,451 L 358.5,451 L 362,446.5 L 371.5,446.5 L 375.5,442 L 385,442 L 389,437.5 L 394.5,437.5 L 401.5,429 L 408,428.5 L 426.5,410 L 427,403.5 L 435.5,396.5 L 435.5,391 L 440,387.5 L 440,382 L 444,379.5 L 444.5,373 L 449,369.5 L 448.5,352 L 453.5,347 L 453.5,319.5 L 448.5,314.5 L 449,301.5 L 444.5,298 L 444.5,288.5 L 440,284.5 L 440,279 L 431.5,272 L 431,265.5 L 407.5,242.5 L 402,242.5 L 399.5,234 L 388.5,233.5 L 385,229 L 375.5,229 L 371.5,224.5 L 357.5,224.5 L 353.5,220 L 321,219.5 L 321,214 L 316,209 L 316.5,112 L 312,108.5 L 312,102.5 L 297.5,88 L 291,87.5 L 288.5,83.5 L 274,79 L 270.5,74.5 L 260.5,74.5 L 257,70 L 238.5,70 L 225.5,61 L 220.5,61 L 216.5,65.5 L 163.5,65.5 L 158,61 L 154.5,65.5 L 141,65.5 L 137,70 L 123,70 L 119,74.5 L 109.5,74.5 L 106,79 L 96,79 L 93,83 L 87,83.5 L 79.5,92 Z M 72.5,329.5 L 74.5,327 L 75.5,327 L 79,331.5 L 84,331.5 L 87.5,336 L 93,336 L 97,340.5 L 106.5,340.5 L 108.5,344 L 110.5,345 L 124,345 L 126,348 L 128.5,349.5 L 144.5,349 L 146,349.5 L 149.5,353.5 L 217.5,353.5 L 221,349 L 226,349.5 L 227.5,352 L 227,369 L 231.5,373 L 231.5,382.5 L 233,384.5 L 236,386 L 236,391.5 L 239,393 L 240.5,395.5 L 239,397.5 L 216,397 L 212,401.5 L 163,401.5 L 159.5,397 L 132,397 L 129.5,393 L 123.5,392.5 L 120,388 L 118,388.5 L 115.5,392.5 L 114,392.5 L 109,387 L 107.5,384 L 105,384 L 102,388 L 100.5,388 L 98,384 L 92,383.5 L 90.5,381 L 86.5,378 L 85.5,375.5 L 79,375 L 77.5,373 L 77.5,367.5 L 74.5,366 L 73,364 L 73.5,334 Z M 72.5,267.5 L 74,265.5 L 76,265.5 L 78,269 L 81,271 L 82,273.5 L 88.5,274 L 92,278.5 L 101.5,278.5 L 104.5,282.5 L 115,283 L 119,287.5 L 133,287.5 L 137,292 L 230.5,292 L 231.5,293.5 L 232,301.5 L 231,303.5 L 228.5,304.5 L 227,306.5 L 227.5,319.5 L 225.5,322 L 223.5,322.5 L 222.5,324.5 L 223,337.5 L 221.5,339.5 L 207,339.5 L 203.5,344 L 172,344 L 168,339.5 L 150,339.5 L 146.5,335 L 144,335.5 L 141.5,339.5 L 136.5,339.5 L 132.5,335 L 119,335 L 116.5,331.5 L 114.5,330.5 L 106,331 L 102.5,326.5 L 97,326.5 L 93.5,322 L 88,322 L 86,319 L 82,316 L 81,313.5 L 74.5,313 L 73.5,312 L 73.5,271.5 Z M 299.5,239 L 301,239 L 304,243 L 306.5,243 L 309,239 L 315,238.5 L 317.5,234.5 L 363,234.5 L 367,239 L 375.5,238.5 L 379,243 L 384.5,243 L 388,247.5 L 393.5,247.5 L 421.5,275.5 L 422,282 L 430.5,289 L 430.5,294.5 L 435,298 L 435,312 L 439.5,315.5 L 439.5,351 L 435,354.5 L 435,368.5 L 430.5,372.5 L 430.5,382 L 421.5,390 L 421.5,395.5 L 406.5,410.5 L 400,411 L 399.5,417.5 L 398,419 L 392,419.5 L 384.5,428 L 379,428 L 375.5,432.5 L 366,432.5 L 362.5,437 L 314,437 L 310,432.5 L 300.5,432.5 L 297,428 L 291.5,428 L 288,423.5 L 282.5,423.5 L 254.5,395.5 L 254,389 L 245.5,382 L 246,374.5 L 245.5,372 L 241,368.5 L 241,358.5 L 236.5,355.5 L 236.5,316 L 241,312.5 L 241,302.5 L 250,294.5 L 250,284.5 L 254,282 L 254.5,275.5 L 282.5,247.5 L 288,247.5 L 291.5,243 L 297,243 Z M 351.5,344.5 L 351,351 L 346.5,354.5 L 346.5,374 L 351,377.5 L 351.5,384 L 358,384.5 L 361.5,389 L 381.5,388.5 L 382.5,386.5 L 391.5,378.5 L 391,349.5 L 388,348 L 386,344.5 L 383.5,343.5 L 380.5,339.5 L 362,339.5 L 358,344 Z M 371.5,349 L 377.5,355.5 L 377.5,373 L 375.5,375 L 362,375 L 360.5,373.5 L 360.5,355.5 L 362.5,353.5 L 367.5,353.5 L 369.5,350 Z M 377,282.5 L 370,282.5 L 358,295.5 L 355.5,296.5 L 355.5,302.5 L 352.5,304.5 L 349.5,308.5 L 346.5,310 L 346.5,316 L 344,317.5 L 341,321.5 L 338,323 L 337.5,329.5 L 335,331 L 332,335 L 329,336.5 L 328.5,343 L 325.5,344.5 L 324.5,346.5 L 320,350 L 320,355.5 L 317,357.5 L 314,361.5 L 311.5,362.5 L 311,369 L 308.5,370.5 L 305,375 L 303,375.5 L 302,378 L 302,386 L 303.5,388.5 L 310,389 L 317.5,380.5 L 320.5,379 L 321,372.5 L 323.5,371 L 326.5,367 L 329.5,365.5 L 330,359 L 333,357.5 L 334.5,354.5 L 338.5,352 L 339,345.5 L 341.5,344.5 L 342.5,342.5 L 347,339 L 347.5,333 L 350,331.5 L 353.5,327 L 355.5,326.5 L 356,320 L 365,312 L 365,306.5 L 367.5,305 L 371,300.5 L 373.5,299.5 L 373.5,294 L 375,292 L 377,291.5 L 378.5,289 L 378.5,285 Z M 310,277.5 L 307.5,278 L 305,282 L 299,282.5 L 297.5,285.5 L 295.5,286.5 L 293,290 L 284.5,297.5 L 284.5,316 L 289,320 L 289.5,326.5 L 296,327 L 297.5,328 L 297.5,334.5 L 299,336 L 301.5,336 L 305,331.5 L 319,331.5 L 327,322.5 L 329,322 L 329.5,315.5 L 333.5,313 L 334.5,309.5 L 334,306 L 329.5,302.5 L 329.5,292.5 L 327,291 L 323.5,286.5 L 318,286.5 Z M 305,296 L 313.5,296 L 316.5,300 L 320,302 L 320,311.5 L 317.5,313 L 309.5,322 L 305,322 L 302.5,318.5 L 298.5,315.5 L 298.5,302.5 L 299.5,301 L 302,300 Z M 317.5,220.5 L 320.5,221 L 320.5,223 L 319,225 L 317,225 L 316,224 L 316,222 Z M 73,249 L 73,210 L 74.5,208 L 80,208 L 82,211.5 L 85.5,213.5 L 86.5,216 L 92.5,216.5 L 96.5,221 L 106,221 L 110,225.5 L 124,225.5 L 127.5,230 L 146,230 L 150,234.5 L 225.5,234.5 L 229.5,230 L 247.5,230 L 251.5,225.5 L 265.5,225.5 L 269.5,221 L 279,221 L 282,217 L 288,216.5 L 295.5,208 L 301,208 L 302.5,210 L 302.5,222.5 L 296.5,229 L 291,229 L 287.5,233.5 L 282,233.5 L 274,242.5 L 268.5,242.5 L 247.5,264.5 L 245,265.5 L 245,271.5 L 239,277.5 L 229.5,277.5 L 225.5,282 L 154,282 L 150,277.5 L 132,277.5 L 129,273.5 L 123,273 L 120.5,269 L 118,269 L 115,273.5 L 112.5,272 L 111,269 L 101.5,269 L 98,264.5 L 92.5,264.5 L 89,260 L 83.5,260 Z M 72.5,148 L 74,146 L 76,146 L 78.5,150 L 84.5,150.5 L 87,154.5 L 93,155 L 96,159 L 106,159 L 109.5,163.5 L 123.5,163.5 L 127.5,168 L 141.5,168 L 145.5,172.5 L 230,172.5 L 234,168 L 252.5,168 L 256,163.5 L 266,163.5 L 269.5,159 L 279,159 L 282,155 L 288.5,154.5 L 291,150.5 L 296,150.5 L 299.5,146 L 301.5,146 L 303,148.5 L 302,152.5 L 302.5,191.5 L 296.5,198 L 291,198 L 287.5,202.5 L 282,202.5 L 278.5,207 L 273,207 L 269.5,211.5 L 260,211.5 L 256,216 L 246.5,216 L 243,220.5 L 221,220 L 217,224.5 L 163,224.5 L 160,220.5 L 150,220 L 147,216 L 143.5,216.5 L 141,220.5 L 137,220.5 L 133.5,216 L 119.5,216 L 115.5,211.5 L 106,211.5 L 102.5,207 L 97,207 L 93.5,202.5 L 88,202.5 L 80.5,194 L 74.5,193.5 L 73,192 L 73.5,152.5 Z M 73,112.5 L 76.5,110 L 88,97.5 L 93,97.5 L 96.5,93 L 103,92.5 L 105.5,88.5 L 115,88.5 L 119,84 L 128.5,84 L 132.5,79.5 L 155.5,79.5 L 159,75 L 212,75 L 215.5,79.5 L 243,79.5 L 247,84 L 261,84 L 263.5,88 L 270,88.5 L 272.5,92.5 L 279,93 L 281.5,97 L 287.5,97.5 L 289.5,100.5 L 302.5,112.5 L 302.5,125.5 L 289.5,137.5 L 284,145 L 282,145 L 280.5,142 L 277.5,140.5 L 270,149.5 L 260.5,149.5 L 257,154 L 254.5,152.5 L 253.5,150 L 250.5,149.5 L 243,158.5 L 211,158.5 L 207.5,163 L 168,163 L 164.5,158.5 L 132.5,158.5 L 130,155 L 126.5,152.5 L 125,149.5 L 122,150 L 121,152.5 L 118.5,154 L 115,149.5 L 105.5,149.5 L 103,145.5 L 96.5,145 L 94,141 L 88,140.5 L 85.5,137 L 73,125.5 Z" fill="#0b1fb3" fill-rule="evenodd"/>
</svg>
