<?xml version="1.0" encoding="UTF-8"?>
<svg xmlns="http://www.w3.org/2000/svg" width="512" height="512" viewBox="0 0 512 512" role="img" aria-label="position size">
  <title>position size</title>
  <path d="M 264.0 129.0 L 237.0 131.0 L 209.0 138.0 L 180.0 153.0 L 163.0 166.0 L 146.0 184.0 L 131.0 207.0 L 123.0 224.0 L 122.0 231.0 L 119.0 237.0 L 115.0 262.0 L 115.0 292.0 L 120.0 317.0 L 132.0 345.0 L 149.0 368.0 L 170.0 386.0 L 172.0 386.0 L 187.0 396.0 L 203.0 403.0 L 224.0 409.0 L 252.0 412.0 L 281.0 410.0 L 285.0 408.0 L 300.0 406.0 L 313.0 400.0 L 317.0 400.0 L 346.0 383.0 L 369.0 361.0 L 382.0 342.0 L 392.0 318.0 L 393.0 311.0 L 396.0 306.0 L 396.0 298.0 L 399.0 292.0 L 399.0 253.0 L 396.0 242.0 L 396.0 234.0 L 385.0 205.0 L 372.0 183.0 L 348.0 159.0 L 323.0 143.0 L 304.0 135.0 L 292.0 132.0 Z M 385.0 282.0 L 379.0 313.0 L 367.0 338.0 L 359.0 350.0 L 345.0 365.0 L 332.0 375.0 L 302.0 390.0 L 284.0 395.0 L 266.0 397.0 L 244.0 397.0 L 227.0 394.0 L 193.0 382.0 L 178.0 373.0 L 162.0 360.0 L 165.0 356.0 L 190.0 336.0 L 206.0 325.0 L 261.0 281.0 L 383.0 279.0 Z M 383.0 251.0 L 385.0 253.0 L 386.0 264.0 L 383.0 267.0 L 369.0 267.0 L 368.0 264.0 Z M 377.0 225.0 L 382.0 238.0 L 380.0 242.0 L 376.0 243.0 L 351.0 267.0 L 336.0 267.0 L 334.0 265.0 L 357.0 244.0 L 374.0 225.0 Z M 364.0 200.0 L 371.0 208.0 L 372.0 215.0 L 361.0 226.0 L 348.0 236.0 L 332.0 253.0 L 326.0 257.0 L 318.0 267.0 L 305.0 267.0 L 304.0 263.0 L 318.0 250.0 L 335.0 230.0 L 345.0 222.0 Z M 351.0 182.0 L 359.0 190.0 L 362.0 197.0 L 361.0 198.0 L 358.0 195.0 L 356.0 195.0 L 319.0 231.0 L 309.0 245.0 L 295.0 257.0 L 287.0 267.0 L 273.0 268.0 L 271.0 265.0 L 287.0 250.0 L 311.0 222.0 L 345.0 188.0 L 347.0 184.0 Z M 344.0 176.0 L 322.0 195.0 L 309.0 209.0 L 295.0 228.0 L 268.0 254.0 L 266.0 252.0 L 267.0 239.0 L 302.0 203.0 L 311.0 190.0 L 328.0 171.0 L 329.0 168.0 L 333.0 165.0 Z M 322.0 158.0 L 325.0 161.0 L 316.0 170.0 L 303.0 188.0 L 277.0 214.0 L 269.0 224.0 L 266.0 221.0 L 267.0 210.0 L 269.0 206.0 L 275.0 202.0 L 281.0 194.0 L 303.0 173.0 L 305.0 167.0 L 313.0 155.0 Z M 303.0 152.0 L 306.0 156.0 L 278.0 185.0 L 274.0 187.0 L 270.0 192.0 L 268.0 192.0 L 267.0 178.0 L 290.0 155.0 L 294.0 149.0 L 298.0 149.0 Z M 281.0 145.0 L 283.0 148.0 L 268.0 162.0 L 266.0 147.0 L 269.0 144.0 Z M 251.0 144.0 L 254.0 146.0 L 254.0 269.0 L 250.0 274.0 L 231.0 288.0 L 222.0 297.0 L 213.0 302.0 L 207.0 308.0 L 157.0 346.0 L 155.0 349.0 L 153.0 349.0 L 146.0 340.0 L 137.0 321.0 L 132.0 303.0 L 130.0 289.0 L 130.0 257.0 L 134.0 239.0 L 140.0 222.0 L 157.0 193.0 L 170.0 179.0 L 182.0 169.0 L 196.0 160.0 L 213.0 152.0 L 233.0 146.0 Z" fill="#0b1fb3" fill-rule="evenodd"/>
</svg>
