<svg xmlns="http://www.w3.org/2000/svg" viewBox="0 0 512 512" width="512" height="512" role="img" aria-label="call_option">
  <title>call_option</title>
  <desc>Буква C + стрелка вверх</desc>
  <path d="M 439,140 L 434.5,139.5 L 430.5,143.5 L 426,143.5 L 416,154.5 L 411.5,154.5 L 401.5,165.5 L 396,166 L 393.5,169.5 L 389,169.5 L 380,178.5 L 380,184.5 L 385,189 L 394,189 L 396.5,185.5 L 401,185.5 L 403.5,182 L 408.5,181.5 L 411,178 L 413.5,177.5 L 413.5,187 L 410,189.5 L 410,194 L 406,197.5 L 406,206 L 402.5,208 L 402.5,212.5 L 398.5,216 L 398.5,224.5 L 395,227 L 394.5,232.5 L 391,234.5 L 391,239.5 L 387.5,242 L 387,247.5 L 383.5,249.5 L 383.5,254.5 L 380,257 L 379.5,262.5 L 376,264.5 L 376,269.5 L 372.5,272 L 372,277.5 L 365,283 L 365,287.5 L 357.5,294.5 L 357,300 L 346,309.5 L 346,314.5 L 303.5,357 L 301,358 L 301,360.5 L 309.5,369 L 311.5,369 L 325.5,354 L 330,354 L 340,343 L 342.5,342 L 343,336.5 L 365,315.5 L 365.5,310 L 372.5,304.5 L 372.5,300 L 380,293 L 380.5,287.5 L 387.5,282 L 387.5,277.5 L 391.5,274 L 391.5,269 L 395,267 L 395,262.5 L 399,259 L 399,254 L 402.5,252 L 402.5,247.5 L 406.5,244 L 406.5,239 L 410,237 L 410,232.5 L 414,229 L 414,220.5 L 417.5,218 L 417.5,213.5 L 421.5,210 L 421.5,201.5 L 425,199.5 L 425,195 L 428.5,192 L 429,182.5 L 431,181.5 L 432.5,183 L 432.5,191 L 436,194 L 436,206.5 L 441,211.5 L 450,211.5 L 455,207 L 455,200.5 L 451.5,198.5 L 451.5,182.5 L 447.5,179 L 448,164 L 444,161 L 444,145 Z M 416,173.5 L 417.5,175 L 417.5,176.5 L 414,178 L 413.5,175.5 Z M 70,143.5 L 61,152 L 61,157 L 57,160.5 L 57.5,357 L 74.5,373 L 235.5,373 L 239.5,369 L 244,369 L 256.5,356.5 L 256.5,160 L 253,157.5 L 252.5,152 L 244,143.5 L 239.5,143.5 L 235.5,139.5 L 78,139.5 L 74.5,143.5 Z M 230.5,362.5 L 231.5,361.5 L 236,361.5 L 237,364 L 236,365 L 231.5,365 Z M 74,159 L 79,159 L 81.5,155.5 L 232.5,155.5 L 244.5,167.5 L 245,344 L 241,347 L 241,352 L 236,357 L 77.5,357 L 73,352.5 L 73,348 L 69,344.5 L 69,168 L 72.5,165.5 L 72.5,161.5 Z M 157,192 L 153,196 L 145,196 L 142.5,199.5 L 137,200 L 136,202 L 121,216 L 121,221 L 117,224 L 117.5,235 L 113.5,238.5 L 113.5,274 L 117.5,277.5 L 117,288.5 L 121,291.5 L 121.5,301 L 124,302 L 134,313 L 138.5,313 L 141,316.5 L 145.5,316.5 L 149.5,320.5 L 168,320.5 L 172,316.5 L 180,316.5 L 193.5,302 L 196,301 L 196.5,291 L 194,289.5 L 191.5,286 L 182.5,286 L 172.5,297 L 168,297 L 164.5,301 L 153,301 L 151,298 L 136.5,284.5 L 136.5,272.5 L 132.5,269 L 132.5,243.5 L 136.5,240 L 136.5,231.5 L 140.5,228.5 L 140,221 L 145,215.5 L 153,215.5 L 157,211.5 L 160.5,211.5 L 164.5,215.5 L 172.5,215.5 L 182.5,226.5 L 191.5,226.5 L 193,224 L 196.5,221.5 L 197,218.5 L 196.5,216 L 192.5,212.5 L 192.5,208 L 190,207 L 183.5,199.5 L 179,199.5 L 176.5,196 L 164.5,196 L 161.5,192.5 Z" fill="#08741c" fill-rule="evenodd"/>
  <path d="M 257.5,327 L 255.5,329.5 L 255.5,348 L 256.5,350 L 258.5,350.5 L 260.5,349 L 260.5,328.5 Z M 257.5,222 L 255.5,224.5 L 255.5,269.5 L 257,271.5 L 259.5,271.5 L 260.5,270 L 260.5,223.5 Z M 242,166 L 240.5,168 L 240.5,344.5 L 242,346.5 L 244.5,346.5 L 245.5,345 L 245.5,167.5 L 244.5,166 Z" fill="#0b1fb3" fill-rule="evenodd"/>
</svg>
