<svg xmlns="http://www.w3.org/2000/svg" viewBox="0 0 512 512" width="512" height="512" role="img" aria-label="realtime_stream_bolt">
  <title>realtime_stream_bolt</title>
  <desc>Поток данных + молния</desc>
  <path d="M 398.5,129 L 398.5,131.5 L 400.5,133 L 445.5,133 L 448,131 L 446.5,128 L 399.5,128 Z" fill="#8fb7df" fill-rule="evenodd"/>
  <path d="M 57,333 L 63.5,339 L 70,331.5 L 74.5,331.5 L 78,327.5 L 86.5,327.5 L 89,324 L 101,324 L 103.5,327.5 L 112,327.5 L 114.5,331 L 120,331.5 L 126,338.5 L 135,339 L 137.5,342.5 L 157.5,342.5 L 160,339 L 168,339 L 172,335 L 176.5,335 L 179,331.5 L 183.5,331.5 L 186.5,327.5 L 195,327.5 L 197.5,324 L 210,324 L 212.5,327.5 L 221,327.5 L 224,331.5 L 228.5,331.5 L 231,335 L 236,335 L 239.5,339 L 247.5,339 L 250,342.5 L 266.5,342.5 L 269,339 L 277,339 L 280.5,335 L 285,335 L 287.5,331.5 L 290,330.5 L 290.5,325.5 L 290,324 L 288,323 L 280.5,323 L 277,327 L 272.5,327 L 270,330.5 L 254,330.5 L 252,327 L 250,327 L 247.5,330.5 L 246,330.5 L 243.5,327 L 235.5,327 L 225,315.5 L 224,315.5 L 221,319.5 L 220,319.5 L 217,315.5 L 190.5,315.5 L 187,319.5 L 178.5,319.5 L 176,323 L 171.5,323 L 169,326.5 L 163.5,327 L 161,330.5 L 137.5,330.5 L 135,327 L 127,327 L 123.5,323 L 119,323 L 116.5,319.5 L 111.5,319.5 L 108,315.5 L 82,315.5 L 78.5,319.5 L 70,319.5 L 64,326.5 L 58.5,327 L 57,329 Z M 290.5,250.5 L 290,249 L 288,248 L 280.5,248 L 277,252 L 272.5,252 L 270,255.5 L 246.5,255.5 L 244,252 L 239.5,252 L 236,248 L 231.5,248 L 229,244.5 L 220.5,244.5 L 214,237 L 212,237 L 209.5,240.5 L 198,240.5 L 195.5,237 L 193.5,237 L 191,240.5 L 186.5,240.5 L 184,244 L 178.5,244.5 L 176,248 L 171.5,248 L 168.5,252 L 163.5,252 L 161,255.5 L 134,255.5 L 128,248.5 L 119,248 L 116.5,244.5 L 111.5,244.5 L 108,240.5 L 82,240.5 L 78.5,244.5 L 70,244.5 L 63.5,252 L 58.5,252 L 57,254 L 57,258 L 58.5,260 L 67.5,260 L 70,256.5 L 74.5,256.5 L 77.5,252.5 L 82.5,256.5 L 89,249 L 101,249 L 103.5,252.5 L 112,252.5 L 114.5,256 L 120,256.5 L 122.5,260 L 127,260 L 130.5,264 L 142.5,264 L 145,267.5 L 150,267.5 L 152.5,264 L 164.5,264 L 168,260 L 176.5,260 L 179,256.5 L 184,256 L 186,252.5 L 191,256.5 L 197.5,249 L 210,249 L 212.5,252.5 L 221,252.5 L 224,256.5 L 228.5,256.5 L 231,260 L 235.5,260 L 239.5,264 L 255,264 L 257.5,267.5 L 262.5,267.5 L 265,264 L 277,264 L 280.5,260 L 285,260 L 287.5,256.5 L 290,255.5 Z M 57,183 L 63.5,189 L 70,181.5 L 74.5,181.5 L 78,177.5 L 90,177.5 L 93,174 L 97,174 L 100,177.5 L 108,177.5 L 111.5,181.5 L 116,181.5 L 118.5,185 L 123,185 L 127,189 L 135,189 L 137.5,192.5 L 157.5,192.5 L 160,189 L 168,189 L 172,185 L 176.5,185 L 179,181.5 L 183.5,181.5 L 186.5,177.5 L 199,177.5 L 201.5,174 L 210,174 L 212.5,177.5 L 221,177.5 L 227.5,185 L 232,185 L 235.5,189 L 243.5,189 L 246,192.5 L 270,192.5 L 272.5,189 L 281.5,188.5 L 287.5,181.5 L 290,180.5 L 290.5,175.5 L 288,173 L 284.5,173 L 280.5,177 L 272.5,177 L 270,180.5 L 242.5,180.5 L 240,177 L 235.5,177 L 233,173.5 L 227.5,173 L 225,169.5 L 220.5,169.5 L 217,165.5 L 190.5,165.5 L 187,169.5 L 175,169.5 L 169,176.5 L 163.5,177 L 161,180.5 L 141.5,180.5 L 139.5,177 L 137.5,177 L 135,180.5 L 133.5,180.5 L 131,177 L 127,177 L 123.5,173 L 119,173 L 116.5,169.5 L 112,169.5 L 108,165.5 L 82,165.5 L 78.5,169.5 L 73.5,169.5 L 71,173 L 66.5,173 L 64,176.5 L 58.5,177 L 57,179 Z M 450,132 L 381,132 L 376,137 L 376,142 L 372,145 L 372.5,152.5 L 368.5,155.5 L 368.5,160.5 L 365,163 L 365,167.5 L 361,170.5 L 361,175.5 L 357,179 L 357.5,186 L 353.5,189.5 L 353.5,194.5 L 350,196.5 L 350,201 L 346,204.5 L 346,209.5 L 342.5,211.5 L 342.5,216 L 338.5,219.5 L 338.5,224.5 L 335,226.5 L 335,231 L 331,234.5 L 331,239.5 L 327.5,241.5 L 327.5,246 L 323.5,249.5 L 323,252 L 323.5,255 L 328.5,260 L 376,261 L 372,265.5 L 372,269.5 L 368.5,272 L 368.5,280.5 L 365,283 L 365,287.5 L 361,291 L 361,299.5 L 357.5,301.5 L 357.5,306 L 353.5,309.5 L 353.5,318 L 349.5,321.5 L 350,328.5 L 346,332 L 346,340.5 L 342.5,343 L 342,348.5 L 338.5,350.5 L 338.5,355.5 L 334.5,359 L 335,366 L 331,369.5 L 331,374 L 327,377.5 L 333,384 L 339,382.5 L 339,377.5 L 350,368 L 350.5,362.5 L 361.5,352.5 L 361.5,347.5 L 372.5,338 L 373,332.5 L 384,322.5 L 384,317.5 L 395,308 L 395.5,302.5 L 406.5,292.5 L 406.5,287.5 L 421.5,274 L 421.5,269 L 432.5,259 L 433,253.5 L 444,244 L 444,239 L 455.5,228 L 455,223 L 450,218 L 445.5,222 L 438,222 L 434.5,218 L 415.5,218 L 412,222 L 403,221.5 L 403,219.5 L 406.5,217 L 406.5,212.5 L 414,206.5 L 414,201.5 L 417.5,199 L 418,193.5 L 421.5,191.5 L 421.5,186.5 L 425,184 L 425.5,178.5 L 432.5,173 L 432.5,168.5 L 436.5,165 L 436.5,160 L 444,154 L 444,149 L 447.5,146.5 L 447.5,142 L 451.5,138.5 L 452,135.5 Z" fill="#0b1fb3" fill-rule="evenodd"/>
</svg>
