<svg xmlns="http://www.w3.org/2000/svg" viewBox="0 0 512 512" width="512" height="512" role="img" aria-label="green_bull_trend">
  <title>green_bull_trend</title>
  <desc>Голова быка + зелёная стрелка вверх</desc>
  <path d="M 435.5,217 L 430.5,217 L 427.5,220.5 L 423,220.5 L 394.5,250 L 389,250.5 L 384.5,255 L 384.5,261 L 391,266.5 L 392.5,269.5 L 395,269.5 L 397,266 L 402.5,265.5 L 415.5,251 L 418,252.5 L 417.5,256.5 L 413.5,260.5 L 414,267.5 L 410,271 L 410.5,278 L 406.5,281.5 L 406.5,290 L 402.5,293.5 L 403,300.5 L 399.5,303 L 399,308.5 L 395.5,311 L 395.5,319.5 L 391.5,322.5 L 391.5,327.5 L 384.5,333 L 384,338.5 L 377,344.5 L 376.5,350 L 362,363 L 362,368 L 360.5,369.5 L 355.5,369.5 L 345.5,380.5 L 341,380.5 L 334.5,388 L 330,388 L 327.5,391.5 L 319.5,391.5 L 310,400 L 310,402.5 L 318,410.5 L 321,410.5 L 323.5,407 L 331.5,407 L 334,403.5 L 338.5,403.5 L 341,400 L 346.5,399.5 L 352.5,392.5 L 357,392.5 L 382,366.5 L 384.5,365.5 L 385,360 L 396,350 L 396,345 L 399.5,343 L 399.5,338 L 403.5,335 L 403.5,330 L 410.5,324.5 L 410.5,316 L 414.5,313 L 414.5,308 L 418.5,304.5 L 418,297.5 L 422,294 L 421.5,287 L 423,284.5 L 425.5,283.5 L 426,274 L 429.5,271.5 L 429,260 L 430,258.5 L 433,260 L 433,265 L 436.5,268 L 436.5,276 L 445.5,284.5 L 450,284.5 L 452.5,281 L 455,280 L 455.5,270.5 L 451.5,267.5 L 452,260.5 L 448,256.5 L 448,244.5 L 444,241 L 444.5,234 L 440.5,230.5 L 440.5,222 Z M 317.5,400.5 L 318.5,399.5 L 320.5,399.5 L 321.5,401.5 L 320.5,403 L 318.5,403 Z M 77.5,101.5 L 68.5,110 L 68.5,114.5 L 60.5,126.5 L 61,137 L 57,140.5 L 57,163.5 L 61,167 L 60.5,174 L 68.5,186 L 68.5,190.5 L 88,210 L 98,216 L 88,217 L 85.5,220.5 L 77.5,220.5 L 74,224.5 L 66,224.5 L 63,228 L 58.5,228 L 57,242 L 69.5,254.5 L 74,254.5 L 92.5,266 L 116.5,267 L 116.5,275.5 L 128,294 L 127.5,301 L 131.5,304.5 L 131.5,309.5 L 138.5,315 L 139,320.5 L 143,324 L 142.5,331 L 146.5,334.5 L 146.5,343 L 150,345.5 L 150,387 L 158.5,399.5 L 164,400 L 170,407 L 242,407 L 248.5,400 L 254.5,399 L 254.5,394 L 262,383.5 L 262,349.5 L 266,346 L 265.5,335 L 269.5,331.5 L 269.5,327 L 273,324.5 L 281,304 L 284.5,301.5 L 284,294.5 L 292,282.5 L 291.5,275.5 L 295.5,272 L 296,266.5 L 319.5,266 L 323,262 L 328,262 L 330.5,258.5 L 335,258.5 L 345,247.5 L 350.5,247 L 351.5,241 L 355,238.5 L 354.5,228.5 L 349,228 L 346.5,224.5 L 338,224.5 L 334.5,220.5 L 326.5,220.5 L 324,217 L 314,216 L 320,213.5 L 344,190 L 344,185 L 347.5,183 L 347.5,178 L 351.5,174.5 L 351,164 L 355,160.5 L 355,144 L 351,140.5 L 351.5,129.5 L 347.5,126 L 347.5,117.5 L 344,115.5 L 344,110.5 L 335.5,102 L 329.5,102 L 324.5,107.5 L 325,133 L 321,136.5 L 321,145 L 314,150.5 L 312,157.5 L 307.5,157.5 L 301.5,164.5 L 296,165 L 293.5,168.5 L 285.5,168.5 L 282.5,172 L 267,172 L 264,168.5 L 144.5,168.5 L 137,176 L 133.5,172 L 127,172.5 L 123,168.5 L 115,168.5 L 112,165 L 107.5,165 L 91,148.5 L 91,143.5 L 87,140 L 87.5,129.5 L 83.5,126 L 83.5,119 L 87.5,115.5 L 87.5,107 L 82,101.5 Z M 144,310 L 146.5,311.5 L 145,314 L 143,313 L 143,311 Z M 148,265.5 L 149.5,265.5 L 150.5,267 L 149,269.5 L 147,268.5 L 147,266.5 Z M 274.5,247 L 276.5,248 L 276.5,250 L 275,251 L 273,250 L 273,248.5 Z M 298,239.5 L 299,242 L 297,243.5 L 295.5,241 Z M 288.5,232.5 L 290,232.5 L 291.5,234 L 291.5,245.5 L 290.5,246.5 L 289,246.5 L 287.5,244.5 L 287.5,234 Z M 80,237 L 82.5,235.5 L 89.5,235.5 L 93,232.5 L 111.5,232.5 L 113,234 L 113,241 L 111.5,243 L 107.5,243 L 104,239 L 81,239.5 Z M 296,233 L 297,232 L 319.5,232.5 L 323.5,236 L 330,235.5 L 332,237 L 332,238.5 L 331,239.5 L 300.5,239 L 298.5,236 L 296,234.5 Z M 122,228.5 L 124.5,230 L 124.5,249 L 123,250.5 L 120.5,249 L 120.5,230 Z M 87.5,226 L 89,224.5 L 93,224.5 L 94,227 L 93,228 L 89,228.5 Z M 306.5,222 L 309,221 L 310,223.5 L 307.5,224.5 Z M 284.5,222 L 287,221 L 288,223.5 L 285.5,224.5 Z M 102.5,222 L 103.5,221 L 115.5,221 L 116.5,223.5 L 115.5,224.5 L 103.5,224.5 Z M 314,207 L 316.5,206 L 317.5,208.5 L 315,209.5 Z M 325,199.5 L 326,198.5 L 328,198.5 L 328.5,201 L 326,202 Z M 83.5,199 L 86,198.5 L 87,199.5 L 87,201.5 L 84.5,202 Z M 328.5,196.5 L 329.5,195 L 332,195.5 L 332,197.5 L 331,198.5 L 329,198.5 Z M 80,196 L 82.5,195 L 83.5,196 L 83.5,198 L 80.5,198 Z M 148.5,184 L 264,184 L 265.5,190.5 L 269,193 L 269,201.5 L 272.5,203.5 L 272.5,208.5 L 276.5,211.5 L 276.5,220 L 280,223 L 280,242 L 263,243 L 260.5,246.5 L 256,246.5 L 252.5,250.5 L 248,250.5 L 245.5,254 L 240,254.5 L 235.5,259 L 235.5,264 L 228,270.5 L 228,275 L 233,280.5 L 238.5,280.5 L 241.5,277 L 245,277 L 248,280.5 L 257,280.5 L 260,277 L 266,275.5 L 266,270.5 L 269.5,268 L 270,259 L 275,258.5 L 277.5,255 L 280.5,256 L 280.5,266.5 L 276.5,270 L 276.5,278.5 L 273,281 L 272.5,286.5 L 269,289 L 269,297.5 L 265.5,299.5 L 265,305 L 258,311 L 258,319.5 L 254,322.5 L 254,327.5 L 250,331.5 L 250.5,338 L 247,340.5 L 246.5,346 L 243,348.5 L 243,353.5 L 247,357.5 L 247,378.5 L 234.5,391.5 L 230,391.5 L 227,388 L 208,388 L 204,384 L 200.5,388 L 185,388 L 182.5,391.5 L 174,391.5 L 169.5,387 L 169,381.5 L 165.5,379 L 165.5,360.5 L 169.5,357 L 169.5,349.5 L 165.5,346 L 165.5,341 L 161.5,337.5 L 162,330.5 L 158,327 L 158,322 L 154.5,320 L 154.5,315.5 L 151,312.5 L 150.5,307.5 L 147,305 L 147,300 L 143.5,298 L 143,292.5 L 139.5,290 L 139.5,285 L 135.5,282 L 136,275 L 132,271.5 L 131.5,256.5 L 134.5,255 L 137,258.5 L 142.5,259.5 L 143,272.5 L 148,277 L 152.5,277 L 155,280.5 L 160.5,280.5 L 163,277 L 171,277 L 173.5,280.5 L 178,281 L 183.5,276.5 L 184.5,272.5 L 183.5,269.5 L 167.5,254 L 163,254 L 157,247 L 148,246.5 L 145.5,243 L 130,243 L 128.5,241.5 L 128.5,237.5 L 132,234.5 L 132,219 L 136,215.5 L 135.5,204.5 L 139.5,201.5 L 139.5,196.5 L 143,194 L 143.5,188.5 Z M 222.5,354.5 L 215.5,362 L 213.5,363 L 213,368 L 217,371.5 L 218,373.5 L 220.5,375 L 221.5,377 L 230.5,377.5 L 234,373.5 L 236,372.5 L 236,368 L 237,366.5 L 239.5,365.5 L 240,360 L 239,358.5 L 237,358 L 234.5,354.5 Z M 172.5,359 L 172,368 L 181.5,377.5 L 189.5,377.5 L 192.5,374 L 198.5,373 L 199,363.5 L 198.5,362.5 L 196.5,362 L 194,358.5 L 189,358 L 186,354.5 L 177.5,354.5 L 175,358 Z" fill="#08741c" fill-rule="evenodd"/>
  <path d="M 121.5,228 L 120,229.5 L 120,249.5 L 121.5,251 L 123.5,251 L 125,249 L 125,230 L 123.5,228 Z" fill="#0b1fb3" fill-rule="evenodd"/>
</svg>
