<?xml version="1.0" encoding="UTF-8"?>
<svg xmlns="http://www.w3.org/2000/svg" width="512" height="512" viewBox="0 0 512 512" role="img" aria-label="spread arrows">
  <title>spread arrows</title>
  <path d="M 90.0 275.0 L 90.0 279.0 L 95.0 284.0 L 107.0 291.0 L 143.0 318.0 L 151.0 322.0 L 170.0 338.0 L 178.0 342.0 L 182.0 346.0 L 186.0 346.0 L 190.0 343.0 L 191.0 335.0 L 188.0 310.0 L 185.0 305.0 L 181.0 305.0 L 177.0 308.0 L 177.0 324.0 L 173.0 325.0 L 171.0 322.0 L 163.0 318.0 L 147.0 305.0 L 115.0 284.0 L 100.0 272.0 L 94.0 272.0 Z M 413.0 259.0 L 352.0 196.0 L 346.0 195.0 L 341.0 199.0 L 340.0 202.0 L 343.0 207.0 L 353.0 237.0 L 352.0 241.0 L 296.0 241.0 L 285.0 243.0 L 255.0 243.0 L 242.0 245.0 L 202.0 246.0 L 171.0 245.0 L 168.0 247.0 L 166.0 252.0 L 165.0 281.0 L 166.0 284.0 L 170.0 287.0 L 211.0 287.0 L 242.0 284.0 L 281.0 284.0 L 292.0 282.0 L 346.0 281.0 L 348.0 284.0 L 335.0 302.0 L 332.0 309.0 L 332.0 315.0 L 329.0 319.0 L 330.0 326.0 L 332.0 328.0 L 338.0 328.0 L 410.0 268.0 L 413.0 264.0 Z M 177.0 273.0 L 179.0 272.0 L 180.0 275.0 L 178.0 276.0 Z M 263.0 272.0 L 265.0 270.0 L 267.0 271.0 L 266.0 273.0 Z M 277.0 270.0 L 279.0 269.0 L 280.0 272.0 L 278.0 273.0 Z M 235.0 269.0 L 237.0 271.0 L 236.0 273.0 L 232.0 274.0 L 231.0 272.0 Z M 358.0 268.0 L 359.0 267.0 L 361.0 270.0 L 359.0 271.0 Z M 176.0 259.0 L 177.0 256.0 L 181.0 258.0 L 178.0 261.0 Z M 376.0 245.0 L 378.0 243.0 L 381.0 245.0 L 379.0 247.0 Z M 193.0 188.0 L 189.0 185.0 L 186.0 185.0 L 180.0 189.0 L 161.0 206.0 L 109.0 247.0 L 97.0 259.0 L 97.0 263.0 L 103.0 267.0 L 177.0 206.0 L 180.0 207.0 L 178.0 218.0 L 179.0 226.0 L 182.0 228.0 L 188.0 227.0 L 190.0 225.0 L 190.0 217.0 L 193.0 211.0 Z" fill="#0b1fb3" fill-rule="evenodd"/>
</svg>
