<svg xmlns="http://www.w3.org/2000/svg" viewBox="0 0 512 512" width="512" height="512" role="img" aria-label="backtest_timeline">
  <title>backtest_timeline</title>
  <desc>Таймлайн с историческими сделками</desc>
  <path d="M 341.5,275.5 L 342.5,278 L 357.5,277.5 L 357.5,275 L 355.5,274 L 343.5,274 Z M 248.5,275 L 249,278 L 264,277.5 L 264,275 L 262.5,274 L 250,274 Z M 68,275 L 68.5,278 L 83,278 L 84,276.5 L 82,274 L 69.5,274 Z M 151.5,274 L 154.5,275.5 L 156,278 L 170,278 L 171,277 L 171,275.5 L 169,274 L 156.5,274 L 154,271 L 152,271.5 Z M 245,259.5 L 245.5,262.5 L 247,262.5 L 252,268.5 L 260,269 L 261,268 L 261,265.5 L 253,265 L 248,259 L 246.5,258.5 Z M 410,256.5 L 410,258.5 L 411,259.5 L 431,259.5 L 432.5,257.5 L 431,255.5 L 411.5,255.5 Z M 369.5,262 L 372.5,262.5 L 374.5,259.5 L 397,259.5 L 398,258.5 L 398,256.5 L 396.5,255.5 L 374,255.5 L 372,258.5 L 369.5,259.5 Z M 273,266 L 273,268 L 275.5,269 L 277,266.5 L 280,264.5 L 280,260.5 L 281,259.5 L 325,259.5 L 326,260.5 L 326,265 L 328,265.5 L 330.5,269 L 332.5,268.5 L 333,266 L 329.5,263.5 L 329.5,259.5 L 327.5,259 L 325,255.5 L 281,255.5 L 276,260 L 276,264 Z M 182.5,263.5 L 184,265.5 L 186.5,265 L 186.5,260.5 L 187.5,259.5 L 235,259.5 L 236.5,257.5 L 235,255.5 L 187.5,255.5 L 185,259 L 183,259.5 Z M 92.5,268 L 95,269 L 96.5,266.5 L 99.5,264.5 L 99.5,260.5 L 100.5,259.5 L 142,259.5 L 143,257 L 141.5,255.5 L 100.5,255.5 L 95.5,260 L 95.5,264 L 92.5,266 Z" fill="#8fb7df" fill-rule="evenodd"/>
  <path d="M 333.5,172 L 329,176 L 329,177.5 L 335.5,183 L 335.5,187 L 338.5,189 L 338.5,193 L 341.5,195 L 341.5,199 L 344.5,201 L 345,206 L 346.5,206.5 L 348.5,209.5 L 350.5,209.5 L 351.5,207.5 L 354.5,205.5 L 354.5,201.5 L 357.5,199.5 L 357.5,195.5 L 360.5,193.5 L 360.5,189.5 L 364,186.5 L 364,182.5 L 366,181.5 L 367.5,179 L 369.5,178.5 L 370,176 L 369.5,175 L 367.5,174.5 L 366,172 Z M 146.5,172 L 145.5,173 L 145.5,180.5 L 148.5,182.5 L 148.5,186.5 L 151.5,188.5 L 152,193.5 L 155,195.5 L 155,199.5 L 156.5,200 L 162.5,206.5 L 166.5,206.5 L 169,203.5 L 170.5,203 L 171,198 L 174,196 L 174,192 L 177,190 L 177,186 L 180,184 L 180,180 L 183.5,177 L 183,172.5 Z" fill="#08741c" fill-rule="evenodd"/>
  <path d="M 383,302.5 L 381.5,305 L 379,306 L 379,308.5 L 382,310 L 382,314 L 385,316 L 385,320 L 388.5,323 L 388,326 L 391.5,329 L 391.5,333 L 394.5,335 L 394.5,339 L 395.5,340 L 403.5,340 L 404.5,338 L 404,335.5 L 407,333.5 L 407.5,328.5 L 410.5,326.5 L 410.5,322.5 L 413.5,320.5 L 413.5,316.5 L 416.5,314.5 L 416.5,310.5 L 419.5,308.5 L 419.5,306 L 418,305.5 L 415.5,302.5 Z M 162.5,302.5 L 158,306.5 L 158,310.5 L 155,312.5 L 155,316.5 L 152,318.5 L 152,322.5 L 148.5,325.5 L 148.5,329.5 L 145.5,331.5 L 145.5,339 L 146.5,340 L 182.5,340 L 183.5,338.5 L 183.5,332 L 180,329 L 180.5,326 L 177,323 L 177,319 L 174,317 L 174,312.5 L 171,310.5 L 171,306.5 L 166.5,302.5 Z" fill="#d41217" fill-rule="evenodd"/>
  <path d="M 55.5,244.5 L 55.5,261.5 L 58.5,263.5 L 58.5,267.5 L 66.5,275 L 85.5,275 L 88,272 L 92.5,271.5 L 96.5,260 L 101,256 L 141,256 L 142.5,261.5 L 145.5,263.5 L 145.5,267.5 L 149.5,271.5 L 154,272 L 156.5,275 L 169.5,275 L 171.5,278 L 174,277.5 L 175,272 L 178.5,272 L 183,268 L 183,261 L 188,256 L 234.5,256 L 236,261.5 L 239,263.5 L 239,267.5 L 246.5,275 L 266,275 L 268.5,272 L 273,271.5 L 273.5,267 L 276.5,265 L 276.5,260.5 L 281.5,256 L 324.5,256 L 329,260 L 329,264 L 332.5,267 L 333,271.5 L 337.5,272 L 340,275 L 359,275 L 370,264.5 L 370,260.5 L 374.5,256 L 431,256.5 L 432,260.5 L 429,262.5 L 428.5,267 L 433.5,272 L 439.5,265.5 L 443.5,265.5 L 449,259.5 L 452.5,259.5 L 457,255.5 L 450,246.5 L 440,243.5 L 434,237 L 428.5,242 L 429,246 L 432,248 L 430.5,250 L 405.5,249.5 L 402.5,252.5 L 399.5,252.5 L 396.5,249.5 L 371,249.5 L 366.5,237.5 L 361.5,237 L 353.5,231 L 342.5,231 L 340.5,234 L 336.5,234 L 329.5,241 L 328,249.5 L 281,249.5 L 276.5,245 L 276.5,241 L 269,234 L 262,234 L 260,231 L 252.5,231 L 250.5,234 L 246.5,234 L 236,244 L 235,249.5 L 187.5,249.5 L 183.5,245.5 L 183.5,241.5 L 176,234 L 172,234 L 170,231 L 159,231 L 157,234 L 153,234 L 142.5,244.5 L 141.5,249.5 L 100.5,249.5 L 96,245 L 96,241 L 89,234 L 85,234 L 82.5,231 L 72,231 L 70,234 L 66,234 Z M 343.5,240.5 L 356.5,241 L 360.5,245.5 L 360.5,249.5 L 363.5,251.5 L 363.5,257.5 L 352,268.5 L 346,268 L 344,265 L 340,265 L 335.5,260.5 L 335.5,248.5 Z M 253.5,240.5 L 262.5,240.5 L 264.5,243.5 L 270,248 L 270,261 L 268,262 L 266,265 L 262,265 L 260,268 L 252.5,268 L 251.5,266 L 245.5,261 L 245.5,257 L 242.5,255 L 242.5,254 L 245.5,252 L 245.5,248 L 248,246.5 L 249,244.5 Z M 160,240.5 L 169,240.5 L 177,248.5 L 177,260.5 L 172.5,265 L 168.5,265 L 166.5,268 L 162.5,268 L 161,265.5 L 156.5,265 L 152,260.5 L 152,256.5 L 150,256 L 149,254.5 L 152,252 L 152.5,247.5 L 154,247 Z M 73,240.5 L 82,240.5 L 90,249 L 89.5,258 L 86.5,260 L 86.5,264 L 85.5,265 L 81.5,265 L 79.5,268 L 72.5,268 L 64,259 L 62,258 L 62,251 L 65,249 L 65,245 L 66,244 L 70.5,243.5 Z" fill="#0b1fb3" fill-rule="evenodd"/>
</svg>
