<svg xmlns="http://www.w3.org/2000/svg" viewBox="0 0 512 512" width="512" height="512" role="img" aria-label="bid_ask_ladder">
  <title>bid_ask_ladder</title>
  <desc>Две колонки BID / ASK, как стакан цен</desc>
  <path d="M 67,442 L 67.5,444 L 71,445.5 L 74,449.5 L 434.5,449.5 L 436.5,447.5 L 436,445 L 433.5,443.5 L 74,443.5 L 71,439.5 L 68.5,439.5 Z M 327.5,432 L 327.5,435.5 L 329,436.5 L 383,436.5 L 384.5,435 L 384,431.5 L 381.5,430.5 L 330,430.5 Z M 80.5,432.5 L 80.5,435 L 82,436.5 L 201,436.5 L 202.5,435 L 202,431.5 L 200,430.5 L 83.5,430.5 L 81.5,431 Z M 436.5,427.5 L 435,426.5 L 432.5,426.5 L 430,430.5 L 395,430.5 L 392.5,432 L 392,434.5 L 394,436.5 L 430,436.5 L 433.5,432 L 435.5,432 L 436.5,431 Z M 450,392 L 448,395 L 448,424.5 L 449,427 L 452.5,427.5 L 454,425.5 L 454,394 L 453,392.5 Z M 449.5,266.5 L 448,269 L 448,338 L 449.5,340.5 L 452,341 L 454,339 L 454,268.5 L 452.5,266.5 Z M 288.5,246.5 L 288.5,249 L 289.5,250 L 435,250 L 436.5,248 L 435,244.5 L 290,244.5 Z M 76,246.5 L 77.5,250 L 218.5,250 L 220,248.5 L 220,247 L 218,244.5 L 77.5,244.5 Z M 72,233 L 72,236 L 73,237 L 77,237.5 L 217.5,237.5 L 221,241.5 L 223,241.5 L 224.5,240 L 224,236.5 L 221.5,236 L 218,231.5 L 73.5,231.5 Z M 441,229 L 440,227.5 L 437.5,227 L 434,231.5 L 290.5,231.5 L 287.5,235.5 L 284,237 L 283.5,239 L 284.5,241 L 287.5,241.5 L 290.5,237.5 L 433.5,237.5 L 435.5,236.5 L 437.5,233 L 440.5,232 Z M 259.5,184 L 257.5,186.5 L 257.5,429.5 L 258.5,431.5 L 262,433 L 263,436 L 266.5,436.5 L 268,433.5 L 267.5,432 L 264.5,430.5 L 263,428.5 L 263.5,186 L 262.5,184.5 Z M 249,184 L 246,184.5 L 244.5,187 L 245,429 L 244,430.5 L 240.5,432 L 240.5,435 L 242,436.5 L 244.5,436.5 L 246,433.5 L 250.5,430 L 250.5,186 Z M 266.5,181.5 L 267,184 L 270,185.5 L 435,185 L 436.5,183 L 436,180.5 L 434.5,179.5 L 268.5,179.5 Z M 72,181 L 72,184 L 73,185 L 238.5,185.5 L 241.5,183.5 L 241.5,181 L 240,179.5 L 73.5,179.5 Z M 449.5,115 L 448,117.5 L 448,156 L 449,158.5 L 452,159 L 454,157 L 454,117 L 452.5,115 Z M 162.5,97.5 L 159,98 L 158,100 L 158,148 L 158.5,149.5 L 160.5,150.5 L 162.5,150 L 163.5,148 L 164,99 Z M 174.5,97 L 171.5,98.5 L 171,100.5 L 167.5,103 L 167,105 L 167,147.5 L 169.5,150.5 L 171.5,150 L 172.5,148.5 L 172.5,104 L 176,102.5 L 177,100.5 L 176.5,98 Z M 267,77.5 L 267.5,80.5 L 269.5,81.5 L 429,81.5 L 431,81 L 432,79.5 L 432,77 L 430.5,75.5 L 268.5,75.5 Z M 260,75.5 L 257.5,78.5 L 257.5,165.5 L 259,167.5 L 260.5,167.5 L 263.5,172 L 266.5,172 L 268,169.5 L 267.5,167.5 L 264.5,166.5 L 263,164 L 263.5,80 L 262.5,76.5 Z M 71.5,81.5 L 71.5,84 L 73,85.5 L 75.5,85.5 L 78,81.5 L 244,81.5 L 245,83 L 245,165 L 243.5,166.5 L 241,167 L 240.5,171 L 241.5,172 L 244.5,172 L 246.5,168.5 L 250.5,166 L 250.5,82 L 249.5,80.5 L 247,80 L 244,75.5 L 78,75.5 L 74.5,80 L 73,80 Z M 72,64 L 72,67 L 74.5,68.5 L 433.5,68.5 L 436.5,66 L 434.5,62.5 L 74,62.5 Z" fill="#8fb7df" fill-rule="evenodd"/>
  <path d="M 371.5,98 L 370.5,99 L 371,149.5 L 373,150.5 L 382,150.5 L 384,149 L 384,134.5 L 385.5,133 L 387,133 L 389,136.5 L 392,138.5 L 392.5,145 L 395,146 L 398,150 L 409,150 L 410.5,148 L 410.5,143 L 406.5,140 L 405,137 L 402,135.5 L 401.5,129 L 398.5,127.5 L 397,125.5 L 397.5,117 L 406,109.5 L 405.5,98.5 L 404,97.5 L 398.5,97.5 L 396.5,100.5 L 388.5,107.5 L 388.5,113 L 386,115 L 383.5,112 L 384.5,106.5 L 384,98.5 L 382.5,97.5 Z M 288,147 L 289.5,150 L 299.5,150.5 L 302,149 L 302,143.5 L 303,142 L 317,141.5 L 319,144.5 L 318.5,148.5 L 321,150.5 L 330,150.5 L 333.5,146 L 335,146 L 337.5,150 L 343.5,150.5 L 346.5,154.5 L 352,154.5 L 355.5,150.5 L 361.5,150 L 362.5,148 L 366.5,144.5 L 366.5,125 L 361.5,120 L 355.5,119.5 L 354,116 L 356,115 L 364.5,116 L 366,115 L 366,102.5 L 364.5,102 L 361,97.5 L 341.5,98 L 340.5,100 L 337.5,102 L 331.5,108.5 L 331.5,122.5 L 337.5,128 L 343.5,128.5 L 344.5,129.5 L 344.5,132 L 334,132 L 330.5,136.5 L 329,136.5 L 327.5,134.5 L 328.5,129.5 L 328,125 L 323.5,121 L 324,112.5 L 323,111 L 321,110.5 L 319,107.5 L 319,98.5 L 317.5,97.5 L 307.5,97.5 L 304,102 L 301.5,103 L 301.5,108.5 L 297,112.5 L 297,126.5 L 294,128 L 292.5,130 L 293,138.5 L 291,141 L 289,141.5 Z M 345.5,133.5 L 346.5,132.5 L 351.5,133 L 354,136.5 L 353.5,139.5 L 352.5,140.5 L 350.5,140.5 L 346,136 Z M 310.5,125 L 311.5,124 L 313.5,124 L 314.5,125 L 314.5,127 L 313.5,128 L 311.5,128 L 310.5,127 Z M 345.5,112.5 L 347,111 L 352,111 L 353,114.5 L 346.5,115 Z" fill="#d41217" fill-rule="evenodd"/>
  <path d="M 63.5,72.5 L 63.5,78 L 58.5,83.5 L 58.5,428.5 L 63,433 L 64.5,440.5 L 70.5,440.5 L 74.5,445 L 438,445 L 449,435 L 449,183 L 454,177.5 L 454,161.5 L 449,156 L 449,118 L 453.5,114 L 454,109.5 L 449,104 L 449.5,78 L 439,67.5 L 70,67 Z M 264,181 L 435.5,182 L 435.5,226 L 440,230.5 L 434,236 L 291,236 L 284,242 L 286,246 L 435.5,247 L 434,301 L 290.5,301 L 284,307 L 290.5,315 L 434,315 L 434,366 L 290.5,366 L 284,372 L 290.5,380 L 434,380 L 436,428 L 429.5,435.5 L 395,435.5 L 391,431 L 386,431 L 382,435.5 L 330,435.5 L 326,431 L 269,431 L 264.5,435.5 L 259,430 L 258.5,187 Z M 73.5,181 L 243.5,180.5 L 249.5,186.5 L 249.5,429.5 L 244.5,435 L 239.5,431 L 204,431 L 200,435.5 L 83,435.5 L 79.5,431 L 72.5,429.5 L 74,380 L 217.5,380 L 220,377.5 L 218,366 L 74,366 L 74,315 L 217.5,315 L 220,303.5 L 218,301 L 195.5,301 L 191,296.5 L 174,296.5 L 170.5,301 L 165,296.5 L 157,301 L 74,301 L 72.5,251.5 L 78.5,245.5 L 217.5,245.5 L 221,250 L 224.5,248 L 224,242 L 217.5,236 L 74,236 Z M 258.5,79 L 260.5,76.5 L 429.5,76.5 L 432,80 L 440,87 L 440,96 L 435.5,99.5 L 435.5,165.5 L 433.5,167 L 268.5,167 L 266,171 L 264,171 L 262,167.5 L 258.5,164.5 Z M 72.5,83 L 78.5,76.5 L 243.5,76.5 L 245.5,79.5 L 249.5,82.5 L 249.5,165 L 244,171 L 242.5,171 L 239.5,167 L 74.5,167 L 72.5,165 Z M 155.5,97.5 L 154,100 L 150.5,102.5 L 149.5,105 L 149.5,143.5 L 153.5,147 L 155,150 L 157,150.5 L 159.5,148.5 L 159.5,99 L 158,97.5 Z M 117,97.5 L 113.5,102 L 111,103 L 110.5,105 L 111,149 L 113.5,150.5 L 131.5,150 L 134,146.5 L 140.5,146 L 142,144 L 142,125.5 L 137.5,122.5 L 137.5,121 L 142,118 L 142,108 L 139,106 L 136,102 L 126,101.5 L 122.5,97.5 Z M 122,128.5 L 131,128.5 L 132.5,130 L 132.5,139 L 131.5,140.5 L 122,141 L 120,139 L 120,130.5 Z M 120.5,108 L 121.5,107 L 131.5,107.5 L 133,109.5 L 132.5,117.5 L 131,119 L 121.5,119 L 120,117 Z M 167.5,97.5 L 166.5,99.5 L 167,102 L 171.5,104.5 L 171.5,148.5 L 174,150.5 L 192,150 L 200,141.5 L 202.5,140 L 202.5,134.5 L 207,130.5 L 206.5,116 L 202.5,113.5 L 202.5,107.5 L 199.5,106 L 196.5,102 L 186.5,101.5 L 183,97.5 L 178,97.5 L 176.5,100 L 173.5,102 L 171,97.5 Z M 182.5,107 L 187.5,107.5 L 197.5,117.5 L 197.5,130.5 L 193.5,133 L 193.5,138.5 L 191.5,141 L 182.5,141 L 176.5,134 L 176.5,126.5 L 181,122 L 180.5,109.5 Z" fill="#0b1fb3" fill-rule="evenodd"/>
</svg>
