<svg xmlns="http://www.w3.org/2000/svg" viewBox="0 0 512 512" width="512" height="512" role="img" aria-label="put_option">
  <title>put_option</title>
  <desc>Буква P + стрелка вниз</desc>
  <path d="M 407.5,112 L 402,117.5 L 401.5,358 L 402.5,362 L 401,364 L 398.5,363 L 394.5,358 L 394.5,353 L 392,352 L 377,336 L 371.5,336 L 368.5,340 L 366.5,340.5 L 366,351 L 378,362 L 378,367.5 L 394,382 L 394.5,388 L 396.5,388.5 L 407.5,400.5 L 417,400.5 L 418.5,399.5 L 418.5,394 L 430.5,383.5 L 430.5,378 L 442.5,367.5 L 442.5,362 L 454,352 L 454.5,341.5 L 449,336 L 443.5,336 L 432.5,348 L 430,349 L 430,354.5 L 423,360.5 L 421.5,363.5 L 418.5,363 L 418.5,117.5 L 413,112 Z M 75.5,116 L 62,129 L 62,134.5 L 58,137.5 L 58,339 L 62,342 L 62,347.5 L 75.5,360.5 L 257,360.5 L 260,356.5 L 265,356.5 L 270.5,351.5 L 270.5,346 L 274.5,343 L 274,128.5 L 261,116 L 256,116 L 253,112 L 83.5,112 L 80.5,116 Z M 80,132.5 L 85,132.5 L 88,128.5 L 248.5,128.5 L 262,142 L 262,178.5 L 258,181.5 L 258,211 L 262,214 L 262,334.5 L 252.5,344 L 84,344 L 78.5,338.5 L 78.5,333 L 74.5,330.5 L 74.5,142 L 78.5,139.5 L 78.5,134 Z M 189,172 L 135.5,172 L 134,173 L 134,178.5 L 130,181.5 L 130,223 L 134,226 L 134,274.5 L 130,277.5 L 130,295 L 130.5,296 L 132.5,296.5 L 139.5,304.5 L 149,304.5 L 151,301.5 L 154.5,299 L 154.5,258 L 156,256.5 L 189,256.5 L 192,252.5 L 197,252.5 L 208,240.5 L 210,240 L 210.5,234 L 214.5,231 L 214.5,218.5 L 218.5,215.5 L 218.5,213 L 214.5,210 L 214.5,197.5 L 210.5,194.5 L 210.5,189 L 208,188 L 197,176 L 192,176 Z M 156,192.5 L 184.5,192.5 L 186.5,195.5 L 194,202 L 194,222.5 L 190,225 L 190,230.5 L 188.5,232 L 183.5,232 L 180.5,236 L 156,236 L 154.5,234.5 L 154.5,194 Z" fill="#d41217" fill-rule="evenodd"/>
</svg>
