<?xml version="1.0" encoding="UTF-8"?>
<svg xmlns="http://www.w3.org/2000/svg" width="512" height="512" viewBox="0 0 512 512" role="img" aria-label="deal handshake">
  <title>deal handshake</title>
  <path d="M 96.0 285.0 L 96.0 292.0 L 99.0 296.0 L 110.0 301.0 L 120.0 308.0 L 129.0 307.0 L 136.0 298.0 L 138.0 298.0 L 146.0 305.0 L 140.0 317.0 L 140.0 323.0 L 144.0 331.0 L 153.0 338.0 L 160.0 338.0 L 163.0 342.0 L 163.0 345.0 L 168.0 351.0 L 174.0 355.0 L 186.0 359.0 L 198.0 372.0 L 205.0 375.0 L 214.0 375.0 L 222.0 384.0 L 234.0 388.0 L 245.0 386.0 L 254.0 378.0 L 256.0 378.0 L 268.0 389.0 L 273.0 390.0 L 283.0 389.0 L 290.0 385.0 L 295.0 378.0 L 304.0 378.0 L 312.0 374.0 L 320.0 367.0 L 320.0 365.0 L 323.0 362.0 L 328.0 362.0 L 333.0 359.0 L 345.0 347.0 L 348.0 342.0 L 357.0 339.0 L 362.0 334.0 L 367.0 324.0 L 368.0 318.0 L 365.0 311.0 L 375.0 302.0 L 377.0 302.0 L 383.0 308.0 L 388.0 308.0 L 408.0 297.0 L 413.0 292.0 L 413.0 284.0 L 409.0 279.0 L 388.0 235.0 L 369.0 202.0 L 365.0 192.0 L 360.0 188.0 L 354.0 188.0 L 332.0 200.0 L 330.0 202.0 L 329.0 209.0 L 322.0 210.0 L 317.0 213.0 L 313.0 213.0 L 309.0 209.0 L 295.0 201.0 L 279.0 195.0 L 263.0 196.0 L 255.0 199.0 L 237.0 211.0 L 234.0 211.0 L 231.0 208.0 L 214.0 201.0 L 206.0 201.0 L 191.0 205.0 L 186.0 208.0 L 181.0 200.0 L 158.0 188.0 L 155.0 188.0 L 146.0 195.0 L 145.0 199.0 L 132.0 221.0 L 132.0 224.0 L 126.0 232.0 L 115.0 254.0 Z M 240.0 353.0 L 245.0 356.0 L 246.0 363.0 L 241.0 371.0 L 237.0 375.0 L 234.0 375.0 L 227.0 368.0 L 231.0 364.0 L 235.0 356.0 Z M 221.0 329.0 L 230.0 337.0 L 230.0 339.0 L 221.0 352.0 L 211.0 362.0 L 201.0 356.0 L 201.0 352.0 L 215.0 333.0 Z M 201.0 310.0 L 208.0 318.0 L 208.0 320.0 L 189.0 344.0 L 185.0 346.0 L 177.0 341.0 L 174.0 336.0 L 187.0 318.0 L 194.0 311.0 Z M 173.0 301.0 L 177.0 305.0 L 177.0 309.0 L 165.0 324.0 L 159.0 325.0 L 154.0 319.0 L 156.0 314.0 L 166.0 302.0 L 170.0 300.0 Z M 144.0 284.0 L 162.0 252.0 L 177.0 221.0 L 179.0 219.0 L 188.0 220.0 L 205.0 214.0 L 211.0 214.0 L 218.0 217.0 L 219.0 221.0 L 205.0 229.0 L 200.0 234.0 L 194.0 245.0 L 197.0 252.0 L 205.0 260.0 L 211.0 263.0 L 228.0 263.0 L 237.0 260.0 L 264.0 245.0 L 267.0 245.0 L 329.0 293.0 L 353.0 316.0 L 354.0 320.0 L 345.0 329.0 L 339.0 331.0 L 327.0 314.0 L 317.0 305.0 L 313.0 298.0 L 309.0 297.0 L 304.0 299.0 L 300.0 303.0 L 300.0 308.0 L 320.0 328.0 L 332.0 335.0 L 334.0 339.0 L 329.0 346.0 L 320.0 350.0 L 292.0 318.0 L 285.0 317.0 L 279.0 324.0 L 280.0 328.0 L 287.0 334.0 L 307.0 358.0 L 307.0 360.0 L 302.0 364.0 L 296.0 362.0 L 282.0 346.0 L 275.0 334.0 L 269.0 332.0 L 262.0 337.0 L 262.0 345.0 L 283.0 370.0 L 279.0 375.0 L 273.0 376.0 L 262.0 366.0 L 262.0 356.0 L 258.0 350.0 L 250.0 342.0 L 245.0 341.0 L 243.0 339.0 L 242.0 330.0 L 229.0 317.0 L 222.0 316.0 L 211.0 301.0 L 203.0 297.0 L 193.0 297.0 L 188.0 300.0 L 186.0 295.0 L 176.0 287.0 L 166.0 287.0 L 156.0 294.0 L 147.0 288.0 Z M 209.0 244.0 L 211.0 241.0 L 226.0 231.0 L 266.0 209.0 L 282.0 210.0 L 312.0 228.0 L 320.0 226.0 L 324.0 223.0 L 335.0 221.0 L 347.0 242.0 L 359.0 269.0 L 365.0 278.0 L 369.0 290.0 L 359.0 298.0 L 355.0 299.0 L 332.0 277.0 L 312.0 264.0 L 292.0 247.0 L 285.0 243.0 L 270.0 229.0 L 266.0 229.0 L 235.0 246.0 L 223.0 250.0 L 213.0 249.0 Z M 353.0 204.0 L 357.0 207.0 L 361.0 214.0 L 362.0 219.0 L 375.0 241.0 L 382.0 258.0 L 385.0 261.0 L 393.0 279.0 L 396.0 282.0 L 396.0 286.0 L 389.0 292.0 L 386.0 291.0 L 382.0 281.0 L 368.0 258.0 L 348.0 216.0 L 345.0 213.0 L 345.0 210.0 Z M 159.0 204.0 L 169.0 211.0 L 165.0 216.0 L 124.0 291.0 L 120.0 292.0 L 114.0 289.0 L 112.0 286.0 L 118.0 278.0 L 123.0 266.0 L 142.0 234.0 L 156.0 206.0 Z" fill="#0b1fb3" fill-rule="evenodd"/>
</svg>
