<?xml version="1.0" encoding="UTF-8"?>
<svg xmlns="http://www.w3.org/2000/svg" width="512" height="512" viewBox="0 0 512 512" role="img" aria-label="block trade">
  <title>block trade</title>
  <path d="M 244.0 164.0 L 239.0 166.0 L 229.0 177.0 L 220.0 175.0 L 213.0 178.0 L 207.0 184.0 L 205.0 189.0 L 205.0 195.0 L 203.0 197.0 L 193.0 196.0 L 189.0 198.0 L 182.0 206.0 L 180.0 213.0 L 180.0 278.0 L 182.0 286.0 L 182.0 320.0 L 185.0 332.0 L 189.0 340.0 L 202.0 354.0 L 220.0 362.0 L 227.0 362.0 L 235.0 365.0 L 257.0 365.0 L 265.0 362.0 L 271.0 362.0 L 280.0 358.0 L 289.0 352.0 L 297.0 344.0 L 304.0 334.0 L 308.0 323.0 L 311.0 320.0 L 322.0 296.0 L 328.0 288.0 L 329.0 283.0 L 334.0 275.0 L 334.0 266.0 L 332.0 260.0 L 324.0 253.0 L 311.0 252.0 L 302.0 257.0 L 293.0 269.0 L 291.0 267.0 L 291.0 189.0 L 283.0 179.0 L 278.0 177.0 L 270.0 177.0 L 266.0 179.0 L 264.0 177.0 L 263.0 172.0 L 259.0 168.0 L 251.0 164.0 Z M 250.0 177.0 L 255.0 181.0 L 256.0 184.0 L 256.0 201.0 L 254.0 208.0 L 254.0 255.0 L 258.0 261.0 L 264.0 260.0 L 266.0 256.0 L 266.0 195.0 L 271.0 190.0 L 275.0 190.0 L 280.0 195.0 L 281.0 293.0 L 288.0 294.0 L 304.0 272.0 L 313.0 263.0 L 320.0 265.0 L 323.0 271.0 L 305.0 303.0 L 301.0 313.0 L 298.0 316.0 L 294.0 328.0 L 280.0 344.0 L 273.0 348.0 L 265.0 349.0 L 258.0 352.0 L 230.0 352.0 L 216.0 348.0 L 211.0 345.0 L 200.0 334.0 L 193.0 316.0 L 191.0 213.0 L 194.0 209.0 L 200.0 209.0 L 205.0 213.0 L 205.0 260.0 L 207.0 263.0 L 213.0 263.0 L 216.0 259.0 L 216.0 192.0 L 219.0 189.0 L 224.0 188.0 L 230.0 193.0 L 230.0 259.0 L 233.0 261.0 L 238.0 261.0 L 241.0 256.0 L 240.0 184.0 L 244.0 178.0 Z M 182.0 122.0 L 182.0 138.0 L 188.0 134.0 L 274.0 132.0 L 285.0 134.0 L 309.0 134.0 L 320.0 143.0 L 388.0 212.0 L 386.0 323.0 L 309.0 398.0 L 213.0 398.0 L 185.0 396.0 L 111.0 323.0 L 109.0 271.0 L 111.0 211.0 L 180.0 141.0 L 161.0 141.0 L 101.0 202.0 L 97.0 214.0 L 96.0 265.0 L 98.0 327.0 L 112.0 344.0 L 171.0 402.0 L 181.0 410.0 L 205.0 411.0 L 213.0 413.0 L 284.0 413.0 L 316.0 410.0 L 325.0 403.0 L 344.0 383.0 L 361.0 368.0 L 392.0 337.0 L 400.0 326.0 L 400.0 206.0 L 397.0 201.0 L 319.0 123.0 L 315.0 121.0 L 277.0 118.0 L 231.0 118.0 Z" fill="#0b1fb3" fill-rule="evenodd"/>
</svg>
