<svg xmlns="http://www.w3.org/2000/svg" viewBox="0 0 512 512" width="512" height="512" role="img" aria-label="margin_call_warning">
  <title>margin_call_warning</title>
  <desc>Счёт/кошелёк + восклицательный знак</desc>
  <path d="M 287,389 L 286.5,387.5 L 284,386.5 L 281.5,383 L 262.5,383 L 261.5,383.5 L 261.5,386.5 L 262.5,387.5 L 281,387.5 L 282.5,389 L 282.5,392 L 281,393.5 L 75.5,393.5 L 74,396 L 75.5,398 L 281.5,398 L 284.5,394 L 286.5,393.5 Z M 137.5,385 L 139,387.5 L 193.5,387.5 L 195,385.5 L 194.5,383.5 L 193.5,383 L 139,383 Z M 77.5,385 L 79,387.5 L 123,387.5 L 124,386.5 L 124,384 L 123,383 L 79,383 Z M 68,309 L 67,310 L 67,343.5 L 67.5,344.5 L 69.5,345 L 71.5,343.5 L 71.5,310.5 L 70.5,309 Z M 303,273.5 L 300,274.5 L 299.5,283.5 L 297,284.5 L 296.5,286 L 293,288.5 L 293,291 L 294,292 L 296,292 L 297,290 L 299.5,288.5 L 304.5,283 L 304.5,275 Z M 261,253.5 L 261,255.5 L 262,256.5 L 264.5,256.5 L 270.5,249.5 L 358.5,249.5 L 365.5,257 L 368,255.5 L 368,253.5 L 365.5,252 L 363.5,249 L 361.5,248.5 L 359,245 L 270,245 L 267.5,248.5 L 265.5,249 L 265,250.5 Z M 268.5,235.5 L 268.5,238 L 269.5,239 L 338.5,239 L 339.5,238 L 339.5,236 L 338,234.5 L 270,234.5 Z M 350,178.5 L 349,180.5 L 349,233 L 350,235 L 353,236.5 L 354,239 L 363,239 L 364,238 L 363.5,235 L 355,234.5 L 353.5,233 L 354,180 L 353,178.5 Z M 77.5,167.5 L 75.5,167.5 L 74,170 L 71,171.5 L 70.5,173.5 L 67,176 L 67,199 L 68,200 L 70.5,200 L 71.5,198.5 L 71.5,176.5 L 73.5,175.5 L 76,172 L 78.5,171 L 78.5,168.5 Z" fill="#8fb7df" fill-rule="evenodd"/>
  <path d="M 368,267 L 367,269 L 363.5,271.5 L 363.5,276 L 356.5,282 L 356.5,286.5 L 353,289 L 353,293.5 L 349.5,296 L 349.5,300.5 L 342.5,306.5 L 342.5,311 L 339,313.5 L 339,318 L 335.5,320.5 L 335.5,325 L 332,327.5 L 332,332 L 328.5,334.5 L 328.5,339 L 325,341.5 L 324.5,347 L 322.5,348 L 320.5,351 L 318,352 L 318,356.5 L 316.5,358.5 L 314.5,359 L 314.5,363.5 L 313,365.5 L 311,366 L 311,370.5 L 307,374 L 307.5,377.5 L 303.5,381 L 303.5,385.5 L 296.5,391.5 L 296.5,400 L 300,402.5 L 300,407 L 305.5,412 L 448,411.5 L 449,409.5 L 456,403.5 L 456,391.5 L 452.5,389 L 452.5,384.5 L 449,382 L 449,377.5 L 445.5,375 L 445.5,370.5 L 442,368 L 442,363.5 L 438.5,361 L 438.5,356.5 L 435,354 L 434.5,348.5 L 432,347.5 L 431,345.5 L 428,343.5 L 427.5,338 L 424.5,336.5 L 424,331 L 421,329.5 L 420.5,324 L 417,321.5 L 417,317 L 413.5,314.5 L 413.5,310 L 406.5,304 L 406.5,299.5 L 403,297 L 403,292.5 L 399.5,290 L 399.5,285.5 L 396,283 L 396,278.5 L 393.5,277 L 384.5,267 Z M 376,281 L 379.5,281 L 384.5,286 L 385,291 L 387.5,292 L 388.5,293.5 L 388.5,298 L 392,300.5 L 392,305 L 395.5,307.5 L 395.5,312 L 399,314.5 L 399,319 L 402.5,321.5 L 402.5,326 L 406,328.5 L 406,333 L 409.5,335.5 L 409.5,340 L 413,342.5 L 413,347 L 420,353 L 420,357.5 L 423.5,360 L 423.5,364.5 L 427,367 L 427,371.5 L 430.5,374 L 430.5,378.5 L 431.5,380 L 434,381 L 434.5,386.5 L 441.5,392.5 L 441.5,395.5 L 440,397 L 312.5,397.5 L 311.5,395 L 314.5,393 L 315,388 L 318,386.5 L 318,382 L 319,380.5 L 321.5,379.5 L 322,374 L 324,373 L 326.5,369.5 L 328.5,369 L 329,363.5 L 332,362 L 332.5,356.5 L 335.5,355 L 336,349.5 L 339.5,347 L 339.5,342.5 L 343,340 L 343,335.5 L 350,329.5 L 350,325 L 353.5,322.5 L 353.5,318 L 357,315.5 L 357,311 L 360.5,308.5 L 360.5,304 L 364,301.5 L 364,297 L 367.5,294.5 L 368,289.5 L 372,285 L 373.5,285 L 374.5,286 L 374,291 L 376.5,292 L 378.5,290.5 L 378.5,285.5 L 375,284 L 375,282 Z M 372,312.5 L 367,318 L 367,332.5 L 371,336.5 L 370.5,364 L 374,367.5 L 374.5,369.5 L 370.5,375 L 367.5,377 L 367,382 L 374,388.5 L 375.5,391 L 377,391 L 380,387 L 384.5,387 L 385.5,385.5 L 385,373 L 379.5,372.5 L 378,369.5 L 380,366 L 384.5,366 L 385.5,364.5 L 385.5,318 L 380.5,312.5 Z" fill="#d41217" fill-rule="evenodd"/>
  <path d="M 280.5,266.5 L 275.5,271.5 L 275.5,283.5 L 278,285 L 280.5,288.5 L 285,288.5 L 287,291.5 L 291.5,292 L 297,287 L 298,285 L 300.5,283.5 L 300.5,271 L 295.5,266.5 Z M 286.5,275 L 289,274.5 L 293,278.5 L 292.5,280.5 L 288,280.5 L 286,278 Z M 292,104 L 285,100.5 L 259.5,104 L 225,118 L 214,118 L 199.5,125.5 L 188.5,125.5 L 143.5,143 L 135.5,143 L 133,146.5 L 121.5,146.5 L 108.5,153.5 L 103.5,150 L 98,157 L 94.5,153.5 L 79.5,157 L 60.5,168.5 L 56.5,180 L 56.5,371.5 L 60.5,383 L 72,394 L 283,393 L 281,386.5 L 263,386.5 L 260,383 L 196,383 L 193,386.5 L 139.5,386.5 L 136.5,383 L 125.5,383 L 122.5,386.5 L 79.5,386.5 L 67.5,374.5 L 67.5,177 L 76.5,168 L 331,168.5 L 339,176.5 L 339,237 L 266,238.5 L 254.5,246 L 250.5,254.5 L 250.5,304 L 262.5,316.5 L 270.5,316.5 L 273,320 L 320,320.5 L 322,317.5 L 317,309 L 270,309 L 262,301 L 262,254 L 270,246 L 359,246 L 369.5,253 L 371.5,244 L 366.5,238.5 L 355,238.5 L 350,233.5 L 350,176 L 346.5,169 L 330.5,157 L 308,156 L 304.5,128 Z M 303.5,155 L 302,157.5 L 129,157.5 L 128,156.5 L 128,154.5 L 129.5,153.5 L 139.5,154 L 143.5,150.5 L 151,150.5 L 153.5,147 L 161.5,147 L 164.5,143.5 L 175.5,143.5 L 178.5,140 L 186,140 L 189,136.5 L 197.5,136 L 199.5,133 L 210.5,133 L 213.5,129.5 L 221,129.5 L 224,126 L 231.5,126 L 234.5,122.5 L 242,122.5 L 245,119 L 247.5,118.5 L 252.5,119 L 256.5,115 L 266.5,115.5 L 270.5,111.5 L 284.5,111.5 L 286.5,114.5 L 289.5,116.5 L 289.5,121 L 292,122.5 L 293.5,125 L 293,135 L 295.5,136.5 L 297,139 L 296.5,149 Z" fill="#0b1fb3" fill-rule="evenodd"/>
</svg>
