<?xml version="1.0" encoding="UTF-8"?>
<svg xmlns="http://www.w3.org/2000/svg" width="512" height="512" viewBox="0 0 512 512" role="img" aria-label="risk control shield plus">
  <title>risk control shield plus</title>
  <path d="M 257.0 129.0 L 252.0 129.0 L 247.0 132.0 L 237.0 142.0 L 219.0 156.0 L 196.0 169.0 L 178.0 176.0 L 140.0 181.0 L 136.0 186.0 L 135.0 257.0 L 139.0 294.0 L 146.0 320.0 L 160.0 351.0 L 174.0 369.0 L 193.0 387.0 L 227.0 412.0 L 251.0 426.0 L 254.0 426.0 L 267.0 419.0 L 308.0 390.0 L 324.0 376.0 L 341.0 357.0 L 353.0 338.0 L 361.0 317.0 L 365.0 301.0 L 368.0 278.0 L 368.0 264.0 L 370.0 255.0 L 369.0 183.0 L 364.0 179.0 L 354.0 179.0 L 337.0 176.0 L 307.0 166.0 L 298.0 160.0 L 290.0 157.0 L 274.0 145.0 Z M 252.0 148.0 L 255.0 148.0 L 277.0 166.0 L 300.0 180.0 L 329.0 190.0 L 336.0 190.0 L 345.0 193.0 L 354.0 193.0 L 356.0 195.0 L 356.0 233.0 L 354.0 250.0 L 354.0 269.0 L 349.0 302.0 L 342.0 326.0 L 328.0 349.0 L 307.0 371.0 L 284.0 389.0 L 254.0 408.0 L 251.0 408.0 L 243.0 402.0 L 236.0 399.0 L 204.0 376.0 L 184.0 357.0 L 169.0 336.0 L 159.0 313.0 L 156.0 298.0 L 153.0 291.0 L 149.0 247.0 L 150.0 197.0 L 152.0 194.0 L 174.0 192.0 L 201.0 183.0 L 231.0 166.0 Z M 248.0 217.0 L 242.0 223.0 L 242.0 262.0 L 240.0 264.0 L 205.0 265.0 L 200.0 270.0 L 200.0 280.0 L 202.0 283.0 L 206.0 285.0 L 241.0 286.0 L 242.0 326.0 L 246.0 331.0 L 261.0 331.0 L 265.0 326.0 L 265.0 288.0 L 269.0 285.0 L 303.0 285.0 L 309.0 280.0 L 310.0 273.0 L 308.0 267.0 L 304.0 264.0 L 267.0 264.0 L 265.0 262.0 L 264.0 222.0 L 259.0 217.0 Z" fill="#0b1fb3" fill-rule="evenodd"/>
</svg>
