<svg xmlns="http://www.w3.org/2000/svg" viewBox="0 0 512 512" width="512" height="512" role="img" aria-label="mean_reversion_band">
  <title>mean_reversion_band</title>
  <desc>Цена возвращается к средней линии между bands</desc>
  <path d="M 334,373 L 334,375.5 L 336,377 L 376.5,377 L 378.5,375.5 L 378.5,373 L 376.5,371.5 L 336,371.5 Z M 170,305 L 170,307.5 L 172,309 L 192.5,309 L 194.5,307.5 L 194.5,305 L 193,303.5 L 171.5,303.5 Z M 130.5,305 L 128.5,303.5 L 124,303.5 L 121,307.5 L 115,308 L 113.5,311 L 110,312.5 L 110,316 L 113,317 L 116,313 L 121.5,312.5 L 123.5,309 L 129.5,308.5 L 130.5,307.5 Z M 166,293 L 166,295.5 L 168,297 L 193,297 L 194.5,295.5 L 194.5,293 L 192.5,291.5 L 168,291.5 Z M 346,217 L 346,219.5 L 348,221 L 364.5,221 L 366.5,219.5 L 366.5,217 L 364.5,215.5 L 348,215.5 Z M 90,184 L 87,184 L 86,186 L 83,188 L 82,190 L 79,192 L 72.5,199.5 L 70,200.5 L 69.5,203 L 70.5,204.5 L 73.5,204.5 L 74.5,202.5 L 77.5,200.5 L 78.5,198.5 L 81.5,196.5 L 88,189 L 90.5,188 L 91,185.5 Z M 444,163.5 L 442,165 L 442,167.5 L 444,169 L 448.5,169 L 450,171 L 449.5,174.5 L 447,175.5 L 445.5,177.5 L 446,180 L 449,181 L 451.5,177 L 454.5,175.5 L 455,170 L 453.5,168 L 452,168 L 450.5,166.5 L 449.5,164 Z" fill="#8fb7df" fill-rule="evenodd"/>
  <path d="M 410,272.5 L 408,272 L 405,268 L 399.5,268 L 396.5,272 L 387.5,272 L 384.5,276 L 375.5,276 L 372.5,280 L 366.5,280.5 L 365.5,283.5 L 366.5,288 L 368.5,288.5 L 371.5,292.5 L 385,292.5 L 388,288.5 L 397,288.5 L 400,284.5 L 405,284.5 L 408,280.5 L 410,280 L 411,277 Z M 302,273.5 L 301.5,281.5 L 302.5,284 L 308.5,285 L 311.5,288.5 L 316.5,288.5 L 319.5,292.5 L 342,293 L 345,292.5 L 346.5,291 L 346.5,284.5 L 344,284 L 341,279.5 L 336,280 L 333,276 L 324,276 L 321,272 L 312.5,272 L 309.5,268 L 307,268 L 306,270 Z M 338,286 L 339.5,284.5 L 342,285 L 342,286.5 L 340.5,288 L 339,288 Z M 308,276 L 309,276 L 310.5,278 L 309,280 L 306.5,278.5 Z M 93.5,248 L 91,248 L 88,252 L 83.5,252 L 68.5,268 L 63,268 L 62,269 L 62,274 L 58,277 L 58,279.5 L 63.5,284.5 L 73,284.5 L 75,281.5 L 77,280.5 L 79,277.5 L 81,276.5 L 83,273.5 L 85,272.5 L 87,269.5 L 89,268.5 L 91,265.5 L 98.5,259 L 98.5,253.5 L 95.5,251.5 Z M 449.5,236 L 447,236 L 444,240 L 439.5,240 L 428.5,252 L 426.5,252.5 L 426.5,264 L 437,264.5 L 439,261.5 L 441,260.5 L 443,257.5 L 445,256.5 L 447,253.5 L 454.5,247 L 454.5,241.5 L 451.5,239.5 Z M 246.5,236.5 L 246,247 L 246.5,248 L 248.5,248.5 L 251.5,252.5 L 256.5,252.5 L 263.5,260.5 L 268.5,260.5 L 271.5,264.5 L 278,265 L 281,264.5 L 282.5,263 L 282.5,253.5 L 280,252 L 277,248 L 272,248 L 269,244 L 264,244 L 257,236 Z M 275.5,256 L 278,257.5 L 276.5,260 L 274,258.5 Z M 158.5,224.5 L 156,224 L 152.5,219.5 L 143.5,220 L 140.5,224 L 131.5,224 L 128.5,228 L 123.5,228 L 120.5,232 L 119.5,232 L 114,237 L 114,239.5 L 119.5,244.5 L 129,244.5 L 132,240.5 L 137,240.5 L 140,236.5 L 149,236.5 L 152,233 L 157,232.5 L 159,229.5 Z M 150,227 L 151.5,224.5 L 154,225 L 154,226.5 L 152.5,228 Z M 182,217 L 182,219.5 L 186,222 L 186,223 L 182.5,225 L 181.5,227 L 182,231 L 183.5,232.5 L 212.5,232.5 L 215.5,236.5 L 221,236.5 L 222.5,235 L 222.5,225.5 L 222,224.5 L 220,224 L 217,220 L 208,220 L 205,216 L 184,215.5 Z" fill="#08741c" fill-rule="evenodd"/>
  <path d="M 61.5,357 L 63.5,360.5 L 69,360.5 L 76,352.5 L 81,352.5 L 96,336.5 L 101,336.5 L 112,324.5 L 117,324.5 L 120,320.5 L 125,320.5 L 128,316.5 L 133,316.5 L 136,312.5 L 145,312.5 L 148,308.5 L 169,308.5 L 172,304.5 L 192.5,304.5 L 195.5,308.5 L 208.5,308.5 L 211.5,312.5 L 220.5,312.5 L 223.5,316.5 L 228.5,316.5 L 231.5,320.5 L 236.5,320.5 L 239.5,324.5 L 244.5,324.5 L 247.5,328.5 L 252.5,328.5 L 263.5,340.5 L 268.5,340.5 L 275.5,348.5 L 280.5,348.5 L 287.5,356.5 L 292.5,356.5 L 295.5,360.5 L 300.5,360.5 L 303.5,364.5 L 312.5,364.5 L 315.5,368.5 L 324.5,368.5 L 327.5,372.5 L 385,372.5 L 388,368.5 L 397,368.5 L 400,364.5 L 405,364.5 L 408,360.5 L 417,360.5 L 424,352.5 L 429,352.5 L 436,344.5 L 441,344.5 L 450,336 L 451,326 L 447,324 L 444,328 L 439.5,328 L 428.5,340 L 423.5,340 L 416.5,348 L 411.5,348 L 408.5,352 L 403.5,352 L 400.5,356 L 395.5,356 L 392.5,360 L 379.5,360 L 376.5,364 L 332,364 L 329,360 L 320,360 L 317,356 L 312,356 L 309,352 L 304,352 L 301,348 L 296,348 L 293,344 L 288,344 L 281,336 L 276,336 L 265,324 L 260,324 L 257,320 L 252,320 L 245,312 L 240,312 L 237,308 L 232,308 L 229,304 L 220,304 L 217,300 L 204,300 L 201,296 L 155.5,296 L 152.5,300 L 143.5,300 L 140.5,304 L 131.5,304 L 128.5,308 L 123.5,308 L 120.5,312 L 115.5,312 L 112.5,316 L 107.5,316 L 100.5,324 L 95.5,324 L 84.5,336 L 79.5,336 L 62.5,352.5 Z M 61.5,197 L 67,204.5 L 69.5,204.5 L 88,184.5 L 93,184.5 L 108,168.5 L 113,168.5 L 116,164.5 L 121,164.5 L 124,160.5 L 129,160.5 L 132,156.5 L 141,156.5 L 144,152.5 L 153,152.5 L 156,148.5 L 173,148.5 L 176,144.5 L 188.5,144.5 L 191.5,148.5 L 208.5,148.5 L 211.5,152.5 L 220.5,152.5 L 223.5,156.5 L 232.5,156.5 L 239.5,164.5 L 244.5,164.5 L 247.5,168.5 L 252.5,168.5 L 259.5,176.5 L 264.5,176.5 L 271.5,184.5 L 276.5,184.5 L 283.5,192.5 L 288.5,192.5 L 295.5,200.5 L 300.5,200.5 L 303.5,204.5 L 308.5,204.5 L 311.5,208.5 L 320.5,208.5 L 323.5,212.5 L 336.5,212.5 L 339.5,216.5 L 373,216.5 L 376,212.5 L 389,212.5 L 392,208.5 L 397,208.5 L 400,204.5 L 409,204.5 L 412,200.5 L 417,200.5 L 424,192.5 L 429,192.5 L 436,184.5 L 441,184.5 L 450.5,175 L 451,171.5 L 449,168 L 439.5,168 L 424.5,184 L 419.5,184 L 416.5,188 L 411.5,188 L 408.5,192 L 403.5,192 L 400.5,196 L 395.5,196 L 392.5,200 L 383.5,200 L 380.5,204 L 328,204 L 325,200 L 320,200 L 317,196 L 308,196 L 301,188 L 296,188 L 289,180 L 284,180 L 277,172 L 272,172 L 261,160 L 256,160 L 253,156 L 248,156 L 245,152 L 240,152 L 237,148 L 232,148 L 229,144 L 220,144 L 217,140 L 200,140 L 197,136 L 167.5,136 L 164.5,140 L 147.5,140 L 144.5,144 L 135.5,144 L 132.5,148 L 123.5,148 L 120.5,152 L 115.5,152 L 108.5,160 L 103.5,160 L 96.5,168 L 91.5,168 L 72.5,188 L 67.5,188 L 62.5,192.5 Z" fill="#0b1fb3" fill-rule="evenodd"/>
</svg>
