<svg xmlns="http://www.w3.org/2000/svg" viewBox="0 0 512 512" width="512" height="512" role="img" aria-label="anomaly_detection">
  <title>anomaly_detection</title>
  <desc>Ряд точек с одним выбросом</desc>
  <path d="M 219.5,272.5 L 218.5,271.5 L 216,271.5 L 215,273 L 215,277 L 214,278 L 206,278 L 205,279.5 L 205.5,281.5 L 214.5,282 L 217,278.5 L 219,278 Z M 98.5,257.5 L 96.5,259 L 96.5,270.5 L 99,272 L 101.5,275.5 L 103,275.5 L 104.5,272.5 L 101,270 L 101,259 Z" fill="#8fb7df" fill-rule="evenodd"/>
  <path d="M 397,166 L 393.5,169.5 L 389.5,169.5 L 388,172 L 381.5,177.5 L 381,194.5 L 381.5,196 L 384,197.5 L 389.5,204 L 407.5,204 L 416,195 L 416,178.5 L 407.5,169.5 L 403.5,169.5 L 400.5,166 Z" fill="#d41217" fill-rule="evenodd"/>
  <path d="M 67.5,312 L 65.5,315 L 60.5,315.5 L 59.5,316.5 L 59.5,321 L 56,324 L 56,331 L 59.5,334 L 59.5,338.5 L 61.5,339.5 L 63.5,342.5 L 68.5,343 L 71.5,346.5 L 78.5,346.5 L 85,339.5 L 86.5,339 L 88.5,336 L 90,335.5 L 92,332.5 L 93.5,332 L 94,327 L 87.5,321.5 L 86.5,315.5 L 82,315.5 L 79,312 Z M 156,308.5 L 153,312 L 149,312 L 146,315.5 L 144.5,316 L 144,331 L 147.5,334 L 147.5,338 L 148.5,339.5 L 153,339.5 L 156,343 L 163.5,343 L 166.5,339.5 L 170.5,339.5 L 175.5,334 L 175.5,317.5 L 175,316 L 173.5,315.5 L 170.5,312 L 166.5,312 L 163.5,308.5 Z M 430.5,288 L 424,295 L 422,296 L 422.5,312 L 424,312.5 L 430,319 L 448.5,319 L 449.5,317 L 453,314.5 L 453,310 L 456.5,307.5 L 456.5,300 L 453,297 L 452.5,292 L 450.5,291.5 L 447.5,288 Z M 223,288.5 L 222,290 L 222,294 L 225.5,296.5 L 225.5,301 L 228,302.5 L 229.5,305 L 231.5,306 L 232.5,308 L 234.5,309 L 239.5,314.5 L 239,317.5 L 235.5,320.5 L 236,335.5 L 237.5,336 L 244,343 L 258.5,343 L 260,340.5 L 270,331.5 L 270,323.5 L 266.5,320.5 L 266.5,316 L 264,315 L 262,312 L 258,312 L 255,308.5 L 244,308.5 L 243,307.5 L 243,303 L 240.5,301.5 L 239,299 L 237.5,298.5 L 235.5,295.5 L 229.5,290.5 L 228.5,288.5 Z M 315,281.5 L 312,285 L 308,285 L 306.5,287.5 L 303.5,289.5 L 303.5,308 L 305.5,309 L 308,312.5 L 312.5,312.5 L 315.5,316 L 322.5,316 L 334.5,304 L 334.5,289.5 L 332,288 L 330,285 L 325,284.5 L 323,281.5 Z M 196.5,247.5 L 190,254.5 L 188.5,255 L 188.5,271 L 190,271.5 L 200,282 L 204,282 L 207,278.5 L 215.5,278 L 216,273 L 218.5,271.5 L 219.5,269.5 L 219,255 L 217.5,254.5 L 211,247.5 Z M 115,244 L 112.5,247.5 L 108.5,247.5 L 102,254.5 L 100.5,255 L 100,270 L 103.5,273 L 103.5,277.5 L 104.5,278.5 L 109,278.5 L 112,282 L 119.5,282 L 122.5,278.5 L 126.5,278.5 L 128,276 L 131,274 L 131.5,257 L 131,255.5 L 128.5,254 L 123,247.5 L 119,247.5 L 116.5,244 Z M 363,227 L 358.5,227.5 L 356.5,230.5 L 351.5,231 L 351,232.5 L 344,239 L 344,253.5 L 346.5,255 L 352,261.5 L 367,261.5 L 368.5,259 L 378.5,250 L 378.5,242 L 375,239.5 L 375,235 L 373,234 L 371,231 L 366,230.5 Z" fill="#0b1fb3" fill-rule="evenodd"/>
</svg>
