<?xml version="1.0" encoding="UTF-8"?>
<svg xmlns="http://www.w3.org/2000/svg" width="512" height="512" viewBox="0 0 512 512" role="img" aria-label="volatility wave">
  <title>volatility wave</title>
  <path d="M 431.0 280.0 L 427.0 274.0 L 421.0 274.0 L 399.0 302.0 L 391.0 310.0 L 385.0 311.0 L 380.0 304.0 L 379.0 298.0 L 375.0 290.0 L 375.0 286.0 L 368.0 273.0 L 359.0 268.0 L 353.0 269.0 L 345.0 276.0 L 335.0 294.0 L 334.0 299.0 L 321.0 316.0 L 319.0 316.0 L 314.0 308.0 L 312.0 301.0 L 311.0 291.0 L 308.0 284.0 L 307.0 274.0 L 304.0 266.0 L 304.0 259.0 L 301.0 249.0 L 297.0 219.0 L 295.0 216.0 L 294.0 207.0 L 290.0 196.0 L 286.0 190.0 L 280.0 185.0 L 269.0 184.0 L 259.0 192.0 L 251.0 205.0 L 243.0 225.0 L 217.0 277.0 L 214.0 275.0 L 212.0 265.0 L 206.0 255.0 L 201.0 250.0 L 191.0 247.0 L 183.0 250.0 L 174.0 259.0 L 154.0 291.0 L 149.0 296.0 L 143.0 291.0 L 139.0 284.0 L 130.0 253.0 L 126.0 244.0 L 126.0 240.0 L 119.0 226.0 L 114.0 221.0 L 108.0 218.0 L 102.0 218.0 L 96.0 221.0 L 86.0 233.0 L 72.0 262.0 L 71.0 268.0 L 59.0 296.0 L 57.0 305.0 L 54.0 309.0 L 54.0 312.0 L 48.0 325.0 L 48.0 330.0 L 51.0 333.0 L 56.0 334.0 L 61.0 329.0 L 72.0 303.0 L 75.0 290.0 L 82.0 277.0 L 87.0 260.0 L 97.0 240.0 L 104.0 232.0 L 108.0 234.0 L 112.0 242.0 L 121.0 274.0 L 113.0 280.0 L 105.0 292.0 L 75.0 349.0 L 77.0 354.0 L 81.0 356.0 L 86.0 355.0 L 91.0 349.0 L 114.0 303.0 L 124.0 288.0 L 127.0 289.0 L 128.0 294.0 L 133.0 302.0 L 145.0 309.0 L 151.0 309.0 L 156.0 307.0 L 168.0 295.0 L 172.0 296.0 L 177.0 300.0 L 182.0 301.0 L 206.0 300.0 L 210.0 305.0 L 215.0 328.0 L 225.0 356.0 L 233.0 365.0 L 240.0 368.0 L 245.0 368.0 L 253.0 364.0 L 263.0 353.0 L 287.0 308.0 L 287.0 305.0 L 295.0 293.0 L 297.0 294.0 L 297.0 301.0 L 301.0 314.0 L 306.0 323.0 L 312.0 328.0 L 321.0 331.0 L 328.0 328.0 L 334.0 323.0 L 345.0 305.0 L 349.0 295.0 L 355.0 285.0 L 358.0 283.0 L 361.0 287.0 L 362.0 293.0 L 365.0 297.0 L 365.0 302.0 L 373.0 319.0 L 381.0 325.0 L 390.0 326.0 L 395.0 324.0 L 406.0 314.0 L 430.0 285.0 Z M 191.0 262.0 L 196.0 266.0 L 202.0 280.0 L 203.0 290.0 L 199.0 292.0 L 179.0 290.0 L 174.0 286.0 L 182.0 271.0 Z M 273.0 197.0 L 276.0 199.0 L 283.0 221.0 L 287.0 250.0 L 293.0 274.0 L 286.0 281.0 L 280.0 290.0 L 273.0 307.0 L 247.0 351.0 L 242.0 353.0 L 238.0 349.0 L 234.0 341.0 L 221.0 296.0 L 229.0 284.0 L 264.0 209.0 L 270.0 199.0 Z" fill="#0b1fb3" fill-rule="evenodd"/>
</svg>
