<svg xmlns="http://www.w3.org/2000/svg" viewBox="0 0 512 512" width="512" height="512" role="img" aria-label="volatility_smile">
  <title>volatility_smile</title>
  <desc>U-образная улыбка implied volatility</desc>
  <path d="M 240.5,381 L 241,383.5 L 242.5,384.5 L 270,384.5 L 272,382.5 L 271,379.5 L 241.5,379.5 Z M 232.5,377.5 L 233.5,380 L 237,380 L 237.5,374.5 L 238.5,373 L 274,373 L 275.5,372 L 275.5,369 L 274,368 L 238.5,368 L 235.5,372 L 233,373 Z M 142,280.5 L 141,282 L 141.5,284.5 L 143.5,285 L 145.5,288 L 147.5,289 L 149.5,292 L 151.5,293 L 153,295.5 L 160.5,302 L 161.5,304 L 164.5,304 L 165,300.5 L 162,299 L 160.5,296 L 159,295.5 L 156.5,292 L 154.5,291.5 L 153,288.5 L 150.5,287.5 L 149,284.5 L 147,284 L 145,280.5 Z M 379,270 L 378,269 L 375.5,269 L 374,271.5 L 372,272.5 L 370.5,275 L 368,276.5 L 366.5,279 L 364,280.5 L 362.5,283 L 360.5,284 L 350,295.5 L 347.5,296.5 L 347.5,299.5 L 349,300.5 L 351.5,300 L 352.5,297.5 L 354.5,296.5 L 356,294 L 358.5,292.5 L 368.5,281.5 L 370.5,281 L 371.5,278.5 L 373.5,277.5 L 376,274 L 379,272.5 Z M 88,212 L 85,212 L 83.5,214.5 L 84,245.5 L 86,247 L 88,246.5 L 89,244.5 L 89,214 Z M 431.5,204 L 429,204 L 423.5,210 L 423.5,233.5 L 425.5,235.5 L 427,235.5 L 428.5,234 L 428.5,210 L 432.5,207.5 Z M 83.5,204 L 78,204 L 76.5,206.5 L 72.5,209.5 L 72.5,238 L 73.5,239 L 76.5,239 L 77.5,237.5 L 77,211 L 78.5,209 L 83,209 L 85,206 Z M 421,150.5 L 420,151.5 L 420,154.5 L 424,157 L 424,160 L 420,163.5 L 419.5,167.5 L 420.5,170 L 423.5,170.5 L 425,168.5 L 425,164 L 428.5,161.5 L 429,158 L 428,155 L 426,154.5 L 424,151 Z" fill="#8fb7df" fill-rule="evenodd"/>
  <path d="M 236.5,375 L 237,379 L 239,380.5 L 273.5,380.5 L 276,377.5 L 275.5,373.5 L 274,372 L 238.5,372 Z M 337,363 L 334.5,360.5 L 330.5,360.5 L 327,364.5 L 314.5,364.5 L 311.5,368.5 L 308,368.5 L 305,364.5 L 303,364.5 L 301.5,367 L 298,369.5 L 298,375 L 299.5,376.5 L 320,376.5 L 323,372.5 L 331.5,372.5 L 333,370 L 336.5,367.5 Z M 172,362 L 172,367.5 L 174.5,369 L 177,372.5 L 185.5,372.5 L 189,376.5 L 209,376.5 L 211,374 L 210.5,369.5 L 207.5,367.5 L 206,364.5 L 203.5,364.5 L 200.5,368.5 L 197.5,368.5 L 194,364.5 L 181.5,364.5 L 178,360.5 L 174,360.5 Z M 393.5,327 L 388.5,326 L 383,326.5 L 382,328.5 L 379,330.5 L 378,332.5 L 375,334.5 L 374.5,336 L 371.5,338 L 365,345.5 L 359.5,346 L 359,352 L 360.5,353.5 L 369.5,353.5 L 372,350 L 377.5,349.5 L 379,347 L 381,346 L 382.5,343.5 L 394,333 Z M 115,327 L 115,333.5 L 117,334.5 L 119,337.5 L 121,338.5 L 123,341.5 L 130,347.5 L 131,349.5 L 136.5,350 L 139,353.5 L 148,353.5 L 149.5,352.5 L 149.5,346.5 L 148.5,345.5 L 143.5,345.5 L 141.5,342.5 L 139.5,341.5 L 137.5,338.5 L 130.5,332.5 L 130.5,327.5 L 128.5,326.5 L 125.5,322.5 L 123.5,322.5 L 121,326 Z M 427.5,269.5 L 422,269 L 418.5,273 L 416.5,274 L 416.5,279 L 413,281 L 412.5,286.5 L 411.5,288 L 409,289 L 409,293.5 L 405,297 L 405,306.5 L 406,307.5 L 411,308 L 417,302.5 L 417,297.5 L 420.5,295.5 L 420.5,290.5 L 424.5,287.5 L 424.5,278.5 L 428.5,275.5 L 428.5,271 Z M 86,269 L 84,271 L 84,283 L 88,286.5 L 88,291.5 L 91.5,293.5 L 91.5,298 L 95.5,301.5 L 96,307 L 97.5,308 L 101.5,308 L 107.5,303 L 107.5,300.5 L 100,294.5 L 100,286 L 99,284.5 L 96.5,283.5 L 96,277.5 L 92.5,275.5 L 92,270 L 90.5,269 Z M 434.5,208 L 429.5,208 L 428,209 L 428,233 L 424,236 L 423.5,238.5 L 424,241.5 L 426.5,243 L 429.5,247 L 431.5,246.5 L 433,243.5 L 436,241.5 L 436,209.5 Z M 78,208 L 76.5,209.5 L 76.5,245 L 77.5,246.5 L 82.5,247 L 85,244 L 85,210.5 L 83,208 Z M 57,142.5 L 61.5,149.5 L 61.5,154.5 L 76.5,164 L 76.5,169 L 84.5,180.5 L 84,187.5 L 92,199 L 92,204 L 95.5,206 L 95.5,211 L 99.5,214 L 99.5,219 L 103.5,222 L 103.5,227 L 111,233 L 115,246 L 122,251.5 L 122.5,257 L 130,263.5 L 130,268.5 L 169,307.5 L 174.5,308 L 176.5,315 L 186,315.5 L 196,323 L 201,323 L 204.5,327 L 212.5,327 L 215.5,330.5 L 231.5,330.5 L 234.5,334.5 L 278,334.5 L 281.5,330.5 L 293.5,330.5 L 296,327 L 304.5,327 L 307.5,323 L 312.5,323 L 315,319.5 L 327.5,315.5 L 338,304 L 343,304 L 378.5,268.5 L 379,263 L 390,253.5 L 390,248.5 L 397.5,242 L 402,228.5 L 409,223 L 413,210 L 416.5,208 L 417,202 L 420.5,200 L 424.5,187 L 428.5,184 L 428,176.5 L 432,173.5 L 436,160.5 L 442,159 L 455.5,144.5 L 451,132.5 L 446,128 L 429,128 L 420.5,136.5 L 420,149.5 L 428,157 L 428,160.5 L 424,163.5 L 424,168.5 L 420.5,170.5 L 420,176.5 L 416.5,178.5 L 416.5,183.5 L 408.5,194.5 L 408.5,203 L 401.5,208.5 L 401,214.5 L 393.5,224.5 L 393.5,229.5 L 386,235.5 L 386,240.5 L 378.5,247 L 378,252.5 L 359,270.5 L 359,275.5 L 354,280.5 L 349,280.5 L 331,299.5 L 321.5,300 L 320,307 L 315,307 L 304.5,315 L 299,311 L 293,318.5 L 281,318.5 L 277.5,322.5 L 243,322.5 L 239.5,318.5 L 235.5,322.5 L 227.5,322.5 L 224,318.5 L 212,318.5 L 209.5,315 L 189,307 L 186,299.5 L 177.5,299.5 L 155.5,276.5 L 150,276 L 149.5,270 L 138.5,260.5 L 138,255 L 127,245 L 126.5,239.5 L 119.5,234 L 119,228 L 115.5,226 L 111.5,213 L 108,211 L 107.5,205.5 L 100,195 L 100,190 L 92,179 L 92.5,175 L 88.5,172.5 L 88.5,167 L 84.5,164 L 84.5,157 L 92.5,146 L 92,136.5 L 83.5,128 L 66.5,128 L 61.5,132.5 L 61,138.5 Z" fill="#0b1fb3" fill-rule="evenodd"/>
</svg>
