<?xml version="1.0" encoding="UTF-8"?>
<svg xmlns="http://www.w3.org/2000/svg" width="512" height="512" viewBox="0 0 512 512" role="img" aria-label="sentiment smile">
  <title>sentiment smile</title>
  <path d="M 252.0 141.0 L 228.0 145.0 L 202.0 153.0 L 184.0 163.0 L 170.0 173.0 L 152.0 190.0 L 135.0 216.0 L 125.0 239.0 L 121.0 256.0 L 121.0 263.0 L 119.0 267.0 L 119.0 290.0 L 122.0 309.0 L 125.0 315.0 L 125.0 321.0 L 132.0 337.0 L 142.0 354.0 L 160.0 375.0 L 172.0 385.0 L 196.0 399.0 L 199.0 399.0 L 221.0 408.0 L 256.0 414.0 L 285.0 409.0 L 310.0 399.0 L 313.0 399.0 L 340.0 382.0 L 362.0 361.0 L 378.0 336.0 L 388.0 309.0 L 391.0 286.0 L 391.0 269.0 L 388.0 244.0 L 375.0 210.0 L 363.0 191.0 L 345.0 173.0 L 319.0 156.0 L 302.0 149.0 L 273.0 142.0 Z M 252.0 158.0 L 274.0 160.0 L 288.0 163.0 L 307.0 170.0 L 333.0 185.0 L 352.0 204.0 L 362.0 221.0 L 372.0 253.0 L 372.0 262.0 L 374.0 270.0 L 373.0 294.0 L 371.0 307.0 L 367.0 319.0 L 358.0 337.0 L 339.0 361.0 L 325.0 372.0 L 295.0 388.0 L 284.0 392.0 L 265.0 394.0 L 259.0 396.0 L 254.0 396.0 L 250.0 394.0 L 237.0 394.0 L 218.0 389.0 L 194.0 378.0 L 177.0 367.0 L 162.0 353.0 L 152.0 339.0 L 143.0 321.0 L 136.0 294.0 L 136.0 264.0 L 139.0 258.0 L 139.0 251.0 L 146.0 229.0 L 156.0 212.0 L 164.0 202.0 L 181.0 185.0 L 197.0 174.0 L 227.0 162.0 Z M 186.0 305.0 L 186.0 309.0 L 192.0 319.0 L 208.0 336.0 L 220.0 343.0 L 232.0 347.0 L 250.0 350.0 L 277.0 347.0 L 295.0 340.0 L 315.0 324.0 L 325.0 309.0 L 325.0 305.0 L 320.0 299.0 L 312.0 298.0 L 309.0 300.0 L 304.0 309.0 L 291.0 322.0 L 276.0 329.0 L 251.0 332.0 L 236.0 329.0 L 220.0 322.0 L 207.0 310.0 L 203.0 302.0 L 198.0 298.0 L 191.0 299.0 Z M 296.0 227.0 L 287.0 234.0 L 283.0 245.0 L 287.0 253.0 L 292.0 257.0 L 297.0 259.0 L 304.0 259.0 L 313.0 253.0 L 317.0 244.0 L 314.0 235.0 L 309.0 230.0 L 304.0 227.0 Z M 206.0 227.0 L 196.0 234.0 L 193.0 241.0 L 193.0 246.0 L 196.0 252.0 L 201.0 257.0 L 214.0 259.0 L 219.0 257.0 L 224.0 252.0 L 227.0 244.0 L 224.0 235.0 L 219.0 230.0 L 214.0 227.0 Z" fill="#0b1fb3" fill-rule="evenodd"/>
</svg>
