<svg xmlns="http://www.w3.org/2000/svg" viewBox="0 0 512 512" width="512" height="512" role="img" aria-label="rollover_contract">
  <title>rollover_contract</title>
  <desc>Два контракта + стрелка перехода на следующий срок</desc>
  <path d="M 163.5,362.5 L 163.5,364.5 L 164.5,365.5 L 186.5,365.5 L 187.5,364.5 L 187,361.5 L 164.5,361.5 Z M 73,362 L 73,364.5 L 74,365.5 L 119.5,365.5 L 120.5,364.5 L 120.5,362.5 L 119.5,361.5 Z M 446.5,349 L 444,348 L 441,351.5 L 325.5,351.5 L 325,354.5 L 326,355.5 L 441.5,355.5 L 444.5,352 L 446.5,351.5 Z M 338,309.5 L 338.5,314.5 L 340.5,315 L 343,318.5 L 374.5,318.5 L 376.5,315.5 L 379.5,314 L 379,311.5 L 376.5,311 L 373.5,314.5 L 343.5,314.5 L 342.5,313.5 L 342.5,309 L 341.5,308 L 339,308 Z M 86,312.5 L 86,314 L 89,315.5 L 91,318.5 L 129.5,318.5 L 130.5,317.5 L 130.5,315.5 L 129.5,314.5 L 91,314.5 L 90.5,312.5 L 94,309.5 L 92.5,307.5 L 91,307.5 L 89.5,310 L 87,311 Z M 444,287.5 L 442,290 L 442,343 L 443.5,345 L 445,345 L 446.5,344 L 446.5,288.5 Z M 275,278 L 272,277.5 L 263,287.5 L 258.5,287.5 L 257.5,289.5 L 258,291 L 264,291.5 L 264.5,290 L 267,288.5 L 273,281.5 L 275,281 Z M 338,283 L 340,285 L 342.5,283.5 L 343,278.5 L 414,278.5 L 416,277.5 L 416,275 L 415,274 L 343,274 L 341.5,276.5 L 338,279 Z M 86,283 L 88,285 L 90.5,283.5 L 91,278.5 L 165.5,278.5 L 167.5,277 L 167.5,275 L 166,274 L 91,274 L 89.5,276.5 L 86,279 Z M 454,264 L 452.5,265 L 452,306 L 453,308 L 455,308.5 L 456.5,307.5 L 456.5,265 Z M 265,258.5 L 264,257.5 L 262,257.5 L 260,260.5 L 229,260.5 L 226.5,264 L 224,265 L 224,270.5 L 225.5,271.5 L 228,270.5 L 228,266 L 229,265 L 263.5,264.5 L 265,263 Z M 86,248.5 L 86.5,251 L 88.5,251.5 L 91.5,255 L 169,255 L 171,253 L 170.5,251 L 169.5,250.5 L 91.5,250.5 L 89,247 L 87.5,247 Z M 338,248.5 L 338.5,251 L 340.5,251.5 L 343.5,255 L 417.5,255 L 419.5,253.5 L 419.5,251.5 L 418.5,250.5 L 343.5,251 L 342.5,250 L 342.5,248.5 L 344,247.5 L 391.5,247.5 L 392.5,246.5 L 392.5,244.5 L 390.5,243.5 L 344,243.5 Z M 444,227 L 442,229.5 L 442,255.5 L 443.5,258 L 445.5,258 L 446.5,257 L 446.5,228.5 L 446,227.5 Z M 198,221.5 L 197,220.5 L 194.5,220.5 L 193.5,222 L 194,349 L 193,351 L 71.5,351.5 L 69,348 L 67,348 L 66,349 L 66.5,352 L 68,352 L 71,355.5 L 193,355.5 L 195.5,352 L 197,352 L 198,351 Z M 345,218 L 345,220 L 346,221 L 368,221 L 369,220 L 369,218 L 368,217 L 346,217 Z M 338,216 L 339,217.5 L 341.5,217.5 L 342.5,216 L 342.5,212 L 343.5,211 L 368,211 L 369,210 L 369,208 L 368,207 L 343,207 L 340.5,210.5 L 338.5,211 Z M 174.5,193.5 L 173.5,194.5 L 173.5,196.5 L 175.5,197.5 L 177.5,200.5 L 179,201 L 180.5,203.5 L 187,209 L 188,211 L 190.5,211 L 191,207.5 L 189,207 L 187.5,204.5 L 177.5,195.5 L 176.5,193.5 Z M 182,186.5 L 180,188.5 L 180.5,190.5 L 182.5,191 L 184,193.5 L 186,194.5 L 187.5,197 L 189,197.5 L 190.5,200 L 192.5,201 L 194,203.5 L 204,212.5 L 203.5,353.5 L 204.5,355 L 206.5,355.5 L 208,354 L 208,211.5 L 206,210.5 L 204.5,208 L 202.5,207 L 201,204.5 L 199,203.5 L 197.5,201 L 195.5,200 L 194,197.5 L 184.5,189 L 183.5,187 Z M 416,170 L 415.5,173.5 L 417.5,174 L 419,176.5 L 429,185.5 L 430,187.5 L 432,187.5 L 433,186.5 L 433,184 L 431,183.5 L 429.5,181 L 419.5,172 L 418.5,170 Z M 156.5,170 L 152,170 L 150,171.5 L 150,210 L 151,211 L 153,211 L 154.5,208.5 L 154,175.5 L 157.5,172.5 Z M 321.5,160 L 319,160 L 318,162 L 314.5,164.5 L 314.5,347.5 L 315.5,348.5 L 318,348.5 L 319,347 L 318.5,166 L 320,164 L 322,163.5 Z M 305.5,160 L 304.5,161 L 304.5,351 L 305.5,352 L 307.5,352 L 309,350 L 309,162 L 307.5,160 Z M 141,160 L 140,161 L 140,213.5 L 142.5,214.5 L 143.5,217 L 145.5,218 L 147.5,221 L 150,221 L 151,220 L 151,218 L 148.5,217 L 147,214.5 L 144,212.5 L 144,161 L 143,160 Z M 153.5,157 L 153.5,160 L 156,161 L 157,163 L 159,164 L 168,174 L 170,174 L 171,173 L 171,171 L 169,170 L 167,167 L 165.5,166.5 L 163.5,163.5 L 157.5,158.5 L 156.5,156.5 Z" fill="#8fb7df" fill-rule="evenodd"/>
  <path d="M 255,244 L 254,245.5 L 254.5,253.5 L 256.5,254.5 L 259,258 L 263,258 L 264.5,259.5 L 264.5,262.5 L 263.5,264 L 229.5,264 L 227.5,265.5 L 227.5,270 L 229,271.5 L 263,271 L 264.5,272.5 L 264,274 L 254.5,282 L 254,285.5 L 255.5,288 L 263.5,288 L 273,278 L 277,278 L 285,270 L 285.5,268 L 285,265.5 L 270,250.5 L 266,250.5 L 264,247.5 L 259.5,247.5 L 257,244 Z M 67.5,150 L 56,161.5 L 56,354 L 64,362 L 68,362 L 70.5,365.5 L 73,365 L 75,362 L 118.5,362 L 121.5,365.5 L 162.5,365.5 L 165.5,362 L 186,362 L 188,365 L 192.5,365.5 L 195.5,362 L 200,362 L 204.5,357 L 204,211 L 181,189 L 180.5,184 L 154,159 L 154,154.5 L 149.5,150 Z M 152,170.5 L 155.5,170.5 L 157,172 L 157,176.5 L 159,177.5 L 185,204 L 190.5,208.5 L 189.5,210.5 L 152,210.5 L 150.5,209 L 150.5,172 Z M 71.5,160.5 L 142,160.5 L 143.5,162 L 143.5,213 L 151.5,221 L 196,221 L 197.5,222.5 L 197.5,349.5 L 192.5,355 L 71.5,355 L 66.5,350 L 66.5,165.5 Z M 89.5,312.5 L 90.5,315 L 128.5,315.5 L 130.5,314 L 130.5,312 L 126,308 L 94.5,308 Z M 89.5,283 L 91.5,285 L 165.5,285 L 170.5,281 L 171,279 L 170,277.5 L 91.5,277.5 L 89.5,279.5 Z M 89.5,246 L 89.5,249.5 L 90.5,251 L 169.5,251.5 L 171,250 L 170.5,248 L 168.5,247 L 166.5,244 L 164.5,244 L 162.5,247 L 158.5,247 L 156,244 L 91,244 Z M 89.5,212.5 L 89.5,216 L 91,217.5 L 119.5,217.5 L 120.5,216 L 120.5,212 L 119,210.5 L 91,210.5 Z M 312.5,153.5 L 308,158 L 308,354 L 311.5,356.5 L 311.5,361 L 312.5,362 L 320,362 L 323,365.5 L 441.5,365.5 L 444.5,362 L 448.5,362 L 453,357.5 L 453.5,352.5 L 456.5,350.5 L 456.5,309.5 L 453,306.5 L 453,266 L 456.5,263 L 456.5,215 L 446.5,206 L 446,201 L 416,172 L 416,167.5 L 398,150 L 384,150 L 381,146.5 L 373.5,146.5 L 370.5,150 L 319.5,150 L 316.5,153.5 Z M 403.5,170.5 L 404.5,170.5 L 406.5,173.5 L 415.5,181.5 L 415.5,186 L 418,187.5 L 419.5,190 L 421.5,191 L 422.5,193 L 425,194.5 L 426,196.5 L 428,197.5 L 429.5,200 L 439,208.5 L 438,210.5 L 424.5,210.5 L 421.5,207 L 420,207 L 417.5,210.5 L 404,210.5 L 402.5,209 L 402.5,171.5 Z M 320,160.5 L 391,160.5 L 392.5,163 L 392,213 L 400.5,221 L 444.5,221 L 446,222.5 L 446,350 L 441,355 L 327,355 L 324,351.5 L 320,351.5 L 315,346.5 L 315,165.5 Z M 341.5,309.5 L 341.5,313 L 343,315 L 374.5,315 L 376,313 L 376,310 L 374.5,308 L 342.5,308 Z M 341.5,279.5 L 341.5,283 L 343.5,285 L 417.5,285 L 419.5,283.5 L 419.5,279 L 418,277.5 L 343.5,277.5 Z M 419.5,248.5 L 414.5,244 L 393.5,244 L 391,247 L 343.5,247 L 342,248 L 341.5,250 L 343,251.5 L 418,251.5 L 419,251 Z M 341.5,212.5 L 341.5,216 L 343,217.5 L 371.5,217.5 L 372.5,216 L 372.5,212 L 371,210.5 L 343,210.5 Z" fill="#0b1fb3" fill-rule="evenodd"/>
</svg>
