<svg xmlns="http://www.w3.org/2000/svg" viewBox="0 0 512 512" width="512" height="512" role="img" aria-label="slippage_gap">
  <title>slippage_gap</title>
  <desc>Ордер или стрелка, перескакивающая через ценовой гэп</desc>
  <path d="M 71.5,394 L 72.5,396.5 L 90,396.5 L 91,394.5 L 89.5,392 L 73,392 Z M 103.5,362.5 L 101,364 L 101,380.5 L 103,382 L 105,381.5 L 106,379.5 L 106,365 L 105.5,363.5 Z M 91,341.5 L 90,340.5 L 87.5,340.5 L 85,344 L 73.5,344 L 71.5,346.5 L 73.5,349 L 85,349 L 88.5,345 L 91,344 Z M 123.5,293.5 L 123.5,296.5 L 125.5,297.5 L 140.5,297.5 L 142.5,295.5 L 141,292.5 L 125,292.5 Z M 152.5,281 L 153.5,282.5 L 156,282.5 L 158.5,279 L 174,279 L 175.5,277.5 L 175.5,275.5 L 174,274 L 158,274 L 155,278 L 152.5,279 Z M 156.5,264.5 L 156.5,266.5 L 158,268 L 177.5,268 L 180,271.5 L 182,271.5 L 183,270.5 L 182.5,267 L 180,266.5 L 177.5,263 L 158,263 Z M 404,168.5 L 403,167.5 L 400.5,167.5 L 399.5,169.5 L 396.5,171.5 L 395.5,174 L 393,175 L 392,177.5 L 390.5,178.5 L 338,178.5 L 337,179.5 L 337,182 L 338,183 L 391.5,183 L 394,179.5 L 396,179 L 397.5,176 L 399.5,175.5 L 401.5,172 L 404,171 Z M 340.5,169 L 341.5,172 L 384.5,172 L 385.5,171 L 385.5,168.5 L 384.5,167.5 L 341.5,167.5 Z" fill="#8fb7df" fill-rule="evenodd"/>
  <path d="M 260,231.5 L 257.5,230 L 255,226.5 L 250.5,226.5 L 247.5,230 L 245.5,230.5 L 245,236 L 241.5,238.5 L 241.5,243 L 237.5,246.5 L 237.5,254.5 L 228.5,263.5 L 194.5,263.5 L 193.5,265.5 L 189.5,269 L 190,274 L 192,275 L 194.5,278.5 L 237,278.5 L 238,276.5 L 241.5,274 L 242,268.5 L 245.5,266.5 L 245.5,261.5 L 249,259 L 249,254.5 L 252.5,252 L 253,246.5 L 256.5,244.5 L 256.5,239.5 L 260.5,236 Z M 326.5,172.5 L 325.5,171.5 L 320.5,171 L 317.5,167.5 L 283.5,167.5 L 280.5,171 L 275,171.5 L 274.5,177 L 271,179.5 L 271,184 L 269.5,186 L 267.5,186.5 L 267,192 L 263.5,194.5 L 263.5,199 L 262.5,200.5 L 260,201.5 L 260,206 L 256,209 L 256,211.5 L 259,213 L 261,216 L 270,216 L 271.5,214 L 271.5,209.5 L 275,207.5 L 275,202.5 L 278.5,200.5 L 278.5,195.5 L 282.5,192 L 282.5,187.5 L 287.5,183 L 321,183 L 324.5,179 L 326,178.5 Z" fill="#d41217" fill-rule="evenodd"/>
  <path d="M 178.5,267.5 L 158.5,267 L 156.5,264 L 153.5,262 L 153,256.5 L 151,256 L 147.5,252 L 143.5,252 L 140.5,248.5 L 125,248.5 L 122.5,252 L 117,252.5 L 116,254.5 L 112.5,257 L 112.5,265 L 108.5,268.5 L 108.5,273 L 112.5,277 L 112,283.5 L 112.5,285 L 116,287.5 L 116,295 L 112.5,297.5 L 112.5,302 L 108.5,305.5 L 108.5,313.5 L 99.5,322.5 L 97.5,323.5 L 97.5,328.5 L 94,330.5 L 94,335.5 L 90,338.5 L 90.5,342 L 89.5,344 L 88,344.5 L 85,348 L 69.5,348 L 63,355.5 L 61,356 L 61,360.5 L 57,364 L 57,376.5 L 60.5,379 L 61,384.5 L 63,385.5 L 69,392.5 L 92.5,393 L 99.5,385.5 L 101.5,384.5 L 102,361 L 98,357.5 L 98,353 L 95.5,352 L 94.5,349.5 L 101.5,344 L 101.5,339.5 L 103,337.5 L 105.5,336.5 L 105.5,331.5 L 108,330 L 109.5,327.5 L 109,321 L 114,315.5 L 116,315 L 116.5,309.5 L 120.5,306 L 120.5,301.5 L 124,299.5 L 124,294.5 L 125,293.5 L 144,293.5 L 151,286 L 153.5,284.5 L 153.5,280 L 156.5,278 L 158.5,275 L 177.5,275 L 179.5,272.5 Z M 404,165 L 401.5,163.5 L 399.5,160.5 L 397.5,160 L 394.5,164 L 390,164 L 388.5,166.5 L 386.5,167.5 L 383,171.5 L 338,171.5 L 337,173 L 337,177.5 L 338,179 L 391.5,179 L 397.5,172 L 404,167 Z M 415,120 L 414.5,125.5 L 410.5,129 L 411,147 L 407,150.5 L 407.5,156.5 L 409,157 L 412.5,161 L 414,160.5 L 416.5,157 L 420,157 L 424,161 L 443.5,160.5 L 444.5,158.5 L 447.5,156.5 L 453.5,149.5 L 455.5,148.5 L 455.5,128.5 L 453,127 L 443,116 L 423.5,116 L 420.5,119.5 Z" fill="#0b1fb3" fill-rule="evenodd"/>
</svg>
