<svg xmlns="http://www.w3.org/2000/svg" viewBox="0 0 512 512" width="512" height="512" role="img" aria-label="expiration_calendar">
  <title>expiration_calendar</title>
  <desc>Календарь + отметка даты экспирации</desc>
  <path d="M 372.5,450.5 L 372.5,453 L 374.5,454.5 L 396,454.5 L 398,453 L 398,450.5 L 396.5,449 L 374,449 Z M 389,428.5 L 386,428.5 L 384,432 L 382,433 L 380,436 L 376.5,438 L 377,441.5 L 392.5,442 L 394,440.5 L 393.5,437.5 L 389.5,435 L 390,430 Z M 327.5,420 L 326.5,421 L 326.5,424 L 329.5,425.5 L 331.5,429 L 333.5,429.5 L 335.5,433 L 337.5,433.5 L 339.5,437 L 343,439 L 344,441.5 L 347,442 L 348.5,440 L 348,437.5 L 345.5,436.5 L 343.5,433 L 341.5,432.5 L 339,428.5 L 337,428 L 335,424.5 L 331.5,422.5 L 331,420.5 Z M 389,391.5 L 389,395 L 391.5,396 L 394,400 L 396,400.5 L 398,404 L 400,404.5 L 402,408 L 404,408.5 L 406,412 L 409.5,414 L 410,420 L 412.5,421 L 414,424 L 417,425.5 L 419.5,429.5 L 421.5,429.5 L 424.5,425.5 L 426.5,425 L 429,421 L 431.5,420 L 431.5,417 L 428.5,415.5 L 426.5,412 L 423.5,411.5 L 422,413 L 422,415.5 L 423,416.5 L 425,416.5 L 426,417.5 L 426,419.5 L 420,424 L 418,420.5 L 415,418.5 L 415,413 L 412.5,412 L 410,408 L 408,407.5 L 405.5,403.5 L 403.5,403 L 401.5,399.5 L 399.5,399 L 397.5,395.5 L 394,393.5 L 393,391 Z M 431,374.5 L 430.5,378 L 434,379.5 L 435,382 L 434,383 L 427,383 L 426.5,386.5 L 428.5,388 L 433.5,388 L 435,384.5 L 437,383.5 L 439,385 L 439,391 L 441,392 L 443,391.5 L 444,390.5 L 443.5,380 L 442,378.5 L 436.5,378 L 434,374 Z M 317,370 L 314,371.5 L 313.5,374 L 313.5,392 L 314,394.5 L 315.5,396 L 318.5,395.5 L 319.5,393.5 L 319.5,372.5 Z M 390,349.5 L 388.5,352 L 388.5,377 L 390,379 L 392,379.5 L 394,378 L 394.5,376 L 394.5,353 L 393.5,350 Z M 372.5,325.5 L 372.5,328.5 L 373.5,329.5 L 379,329.5 L 382,333.5 L 384,333.5 L 387.5,329.5 L 401,329.5 L 402,328.5 L 402,325.5 L 399.5,324 L 375,324 Z M 310.5,304 L 310,307 L 312,308.5 L 321,308.5 L 322,309.5 L 322,311 L 320,312.5 L 312.5,312 L 310,313.5 L 310,316 L 313,317.5 L 315.5,321 L 317.5,321 L 321,317 L 325.5,317 L 327,316 L 327.5,305.5 L 326,304 Z M 132,304 L 130.5,308.5 L 130.5,314.5 L 131.5,316.5 L 135,318 L 136.5,321 L 142.5,321 L 145.5,317 L 148,316 L 148.5,305.5 L 147.5,304 Z M 137,309 L 138.5,309 L 140.5,311.5 L 140,314.5 L 138,316 L 136.5,315.5 L 135.5,313.5 L 135.5,311 Z M 122,299.5 L 119,300 L 118,303 L 118,322 L 118.5,324 L 121,325.5 L 122.5,325 L 124,322.5 L 124,302 Z M 259.5,295.5 L 257,295.5 L 255.5,297 L 255.5,302.5 L 253,303.5 L 251,307 L 248,308.5 L 246.5,311.5 L 243.5,312.5 L 243,315.5 L 244,317 L 247,317 L 248.5,314.5 L 256.5,307.5 L 257,305.5 L 261,303 L 261,297 Z M 332,291 L 330.5,292.5 L 330.5,295 L 333.5,296.5 L 335,298.5 L 334.5,315 L 335.5,316.5 L 338.5,317 L 340,315.5 L 340,297 L 336,294 L 334.5,291 Z M 338,224.5 L 335.5,225 L 334.5,226.5 L 335,243 L 333.5,245 L 330.5,246.5 L 330.5,249 L 331.5,250.5 L 334.5,250.5 L 336,247.5 L 340,245 L 340,226 Z M 315.5,225 L 314,227 L 314,241 L 315,242 L 317.5,242 L 319,239 L 321.5,238 L 324,242 L 326.5,242 L 328,239.5 L 327,225.5 L 325,224.5 Z M 222.5,226 L 222.5,240.5 L 224,242 L 239.5,241.5 L 240,226 L 239,225 L 224.5,224.5 Z M 131.5,225.5 L 130.5,228.5 L 130.5,239.5 L 132,242 L 134.5,242 L 138,238 L 148,237.5 L 148.5,234.5 L 144.5,231.5 L 145.5,229.5 L 148.5,228 L 148,225 L 133.5,224.5 Z M 136,230.5 L 138.5,229.5 L 139.5,232 L 138.5,233 L 136.5,233 Z M 210.5,221 L 209.5,224.5 L 210,245 L 212.5,246 L 215.5,250.5 L 218.5,250.5 L 219.5,247 L 215,243.5 L 215.5,223 L 213.5,220.5 Z M 120,220.5 L 119,221 L 118,224 L 118,243 L 118.5,245 L 121,246 L 124,250.5 L 127,250.5 L 128,247 L 123.5,243.5 L 124,223 L 123,221 Z M 244.5,212 L 243,213.5 L 243,215.5 L 247.5,219 L 247.5,243.5 L 246.5,245 L 243.5,246 L 243,249 L 244.5,250.5 L 247,250.5 L 249,247 L 251.5,246 L 253,243.5 L 253,219 L 251.5,216.5 L 250,216.5 L 247,212 Z M 236,210.5 L 234.5,208 L 228.5,208 L 225.5,212 L 216,212 L 214,214.5 L 216.5,217.5 L 225.5,217.5 L 228.5,213.5 L 235,213 Z M 74.5,170.5 L 72.5,172 L 72.5,382 L 74,383.5 L 75.5,383.5 L 77,386.5 L 79.5,388 L 82.5,392 L 85,392 L 86.5,390 L 86,387.5 L 83.5,386.5 L 81.5,383.5 L 78,381 L 78,172.5 L 77,171 Z M 247.5,151.5 L 247.5,153.5 L 249,155 L 330,155 L 331.5,153.5 L 331.5,151 L 329.5,149.5 L 249.5,149.5 Z M 255.5,125 L 253.5,125 L 252,126.5 L 251.5,131.5 L 250,133 L 245.5,133.5 L 244.5,132.5 L 244.5,131 L 248,128.5 L 248,126 L 246.5,124.5 L 244,125 L 243,127.5 L 239,130 L 239,132.5 L 243,134.5 L 243,136.5 L 239,139 L 239.5,142 L 243,142.5 L 245.5,138.5 L 250.5,138.5 L 254,134 L 256.5,133 L 257,127 Z M 277.5,116.5 L 276.5,118.5 L 277,121 L 281,123.5 L 281.5,126 L 277,130 L 277,133 L 280,134.5 L 286.5,142.5 L 289.5,141.5 L 289.5,134.5 L 292,134 L 293.5,135.5 L 294,141 L 295.5,142.5 L 300,142.5 L 303,146 L 305.5,146 L 307,144 L 306.5,142.5 L 303.5,141 L 301.5,138 L 294.5,132 L 293.5,128 L 294,116 L 293,113.5 L 282.5,113 L 279.5,116 Z M 286.5,129.5 L 289,130.5 L 289,134 L 285.5,132.5 L 285,131 Z M 62.5,108 L 60,110 L 60,381.5 L 61,383 L 64,383.5 L 65.5,382 L 65.5,110 L 64.5,108.5 Z M 342.5,104 L 340,104.5 L 339,106.5 L 335,110 L 334.5,115.5 L 335.5,117 L 337.5,117.5 L 341,113 L 343.5,114 L 343,127.5 L 341.5,129 L 340,129 L 339,131.5 L 335.5,133.5 L 333.5,137 L 330.5,138.5 L 330.5,141 L 332,142.5 L 335,142 L 336,139.5 L 339,138 L 340,135.5 L 341.5,134 L 343,134 L 344.5,131 L 348.5,128 L 348.5,114 L 348,113 L 344,111.5 L 344.5,106.5 Z M 307.5,104 L 306,105.5 L 306,124 L 309,126 L 311,124 L 311,105.5 L 309.5,104 Z M 260.5,105 L 260.5,108 L 262.5,109.5 L 296,109.5 L 297.5,111 L 298,128.5 L 303,134 L 305.5,135.5 L 307,138 L 310,140 L 311.5,142.5 L 318.5,142 L 319,138.5 L 318,137.5 L 312,137 L 310.5,134 L 307.5,132.5 L 306.5,130.5 L 302.5,127 L 302,106 L 301,104.5 L 261.5,104 Z M 248,104.5 L 247.5,107.5 L 251.5,110.5 L 252,113.5 L 250.5,116 L 247.5,117 L 247.5,120.5 L 248.5,121.5 L 251,121.5 L 252.5,118.5 L 255,117.5 L 257.5,121.5 L 260,121.5 L 261,120.5 L 261,117.5 L 257,115.5 L 256,105.5 L 254.5,104 Z M 216,104 L 214.5,105.5 L 214.5,124 L 217.5,126 L 219.5,124 L 219.5,105.5 L 218,104 Z M 152,110 L 151.5,124 L 153,125.5 L 155.5,125.5 L 156.5,124 L 156.5,115 L 158,113 L 160.5,114 L 160,122 L 161.5,125.5 L 163.5,125.5 L 165,124 L 165,114 L 167.5,113 L 169,114.5 L 169,126.5 L 164.5,130.5 L 164.5,133 L 165.5,134 L 175.5,134 L 179,130 L 183.5,130 L 187.5,125.5 L 189.5,125 L 190,119 L 191.5,117.5 L 193,117.5 L 194.5,115 L 192,112.5 L 182.5,112.5 L 182,110 L 183,109 L 203.5,109 L 206,111 L 205.5,127.5 L 210,131.5 L 210.5,133.5 L 214,135.5 L 215,138 L 218.5,139.5 L 219.5,142 L 225.5,142.5 L 228.5,138.5 L 233.5,138.5 L 236,136.5 L 235.5,134 L 234,133 L 228.5,133 L 225.5,137 L 220.5,137 L 219,134 L 216,132.5 L 215,130.5 L 211,127.5 L 210.5,106 L 208.5,104 L 158.5,104 Z M 160.5,110.5 L 162,109 L 163.5,109 L 165,112 L 164,113 L 161,113 Z M 106.5,104.5 L 82.5,104 L 81,107 L 77,109.5 L 76.5,156.5 L 77.5,158.5 L 80.5,159 L 82.5,155.5 L 82.5,110 L 98.5,109 L 104.5,109.5 L 107,108 Z M 120,99.5 L 118.5,102.5 L 114,105.5 L 114,111.5 L 110,114 L 110,124 L 114,126.5 L 114.5,133 L 117,134 L 119.5,137.5 L 122,138.5 L 123,141 L 122,142 L 116.5,141 L 114.5,142.5 L 115,145.5 L 118.5,147.5 L 118.5,149 L 117,150.5 L 95.5,149.5 L 94,150.5 L 93.5,153 L 95,155 L 100.5,155 L 104.5,159 L 129.5,159 L 133.5,155 L 147,155 L 148.5,153.5 L 148.5,151 L 146.5,149.5 L 129.5,150 L 123.5,144.5 L 123.5,143 L 125.5,142 L 129.5,142.5 L 132.5,146 L 141.5,146.5 L 144,145 L 144.5,143 L 142,141 L 133,141 L 130,137 L 125,137 L 123,133.5 L 119.5,131.5 L 119.5,126 L 115.5,123.5 L 115.5,114.5 L 119.5,112 L 119,106.5 L 120.5,105 L 123,106.5 L 124,109 L 126,109.5 L 128,107.5 L 127.5,104.5 L 124.5,103.5 L 122,99.5 Z M 339,89 L 339,91 L 340.5,92.5 L 371.5,92.5 L 373,91.5 L 373,88.5 L 371,87 L 341.5,87 Z M 85.5,88.5 L 85.5,91.5 L 86.5,92.5 L 122.5,92.5 L 123.5,91 L 123.5,88.5 L 121,87 L 87.5,87 Z M 236.5,75 L 235,77.5 L 235,114.5 L 236,117 L 238.5,117.5 L 240.5,115 L 240.5,77 L 239,75 Z M 227.5,71 L 226.5,72 L 226.5,120 L 228,121.5 L 230.5,121.5 L 232,120 L 232,72.5 L 231,71 Z M 319,59 L 317.5,58 L 315,58.5 L 313.5,61.5 L 311,62.5 L 309.5,65.5 L 306,67.5 L 306,85 L 304.5,87 L 254,87 L 252.5,85.5 L 252.5,72 L 251.5,71 L 248.5,71 L 247,73.5 L 247.5,90.5 L 249.5,92.5 L 308.5,92.5 L 311,89.5 L 311,69 L 313.5,67.5 L 316.5,63.5 L 319,62.5 Z M 227.5,59 L 226,58 L 223.5,58.5 L 222,61.5 L 219.5,62.5 L 218,65.5 L 214.5,67.5 L 214,86 L 213,87 L 158,87 L 155.5,83.5 L 152,84 L 151.5,87 L 153,88.5 L 154.5,88.5 L 157.5,92.5 L 213.5,92.5 L 215,89.5 L 218.5,88 L 219.5,86.5 L 219.5,69 L 222,67.5 L 225,63.5 L 227.5,62.5 Z M 144,58.5 L 143.5,62.5 L 146,63.5 L 152,70 L 151.5,78 L 153.5,79.5 L 156.5,79 L 157,68 L 154,66.5 L 152.5,63.5 L 149.5,62 L 147.5,58.5 Z" fill="#8fb7df" fill-rule="evenodd"/>
  <path d="M 374.5,312 L 371,316 L 362,316 L 359,320 L 353,320.5 L 346,328.5 L 341,328.5 L 333.5,337 L 331,338 L 331,343.5 L 329,345.5 L 327,346 L 326.5,352.5 L 322.5,355 L 322.5,364.5 L 320,366 L 318,369 L 318,397.5 L 319,399.5 L 322.5,401.5 L 322.5,411 L 326.5,414 L 327,420 L 329.5,421 L 331,423.5 L 333.5,425 L 335.5,428 L 338,429.5 L 339.5,432 L 351.5,443 L 353,445.5 L 362.5,446 L 366,450 L 404.5,450 L 407.5,446 L 417.5,445.5 L 419,443 L 421.5,441.5 L 423,439 L 425.5,437.5 L 427,435 L 430,433 L 441,421 L 443.5,420 L 443.5,415 L 448,411 L 448,401.5 L 451.5,399.5 L 452.5,396.5 L 452.5,365.5 L 451.5,362.5 L 448,360.5 L 448,351 L 444,348 L 443.5,342 L 441,341 L 429.5,328.5 L 424.5,328.5 L 417.5,320.5 L 412.5,320.5 L 408,316 L 395,316 L 392,312 Z M 399.5,325 L 402.5,329 L 408.5,329.5 L 411.5,333.5 L 416.5,333.5 L 418.5,336.5 L 420.5,337.5 L 423,341 L 430.5,347.5 L 431,353.5 L 433.5,354.5 L 435,357 L 439,360 L 439,378 L 442,379.5 L 443.5,381.5 L 443.5,388.5 L 439,392.5 L 439,402 L 435,404.5 L 435,410 L 433,412 L 431,412.5 L 430.5,418.5 L 420.5,428.5 L 411.5,428.5 L 404.5,436.5 L 394.5,437 L 391.5,441 L 379,441 L 376,437 L 366.5,437 L 363.5,433 L 356.5,427.5 L 356.5,426.5 L 360.5,423.5 L 360,420.5 L 354,420 L 350.5,424 L 346,424.5 L 344,422.5 L 344,417.5 L 341.5,416 L 338.5,412 L 336,411 L 335.5,404.5 L 333,403.5 L 331,400.5 L 331,365.5 L 332.5,363 L 335.5,361.5 L 335.5,356 L 338.5,354 L 341.5,350 L 343.5,349.5 L 344,343.5 L 347,341.5 L 350,337.5 L 355,337.5 L 358,333.5 L 363,333.5 L 366,329.5 L 371,329.5 L 374.5,325.5 Z M 386,345.5 L 380.5,352 L 380.5,385.5 L 382,387.5 L 384.5,388.5 L 386,391.5 L 392,392 L 393.5,394.5 L 396,396 L 397.5,398.5 L 400,400 L 402,403 L 414,414 L 414,419.5 L 415,420.5 L 421,421 L 422.5,420 L 423.5,417.5 L 422.5,408.5 L 420,407.5 L 418.5,405 L 416,403.5 L 414.5,401 L 411.5,399 L 410,396.5 L 407.5,395 L 406,392.5 L 403.5,391 L 402,388.5 L 399,386.5 L 397.5,384 L 395,382.5 L 389.5,376.5 L 390,347 L 389,345.5 Z M 303,295.5 L 301.5,297.5 L 302,324 L 304,325 L 308,329.5 L 326,329 L 333,321 L 335,320.5 L 336,318 L 336,298.5 L 335,296 L 333,295.5 L 329,291 L 312.5,291 L 308.5,295.5 Z M 310.5,305.5 L 312,304 L 325,304.5 L 327,306.5 L 326.5,315 L 325.5,316 L 320.5,316.5 L 317.5,320 L 315.5,320 L 310.5,315 L 311,313.5 L 320.5,313 L 323,310 L 321.5,308 L 312.5,308 Z M 119.5,295.5 L 118.5,299 L 123,302.5 L 122.5,326.5 L 124,329 L 150.5,329.5 L 154.5,325 L 156.5,324 L 157,298 L 155.5,295.5 L 150,295.5 L 146,291 L 133.5,291 L 129.5,295.5 Z M 132.5,305 L 139,304 L 146.5,304.5 L 147.5,305.5 L 148,314 L 142,320.5 L 138,321 L 136,319 L 136.5,317 L 139,316.5 L 140.5,315 L 141,311.5 L 139.5,308.5 L 136.5,308.5 L 135.5,309.5 L 135.5,314.5 L 134.5,316 L 132.5,316 L 131.5,315 L 131,311 L 131.5,306.5 Z M 234.5,279 L 229.5,278.5 L 227,280 L 227,285 L 225.5,287 L 223,288 L 222.5,294 L 221,295.5 L 203.5,295.5 L 202,297 L 202,303 L 204.5,304.5 L 207.5,308.5 L 212.5,308.5 L 214.5,310.5 L 214.5,322.5 L 210,326.5 L 210,331 L 212,333.5 L 217.5,333.5 L 220.5,329.5 L 225.5,329.5 L 229,325.5 L 230.5,325 L 234,325.5 L 241,333.5 L 246.5,333.5 L 248.5,331 L 248.5,318.5 L 247.5,317 L 245.5,316.5 L 244,314 L 256.5,303 L 257,298.5 L 255,295.5 L 241.5,295.5 L 240,294 L 240,288.5 L 237,287 L 235.5,285 L 236,281 Z M 303,216.5 L 301.5,218.5 L 301.5,244 L 306,248 L 307,250 L 329.5,250.5 L 332.5,246.5 L 335.5,245 L 335.5,227 L 338.5,225.5 L 340,222.5 L 334,216.5 L 332.5,216 L 330,212.5 L 312.5,212 L 308,216.5 Z M 316,225.5 L 325,225.5 L 326.5,226.5 L 326.5,241 L 324,241 L 321,237 L 319.5,237.5 L 316.5,241.5 L 314.5,240 L 314.5,228 Z M 215.5,216.5 L 214,219 L 214.5,245 L 216.5,246 L 220.5,250.5 L 243,250 L 244,248 L 248.5,244 L 248,217.5 L 245,216 L 241.5,212 L 229,212 L 225,216.5 Z M 223.5,226.5 L 224.5,225.5 L 238,225.5 L 239.5,227.5 L 239.5,239.5 L 237.5,241.5 L 225,241.5 L 223,239 Z M 119.5,216.5 L 118.5,218 L 119,220.5 L 123,223 L 122.5,243.5 L 128,250 L 150.5,250.5 L 154.5,246 L 156.5,245 L 157,219 L 155.5,216.5 L 150,216.5 L 146,212 L 133.5,212 L 129.5,216.5 Z M 146.5,225 L 147.5,226 L 147.5,228 L 145,229 L 143.5,230.5 L 143.5,232 L 147.5,235 L 147.5,236.5 L 146.5,237.5 L 137.5,237 L 135.5,240 L 133,241.5 L 131.5,240 L 132,226.5 L 133,225.5 Z M 74,96 L 64.5,106 L 64.5,386 L 69,395 L 75.5,396 L 84,404.5 L 301,404 L 306.5,398.5 L 305.5,391.5 L 270.5,391 L 267.5,387 L 220,387 L 217,391 L 209,387 L 83.5,391 L 73.5,381 L 73.5,173 L 379.5,171.5 L 381,260 L 376.5,264 L 376.5,294.5 L 383,300.5 L 391.5,300.5 L 394,114.5 L 385.5,97 L 375,91.5 L 341,91.5 L 340,73 L 335.5,63.5 L 320,58.5 L 310.5,67.5 L 308.5,91.5 L 249.5,91.5 L 248.5,69 L 238.5,58.5 L 228.5,58.5 L 219,67.5 L 218.5,86 L 213,91.5 L 158,91.5 L 152.5,86.5 L 157,82 L 152,76 L 152.5,68 L 142.5,58.5 L 127.5,63 L 123,72 L 121.5,91.5 L 83.5,91.5 Z M 374.5,150.5 L 377,152 L 377.5,154 L 377,156.5 L 375.5,158 L 374,158 L 372.5,156.5 L 372.5,152.5 Z M 248.5,151.5 L 254,150 L 329,150 L 330.5,151 L 330.5,153.5 L 329,154.5 L 249.5,154.5 L 248.5,153.5 Z M 228.5,150 L 231.5,152 L 230,154.5 L 228.5,154.5 L 227,153 Z M 251,142 L 252,144.5 L 249.5,146 L 248,143.5 L 249.5,142 Z M 94.5,151.5 L 96,150 L 118,151 L 119.5,149.5 L 119.5,147.5 L 115.5,144.5 L 115.5,143 L 116.5,142 L 119,142 L 122,143 L 123.5,146 L 125,146.5 L 128.5,150.5 L 146,150 L 147.5,151 L 147.5,153.5 L 146,154.5 L 133,154.5 L 129.5,158 L 104,158 L 101,154.5 L 96,154.5 L 94.5,153 Z M 294,134.5 L 296.5,134 L 301,138.5 L 302.5,141.5 L 306,143 L 306,144.5 L 305,145.5 L 303,145.5 L 301,142 L 296,141.5 L 294,139 Z M 266,121 L 268.5,122 L 268.5,124 L 267.5,125 L 265.5,125 L 264.5,124 L 264.5,122.5 Z M 283,113.5 L 292,113.5 L 293.5,115.5 L 293,128 L 294,132.5 L 293,133.5 L 291,133 L 288.5,129 L 285.5,129 L 284.5,130.5 L 285,133 L 288,134.5 L 289.5,137.5 L 289.5,139.5 L 288,141.5 L 286,141 L 281.5,135 L 277.5,132 L 278,130 L 280.5,129 L 282,126.5 L 281.5,122.5 L 277.5,120 L 277.5,118 Z M 79,109 L 81.5,109.5 L 82,155 L 80.5,158 L 78.5,158 L 77,156 L 77,111.5 Z M 372.5,109 L 376,109 L 377,111.5 L 381,114 L 381,115.5 L 378.5,117 L 376.5,113.5 L 373,111.5 Z M 365,105.5 L 366,104.5 L 371,104.5 L 372.5,108 L 366,108.5 L 365,107.5 Z M 349.5,104.5 L 352,105.5 L 352,107.5 L 351,108.5 L 349.5,108.5 L 348,107 Z M 261,106 L 262.5,104.5 L 308.5,105 L 310,106.5 L 310,128.5 L 312,130 L 317,130 L 320,134 L 330,134 L 331.5,131.5 L 335.5,128.5 L 336,122.5 L 340,120 L 339.5,117 L 336.5,116 L 335,112.5 L 335.5,111 L 338.5,108.5 L 339.5,106 L 342,105 L 343.5,106.5 L 343,111.5 L 347.5,115 L 347.5,127.5 L 345,129 L 333.5,141.5 L 312,141.5 L 310,138.5 L 307.5,137 L 306,134.5 L 303.5,133 L 298.5,127.5 L 298.5,111 L 297,109 L 262,108.5 Z M 82,106 L 83.5,104.5 L 105,104.5 L 106,105.5 L 106,107.5 L 105,108.5 L 82.5,108.5 Z M 111,114.5 L 115,112 L 115,106.5 L 121.5,100.5 L 127,106 L 122.5,110.5 L 123,124.5 L 126,126 L 133,134 L 147,134 L 149,130.5 L 152.5,128.5 L 152.5,111 L 159.5,104.5 L 217,105 L 218.5,106.5 L 218.5,128 L 224.5,134 L 238.5,134 L 243.5,129 L 244.5,126.5 L 248,124.5 L 248,107.5 L 249.5,105 L 254.5,105 L 255.5,106 L 255.5,114.5 L 256.5,116.5 L 260,118.5 L 260,120 L 256,122.5 L 256,131.5 L 250.5,137 L 245,137.5 L 242,141.5 L 237,141.5 L 234,145.5 L 232.5,145.5 L 229.5,141.5 L 220.5,141.5 L 207,128 L 207,111 L 205.5,109 L 182.5,108.5 L 181,110 L 182,113 L 192,113 L 193.5,114.5 L 189,119.5 L 189,124 L 186,125.5 L 183.5,129 L 178.5,129 L 175.5,133 L 166.5,133.5 L 165.5,130.5 L 169.5,127 L 169.5,114 L 164,108.5 L 161,108.5 L 160,112.5 L 164,114.5 L 164.5,122 L 160,127 L 159.5,132.5 L 150.5,141.5 L 145,141.5 L 142,145.5 L 133.5,145.5 L 130,141.5 L 124.5,141 L 122.5,137.5 L 120.5,137 L 115,131.5 L 115,126 L 111,123.5 Z M 320.5,71.5 L 325,71.5 L 326.5,73 L 326.5,119 L 325.5,120.5 L 320.5,120.5 L 319,119 L 319,73 Z M 229,71.5 L 233.5,71.5 L 235.5,74.5 L 239.5,77.5 L 239.5,114.5 L 233.5,120.5 L 229,120.5 L 227.5,119 L 227.5,73 Z M 141.5,71.5 L 143.5,73 L 144,76.5 L 140.5,79.5 L 139.5,85.5 L 143,88.5 L 143.5,90.5 L 140,93 L 139.5,98 L 140,99.5 L 143,101.5 L 144,105.5 L 139.5,111 L 140,119 L 138.5,120.5 L 136.5,120.5 L 135.5,119 L 136,73 L 137.5,71.5 Z" fill="#0b1fb3" fill-rule="evenodd"/>
</svg>
