<?xml version="1.0" encoding="UTF-8"?>
<svg xmlns="http://www.w3.org/2000/svg" width="512" height="512" viewBox="0 0 512 512" role="img" aria-label="risk shield star">
  <title>risk shield star</title>
  <path d="M 255.0 114.0 L 223.0 139.0 L 196.0 152.0 L 171.0 159.0 L 148.0 161.0 L 142.0 163.0 L 122.0 164.0 L 118.0 168.0 L 118.0 175.0 L 116.0 178.0 L 116.0 227.0 L 119.0 255.0 L 129.0 293.0 L 143.0 322.0 L 159.0 345.0 L 182.0 369.0 L 208.0 388.0 L 251.0 409.0 L 260.0 409.0 L 264.0 406.0 L 267.0 406.0 L 273.0 402.0 L 297.0 392.0 L 312.0 382.0 L 319.0 375.0 L 327.0 371.0 L 335.0 362.0 L 344.0 355.0 L 357.0 340.0 L 368.0 323.0 L 385.0 284.0 L 389.0 269.0 L 389.0 262.0 L 391.0 258.0 L 392.0 240.0 L 395.0 225.0 L 395.0 173.0 L 393.0 167.0 L 387.0 162.0 L 345.0 159.0 L 339.0 156.0 L 331.0 156.0 L 313.0 150.0 L 288.0 138.0 L 274.0 128.0 L 260.0 115.0 Z M 256.0 133.0 L 258.0 133.0 L 263.0 139.0 L 283.0 153.0 L 310.0 166.0 L 335.0 173.0 L 346.0 174.0 L 349.0 176.0 L 378.0 177.0 L 380.0 179.0 L 380.0 214.0 L 378.0 245.0 L 375.0 253.0 L 375.0 259.0 L 372.0 267.0 L 371.0 276.0 L 368.0 281.0 L 365.0 293.0 L 357.0 307.0 L 355.0 314.0 L 340.0 335.0 L 329.0 347.0 L 313.0 361.0 L 283.0 381.0 L 257.0 393.0 L 224.0 378.0 L 203.0 365.0 L 172.0 336.0 L 159.0 318.0 L 149.0 300.0 L 139.0 272.0 L 139.0 264.0 L 136.0 258.0 L 134.0 248.0 L 130.0 209.0 L 130.0 179.0 L 132.0 177.0 L 170.0 176.0 L 193.0 170.0 L 224.0 156.0 L 251.0 138.0 Z M 259.0 156.0 L 253.0 157.0 L 232.0 172.0 L 218.0 177.0 L 214.0 180.0 L 177.0 190.0 L 152.0 192.0 L 147.0 197.0 L 147.0 232.0 L 153.0 264.0 L 156.0 270.0 L 156.0 275.0 L 160.0 286.0 L 171.0 306.0 L 181.0 320.0 L 200.0 341.0 L 223.0 358.0 L 251.0 372.0 L 254.0 375.0 L 257.0 375.0 L 290.0 358.0 L 313.0 341.0 L 333.0 319.0 L 344.0 301.0 L 354.0 276.0 L 354.0 272.0 L 358.0 263.0 L 359.0 253.0 L 361.0 249.0 L 362.0 228.0 L 364.0 220.0 L 364.0 195.0 L 361.0 192.0 L 338.0 190.0 L 306.0 182.0 L 282.0 172.0 Z M 292.0 332.0 L 296.0 331.0 L 297.0 335.0 L 295.0 337.0 L 292.0 334.0 Z M 212.0 335.0 L 215.0 331.0 L 218.0 332.0 L 215.0 336.0 Z M 184.0 300.0 L 186.0 296.0 L 189.0 298.0 L 187.0 301.0 Z M 216.0 283.0 L 217.0 284.0 L 209.0 293.0 L 208.0 290.0 Z M 173.0 262.0 L 174.0 265.0 L 170.0 269.0 L 168.0 269.0 L 167.0 266.0 L 171.0 262.0 Z M 342.0 256.0 L 345.0 255.0 L 346.0 258.0 L 343.0 259.0 Z M 178.0 253.0 L 180.0 251.0 L 182.0 252.0 L 181.0 255.0 L 179.0 255.0 Z M 348.0 239.0 L 349.0 242.0 L 345.0 244.0 L 344.0 242.0 Z M 325.0 230.0 L 326.0 233.0 L 324.0 234.0 L 323.0 232.0 Z M 189.0 229.0 L 189.0 233.0 L 183.0 239.0 L 181.0 235.0 Z M 160.0 217.0 L 162.0 216.0 L 163.0 219.0 L 162.0 220.0 Z M 350.0 214.0 L 352.0 217.0 L 348.0 219.0 L 347.0 217.0 Z M 347.0 206.0 L 348.0 204.0 L 351.0 205.0 L 349.0 207.0 Z M 158.0 206.0 L 160.0 204.0 L 164.0 205.0 L 162.0 209.0 L 160.0 209.0 Z M 331.0 203.0 L 333.0 201.0 L 336.0 203.0 L 334.0 205.0 Z M 324.0 200.0 L 325.0 203.0 L 322.0 205.0 L 321.0 202.0 Z M 256.0 200.0 L 259.0 205.0 L 259.0 209.0 L 267.0 235.0 L 273.0 245.0 L 313.0 245.0 L 314.0 248.0 L 291.0 265.0 L 282.0 274.0 L 282.0 281.0 L 286.0 291.0 L 287.0 301.0 L 291.0 314.0 L 289.0 317.0 L 267.0 301.0 L 260.0 294.0 L 254.0 293.0 L 224.0 317.0 L 221.0 318.0 L 220.0 313.0 L 224.0 302.0 L 227.0 285.0 L 230.0 279.0 L 230.0 274.0 L 227.0 270.0 L 209.0 258.0 L 198.0 248.0 L 200.0 246.0 L 238.0 244.0 L 244.0 234.0 L 253.0 202.0 Z M 290.0 192.0 L 293.0 190.0 L 295.0 193.0 L 292.0 195.0 Z" fill="#0b1fb3" fill-rule="evenodd"/>
</svg>
