<svg xmlns="http://www.w3.org/2000/svg" viewBox="0 0 512 512" width="512" height="512" role="img" aria-label="portfolio_rebalance">
  <title>portfolio_rebalance</title>
  <desc>Круговая диаграмма + круговые стрелки</desc>
  <path d="M 390.5,430.5 L 390,428.5 L 387,427 L 385,428.5 L 385,433.5 L 383.5,435 L 338,435 L 336.5,438.5 L 339,440.5 L 383.5,440.5 L 385.5,439 L 387,436 L 388.5,436 L 390,434.5 Z M 397,378.5 L 394.5,378.5 L 393,381 L 390.5,382.5 L 389,385 L 386,387 L 385,389 L 382,391 L 375.5,398.5 L 373,399.5 L 372.5,401.5 L 373.5,403.5 L 377,403.5 L 378,401 L 381,399.5 L 382,397 L 385,395.5 L 386,393 L 389,391.5 L 390,389 L 393,387.5 L 394.5,384.5 L 398,382.5 L 398,379.5 Z M 357,342.5 L 354,342.5 L 352.5,345 L 350,346.5 L 348.5,349 L 346,350.5 L 344.5,353 L 342,354.5 L 331,366.5 L 328.5,367.5 L 328.5,370.5 L 329.5,371.5 L 332,371.5 L 333.5,369 L 336,367.5 L 337.5,365 L 340,363.5 L 341.5,361 L 344,359.5 L 355,347.5 L 357.5,346.5 L 358,344 Z M 313,338.5 L 312,340 L 312.5,342.5 L 315,343.5 L 316.5,346 L 324.5,353 L 324.5,358 L 325.5,359 L 328.5,359 L 329.5,358 L 329.5,352 L 325.5,349 L 324.5,346.5 L 321.5,345 L 320.5,342.5 L 317.5,341 L 316.5,338.5 Z M 83.5,321 L 83,319.5 L 80.5,318 L 78,319.5 L 78,324.5 L 77,326 L 72.5,326 L 69.5,322 L 67,322 L 66,323 L 66,326 L 69,327.5 L 71.5,331 L 76.5,331.5 L 80.5,327 L 82.5,326.5 Z M 361,306.5 L 358.5,306 L 357,307 L 356.5,313 L 352.5,316 L 352.5,321 L 348.5,323.5 L 348.5,326 L 349.5,327 L 352.5,327 L 354,324 L 357.5,322 L 358,316 L 362,313 L 362,308 Z M 267.5,273.5 L 268,277.5 L 270.5,278.5 L 272,281.5 L 278,287 L 280.5,286.5 L 281,282.5 L 273,277 L 274,274.5 L 363.5,275 L 365,276.5 L 364.5,288.5 L 366,290.5 L 368.5,290.5 L 370,289 L 370,272.5 L 368.5,270 L 366.5,269.5 L 271.5,269.5 L 269.5,270 Z M 136.5,257.5 L 134.5,259 L 134.5,277.5 L 135.5,278.5 L 138.5,278.5 L 140,276 L 140,260 L 139,258 Z M 124,253.5 L 122.5,255 L 122.5,285.5 L 123.5,286.5 L 126.5,286.5 L 127.5,285.5 L 128,257.5 L 127.5,255 L 126,253.5 Z M 71.5,245.5 L 70,247 L 70,285.5 L 71,286.5 L 74,286.5 L 75,285.5 L 75,247 L 73.5,245.5 Z M 450,181 L 446.5,181 L 445.5,183.5 L 442.5,185 L 440,189 L 438,189.5 L 437.5,195.5 L 433.5,198 L 433.5,201 L 434.5,202 L 437,202 L 439,198.5 L 442.5,196.5 L 442.5,191.5 L 445,190 L 448,186 L 450.5,185 Z M 183.5,173 L 180,173 L 179,175.5 L 176,177 L 175,179.5 L 172,181 L 170.5,184 L 168,185 L 166.5,188 L 164,189 L 162.5,192 L 159,194 L 158.5,196 L 160,198 L 162.5,198 L 163.5,196 L 166.5,194 L 168,191.5 L 170.5,190 L 181.5,178 L 184,177 Z M 329,161 L 329,165.5 L 331.5,166 L 333,169 L 335.5,170 L 337,173 L 339.5,174 L 341,177 L 343.5,178 L 345,181 L 347.5,182 L 349.5,185.5 L 352.5,187 L 353.5,189.5 L 356.5,190 L 358,188 L 357.5,185.5 L 355.5,185 L 353,181.5 L 351,180.5 L 349,177.5 L 347,176.5 L 345,173.5 L 343,172.5 L 341,169.5 L 333.5,163 L 332,160.5 Z M 134.5,128.5 L 132,128.5 L 130.5,131 L 128,132.5 L 117,144.5 L 114.5,145.5 L 114.5,148.5 L 115.5,149.5 L 118,149.5 L 119.5,147 L 122,145.5 L 133,133.5 L 135.5,132.5 L 135.5,129.5 Z M 373.5,112.5 L 372.5,114.5 L 373,116.5 L 375.5,117.5 L 377.5,120.5 L 379.5,121.5 L 381.5,124.5 L 383.5,125.5 L 385.5,128.5 L 387.5,129.5 L 389.5,132.5 L 397,139 L 398.5,141.5 L 401,141.5 L 402.5,139 L 402,137.5 L 399.5,136.5 L 397.5,133 L 395,132 L 393.5,129 L 391,128 L 389.5,125 L 387,124 L 385.5,121 L 383,120 L 381.5,117 L 378,115 L 377,112.5 Z M 272,73.5 L 272,75.5 L 273.5,77 L 291.5,77 L 293,75.5 L 292.5,72.5 L 290.5,71.5 L 274.5,71.5 Z" fill="#8fb7df" fill-rule="evenodd"/>
  <path d="M 445,266 L 440,265.5 L 433.5,271.5 L 434,304 L 429.5,308 L 430,320 L 425.5,323.5 L 425.5,329 L 421.5,332 L 422,339.5 L 421.5,341 L 417.5,344 L 417.5,349 L 413.5,352 L 413.5,357 L 405.5,364 L 405.5,369 L 397,377 L 397.5,381 L 394.5,383 L 375.5,403 L 370.5,403 L 363.5,411 L 361.5,410 L 361,406.5 L 365,403 L 366,400.5 L 365.5,392 L 363.5,391 L 360.5,387 L 358,387 L 352.5,394 L 349,396 L 349,405 L 347.5,407 L 345,408 L 344.5,414 L 342.5,415 L 339.5,419 L 337,420 L 337,425 L 332.5,429.5 L 332.5,434 L 333.5,435.5 L 384,436 L 385.5,435 L 386,425.5 L 385,423.5 L 371,423.5 L 370,420.5 L 376.5,415.5 L 379,412 L 384.5,411.5 L 399.5,395.5 L 401.5,395 L 402,389 L 414,378 L 414,373 L 422,366 L 422,361 L 426,358 L 426,353 L 430,350 L 430,341 L 434.5,337 L 434,329 L 438.5,325 L 438,317 L 442.5,313 L 442,301 L 446.5,297 L 446.5,268 Z M 246,136.5 L 242.5,140.5 L 221.5,140.5 L 218.5,144.5 L 209.5,144.5 L 206,148.5 L 201.5,148.5 L 198,152.5 L 193.5,152.5 L 190,156.5 L 184.5,157 L 173.5,169 L 168.5,169 L 155.5,181.5 L 155,187.5 L 147,194.5 L 147,199.5 L 139,206.5 L 139,215.5 L 135,218.5 L 135,223.5 L 130.5,227.5 L 131,239.5 L 126.5,243.5 L 126.5,296.5 L 131,300.5 L 131,306 L 135,308.5 L 134.5,316.5 L 139,320.5 L 139,326 L 142.5,328 L 143,334 L 151,340.5 L 151,346 L 177,371.5 L 182,371.5 L 189,379.5 L 194,379.5 L 197,383.5 L 202,383.5 L 205,387.5 L 214,387.5 L 217,391.5 L 230,391.5 L 233.5,395.5 L 267,395.5 L 270.5,391.5 L 291.5,391.5 L 294.5,387.5 L 299.5,387.5 L 302.5,383.5 L 307.5,383.5 L 310.5,379.5 L 315.5,379.5 L 318.5,375.5 L 323.5,375.5 L 357.5,342 L 357.5,336.5 L 365.5,330 L 365.5,324.5 L 369.5,321.5 L 369.5,312.5 L 373.5,309.5 L 373.5,300.5 L 378,296 L 377.5,280.5 L 382,276 L 382,256 L 377.5,251.5 L 378,232 L 373.5,227.5 L 373.5,218.5 L 370,216.5 L 369.5,210.5 L 365.5,207.5 L 365.5,202.5 L 361.5,199.5 L 361.5,194.5 L 324,157 L 318.5,156.5 L 316,153 L 310.5,152.5 L 307,148.5 L 302,148.5 L 295.5,140.5 L 289.5,144.5 L 286.5,140.5 L 266,140.5 L 262.5,136.5 Z M 269.5,271 L 367.5,270.5 L 369,272 L 369.5,287 L 369,288.5 L 365,291.5 L 365,300.5 L 361,303.5 L 360.5,306 L 361,312.5 L 357,315.5 L 357,320.5 L 349,327.5 L 348.5,333.5 L 345.5,335 L 345,336.5 L 340.5,340 L 340.5,345 L 339,346.5 L 335,346.5 L 333.5,345 L 333.5,340 L 331,338.5 L 328.5,335 L 327,334.5 L 324.5,331 L 323,330.5 L 320.5,327 L 319,326.5 L 316.5,323 L 315,322.5 L 312.5,319 L 311,318.5 L 308.5,315 L 306.5,314 L 304,310.5 L 302.5,310 L 300,306.5 L 298.5,306 L 296,302.5 L 294.5,302 L 292,298.5 L 290.5,298 L 288,294.5 L 286.5,294 L 284,290.5 L 282.5,290 L 280,286.5 L 278.5,286 L 276,282.5 L 274.5,282 L 272,278.5 L 268.5,276 L 268.5,272.5 Z M 229.5,149.5 L 246.5,149.5 L 248,151 L 248,269 L 264,284 L 264,289.5 L 270.5,290.5 L 272,292 L 272.5,298 L 275,299 L 329,353.5 L 329,356 L 327,358.5 L 321.5,359 L 315,366.5 L 310.5,366.5 L 307,370.5 L 302.5,370.5 L 299,374.5 L 293.5,375 L 291,378.5 L 282.5,378.5 L 278.5,383 L 274.5,383 L 270.5,378.5 L 266,383 L 242.5,383 L 238,378.5 L 234,383 L 230,383 L 226,378.5 L 217.5,378.5 L 214,374.5 L 205.5,374.5 L 203,371 L 197.5,370.5 L 191,363 L 185,362.5 L 168,345.5 L 168,340.5 L 166.5,338.5 L 161.5,338.5 L 156,333.5 L 155.5,327.5 L 147.5,321 L 147.5,311.5 L 143.5,309 L 143.5,303.5 L 139,299.5 L 139.5,279.5 L 135,275.5 L 135,261 L 139.5,256.5 L 139,237 L 143.5,232.5 L 143,225 L 147.5,220.5 L 147.5,215.5 L 151.5,212.5 L 151.5,207.5 L 159.5,200.5 L 159.5,195.5 L 181.5,173.5 L 186.5,173.5 L 193.5,165.5 L 198.5,165.5 L 201.5,161.5 L 206.5,161.5 L 209.5,157.5 L 214.5,157.5 L 217.5,153.5 L 226.5,153.5 Z M 454.5,187 L 447.5,185 L 441.5,190.5 L 441.5,196 L 435,201 L 434.5,191 L 430.5,188 L 426,174 L 418.5,168 L 418,162 L 410.5,156 L 410,150 L 372.5,112.5 L 366.5,112 L 362,107.5 L 360.5,100.5 L 350.5,100 L 339.5,92 L 326.5,88 L 320,80 L 314,84 L 307.5,76 L 298.5,80 L 295,76 L 274,76 L 271,72 L 233.5,72 L 230.5,76 L 213.5,76 L 210,80 L 197.5,80 L 194,84 L 185.5,84 L 174,92 L 168,92.5 L 166,96 L 160,96.5 L 158,100 L 152,100.5 L 146,108 L 140,108.5 L 121,128.5 L 114.5,130 L 114.5,135 L 94.5,154 L 94,160 L 86.5,166 L 86.5,171 L 74,191 L 74.5,199 L 66,211 L 66,224 L 62,227 L 62.5,255 L 58,259.5 L 58,277 L 62.5,281 L 62,305 L 66.5,309 L 66,321 L 72,327 L 79,325 L 79,312 L 74.5,308 L 75,288 L 70.5,284 L 70.5,248.5 L 75,244.5 L 74.5,228.5 L 83,217 L 79,210.5 L 83,208 L 82.5,200.5 L 91,188.5 L 91,183 L 99,176.5 L 103,163 L 115,152.5 L 115.5,146.5 L 132.5,129.5 L 138,129 L 149,117 L 154,117 L 161,109 L 166,109 L 169,105 L 174,105 L 177,101 L 182,101 L 193.5,93 L 206,93 L 209.5,89 L 222,89 L 225.5,85 L 283,85 L 286.5,89 L 299,89 L 302.5,93 L 323,97 L 334.5,105 L 339.5,105 L 342.5,109 L 347.5,109 L 354.5,117 L 359.5,117 L 378.5,137 L 384,137.5 L 385.5,144.5 L 405,162.5 L 405.5,168.5 L 409,170.5 L 409.5,176.5 L 413.5,179 L 413.5,184.5 L 417.5,187 L 417.5,192.5 L 421.5,195 L 421.5,200 L 425.5,204 L 419.5,205 L 413,197.5 L 407.5,197 L 401.5,202.5 L 401,207.5 L 407,214 L 412,214 L 435,238 L 441,238 L 446.5,232.5 L 446,220.5 L 450.5,216 L 450,205 L 454.5,200 Z" fill="#0b1fb3" fill-rule="evenodd"/>
</svg>
