<?xml version="1.0" encoding="UTF-8"?>
<svg xmlns="http://www.w3.org/2000/svg" width="512" height="512" viewBox="0 0 512 512" role="img" aria-label="globe market">
  <title>globe market</title>
  <path d="M 243.0 137.0 L 209.0 146.0 L 182.0 160.0 L 165.0 173.0 L 147.0 192.0 L 129.0 223.0 L 122.0 244.0 L 118.0 268.0 L 119.0 301.0 L 126.0 328.0 L 137.0 350.0 L 154.0 372.0 L 178.0 392.0 L 202.0 405.0 L 225.0 412.0 L 251.0 416.0 L 279.0 415.0 L 303.0 409.0 L 330.0 396.0 L 348.0 383.0 L 367.0 363.0 L 382.0 339.0 L 392.0 314.0 L 395.0 302.0 L 397.0 283.0 L 396.0 256.0 L 392.0 235.0 L 385.0 216.0 L 368.0 189.0 L 352.0 172.0 L 324.0 153.0 L 298.0 143.0 L 276.0 138.0 L 267.0 138.0 L 262.0 136.0 Z M 351.0 358.0 L 336.0 373.0 L 308.0 390.0 L 306.0 388.0 L 316.0 375.0 L 324.0 359.0 L 324.0 356.0 L 328.0 350.0 L 348.0 355.0 Z M 164.0 358.0 L 166.0 356.0 L 188.0 350.0 L 201.0 378.0 L 209.0 389.0 L 204.0 389.0 L 186.0 378.0 L 166.0 362.0 Z M 311.0 345.0 L 313.0 347.0 L 313.0 350.0 L 310.0 354.0 L 307.0 364.0 L 293.0 384.0 L 280.0 397.0 L 276.0 399.0 L 265.0 399.0 L 263.0 363.0 L 265.0 358.0 L 265.0 344.0 L 267.0 342.0 L 283.0 342.0 Z M 205.0 347.0 L 217.0 344.0 L 235.0 344.0 L 249.0 342.0 L 251.0 344.0 L 251.0 398.0 L 249.0 400.0 L 237.0 398.0 L 221.0 381.0 L 207.0 359.0 L 204.0 352.0 Z M 264.0 287.0 L 267.0 284.0 L 321.0 284.0 L 323.0 286.0 L 323.0 301.0 L 321.0 305.0 L 321.0 313.0 L 317.0 330.0 L 315.0 332.0 L 286.0 328.0 L 267.0 328.0 L 264.0 324.0 Z M 251.0 286.0 L 251.0 326.0 L 249.0 328.0 L 235.0 328.0 L 210.0 331.0 L 202.0 334.0 L 198.0 332.0 L 197.0 321.0 L 194.0 316.0 L 192.0 287.0 L 194.0 285.0 L 207.0 286.0 L 249.0 284.0 Z M 135.0 285.0 L 176.0 285.0 L 178.0 287.0 L 178.0 302.0 L 184.0 336.0 L 182.0 338.0 L 172.0 340.0 L 155.0 346.0 L 152.0 343.0 L 139.0 317.0 L 135.0 301.0 Z M 379.0 283.0 L 382.0 286.0 L 381.0 296.0 L 378.0 303.0 L 378.0 310.0 L 375.0 315.0 L 372.0 326.0 L 364.0 341.0 L 359.0 344.0 L 337.0 336.0 L 333.0 336.0 L 331.0 334.0 L 331.0 330.0 L 334.0 325.0 L 337.0 286.0 L 339.0 284.0 L 368.0 285.0 Z M 316.0 221.0 L 320.0 231.0 L 320.0 244.0 L 323.0 251.0 L 323.0 268.0 L 321.0 270.0 L 267.0 271.0 L 264.0 268.0 L 263.0 242.0 L 264.0 228.0 L 266.0 226.0 L 279.0 226.0 L 286.0 224.0 L 299.0 224.0 Z M 198.0 222.0 L 202.0 220.0 L 211.0 223.0 L 250.0 226.0 L 251.0 268.0 L 249.0 270.0 L 194.0 271.0 L 191.0 268.0 L 192.0 253.0 Z M 361.0 208.0 L 365.0 212.0 L 374.0 229.0 L 378.0 241.0 L 382.0 268.0 L 380.0 270.0 L 340.0 271.0 L 337.0 268.0 L 337.0 254.0 L 335.0 247.0 L 334.0 230.0 L 331.0 223.0 L 331.0 219.0 Z M 184.0 217.0 L 185.0 222.0 L 180.0 239.0 L 178.0 268.0 L 176.0 270.0 L 136.0 271.0 L 134.0 269.0 L 135.0 253.0 L 139.0 245.0 L 139.0 240.0 L 142.0 231.0 L 153.0 210.0 L 156.0 207.0 L 158.0 207.0 L 161.0 210.0 Z M 307.0 164.0 L 310.0 163.0 L 313.0 166.0 L 330.0 174.0 L 338.0 180.0 L 352.0 194.0 L 352.0 196.0 L 350.0 198.0 L 330.0 205.0 L 327.0 204.0 L 324.0 200.0 L 324.0 197.0 L 313.0 173.0 L 307.0 166.0 Z M 210.0 165.0 L 204.0 172.0 L 201.0 180.0 L 197.0 184.0 L 191.0 197.0 L 191.0 200.0 L 188.0 204.0 L 170.0 199.0 L 165.0 196.0 L 165.0 194.0 L 179.0 180.0 L 194.0 170.0 L 199.0 169.0 L 209.0 162.0 Z M 265.0 153.0 L 271.0 153.0 L 281.0 157.0 L 292.0 167.0 L 306.0 187.0 L 310.0 200.0 L 313.0 204.0 L 312.0 207.0 L 302.0 210.0 L 286.0 210.0 L 281.0 212.0 L 266.0 211.0 L 264.0 209.0 L 265.0 204.0 L 263.0 181.0 L 263.0 155.0 Z M 249.0 153.0 L 251.0 155.0 L 252.0 173.0 L 250.0 178.0 L 251.0 209.0 L 248.0 211.0 L 219.0 210.0 L 211.0 207.0 L 205.0 207.0 L 204.0 202.0 L 211.0 187.0 L 211.0 184.0 L 222.0 170.0 L 238.0 155.0 Z" fill="#0b1fb3" fill-rule="evenodd"/>
</svg>
