<?xml version="1.0" encoding="UTF-8"?>
<svg xmlns="http://www.w3.org/2000/svg" width="512" height="512" viewBox="0 0 512 512" role="img" aria-label="take profit">
  <title>take profit</title>
  <path d="M 251.0 123.0 L 244.0 124.0 L 215.0 148.0 L 191.0 162.0 L 169.0 170.0 L 134.0 175.0 L 129.0 181.0 L 127.0 218.0 L 129.0 276.0 L 139.0 316.0 L 147.0 334.0 L 163.0 358.0 L 184.0 379.0 L 217.0 403.0 L 246.0 419.0 L 255.0 416.0 L 262.0 410.0 L 282.0 399.0 L 305.0 383.0 L 337.0 351.0 L 351.0 327.0 L 352.0 321.0 L 357.0 310.0 L 358.0 300.0 L 361.0 293.0 L 365.0 259.0 L 364.0 177.0 L 359.0 173.0 L 355.0 172.0 L 341.0 172.0 L 326.0 169.0 L 310.0 164.0 L 299.0 158.0 L 296.0 158.0 L 271.0 141.0 Z M 247.0 141.0 L 250.0 142.0 L 273.0 161.0 L 296.0 175.0 L 316.0 182.0 L 337.0 186.0 L 350.0 186.0 L 352.0 188.0 L 351.0 258.0 L 347.0 289.0 L 341.0 313.0 L 337.0 323.0 L 328.0 339.0 L 320.0 349.0 L 305.0 363.0 L 285.0 379.0 L 249.0 402.0 L 245.0 402.0 L 229.0 393.0 L 195.0 369.0 L 187.0 362.0 L 167.0 339.0 L 156.0 319.0 L 156.0 316.0 L 150.0 304.0 L 146.0 287.0 L 146.0 279.0 L 142.0 257.0 L 143.0 189.0 L 145.0 187.0 L 162.0 186.0 L 176.0 183.0 L 199.0 175.0 L 230.0 155.0 Z M 183.0 227.0 L 178.0 232.0 L 178.0 235.0 L 183.0 240.0 L 202.0 240.0 L 204.0 242.0 L 204.0 309.0 L 208.0 313.0 L 213.0 314.0 L 218.0 310.0 L 218.0 242.0 L 220.0 240.0 L 238.0 240.0 L 242.0 237.0 L 244.0 233.0 L 243.0 230.0 L 238.0 226.0 Z M 292.0 226.0 L 283.0 224.0 L 265.0 226.0 L 259.0 235.0 L 261.0 266.0 L 260.0 297.0 L 261.0 310.0 L 265.0 314.0 L 270.0 314.0 L 275.0 309.0 L 275.0 277.0 L 277.0 275.0 L 286.0 275.0 L 297.0 271.0 L 303.0 267.0 L 310.0 254.0 L 310.0 245.0 L 306.0 236.0 L 301.0 231.0 Z M 276.0 239.0 L 288.0 239.0 L 295.0 246.0 L 296.0 251.0 L 289.0 260.0 L 277.0 262.0 L 274.0 259.0 L 274.0 241.0 Z" fill="#0b1fb3" fill-rule="evenodd"/>
</svg>
