<?xml version="1.0" encoding="UTF-8"?>
<svg xmlns="http://www.w3.org/2000/svg" width="512" height="512" viewBox="0 0 512 512" role="img" aria-label="pnl bars">
  <title>pnl bars</title>
  <path d="M 416.0 138.0 L 411.0 133.0 L 379.0 133.0 L 375.0 135.0 L 367.0 135.0 L 360.0 142.0 L 360.0 400.0 L 358.0 402.0 L 333.0 402.0 L 331.0 400.0 L 331.0 212.0 L 326.0 207.0 L 321.0 205.0 L 290.0 206.0 L 281.0 211.0 L 279.0 227.0 L 280.0 400.0 L 278.0 402.0 L 252.0 401.0 L 251.0 270.0 L 244.0 263.0 L 219.0 263.0 L 209.0 264.0 L 205.0 266.0 L 201.0 271.0 L 200.0 401.0 L 197.0 403.0 L 175.0 403.0 L 173.0 401.0 L 174.0 323.0 L 172.0 319.0 L 166.0 314.0 L 129.0 315.0 L 124.0 318.0 L 121.0 323.0 L 122.0 402.0 L 120.0 404.0 L 107.0 404.0 L 98.0 406.0 L 95.0 410.0 L 95.0 413.0 L 101.0 417.0 L 122.0 418.0 L 326.0 416.0 L 419.0 417.0 L 442.0 415.0 L 445.0 412.0 L 445.0 407.0 L 442.0 403.0 L 418.0 400.0 L 419.0 345.0 L 417.0 334.0 L 418.0 281.0 Z M 223.0 401.0 L 225.0 399.0 L 227.0 400.0 L 226.0 402.0 Z M 315.0 399.0 L 317.0 398.0 L 318.0 401.0 L 316.0 402.0 Z M 306.0 397.0 L 307.0 400.0 L 304.0 402.0 L 303.0 399.0 Z M 136.0 397.0 L 139.0 398.0 L 137.0 402.0 L 134.0 401.0 Z M 392.0 396.0 L 394.0 399.0 L 390.0 402.0 L 389.0 398.0 Z M 405.0 395.0 L 406.0 399.0 L 402.0 401.0 L 401.0 398.0 Z M 295.0 394.0 L 296.0 396.0 L 293.0 401.0 L 292.0 398.0 Z M 215.0 393.0 L 216.0 397.0 L 214.0 402.0 L 213.0 396.0 Z M 378.0 392.0 L 379.0 394.0 L 377.0 399.0 L 374.0 401.0 L 372.0 399.0 L 372.0 395.0 L 375.0 392.0 Z M 379.0 371.0 L 379.0 375.0 L 373.0 380.0 L 372.0 377.0 Z M 159.0 370.0 L 161.0 369.0 L 162.0 371.0 L 160.0 373.0 Z M 138.0 369.0 L 139.0 371.0 L 135.0 374.0 L 134.0 372.0 Z M 292.0 359.0 L 294.0 356.0 L 297.0 357.0 L 294.0 360.0 Z M 235.0 355.0 L 237.0 351.0 L 240.0 352.0 L 238.0 356.0 Z M 390.0 346.0 L 391.0 350.0 L 385.0 357.0 L 380.0 360.0 L 379.0 359.0 L 383.0 353.0 Z M 161.0 339.0 L 162.0 342.0 L 158.0 345.0 L 157.0 342.0 Z M 319.0 338.0 L 321.0 342.0 L 314.0 349.0 L 312.0 347.0 L 315.0 341.0 Z M 156.0 332.0 L 159.0 328.0 L 162.0 330.0 L 159.0 333.0 Z M 378.0 326.0 L 379.0 327.0 L 377.0 333.0 L 373.0 337.0 L 371.0 335.0 L 372.0 331.0 Z M 405.0 325.0 L 406.0 329.0 L 402.0 333.0 L 399.0 332.0 L 401.0 328.0 Z M 375.0 314.0 L 376.0 319.0 L 373.0 321.0 L 372.0 317.0 Z M 402.0 303.0 L 404.0 300.0 L 406.0 302.0 L 404.0 304.0 Z M 319.0 299.0 L 321.0 302.0 L 317.0 305.0 L 316.0 302.0 Z M 238.0 288.0 L 240.0 291.0 L 237.0 294.0 L 235.0 294.0 L 234.0 291.0 Z M 400.0 287.0 L 402.0 284.0 L 404.0 285.0 L 402.0 288.0 Z M 237.0 276.0 L 240.0 277.0 L 240.0 280.0 L 238.0 282.0 L 235.0 281.0 L 235.0 278.0 Z M 373.0 273.0 L 375.0 272.0 L 376.0 274.0 L 374.0 276.0 Z M 405.0 244.0 L 406.0 247.0 L 403.0 249.0 L 402.0 246.0 Z M 315.0 247.0 L 318.0 243.0 L 321.0 244.0 L 318.0 248.0 Z M 292.0 242.0 L 294.0 240.0 L 296.0 241.0 L 295.0 243.0 Z M 376.0 232.0 L 377.0 236.0 L 373.0 239.0 L 372.0 235.0 Z M 312.0 236.0 L 315.0 232.0 L 319.0 233.0 L 315.0 237.0 Z M 402.0 230.0 L 405.0 229.0 L 406.0 232.0 L 403.0 234.0 Z M 317.0 219.0 L 320.0 220.0 L 320.0 223.0 L 318.0 225.0 L 314.0 223.0 Z M 405.0 215.0 L 406.0 218.0 L 403.0 220.0 L 402.0 217.0 Z M 405.0 198.0 L 407.0 201.0 L 402.0 207.0 L 401.0 203.0 L 402.0 200.0 Z M 374.0 192.0 L 375.0 197.0 L 373.0 198.0 L 372.0 194.0 Z M 405.0 180.0 L 406.0 184.0 L 402.0 189.0 L 401.0 187.0 L 403.0 185.0 L 403.0 181.0 Z M 376.0 174.0 L 377.0 176.0 L 373.0 180.0 L 372.0 177.0 Z M 404.0 159.0 L 406.0 162.0 L 393.0 172.0 L 392.0 171.0 L 402.0 159.0 Z M 383.0 149.0 L 384.0 147.0 L 387.0 148.0 L 385.0 150.0 Z M 403.0 146.0 L 406.0 148.0 L 406.0 150.0 L 403.0 153.0 L 401.0 153.0 L 399.0 150.0 Z" fill="#0b1fb3" fill-rule="evenodd"/>
</svg>
