<?xml version="1.0" encoding="UTF-8"?>
<svg xmlns="http://www.w3.org/2000/svg" width="512" height="512" viewBox="0 0 512 512" role="img" aria-label="tech chart up">
  <title>tech chart up</title>
  <path d="M 415.0 128.0 L 407.0 123.0 L 378.0 123.0 L 371.0 128.0 L 372.0 135.0 L 376.0 138.0 L 384.0 138.0 L 386.0 140.0 L 384.0 143.0 L 308.0 196.0 L 299.0 200.0 L 291.0 206.0 L 279.0 211.0 L 265.0 220.0 L 254.0 224.0 L 247.0 230.0 L 214.0 249.0 L 207.0 255.0 L 172.0 273.0 L 163.0 280.0 L 159.0 279.0 L 158.0 163.0 L 154.0 158.0 L 150.0 159.0 L 146.0 166.0 L 146.0 189.0 L 144.0 209.0 L 144.0 354.0 L 146.0 382.0 L 151.0 386.0 L 179.0 387.0 L 216.0 386.0 L 401.0 388.0 L 419.0 387.0 L 424.0 385.0 L 426.0 382.0 L 426.0 377.0 L 423.0 374.0 L 418.0 372.0 L 412.0 373.0 L 408.0 370.0 L 409.0 206.0 L 402.0 200.0 L 372.0 201.0 L 368.0 205.0 L 365.0 213.0 L 366.0 370.0 L 364.0 372.0 L 349.0 372.0 L 347.0 370.0 L 347.0 247.0 L 341.0 241.0 L 311.0 242.0 L 305.0 247.0 L 305.0 252.0 L 303.0 256.0 L 304.0 347.0 L 303.0 370.0 L 301.0 372.0 L 285.0 372.0 L 283.0 370.0 L 283.0 289.0 L 276.0 282.0 L 247.0 282.0 L 238.0 288.0 L 237.0 370.0 L 235.0 372.0 L 220.0 372.0 L 218.0 370.0 L 219.0 328.0 L 217.0 321.0 L 212.0 317.0 L 184.0 317.0 L 179.0 320.0 L 175.0 327.0 L 176.0 369.0 L 173.0 372.0 L 161.0 372.0 L 159.0 370.0 L 159.0 294.0 L 161.0 292.0 L 166.0 292.0 L 187.0 282.0 L 201.0 273.0 L 230.0 258.0 L 259.0 239.0 L 271.0 234.0 L 291.0 221.0 L 299.0 218.0 L 368.0 173.0 L 392.0 156.0 L 396.0 152.0 L 398.0 154.0 L 396.0 159.0 L 397.0 165.0 L 400.0 168.0 L 405.0 169.0 L 410.0 164.0 L 412.0 158.0 L 412.0 151.0 L 416.0 134.0 Z M 250.0 369.0 L 253.0 368.0 L 254.0 371.0 L 251.0 372.0 Z M 185.0 370.0 L 187.0 368.0 L 189.0 369.0 L 187.0 372.0 Z M 252.0 346.0 L 253.0 349.0 L 250.0 351.0 L 249.0 348.0 Z M 205.0 342.0 L 206.0 345.0 L 204.0 347.0 L 202.0 345.0 Z M 395.0 338.0 L 397.0 340.0 L 394.0 344.0 L 392.0 341.0 Z M 267.0 336.0 L 269.0 332.0 L 272.0 333.0 L 269.0 337.0 Z M 330.0 323.0 L 332.0 320.0 L 336.0 321.0 L 334.0 324.0 Z M 270.0 318.0 L 271.0 322.0 L 268.0 324.0 L 267.0 320.0 Z M 332.0 309.0 L 334.0 307.0 L 336.0 308.0 L 335.0 310.0 Z M 397.0 305.0 L 398.0 307.0 L 394.0 311.0 L 393.0 309.0 Z M 268.0 297.0 L 270.0 296.0 L 272.0 298.0 L 270.0 300.0 Z M 336.0 286.0 L 338.0 288.0 L 337.0 290.0 L 332.0 293.0 L 331.0 289.0 L 334.0 286.0 Z M 330.0 256.0 L 332.0 254.0 L 336.0 255.0 L 334.0 259.0 L 332.0 259.0 Z M 393.0 245.0 L 395.0 243.0 L 397.0 244.0 L 395.0 247.0 Z M 396.0 228.0 L 397.0 232.0 L 394.0 234.0 L 393.0 231.0 Z M 393.0 216.0 L 395.0 214.0 L 398.0 215.0 L 396.0 219.0 Z" fill="#0b1fb3" fill-rule="evenodd"/>
</svg>
