<?xml version="1.0" encoding="UTF-8"?>
<svg xmlns="http://www.w3.org/2000/svg" width="512" height="512" viewBox="0 0 512 512" role="img" aria-label="position pie">
  <title>position pie</title>
  <path d="M 232.0 149.0 L 201.0 157.0 L 179.0 168.0 L 163.0 179.0 L 142.0 201.0 L 135.0 211.0 L 125.0 231.0 L 119.0 247.0 L 119.0 252.0 L 116.0 260.0 L 115.0 274.0 L 116.0 307.0 L 123.0 331.0 L 140.0 361.0 L 153.0 376.0 L 174.0 392.0 L 203.0 406.0 L 222.0 411.0 L 249.0 414.0 L 271.0 413.0 L 280.0 410.0 L 290.0 409.0 L 309.0 402.0 L 323.0 395.0 L 341.0 382.0 L 358.0 365.0 L 372.0 345.0 L 382.0 324.0 L 385.0 306.0 L 383.0 302.0 L 380.0 300.0 L 258.0 298.0 L 252.0 299.0 L 249.0 297.0 L 247.0 153.0 L 243.0 149.0 Z M 248.0 394.0 L 248.0 397.0 L 245.0 399.0 L 244.0 396.0 Z M 280.0 391.0 L 281.0 394.0 L 276.0 398.0 L 274.0 394.0 Z M 265.0 390.0 L 266.0 393.0 L 260.0 400.0 L 258.0 397.0 Z M 224.0 390.0 L 227.0 391.0 L 225.0 396.0 L 221.0 394.0 Z M 239.0 389.0 L 240.0 391.0 L 235.0 398.0 L 232.0 398.0 L 231.0 396.0 Z M 300.0 385.0 L 298.0 389.0 L 294.0 393.0 L 292.0 393.0 L 291.0 391.0 L 297.0 384.0 Z M 201.0 384.0 L 204.0 385.0 L 204.0 388.0 L 202.0 390.0 L 199.0 388.0 Z M 219.0 381.0 L 220.0 383.0 L 215.0 391.0 L 211.0 393.0 L 209.0 391.0 Z M 219.0 381.0 L 221.0 378.0 L 223.0 379.0 L 220.0 382.0 Z M 317.0 375.0 L 317.0 380.0 L 310.0 386.0 L 308.0 384.0 Z M 189.0 374.0 L 190.0 380.0 L 188.0 382.0 L 185.0 379.0 L 185.0 377.0 Z M 175.0 372.0 L 179.0 371.0 L 181.0 374.0 L 177.0 376.0 Z M 340.0 360.0 L 340.0 364.0 L 330.0 373.0 L 330.0 369.0 L 337.0 361.0 Z M 225.0 359.0 L 226.0 361.0 L 223.0 364.0 L 222.0 362.0 Z M 176.0 352.0 L 177.0 354.0 L 167.0 367.0 L 165.0 367.0 L 163.0 364.0 Z M 264.0 351.0 L 265.0 352.0 L 247.0 372.0 L 246.0 370.0 L 252.0 361.0 L 261.0 352.0 Z M 244.0 340.0 L 245.0 341.0 L 242.0 346.0 L 230.0 356.0 L 229.0 355.0 Z M 185.0 338.0 L 186.0 340.0 L 183.0 343.0 L 182.0 342.0 Z M 254.0 339.0 L 256.0 336.0 L 258.0 337.0 L 256.0 340.0 Z M 166.0 334.0 L 167.0 335.0 L 157.0 345.0 L 156.0 343.0 Z M 364.0 326.0 L 365.0 329.0 L 360.0 335.0 L 359.0 331.0 Z M 144.0 325.0 L 144.0 330.0 L 141.0 332.0 L 140.0 328.0 Z M 337.0 320.0 L 338.0 323.0 L 332.0 329.0 L 332.0 325.0 Z M 350.0 318.0 L 352.0 314.0 L 355.0 315.0 L 354.0 318.0 Z M 338.0 318.0 L 340.0 314.0 L 343.0 315.0 L 340.0 319.0 Z M 135.0 321.0 L 135.0 316.0 L 137.0 314.0 L 143.0 315.0 L 137.0 322.0 Z M 366.0 313.0 L 369.0 315.0 L 369.0 317.0 L 364.0 319.0 L 363.0 315.0 Z M 320.0 313.0 L 321.0 315.0 L 317.0 319.0 L 316.0 315.0 Z M 308.0 313.0 L 309.0 316.0 L 305.0 319.0 L 304.0 317.0 Z M 293.0 312.0 L 295.0 313.0 L 294.0 317.0 L 291.0 316.0 Z M 272.0 312.0 L 273.0 314.0 L 268.0 319.0 L 266.0 317.0 L 269.0 312.0 Z M 254.0 317.0 L 254.0 315.0 L 257.0 312.0 L 261.0 313.0 L 258.0 317.0 Z M 283.0 311.0 L 285.0 313.0 L 284.0 316.0 L 276.0 325.0 L 272.0 327.0 L 271.0 326.0 L 274.0 321.0 Z M 246.0 311.0 L 247.0 314.0 L 241.0 318.0 L 241.0 314.0 L 244.0 311.0 Z M 205.0 304.0 L 206.0 307.0 L 204.0 308.0 L 203.0 306.0 Z M 237.0 299.0 L 232.0 305.0 L 216.0 317.0 L 212.0 317.0 L 216.0 312.0 L 227.0 305.0 L 234.0 298.0 Z M 162.0 297.0 L 156.0 303.0 L 153.0 302.0 L 158.0 297.0 Z M 191.0 291.0 L 192.0 292.0 L 185.0 300.0 L 182.0 306.0 L 164.0 322.0 L 151.0 336.0 L 150.0 334.0 Z M 151.0 289.0 L 152.0 291.0 L 139.0 303.0 L 134.0 310.0 L 132.0 308.0 L 133.0 304.0 Z M 159.0 287.0 L 161.0 284.0 L 163.0 285.0 L 160.0 288.0 Z M 129.0 291.0 L 129.0 287.0 L 132.0 284.0 L 139.0 286.0 L 133.0 293.0 Z M 233.0 273.0 L 235.0 275.0 L 235.0 278.0 L 232.0 281.0 L 228.0 282.0 L 226.0 280.0 Z M 174.0 273.0 L 174.0 276.0 L 163.0 285.0 L 162.0 283.0 L 170.0 275.0 Z M 204.0 264.0 L 205.0 265.0 L 199.0 270.0 L 198.0 269.0 Z M 233.0 261.0 L 235.0 264.0 L 229.0 268.0 L 229.0 264.0 Z M 135.0 259.0 L 137.0 261.0 L 136.0 267.0 L 132.0 270.0 L 130.0 268.0 L 130.0 262.0 L 132.0 259.0 Z M 197.0 257.0 L 185.0 270.0 L 180.0 270.0 L 195.0 256.0 Z M 172.0 251.0 L 173.0 253.0 L 149.0 279.0 L 148.0 277.0 Z M 230.0 254.0 L 232.0 250.0 L 235.0 251.0 L 233.0 255.0 Z M 209.0 244.0 L 209.0 248.0 L 201.0 253.0 L 200.0 252.0 L 207.0 244.0 Z M 158.0 240.0 L 159.0 242.0 L 156.0 245.0 L 155.0 243.0 Z M 146.0 241.0 L 138.0 249.0 L 133.0 249.0 L 133.0 247.0 L 138.0 242.0 L 145.0 240.0 Z M 234.0 235.0 L 236.0 237.0 L 232.0 242.0 L 229.0 242.0 L 229.0 239.0 Z M 164.0 233.0 L 165.0 235.0 L 159.0 241.0 L 159.0 238.0 Z M 154.0 232.0 L 155.0 234.0 L 151.0 237.0 L 150.0 236.0 Z M 190.0 230.0 L 191.0 232.0 L 184.0 238.0 L 183.0 236.0 Z M 171.0 225.0 L 172.0 227.0 L 166.0 233.0 L 165.0 231.0 Z M 233.0 222.0 L 235.0 226.0 L 227.0 232.0 L 226.0 230.0 Z M 200.0 222.0 L 201.0 223.0 L 194.0 229.0 L 193.0 227.0 Z M 181.0 215.0 L 182.0 217.0 L 173.0 225.0 L 172.0 224.0 Z M 155.0 216.0 L 156.0 219.0 L 142.0 232.0 L 142.0 227.0 L 148.0 218.0 L 152.0 215.0 Z M 234.0 208.0 L 235.0 211.0 L 231.0 215.0 L 228.0 215.0 L 227.0 212.0 L 231.0 208.0 Z M 221.0 207.0 L 217.0 211.0 L 213.0 211.0 L 219.0 206.0 Z M 213.0 198.0 L 213.0 201.0 L 208.0 206.0 L 202.0 209.0 L 198.0 215.0 L 174.0 237.0 L 162.0 253.0 L 146.0 269.0 L 145.0 268.0 L 176.0 230.0 L 206.0 202.0 Z M 233.0 193.0 L 235.0 197.0 L 231.0 201.0 L 223.0 205.0 L 222.0 203.0 L 224.0 200.0 Z M 206.0 191.0 L 207.0 192.0 L 205.0 195.0 L 190.0 208.0 L 189.0 207.0 L 197.0 198.0 Z M 180.0 186.0 L 180.0 188.0 L 160.0 206.0 L 157.0 205.0 L 178.0 185.0 Z M 234.0 180.0 L 235.0 184.0 L 232.0 187.0 L 226.0 189.0 L 225.0 187.0 L 232.0 180.0 Z M 198.0 173.0 L 198.0 178.0 L 195.0 181.0 L 193.0 181.0 L 193.0 177.0 Z M 216.0 167.0 L 217.0 170.0 L 209.0 177.0 L 208.0 174.0 L 210.0 170.0 Z M 233.0 164.0 L 235.0 166.0 L 235.0 170.0 L 222.0 178.0 L 221.0 177.0 L 227.0 167.0 Z M 268.0 149.0 L 263.0 155.0 L 263.0 254.0 L 265.0 282.0 L 268.0 284.0 L 278.0 285.0 L 329.0 284.0 L 335.0 286.0 L 377.0 286.0 L 389.0 284.0 L 393.0 279.0 L 392.0 256.0 L 390.0 253.0 L 389.0 240.0 L 382.0 220.0 L 368.0 197.0 L 344.0 173.0 L 315.0 157.0 L 306.0 155.0 L 301.0 152.0 L 294.0 152.0 L 286.0 149.0 Z M 279.0 163.0 L 289.0 164.0 L 303.0 168.0 L 325.0 178.0 L 341.0 189.0 L 355.0 203.0 L 365.0 216.0 L 369.0 228.0 L 372.0 232.0 L 379.0 265.0 L 377.0 271.0 L 279.0 271.0 L 277.0 269.0 L 277.0 165.0 Z" fill="#0b1fb3" fill-rule="evenodd"/>
</svg>
