<svg xmlns="http://www.w3.org/2000/svg" viewBox="0 0 512 512" width="512" height="512" role="img" aria-label="beta_exposure">
  <title>beta_exposure</title>
  <desc>Символ β рядом с рыночной линией</desc>
  <path d="M 179,402.5 L 179.5,406 L 181.5,406.5 L 183.5,409 L 183,413 L 184.5,414.5 L 199,414.5 L 200.5,413 L 200.5,403 L 198,401.5 L 195,397.5 L 184.5,397.5 L 182,401 Z M 76.5,397.5 L 75,400 L 71,403 L 71,413.5 L 72,414.5 L 87,414.5 L 88.5,412 L 88,398.5 L 87,397.5 Z M 258,344 L 257,343 L 251.5,343 L 248.5,347 L 247,347 L 245.5,349.5 L 242.5,351.5 L 241.5,353.5 L 238.5,355.5 L 231,364 L 229,364.5 L 229,368.5 L 232.5,369 L 234,366.5 L 236.5,365 L 248,352.5 L 250,351.5 L 251.5,348.5 L 257.5,348 Z M 284,332 L 282.5,330.5 L 280,330.5 L 278.5,333.5 L 275.5,335 L 274,338 L 271.5,339 L 269,343 L 263.5,343 L 262.5,344.5 L 263,347.5 L 264.5,348.5 L 270,348 L 272,344.5 L 274,344 L 281,336 L 283.5,335 Z M 295.5,328.5 L 295.5,330.5 L 298,332 L 318.5,332 L 321,330.5 L 321,328.5 L 319.5,327 L 298.5,326.5 Z M 239.5,318 L 237,319.5 L 237,334 L 241,336.5 L 241,338 L 237,340.5 L 237,343 L 239.5,344.5 L 242,343 L 243.5,340 L 245.5,340 L 246.5,338.5 L 246.5,336 L 243.5,334.5 L 242,332.5 L 242.5,320.5 Z M 351,314 L 349,317 L 345.5,319.5 L 345,328.5 L 346,331 L 348,331.5 L 351,335.5 L 357,335.5 L 358.5,333 L 362.5,330 L 362.5,319.5 L 360,318 L 355.5,318 L 353.5,314.5 Z M 338,315.5 L 337,314 L 334,314 L 331.5,318 L 293,318 L 291.5,319 L 291,321 L 293,323.5 L 331.5,323.5 L 334.5,319.5 L 337.5,318.5 Z M 259.5,314 L 253.5,321.5 L 250,323.5 L 249.5,329.5 L 253.5,332.5 L 255,335.5 L 264.5,336 L 271,330 L 271.5,325.5 L 271,324 L 263.5,317.5 L 262,314.5 Z M 437,223 L 435,222 L 426,222.5 L 423,226.5 L 420.5,227.5 L 419,230.5 L 416,231.5 L 416,235 L 417,236 L 419.5,236 L 426.5,228 L 436.5,227.5 L 437.5,226.5 Z M 226,206 L 224.5,207.5 L 224.5,226 L 226,227.5 L 228.5,227.5 L 230,225.5 L 230,208 L 228.5,206 Z M 430.5,193.5 L 424.5,199 L 424,208 L 430,215 L 436,215 L 437.5,212.5 L 441.5,209.5 L 441.5,199 L 435.5,193.5 Z M 226,168.5 L 223,172.5 L 220.5,173.5 L 220.5,177 L 223.5,178 L 225,181 L 228,182.5 L 229,185 L 232,186.5 L 234,190 L 237.5,190 L 238,186 L 235.5,185 L 232.5,181 L 231.5,181 L 225.5,175.5 L 226.5,173.5 L 229,173 L 230,171.5 L 229,168.5 Z" fill="#8fb7df" fill-rule="evenodd"/>
  <path d="M 449.5,190 L 443.5,185 L 426.5,185 L 422.5,189.5 L 416,190.5 L 416,196 L 411.5,200.5 L 412,209.5 L 416,212.5 L 416,221 L 412,224 L 407.5,238 L 399.5,244.5 L 399.5,250 L 391.5,256.5 L 391,263 L 387,265.5 L 387,271 L 379,277.5 L 378.5,283.5 L 370.5,290 L 370,296.5 L 360,306 L 347,306 L 343.5,310 L 337.5,310.5 L 337,317 L 331,322.5 L 293.5,322.5 L 289.5,318 L 280.5,318 L 269.5,306 L 251,306 L 241,317 L 241,332.5 L 245.5,338 L 229.5,352 L 228.5,359 L 198.5,389 L 194.5,385 L 184.5,385 L 169,401.5 L 102,401.5 L 86.5,385 L 76.5,385 L 73.5,389 L 68.5,389 L 62.5,394.5 L 62.5,400 L 58,405 L 59,414 L 72.5,427 L 86.5,427 L 89.5,423 L 96,422.5 L 96.5,416 L 102,410.5 L 169,410.5 L 174.5,415.5 L 175.5,422.5 L 181.5,423 L 184.5,427 L 199,427 L 208.5,418 L 208.5,412.5 L 213,408.5 L 213,403.5 L 208.5,399.5 L 209,395 L 213,392.5 L 213,387 L 229,372.5 L 229.5,366.5 L 252,344 L 256.5,344 L 259,348 L 261.5,348 L 264.5,344 L 269.5,344 L 281,331.5 L 294,331.5 L 298,327.5 L 318.5,327.5 L 322.5,331.5 L 335.5,331.5 L 337,338.5 L 342,343.5 L 348,344 L 351,348 L 365,344 L 370.5,339 L 371,333 L 375.5,328 L 375,319.5 L 371,317 L 371,308 L 375,305.5 L 375.5,299 L 383.5,292.5 L 383.5,287 L 391.5,280.5 L 391.5,275 L 396,271.5 L 396,266 L 404,259.5 L 404.5,253.5 L 412.5,247 L 412.5,241.5 L 416,239.5 L 417,232.5 L 426.5,223.5 L 439.5,223.5 L 443.5,219 L 449.5,218.5 L 450,212.5 L 454.5,207.5 L 454,199 L 450.5,197 Z M 180,403 L 185.5,398 L 194,398 L 196,401 L 200,404 L 200,412 L 198,414 L 185.5,414 L 183.5,411.5 L 184,407.5 L 180,405 Z M 76.5,398.5 L 86,398 L 87.5,399.5 L 87.5,412.5 L 86,414 L 73,414 L 71.5,412.5 L 71.5,404 L 75.5,400.5 Z M 351,315 L 353,315 L 355.5,319 L 360.5,319 L 362,320.5 L 362,329 L 361,330.5 L 359,331 L 356,335 L 352,335 L 349.5,331.5 L 347,330.5 L 346,329 L 346,320.5 L 349,318.5 Z M 259.5,315 L 261.5,315 L 263,318 L 265.5,319.5 L 267,322.5 L 268.5,323 L 271,326 L 270.5,329 L 267.5,331 L 264.5,335 L 256,335 L 250,328.5 L 250.5,324.5 L 254,322 Z M 431,194 L 435,194 L 437,197 L 441,200 L 441,208.5 L 438,210.5 L 435,214.5 L 431,214.5 L 428.5,211 L 425,208.5 L 425,200 L 428,198 Z M 232.5,94 L 222.5,93.5 L 216,85.5 L 210.5,89.5 L 197.5,85.5 L 190,93.5 L 180.5,94 L 162.5,111.5 L 162.5,117 L 158.5,119.5 L 158.5,124.5 L 154,128.5 L 154,134 L 150,136.5 L 150,146 L 145.5,150 L 146,170.5 L 141.5,174.5 L 142,190.5 L 137,197 L 137.5,216.5 L 133,221 L 133.5,241.5 L 129,245.5 L 129.5,261.5 L 125,265.5 L 125,283.5 L 120.5,287.5 L 121,299.5 L 117,302.5 L 115,310 L 102.5,310 L 99,306 L 93,306 L 91.5,317 L 97.5,323 L 120,323 L 129.5,314 L 129.5,308.5 L 134,304.5 L 134,295.5 L 142,289 L 142,285.5 L 137.5,280.5 L 146.5,271 L 146.5,266 L 142.5,263 L 142,258.5 L 146,256 L 146.5,250 L 150.5,247 L 146,241 L 146,234.5 L 155,221 L 150,214 L 155,208 L 154.5,188 L 159,184 L 158.5,167.5 L 162.5,164.5 L 163,158.5 L 167,156 L 167,153 L 163,150.5 L 167.5,145.5 L 167,134 L 175.5,122 L 175.5,116.5 L 185,107 L 190,107 L 193.5,103 L 218.5,102.5 L 228.5,112 L 229,118 L 233,121 L 233,138 L 229,141 L 229,150 L 211.5,168 L 193.5,168.5 L 191,172.5 L 186,168.5 L 183,169.5 L 183,180 L 188.5,185.5 L 194,186 L 197.5,182 L 207,182 L 209,185.5 L 215,186 L 224.5,195.5 L 224.5,204.5 L 229,208.5 L 229,225 L 224.5,229 L 224.5,238 L 206.5,256 L 197,256 L 194,260 L 181,260 L 178,256 L 169,256 L 161,247.5 L 154,249 L 154,259 L 160,265 L 165,265 L 168,269 L 177.5,269 L 181.5,273.5 L 198,273.5 L 202,269 L 211.5,269 L 214.5,265 L 219.5,265 L 237.5,247.5 L 238,241.5 L 242,238.5 L 242,229 L 246.5,225 L 246.5,213 L 242,208.5 L 242,199 L 238,196.5 L 238,191 L 221.5,174 L 226.5,169.5 L 232.5,169 L 238,163.5 L 238,158 L 242,155.5 L 242,150 L 246.5,145.5 L 246,138 L 250.5,134 L 250.5,125 L 246,121 L 246.5,113 L 242,109 L 242,103.5 Z" fill="#0b1fb3" fill-rule="evenodd"/>
</svg>
