<svg xmlns="http://www.w3.org/2000/svg" viewBox="0 0 512 512" width="512" height="512" role="img" aria-label="long_position">
  <title>long_position</title>
  <desc>Буква L или свеча + стрелка вверх</desc>
  <path d="M 121.5,331.5 L 117.5,336 L 115.5,337 L 115,338.5 L 115,365 L 114,366 L 100.5,366 L 93.5,372.5 L 93.5,404 L 98,408 L 98,416.5 L 93.5,419.5 L 93.5,422 L 97,424 L 98.5,426.5 L 101.5,428.5 L 103.5,432 L 105.5,432 L 109.5,427.5 L 115,433.5 L 115,451.5 L 116.5,453.5 L 127.5,453.5 L 129,452 L 129,446.5 L 133.5,442.5 L 133.5,429 L 135,427.5 L 145,427.5 L 146.5,425 L 146,421 L 150.5,418 L 150.5,415 L 146,412 L 146,386.5 L 150.5,382.5 L 150.5,372.5 L 143.5,366 L 130,366 L 129,365 L 129,338 L 123.5,332 Z M 113.5,380 L 126.5,380 L 128.5,383 L 132.5,386 L 132.5,408 L 131,409.5 L 117.5,409.5 L 114.5,413.5 L 113,414 L 111.5,413 L 111.5,383 Z M 104,380 L 105,380 L 107,383 L 106.5,391 L 105.5,392 L 103.5,392 L 102,389.5 L 102,382.5 Z M 121.5,341 L 124,342.5 L 124,360.5 L 122.5,362 L 120,360.5 L 120,342.5 Z M 203.5,292.5 L 202.5,293 L 201.5,296 L 198.5,297 L 197,299 L 197,322 L 196,323 L 186.5,323 L 182.5,327.5 L 181.5,327.5 L 180,330 L 176,333 L 175.5,342.5 L 176,344 L 180.5,348 L 180,395.5 L 182.5,397.5 L 196,397.5 L 197.5,399 L 197.5,421.5 L 198.5,423 L 200.5,423.5 L 203.5,427.5 L 209.5,427.5 L 211,425 L 215.5,421.5 L 215.5,399 L 217,397.5 L 230.5,397.5 L 233,395 L 233,329.5 L 231.5,327.5 L 229.5,327 L 226.5,323 L 217,323 L 215.5,321.5 L 215.5,299 L 214.5,297.5 L 212,296.5 L 209.5,293 Z M 195.5,341 L 213,341 L 215,343 L 214.5,369 L 219,373 L 219.5,376.5 L 213.5,383.5 L 212,383.5 L 208.5,379 L 195,379 L 193.5,377 L 193.5,343.5 Z M 186,332 L 188,332 L 189,333 L 189,335 L 187.5,336.5 L 185,335.5 L 185,333 Z M 202.5,298.5 L 203.5,297.5 L 205.5,298 L 206.5,299 L 206.5,301 L 205,302 L 202.5,300.5 Z M 390.5,227.5 L 388,229.5 L 388,256.5 L 386.5,258 L 368,258 L 366,261 L 366,368.5 L 368.5,371.5 L 386.5,371.5 L 388,373 L 388,400 L 389.5,401.5 L 400,401.5 L 402,398.5 L 406,395.5 L 406,373 L 407.5,371.5 L 421,371.5 L 425,367 L 427,366.5 L 428,364 L 428,265.5 L 427,263 L 425,262.5 L 421.5,258 L 403.5,258.5 L 402,257.5 L 402,255 L 406,252.5 L 406.5,249 L 405.5,246 L 403,245 L 401.5,243 L 401.5,229 L 399,227.5 Z M 382,276 L 408,276 L 410,279 L 410,356.5 L 409,357.5 L 407.5,357.5 L 405.5,354.5 L 403,353 L 400,357.5 L 398.5,357.5 L 396,353.5 L 393.5,353.5 L 392,356.5 L 389.5,357.5 L 387,353.5 L 382,353.5 L 380,351.5 L 380,278 Z M 295,227.5 L 292.5,230 L 292.5,235 L 290,236.5 L 288,239.5 L 288.5,244.5 L 293,248 L 292.5,252.5 L 289.5,254 L 288,257 L 288,270 L 287,271 L 276.5,271.5 L 275.5,273.5 L 272.5,275.5 L 266.5,282 L 266.5,382 L 272.5,388.5 L 286.5,388.5 L 288.5,390.5 L 288,416 L 294,423 L 299.5,423.5 L 306.5,417 L 306.5,390 L 308.5,388.5 L 322,388.5 L 325,384.5 L 328,383 L 328,277 L 326.5,275.5 L 323.5,275 L 317,275.5 L 313.5,271 L 308,271 L 306.5,269.5 L 306.5,234 L 305.5,232.5 L 303.5,232 L 300.5,228 Z M 286.5,289 L 311.5,289 L 314.5,291 L 314.5,295 L 310,298.5 L 310,348 L 314,350.5 L 314,352.5 L 310,355 L 309.5,363.5 L 310,365 L 314.5,368.5 L 313,371 L 286,370.5 L 284.5,368.5 L 284.5,291.5 Z M 299,236.5 L 301.5,238.5 L 300,241 L 297.5,240 L 297.5,237.5 Z M 439,89.5 L 433.5,89 L 429.5,93.5 L 424.5,93.5 L 421.5,97.5 L 415.5,98 L 412.5,102 L 407.5,102 L 403.5,106.5 L 398.5,106.5 L 395.5,110.5 L 389.5,111 L 386.5,115 L 384,116 L 383.5,127 L 390.5,133.5 L 395.5,133 L 399,129 L 405,128.5 L 408,124.5 L 413,125 L 414,126.5 L 414,130.5 L 409.5,134 L 409.5,139.5 L 405.5,142.5 L 405,148.5 L 401,151 L 401,156.5 L 396.5,160 L 396.5,165.5 L 392.5,168.5 L 392,174.5 L 388,177 L 387.5,183.5 L 378,193 L 375,194.5 L 375,200 L 366.5,207.5 L 366,213.5 L 352,227.5 L 346,228 L 339,236 L 336,237.5 L 336.5,241 L 339,242 L 346,250 L 348.5,250 L 355.5,241.5 L 361,241.5 L 364.5,237 L 366.5,236.5 L 367,230 L 390,207 L 393,205.5 L 393,200 L 397,197 L 397.5,191 L 403.5,185 L 405.5,184.5 L 406,178 L 410.5,174.5 L 410.5,169 L 413.5,167.5 L 419,162 L 419,156.5 L 423,154 L 423.5,147.5 L 428,144 L 427,135.5 L 428.5,133.5 L 431.5,134.5 L 431.5,140 L 435.5,143.5 L 436,154 L 438.5,155 L 441.5,159 L 447.5,159 L 450,155.5 L 453.5,153.5 L 454,135.5 L 449,130 L 449.5,113 L 445,109.5 L 445,95.5 Z M 414,122.5 L 415.5,120 L 417.5,120 L 418.5,121 L 418.5,123 L 417.5,124 L 415.5,124.5 Z M 69,63.5 L 61.5,72 L 59.5,72.5 L 58.5,75 L 59,231.5 L 62,233 L 74.5,246 L 222.5,245.5 L 229.5,237.5 L 232.5,236 L 232.5,231 L 237,227 L 237.5,79.5 L 237,77.5 L 233,75 L 232.5,68.5 L 230,67.5 L 226.5,63 L 221,63 L 218,59 L 78,59 L 75,63 Z M 120.5,238 L 122,236.5 L 126.5,236.5 L 128,238 L 128,239.5 L 126,241 L 122,241 L 120.5,239.5 Z M 65,142 L 67,142 L 68.5,145 L 68.5,203 L 67,206 L 65,206 L 63.5,203.5 L 63.5,144.5 Z M 78.5,77 L 213,77 L 216,81 L 219,82.5 L 219.5,224.5 L 218,227.5 L 77.5,227 L 76.5,224.5 L 76.5,80 Z M 116.5,98 L 115,100 L 115.5,205.5 L 118,207 L 121,211 L 180,210.5 L 185.5,204 L 185.5,196 L 183.5,193 L 178,193 L 174,188.5 L 134.5,188.5 L 133.5,187.5 L 133.5,100.5 L 132,98 Z" fill="#08741c" fill-rule="evenodd"/>
  <path d="M 177.5,344.5 L 175.5,346.5 L 175.5,391.5 L 177,393 L 180.5,392.5 L 181.5,389.5 L 181.5,348.5 L 181,346 Z M 381,279.5 L 379,281.5 L 379,300.5 L 380.5,302 L 383.5,302 L 385,298.5 L 385,283.5 L 384.5,281 Z M 65,141 L 63,142.5 L 63,205.5 L 66.5,207 L 68.5,205.5 L 68.5,142.5 Z M 112,119.5 L 110.5,121.5 L 110.5,153 L 111.5,154.5 L 114.5,155 L 116.5,152 L 116.5,122.5 L 115.5,120 Z" fill="#0b1fb3" fill-rule="evenodd"/>
</svg>
