<svg xmlns="http://www.w3.org/2000/svg" viewBox="0 0 512 512" width="512" height="512" role="img" aria-label="batch_job_clock">
  <title>batch_job_clock</title>
  <desc>Пакет данных + часы</desc>
  <path d="M 211.5,405 L 211.5,408 L 213,409.5 L 235.5,409.5 L 237.5,408 L 237.5,405.5 L 236,404 L 212.5,404 Z M 147.5,406 L 148,408.5 L 149.5,409.5 L 176.5,409.5 L 178,408 L 178,405 L 177,404 L 149,404 Z M 164.5,393 L 165,396 L 167,397 L 227,397 L 229,395.5 L 229,392.5 L 227,391 L 167,391 Z M 84.5,383 L 84,387 L 87,388.5 L 90,392.5 L 95.5,392.5 L 98.5,396.5 L 105.5,396 L 106,393 L 105,391.5 L 98.5,391 L 96,387 L 90.5,387 L 88,383 Z M 432.5,338 L 431.5,336.5 L 428.5,336.5 L 427.5,337.5 L 427.5,343 L 426,344.5 L 421.5,344.5 L 419,340.5 L 415.5,340.5 L 414.5,342.5 L 415,345 L 418,346 L 421,350 L 426.5,350 L 428.5,347 L 432.5,344 Z M 437,328 L 435.5,332 L 436.5,338 L 435.5,350.5 L 437.5,354 L 440,354 L 441.5,352.5 L 441.5,329 L 440.5,328 Z M 258.5,328 L 257.5,330 L 257.5,351.5 L 258.5,353.5 L 261.5,354 L 263.5,351.5 L 263.5,330.5 L 262,328 Z M 450.5,323.5 L 448.5,325.5 L 448.5,360.5 L 450,362.5 L 452.5,362.5 L 454.5,359.5 L 454.5,327 L 453.5,324 Z M 229.5,325.5 L 228.5,323.5 L 225.5,323.5 L 222.5,327.5 L 158,327.5 L 156.5,328.5 L 156,331 L 157.5,333 L 223,333 L 226,329 L 229,328 Z M 246,319.5 L 245,321 L 245,339.5 L 246,341 L 248.5,341.5 L 250.5,340 L 250.5,321 L 249.5,319.5 Z M 164.5,318.5 L 166.5,320.5 L 222.5,320.5 L 224.5,319 L 225,316.5 L 223.5,315 L 166,315 Z M 75.5,302.5 L 72.5,302.5 L 71,304 L 71,356.5 L 73.5,358.5 L 76.5,357 L 76.5,304 Z M 330,253 L 330,255 L 331.5,256.5 L 350.5,256.5 L 352,255.5 L 352,252.5 L 350,251 L 332,251 Z M 169,252.5 L 169,255.5 L 170,256.5 L 219,256.5 L 220.5,255 L 220.5,252.5 L 218.5,251 L 171,251 Z M 181.5,240.5 L 183,244 L 214.5,244 L 216.5,242 L 215,238.5 L 183,238.5 Z M 73,221.5 L 71,223.5 L 71,284.5 L 72.5,286 L 74,286 L 75.5,289 L 78,290.5 L 81,294.5 L 83,295 L 85,293.5 L 85,290.5 L 82.5,289.5 L 80.5,286.5 L 76.5,283.5 L 76.5,223 Z M 327,166.5 L 325.5,168 L 325.5,191 L 326.5,192.5 L 330,192.5 L 331.5,189 L 331.5,170.5 L 330.5,167 Z M 215.5,163.5 L 215.5,166 L 217,167.5 L 236,167.5 L 237.5,166 L 237.5,163.5 L 236,162 L 217,162 Z M 152,163.5 L 152,166 L 153.5,167.5 L 172,167.5 L 174,165.5 L 172.5,162 L 153.5,162 Z M 311.5,149 L 307.5,153.5 L 305.5,153.5 L 304.5,154.5 L 304.5,158 L 305.5,159 L 308,159 L 310.5,155 L 312.5,155 L 313.5,156.5 L 312.5,161.5 L 313,208.5 L 314,209.5 L 317,209.5 L 318.5,208 L 318.5,153 L 317,150 Z M 77.5,149 L 72.5,150 L 71,152.5 L 71,208 L 75.5,211.5 L 76.5,214 L 80.5,213.5 L 81,210.5 L 76.5,207 L 77,162 L 76,156.5 L 77,155 L 79,155 L 81.5,159 L 84,159 L 85,158 L 85,154.5 L 84,153.5 L 82,153.5 L 80,150.5 Z M 72.5,115.5 L 71,117.5 L 71.5,132.5 L 74,133.5 L 76,137 L 78.5,138 L 80.5,141.5 L 84,143.5 L 85,146 L 88.5,146 L 89.5,144 L 89,141.5 L 86,140.5 L 84.5,137.5 L 82,136.5 L 80,133 L 76.5,131 L 76.5,117 L 75,115.5 Z M 164.5,79 L 166,82.5 L 219,82.5 L 220.5,81 L 220.5,78.5 L 219,77 L 166.5,77 Z M 198.5,66 L 198.5,68.5 L 200,70 L 223,70 L 225,67.5 L 223.5,64.5 L 200,64.5 Z M 164.5,66.5 L 165,69 L 166.5,70 L 189,70 L 191,68.5 L 191,66 L 189.5,64.5 L 166,64.5 Z" fill="#8fb7df" fill-rule="evenodd"/>
  <path d="M 332.5,238.5 L 328.5,243 L 315,243 L 312,247 L 306.5,247 L 303,251.5 L 297.5,251.5 L 291,259.5 L 285,260 L 273.5,272.5 L 271,273.5 L 271,279 L 262.5,286.5 L 262.5,291.5 L 258,295.5 L 258,301 L 253.5,305 L 254,313 L 249.5,317 L 250,337.5 L 245,343 L 245,351.5 L 249.5,355.5 L 250,363 L 245,368.5 L 253.5,376.5 L 254,382.5 L 257,384 L 258.5,387 L 258,394.5 L 266.5,402 L 267,408.5 L 269,409 L 285,426 L 291,426.5 L 297.5,434.5 L 303,434.5 L 306.5,439 L 311.5,439 L 315,443 L 328.5,443 L 332.5,447.5 L 367,447.5 L 371,443 L 380,443 L 383,439 L 392.5,439 L 395.5,435 L 401.5,434.5 L 409,426 L 414.5,426 L 416,423 L 425.5,413.5 L 428,412.5 L 428.5,406.5 L 436.5,400 L 437,393.5 L 441,391 L 441,385.5 L 445,383 L 445.5,376.5 L 448.5,375 L 450,372 L 449.5,312 L 445.5,309.5 L 445.5,304 L 441,300.5 L 441,295 L 437,292.5 L 437,287 L 428.5,279.5 L 428,273.5 L 425.5,272.5 L 419,264.5 L 413,264 L 406,256 L 400,255.5 L 398,252 L 392,251.5 L 389,247.5 L 383,247 L 380,243 L 375,243 L 371.5,238.5 L 369.5,239 L 367,243 L 362.5,238.5 Z M 332.5,252 L 366.5,252 L 370.5,256.5 L 379.5,256.5 L 382.5,260.5 L 388,260.5 L 391.5,265 L 396.5,265 L 398,266.5 L 398,272 L 400,273.5 L 405,273.5 L 408,277.5 L 413.5,277.5 L 415,279 L 415,284.5 L 427.5,296 L 427.5,301 L 432,304.5 L 432,310 L 436.5,314 L 436,326.5 L 440.5,330 L 440.5,351.5 L 436,355.5 L 436.5,368 L 432.5,371 L 431.5,374.5 L 432,381.5 L 428,384 L 427.5,390 L 419.5,397 L 419,403 L 409.5,412.5 L 403.5,413 L 392,425.5 L 387,425.5 L 384,429.5 L 375,429.5 L 371,434 L 328.5,434 L 321,425.5 L 319,425.5 L 316,429.5 L 314.5,429.5 L 312,425.5 L 307,425.5 L 303.5,421 L 298,421 L 296,417.5 L 279,400.5 L 276,399 L 275.5,392.5 L 271.5,390 L 271.5,384.5 L 267.5,382 L 267,375.5 L 263,373 L 263,355 L 258.5,351 L 258.5,330.5 L 263,327 L 262.5,319 L 263.5,316.5 L 267,314.5 L 267,305 L 271.5,301.5 L 271.5,296 L 277,290.5 L 279.5,289.5 L 280,283.5 L 294.5,269 L 299.5,269 L 307,260.5 L 312.5,260.5 L 315.5,256.5 L 328.5,256.5 Z M 349.5,412.5 L 345,412.5 L 343,414 L 342.5,424.5 L 344.5,426.5 L 347,426 L 348,423.5 L 352,420 L 352,414.5 Z M 266.5,337 L 267,341 L 270,342 L 272,345 L 278,345.5 L 279.5,344.5 L 280,338 L 278.5,336.5 L 268,336 Z M 344,290 L 343,292 L 338.5,296 L 339,348.5 L 341.5,350 L 349.5,358.5 L 370.5,358 L 373.5,362 L 379.5,362.5 L 383.5,367 L 389,366.5 L 390.5,364 L 390.5,356 L 389,353.5 L 383,353 L 380,349 L 366.5,349 L 363.5,345 L 355.5,345 L 352,343 L 352,291.5 L 350,289.5 Z M 115.5,73 L 108,81.5 L 99,81.5 L 83,94 L 77,94.5 L 58.5,117.5 L 58.5,356 L 68,375 L 74.5,375.5 L 81,383.5 L 107.5,396.5 L 137.5,400.5 L 141,405 L 176,405 L 179,409 L 239.5,405 L 246,397 L 235.5,391.5 L 227,395.5 L 166.5,395.5 L 163.5,391.5 L 150,391.5 L 146.5,387 L 137.5,391.5 L 126,383 L 119.5,387 L 81,369.5 L 80.5,363 L 72,356 L 73,303 L 107,320 L 120.5,320 L 124.5,324.5 L 138,324.5 L 141,328.5 L 223,328.5 L 229,320.5 L 167.5,319.5 L 163.5,315 L 137,315 L 126,306.5 L 120,311 L 116.5,306.5 L 107.5,306.5 L 81.5,293.5 L 72,283.5 L 71.5,224 L 74.5,222.5 L 81.5,231 L 99,239.5 L 124.5,243.5 L 128.5,248 L 146.5,248 L 149.5,252 L 240,252 L 243,248 L 278.5,243.5 L 295.5,235 L 296.5,227 L 281,226 L 265,234.5 L 218,238.5 L 214,243 L 141.5,238.5 L 130,230 L 124,234.5 L 120.5,230 L 90.5,221.5 L 72,207.5 L 72,152 L 78.5,150.5 L 94.5,163 L 104,163 L 120,171.5 L 137.5,171.5 L 142,176 L 218.5,180 L 222.5,175.5 L 230.5,175.5 L 236,180 L 252,171.5 L 269.5,171.5 L 273.5,167 L 295,163 L 311,150.5 L 316,150.5 L 317.5,207 L 310.5,209 L 308.5,214.5 L 317,219 L 318,226 L 325,226.5 L 331,220.5 L 331,194 L 326.5,190.5 L 326.5,169 L 331,165 L 331,122 L 322.5,104.5 L 312.5,94.5 L 278.5,77.5 L 269,77.5 L 257.5,69 L 251,73 L 248.5,69 L 231,69 L 227.5,64.5 L 222,69 L 201,69 L 197,64.5 L 188.5,69 L 167,69 L 162,64.5 L 158.5,69 L 145,69 L 142,73 L 132,69 L 121,77.5 Z M 72,118 L 90.5,99.5 L 95.5,99.5 L 99,95 L 104.5,95 L 107.5,91 L 116.5,91 L 120.5,86.5 L 138,86.5 L 141.5,82.5 L 163,82.5 L 167,78 L 218,78 L 222,82.5 L 248,82.5 L 251.5,86.5 L 265,86.5 L 269,91 L 278,91 L 281,95 L 290.5,95 L 296,100.5 L 297,103 L 303,103.5 L 313,113.5 L 313,118.5 L 317,121.5 L 318,125 L 313,130 L 313,135.5 L 307.5,141 L 302,141 L 294.5,149.5 L 289.5,149.5 L 286.5,154 L 284.5,153 L 282.5,149.5 L 280.5,149.5 L 273.5,158 L 264,158 L 260.5,162.5 L 239.5,162 L 235,166.5 L 154,166.5 L 151,162.5 L 141.5,162 L 138.5,158 L 135.5,158.5 L 133,162.5 L 129,162.5 L 125.5,158 L 116,158 L 112,153.5 L 103.5,154 L 100,149.5 L 95,149.5 L 92,145.5 L 86,145 L 72,131 Z" fill="#0b1fb3" fill-rule="evenodd"/>
</svg>
