<?xml version="1.0" encoding="UTF-8"?>
<svg xmlns="http://www.w3.org/2000/svg" width="512" height="512" viewBox="0 0 512 512" role="img" aria-label="risk gate shield lock">
  <title>risk gate shield lock</title>
  <path d="M 271.0 118.0 L 263.0 119.0 L 232.0 146.0 L 202.0 163.0 L 182.0 169.0 L 170.0 170.0 L 159.0 173.0 L 149.0 172.0 L 143.0 175.0 L 141.0 178.0 L 139.0 209.0 L 139.0 266.0 L 143.0 292.0 L 148.0 307.0 L 149.0 315.0 L 163.0 348.0 L 177.0 368.0 L 196.0 387.0 L 220.0 406.0 L 265.0 433.0 L 273.0 430.0 L 292.0 417.0 L 296.0 416.0 L 334.0 389.0 L 353.0 370.0 L 365.0 355.0 L 378.0 332.0 L 385.0 311.0 L 392.0 269.0 L 394.0 234.0 L 393.0 177.0 L 387.0 171.0 L 374.0 171.0 L 352.0 168.0 L 327.0 160.0 L 301.0 145.0 Z M 268.0 137.0 L 271.0 141.0 L 292.0 158.0 L 322.0 175.0 L 351.0 184.0 L 377.0 186.0 L 379.0 189.0 L 379.0 217.0 L 377.0 241.0 L 377.0 266.0 L 374.0 287.0 L 368.0 309.0 L 367.0 318.0 L 361.0 332.0 L 346.0 355.0 L 321.0 379.0 L 307.0 390.0 L 266.0 416.0 L 219.0 386.0 L 207.0 376.0 L 183.0 350.0 L 170.0 327.0 L 160.0 299.0 L 159.0 288.0 L 156.0 278.0 L 153.0 248.0 L 156.0 188.0 L 187.0 184.0 L 205.0 178.0 L 225.0 168.0 L 234.0 161.0 L 240.0 159.0 L 257.0 146.0 L 266.0 137.0 Z M 256.0 205.0 L 247.0 211.0 L 240.0 219.0 L 235.0 233.0 L 235.0 257.0 L 229.0 260.0 L 224.0 266.0 L 222.0 295.0 L 223.0 339.0 L 228.0 345.0 L 240.0 346.0 L 308.0 345.0 L 313.0 339.0 L 312.0 265.0 L 308.0 259.0 L 301.0 258.0 L 299.0 256.0 L 299.0 231.0 L 297.0 224.0 L 291.0 213.0 L 279.0 204.0 L 267.0 202.0 Z M 298.0 273.0 L 298.0 328.0 L 296.0 330.0 L 237.0 330.0 L 236.0 275.0 L 238.0 273.0 L 294.0 271.0 Z M 265.0 280.0 L 259.0 284.0 L 255.0 290.0 L 255.0 298.0 L 261.0 305.0 L 262.0 323.0 L 269.0 325.0 L 272.0 324.0 L 274.0 321.0 L 274.0 304.0 L 279.0 297.0 L 279.0 289.0 L 272.0 281.0 Z M 259.0 219.0 L 271.0 218.0 L 275.0 219.0 L 281.0 224.0 L 285.0 232.0 L 285.0 256.0 L 283.0 258.0 L 249.0 257.0 L 249.0 232.0 L 251.0 227.0 Z" fill="#0b1fb3" fill-rule="evenodd"/>
</svg>
