<?xml version="1.0" encoding="UTF-8"?>
<svg xmlns="http://www.w3.org/2000/svg" width="512" height="512" viewBox="0 0 512 512" role="img" aria-label="candles price">
  <title>candles price</title>
  <path d="M 132.0 207.0 L 127.0 213.0 L 129.0 260.0 L 126.0 263.0 L 114.0 263.0 L 110.0 267.0 L 112.0 286.0 L 112.0 363.0 L 110.0 367.0 L 110.0 372.0 L 114.0 376.0 L 127.0 375.0 L 129.0 377.0 L 128.0 418.0 L 131.0 422.0 L 137.0 423.0 L 142.0 417.0 L 142.0 377.0 L 144.0 375.0 L 153.0 376.0 L 160.0 371.0 L 160.0 266.0 L 156.0 262.0 L 144.0 263.0 L 141.0 260.0 L 141.0 213.0 L 138.0 208.0 Z M 146.0 356.0 L 148.0 358.0 L 148.0 361.0 L 146.0 363.0 L 143.0 363.0 L 142.0 359.0 Z M 137.0 356.0 L 136.0 359.0 L 130.0 363.0 L 125.0 362.0 L 122.0 358.0 L 124.0 355.0 L 127.0 357.0 L 131.0 357.0 L 135.0 354.0 Z M 126.0 338.0 L 128.0 341.0 L 128.0 345.0 L 124.0 349.0 L 123.0 341.0 Z M 142.0 339.0 L 146.0 337.0 L 147.0 341.0 L 143.0 342.0 Z M 147.0 324.0 L 148.0 328.0 L 144.0 331.0 L 142.0 327.0 Z M 126.0 323.0 L 129.0 325.0 L 129.0 327.0 L 127.0 329.0 L 124.0 329.0 L 122.0 326.0 Z M 145.0 309.0 L 147.0 311.0 L 147.0 315.0 L 144.0 318.0 L 142.0 318.0 L 141.0 316.0 L 143.0 314.0 L 143.0 310.0 Z M 127.0 301.0 L 129.0 303.0 L 129.0 306.0 L 126.0 309.0 L 124.0 309.0 L 123.0 304.0 Z M 147.0 298.0 L 145.0 302.0 L 137.0 301.0 L 138.0 299.0 L 143.0 297.0 Z M 139.0 275.0 L 145.0 276.0 L 148.0 281.0 L 147.0 289.0 L 144.0 292.0 L 138.0 291.0 L 144.0 284.0 L 142.0 280.0 L 138.0 282.0 L 134.0 281.0 L 134.0 279.0 Z M 125.0 275.0 L 128.0 278.0 L 126.0 281.0 L 123.0 281.0 L 122.0 278.0 Z M 209.0 176.0 L 204.0 183.0 L 206.0 229.0 L 203.0 232.0 L 192.0 232.0 L 188.0 236.0 L 188.0 351.0 L 192.0 355.0 L 204.0 355.0 L 206.0 357.0 L 205.0 395.0 L 208.0 402.0 L 214.0 404.0 L 220.0 398.0 L 220.0 357.0 L 222.0 355.0 L 235.0 355.0 L 239.0 350.0 L 237.0 255.0 L 239.0 237.0 L 234.0 231.0 L 221.0 232.0 L 218.0 229.0 L 218.0 180.0 L 214.0 176.0 Z M 202.0 245.0 L 223.0 245.0 L 225.0 248.0 L 225.0 338.0 L 223.0 341.0 L 203.0 342.0 L 201.0 340.0 Z M 371.0 162.0 L 365.0 167.0 L 365.0 216.0 L 363.0 218.0 L 353.0 218.0 L 348.0 224.0 L 348.0 314.0 L 349.0 317.0 L 353.0 320.0 L 365.0 320.0 L 367.0 322.0 L 367.0 336.0 L 365.0 343.0 L 366.0 362.0 L 370.0 367.0 L 375.0 368.0 L 381.0 362.0 L 380.0 322.0 L 383.0 319.0 L 394.0 320.0 L 398.0 318.0 L 400.0 315.0 L 398.0 286.0 L 399.0 222.0 L 394.0 217.0 L 381.0 217.0 L 379.0 215.0 L 379.0 167.0 L 374.0 162.0 Z M 364.0 231.0 L 382.0 231.0 L 385.0 233.0 L 385.0 304.0 L 382.0 306.0 L 365.0 306.0 L 362.0 304.0 L 362.0 233.0 Z M 285.0 139.0 L 281.0 145.0 L 281.0 169.0 L 283.0 192.0 L 281.0 194.0 L 271.0 194.0 L 266.0 201.0 L 266.0 298.0 L 267.0 301.0 L 271.0 304.0 L 281.0 303.0 L 284.0 306.0 L 283.0 344.0 L 286.0 348.0 L 292.0 350.0 L 297.0 345.0 L 297.0 306.0 L 300.0 303.0 L 312.0 303.0 L 316.0 296.0 L 314.0 290.0 L 315.0 200.0 L 313.0 195.0 L 310.0 193.0 L 298.0 193.0 L 296.0 191.0 L 294.0 169.0 L 294.0 143.0 L 291.0 139.0 Z M 297.0 287.0 L 299.0 285.0 L 302.0 286.0 L 300.0 290.0 Z M 290.0 284.0 L 290.0 286.0 L 285.0 290.0 L 282.0 290.0 L 280.0 288.0 L 281.0 285.0 L 285.0 285.0 L 288.0 283.0 Z M 285.0 270.0 L 287.0 272.0 L 286.0 275.0 L 281.0 280.0 L 280.0 275.0 Z M 298.0 255.0 L 302.0 257.0 L 299.0 263.0 L 297.0 263.0 L 295.0 260.0 Z M 284.0 243.0 L 285.0 246.0 L 282.0 248.0 L 281.0 245.0 Z M 298.0 241.0 L 301.0 243.0 L 301.0 246.0 L 299.0 248.0 L 295.0 246.0 L 295.0 244.0 Z M 279.0 235.0 L 281.0 232.0 L 284.0 233.0 L 282.0 236.0 Z M 295.0 232.0 L 297.0 230.0 L 300.0 231.0 L 299.0 234.0 L 296.0 234.0 Z M 299.0 218.0 L 300.0 221.0 L 294.0 225.0 L 293.0 222.0 L 297.0 218.0 Z M 279.0 208.0 L 282.0 207.0 L 284.0 210.0 L 280.0 212.0 Z M 297.0 206.0 L 301.0 209.0 L 299.0 213.0 L 296.0 212.0 L 294.0 209.0 Z" fill="#0b1fb3" fill-rule="evenodd"/>
</svg>
