<svg xmlns="http://www.w3.org/2000/svg" viewBox="0 0 512 512" width="512" height="512" role="img" aria-label="greeks_delta_gamma">
  <title>greeks_delta_gamma</title>
  <desc>Символы Δ Γ Θ Vega в компактном блоке</desc>
  <path d="M 380,398 L 380,401 L 381.5,402 L 429,402 L 430.5,401 L 430.5,398 L 428.5,397 L 382,397 Z M 82,398 L 82,401 L 83.5,402 L 360.5,402 L 362.5,400.5 L 362.5,398.5 L 360.5,397 L 84,397 Z M 161,369.5 L 161,372 L 162,373 L 178.5,373 L 179.5,371.5 L 179.5,370 L 178,368.5 L 162,368.5 Z M 129.5,315 L 128,317.5 L 128,334.5 L 129.5,337 L 131.5,337 L 133,335.5 L 133,316.5 L 132,315 Z M 319.5,311.5 L 318.5,313 L 318.5,328.5 L 321.5,330 L 323,329 L 323.5,327 L 323.5,314.5 L 322,311.5 Z M 192,307.5 L 189.5,308.5 L 189,311 L 189.5,320.5 L 186,323.5 L 186,328.5 L 189,330.5 L 189.5,336 L 190.5,337 L 192.5,337 L 194,335.5 L 194,309 Z M 161,290.5 L 161,293 L 162,294 L 178.5,294 L 179.5,292.5 L 179.5,291 L 178,289.5 L 162.5,289.5 Z M 453,243 L 451.5,244 L 451.5,393.5 L 454.5,394.5 L 456,393 L 456,244.5 L 454.5,243 Z M 146,220.5 L 147,225 L 149,226 L 188,226 L 190.5,223 L 190.5,220 L 189,218 L 186.5,218.5 L 184.5,221.5 L 152,221.5 L 149,218 L 147.5,218 Z M 317,157 L 315,158 L 315,160.5 L 318.5,162.5 L 318.5,235 L 319.5,236.5 L 322,236.5 L 323.5,233.5 L 323.5,163.5 L 323,161.5 L 320.5,160.5 L 319.5,158.5 Z M 315,150.5 L 315,153 L 316.5,154 L 318,154 L 321,150.5 L 367.5,150.5 L 371,154.5 L 373.5,153 L 373,150 L 370.5,149.5 L 368,146 L 320.5,146 L 317.5,149.5 Z M 452.5,128.5 L 451.5,129.5 L 451.5,207 L 454.5,208 L 456,206.5 L 456,129.5 L 455,128.5 Z M 69.5,124.5 L 67,126.5 L 67,389 L 69,391 L 71,390.5 L 72,389 L 72,126.5 Z M 58,121 L 56.5,122.5 L 56.5,393 L 57,394 L 59.5,394.5 L 61,393.5 L 61.5,391 L 61.5,125 L 60.5,121.5 Z M 78.5,114.5 L 78.5,117.5 L 80,118.5 L 436,118.5 L 442,125.5 L 445,124.5 L 445,122 L 436,113.5 L 80,113.5 Z M 74.5,105 L 76,107.5 L 437,107.5 L 438,106 L 436.5,103 L 76,103 Z" fill="#8fb7df" fill-rule="evenodd"/>
  <path d="M 60.5,118.5 L 60,395.5 L 68.5,405 L 73,405 L 77,409 L 435.5,409 L 439.5,405 L 444,405 L 452,397 L 452,245.5 L 456,241.5 L 456,209.5 L 452,205.5 L 452,130.5 L 456,126.5 L 452,123 L 447.5,110.5 L 443,110.5 L 440,107 L 72.5,107 Z M 71.5,119.5 L 77.5,118 L 80,114.5 L 436,114.5 L 444.5,123 L 444.5,392.5 L 439.5,397.5 L 431.5,397.5 L 429,401 L 381.5,401 L 379,397.5 L 363.5,397.5 L 360.5,401 L 83.5,401 L 81,397.5 L 76.5,397.5 L 68,389 L 68,126.5 L 71.5,124.5 Z M 368,297 L 363.5,297 L 358.5,301.5 L 358.5,320.5 L 355,323 L 354.5,328 L 351,330.5 L 351,335.5 L 344,341 L 344,345.5 L 343,347 L 338.5,347 L 337,345 L 337.5,331.5 L 337,330 L 334.5,329 L 333.5,327.5 L 334,310 L 333,308 L 330,306.5 L 330,301.5 L 325,297 L 316.5,297 L 314,300.5 L 309.5,300.5 L 308,303 L 304.5,305.5 L 304.5,314 L 306,315.5 L 314,315.5 L 317,312 L 321,312 L 322.5,313.5 L 322.5,339.5 L 326,342 L 326,361 L 329.5,363.5 L 329.5,368 L 330.5,369 L 340,369 L 341,367 L 348,361 L 348,356.5 L 357,347.5 L 358.5,347 L 359,341.5 L 362,340 L 362.5,334.5 L 365.5,333 L 366,327.5 L 369.5,325 L 369.5,310 L 373,307.5 L 373,305 L 369.5,302.5 L 369.5,298 Z M 159,279 L 156,282.5 L 151.5,282.5 L 150,285 L 147.5,286.5 L 146.5,288.5 L 144,290 L 143,292 L 140.5,293.5 L 139.5,295.5 L 135.5,299 L 136,306 L 132,309.5 L 132,339 L 136,342.5 L 135.5,349.5 L 139.5,353 L 139.5,357.5 L 141.5,358.5 L 144,362 L 148.5,362 L 155.5,369.5 L 181,369.5 L 184.5,365.5 L 189,365.5 L 190,363.5 L 197,357.5 L 197.5,352.5 L 204.5,346.5 L 204.5,327.5 L 208,325.5 L 208,323 L 204,319.5 L 204.5,305.5 L 201,303 L 201,298.5 L 197.5,296 L 197,290.5 L 194.5,289.5 L 192.5,286.5 L 187.5,286 L 185,282.5 L 180.5,282.5 L 177.5,279 Z M 162.5,290.5 L 177.5,290.5 L 189.5,302.5 L 189.5,307 L 193.5,310.5 L 193.5,334.5 L 189.5,338 L 189.5,346 L 187,347.5 L 186,349.5 L 183.5,351 L 177.5,358 L 163,358 L 160,354.5 L 155.5,354.5 L 154,352 L 150.5,349.5 L 150.5,344.5 L 148,343.5 L 147,342 L 147,306 L 149.5,304.5 L 150.5,302.5 L 153,301 Z M 190,320.5 L 189.5,319 L 187.5,318 L 155,318.5 L 150.5,323 L 150.5,325.5 L 155.5,330 L 184.5,330 L 186.5,329 L 186.5,324.5 L 189.5,322 Z M 368,150 L 320,150 L 318,153 L 315.5,154 L 315.5,157 L 322.5,162.5 L 323,236 L 328.5,236.5 L 333.5,232 L 334,230.5 L 334,162 L 335.5,161 L 368.5,161 L 370.5,158 L 373,157 L 373,154 L 370.5,153 Z M 165.5,150 L 164.5,151 L 164.5,155.5 L 161,158 L 160.5,163.5 L 157.5,165 L 157.5,173 L 153.5,176.5 L 153.5,181 L 150,183.5 L 150.5,190.5 L 146.5,194 L 146.5,199 L 143,201 L 143,206 L 139.5,208.5 L 139.5,216.5 L 136,219 L 136,223.5 L 132,227 L 132,235 L 133.5,236.5 L 203,236.5 L 208,232 L 208,229.5 L 204.5,227.5 L 204.5,223 L 201,220.5 L 201,216 L 197,212.5 L 197.5,205.5 L 196.5,204 L 194,203 L 193.5,197.5 L 190,195 L 190,187 L 186.5,184.5 L 186,179 L 184,178.5 L 182.5,176 L 183,169.5 L 179,165.5 L 179.5,162 L 175.5,159 L 175.5,154.5 L 170.5,150 Z M 171,172 L 172,173 L 171.5,181.5 L 175.5,184.5 L 175,191.5 L 179,195 L 179,199.5 L 182.5,202 L 182.5,207 L 186,209 L 186,217.5 L 189.5,220 L 190,223 L 188.5,225 L 148,225 L 146.5,221.5 L 147,220 L 150.5,217.5 L 150.5,213 L 154,210.5 L 154,202.5 L 155,201 L 157.5,200 L 157.5,195.5 L 159,193.5 L 161,193 L 161.5,187.5 L 165,185 L 165,177 L 169.5,172 Z" fill="#0b1fb3" fill-rule="evenodd"/>
</svg>
