<?xml version="1.0" encoding="UTF-8"?>
<svg xmlns="http://www.w3.org/2000/svg" width="512" height="512" viewBox="0 0 512 512" role="img" aria-label="stop loss">
  <title>stop loss</title>
  <path d="M 253.0 120.0 L 247.0 121.0 L 213.0 148.0 L 188.0 162.0 L 179.0 164.0 L 168.0 169.0 L 139.0 172.0 L 133.0 176.0 L 131.0 180.0 L 131.0 210.0 L 129.0 215.0 L 129.0 245.0 L 132.0 280.0 L 135.0 288.0 L 136.0 298.0 L 142.0 313.0 L 142.0 317.0 L 149.0 333.0 L 166.0 358.0 L 184.0 376.0 L 200.0 389.0 L 245.0 417.0 L 253.0 417.0 L 295.0 390.0 L 320.0 369.0 L 332.0 357.0 L 343.0 343.0 L 352.0 327.0 L 359.0 306.0 L 363.0 288.0 L 367.0 252.0 L 366.0 175.0 L 362.0 171.0 L 336.0 168.0 L 304.0 158.0 L 282.0 145.0 Z M 250.0 138.0 L 269.0 154.0 L 291.0 168.0 L 305.0 175.0 L 325.0 181.0 L 353.0 185.0 L 354.0 220.0 L 353.0 252.0 L 350.0 267.0 L 349.0 283.0 L 346.0 290.0 L 346.0 299.0 L 342.0 309.0 L 342.0 314.0 L 339.0 318.0 L 336.0 327.0 L 326.0 342.0 L 298.0 369.0 L 271.0 389.0 L 249.0 402.0 L 231.0 392.0 L 197.0 368.0 L 186.0 358.0 L 169.0 338.0 L 158.0 317.0 L 149.0 288.0 L 143.0 246.0 L 143.0 224.0 L 145.0 214.0 L 144.0 189.0 L 147.0 185.0 L 159.0 185.0 L 169.0 182.0 L 175.0 182.0 L 180.0 179.0 L 185.0 179.0 L 193.0 176.0 L 218.0 162.0 Z M 273.0 220.0 L 267.0 225.0 L 266.0 228.0 L 267.0 269.0 L 265.0 281.0 L 265.0 308.0 L 270.0 312.0 L 278.0 313.0 L 311.0 311.0 L 315.0 307.0 L 315.0 303.0 L 311.0 298.0 L 281.0 297.0 L 279.0 294.0 L 281.0 231.0 L 279.0 224.0 L 275.0 220.0 Z M 212.0 219.0 L 202.0 223.0 L 193.0 232.0 L 190.0 237.0 L 188.0 245.0 L 189.0 253.0 L 193.0 261.0 L 200.0 267.0 L 206.0 270.0 L 215.0 271.0 L 222.0 274.0 L 230.0 282.0 L 230.0 291.0 L 223.0 298.0 L 210.0 299.0 L 205.0 297.0 L 198.0 290.0 L 195.0 289.0 L 187.0 295.0 L 187.0 299.0 L 195.0 308.0 L 200.0 311.0 L 211.0 314.0 L 219.0 314.0 L 231.0 310.0 L 240.0 301.0 L 244.0 293.0 L 244.0 280.0 L 240.0 271.0 L 233.0 264.0 L 225.0 260.0 L 210.0 257.0 L 203.0 250.0 L 203.0 241.0 L 212.0 234.0 L 218.0 233.0 L 226.0 237.0 L 230.0 241.0 L 235.0 242.0 L 241.0 237.0 L 241.0 233.0 L 233.0 223.0 L 221.0 219.0 Z" fill="#0b1fb3" fill-rule="evenodd"/>
</svg>
