<svg xmlns="http://www.w3.org/2000/svg" viewBox="0 0 512 512" width="512" height="512" role="img" aria-label="leverage_multiplier">
  <title>leverage_multiplier</title>
  <desc>Рычаг или x2 / x5 рядом с графиком</desc>
  <path d="M 213,397 L 213,402 L 216,404.5 L 321,404.5 L 322.5,403.5 L 322.5,400.5 L 321.5,399.5 L 219.5,400 L 218,397.5 L 223,393 L 225.5,392 L 225.5,388.5 L 222,388 L 221,390 L 217,393 L 216.5,395 Z M 59,337.5 L 57.5,338.5 L 57,341 L 57,358 L 58.5,361.5 L 61,361.5 L 62.5,359.5 L 62.5,339.5 L 61,337.5 Z M 258,314 L 253.5,314 L 250.5,318 L 245.5,318 L 244.5,319 L 244.5,322 L 246,323 L 251,323 L 253,326.5 L 256,326.5 L 257,323.5 L 259.5,322.5 L 261,320 L 260.5,316.5 Z M 252,319.5 L 254.5,318.5 L 256,321 L 255,322 L 253,322 Z M 92.5,304 L 93,306.5 L 94.5,307.5 L 110.5,307.5 L 112.5,306.5 L 112.5,303.5 L 111.5,302.5 L 93.5,302.5 Z M 345.5,113 L 345.5,116 L 347,117 L 375.5,117 L 377,116 L 377,113 L 376,112 L 346.5,112 Z M 337.5,98 L 338,100.5 L 339.5,101.5 L 375.5,101.5 L 377,100 L 377,97.5 L 376,96.5 L 338.5,96.5 Z" fill="#8fb7df" fill-rule="evenodd"/>
  <path d="M 455,246 L 451,243 L 451,234 L 442,225 L 433,228.5 L 430,232.5 L 425,228.5 L 414,236.5 L 405.5,236.5 L 402,240.5 L 393.5,240.5 L 391,244 L 371,248 L 367.5,252 L 355,252 L 351.5,256 L 343,256 L 339.5,260 L 331,260 L 328.5,263.5 L 320.5,263.5 L 317,267.5 L 296.5,271.5 L 293.5,275.5 L 288,271.5 L 281.5,279.5 L 274,279 L 270,283 L 261,283.5 L 258.5,287 L 246,287 L 242.5,291 L 234,291 L 231,295 L 211.5,298.5 L 208.5,302.5 L 203,298.5 L 196,306.5 L 187.5,306.5 L 184.5,310.5 L 172,310.5 L 169,314 L 160,314.5 L 157.5,318 L 149,318 L 145.5,322 L 137.5,322 L 119,306.5 L 90.5,306.5 L 87,310.5 L 78.5,310.5 L 65.5,323 L 65.5,328 L 61.5,331.5 L 61.5,364 L 65.5,367 L 65.5,372 L 82.5,388.5 L 94.5,388.5 L 98,392.5 L 111,392.5 L 121.5,385 L 126.5,385 L 139.5,372.5 L 140,366.5 L 144,363 L 143.5,356 L 149,350 L 157.5,350 L 160.5,346 L 169,346 L 172.5,342 L 181,342 L 184.5,338 L 204,334.5 L 207.5,330.5 L 219.5,330.5 L 223,326.5 L 231.5,326.5 L 235,322.5 L 243.5,322.5 L 246.5,318.5 L 258.5,315 L 260,320.5 L 248.5,330.5 L 248,336.5 L 240.5,342.5 L 240,348.5 L 229,358 L 228.5,363.5 L 221,370 L 221,375 L 209.5,385 L 209,391 L 201.5,397 L 201.5,402 L 197.5,405.5 L 198,411 L 203.5,416 L 340,416 L 346,410.5 L 346,405 L 338,398 L 338.5,394 L 330.5,386.5 L 330,381 L 319,371.5 L 319,366.5 L 311,359.5 L 311,354.5 L 299.5,344 L 299,338.5 L 291.5,332 L 291.5,327 L 280,317 L 280,308.5 L 294,307 L 297.5,303 L 306,303 L 308.5,299.5 L 316.5,299.5 L 320,295.5 L 328.5,295.5 L 332,291.5 L 340.5,291.5 L 344,287.5 L 352.5,287.5 L 355,284 L 363,284 L 366.5,280 L 375,280 L 378.5,276 L 391,276 L 394.5,272 L 403,272 L 405.5,268.5 L 413.5,268.5 L 417,264.5 L 425.5,264.5 L 429,260.5 L 449.5,256.5 L 455,251 Z M 213.5,398.5 L 221.5,391 L 222.5,389 L 225,388 L 225.5,382.5 L 233.5,375 L 233,371 L 245,360 L 245,355 L 247.5,353.5 L 250,350 L 252,349.5 L 253,343 L 255,342 L 261.5,334.5 L 264,333.5 L 264.5,327.5 L 268.5,325 L 268,319.5 L 271,319 L 272.5,322 L 275.5,324.5 L 276,330 L 278,330.5 L 279.5,333 L 283,335.5 L 283,340.5 L 291,347.5 L 291,352.5 L 293,353.5 L 299,359.5 L 299.5,361 L 302.5,362.5 L 302.5,367.5 L 310,374 L 310.5,380 L 313,381 L 314.5,383.5 L 322,390 L 322.5,396 L 324.5,396.5 L 327.5,400 L 328.5,400 L 329.5,401 L 329.5,403 L 328.5,404 L 215,403.5 L 213.5,401.5 Z M 90,319 L 91.5,319 L 94,322.5 L 96,322.5 L 98.5,319 L 115,319 L 117.5,322.5 L 122,322.5 L 124.5,326 L 127.5,328 L 128,333.5 L 131.5,335.5 L 131.5,344.5 L 135.5,347 L 135.5,348 L 131.5,351 L 131.5,363.5 L 129,365 L 127.5,367.5 L 120,374 L 119,376 L 113.5,376.5 L 111.5,380 L 109.5,380 L 107.5,376.5 L 105.5,376.5 L 102.5,380.5 L 95,380.5 L 92,376.5 L 87,376.5 L 85,373.5 L 83,372.5 L 81,369.5 L 79,368.5 L 73.5,362.5 L 74,355 L 69.5,351 L 69.5,344.5 L 74,340 L 73.5,332.5 L 79,326.5 L 81,325.5 L 82.5,323 L 88,322.5 Z M 442.5,242 L 442.5,243.5 L 437.5,248 L 432.5,248 L 429.5,252 L 421,252 L 417.5,256 L 405.5,256 L 402.5,259.5 L 394.5,259.5 L 390.5,263.5 L 381.5,264 L 379,267.5 L 370.5,267.5 L 367.5,271.5 L 358.5,271.5 L 355.5,275.5 L 348,275 L 344,279 L 335.5,279 L 332.5,283 L 324,283 L 320.5,287 L 308,287 L 304.5,291 L 298,290.5 L 293.5,294.5 L 285.5,294.5 L 282,298.5 L 272.5,299 L 270,302.5 L 261.5,302.5 L 258.5,306.5 L 249.5,306.5 L 246.5,310.5 L 237.5,310.5 L 235.5,314 L 223,314 L 219.5,318 L 211,318 L 208,322 L 199,322 L 196,326 L 187,326 L 184,330 L 176.5,329.5 L 173,333.5 L 164.5,333.5 L 161,337.5 L 152.5,337.5 L 149.5,341.5 L 145.5,341.5 L 143.5,339 L 143.5,332.5 L 145,330.5 L 154,330.5 L 157,326.5 L 169.5,326.5 L 172.5,322.5 L 180.5,323 L 184.5,318.5 L 192.5,319 L 195.5,315 L 204.5,315 L 207.5,311 L 220,311 L 223.5,307 L 232,307 L 235,303 L 240,303 L 242,299.5 L 251,299.5 L 254,295.5 L 266.5,295.5 L 269.5,291.5 L 278.5,291.5 L 281.5,287.5 L 293,288 L 297,284 L 306,283.5 L 308.5,280 L 317,280 L 320.5,276 L 329,276 L 332,272 L 341,272 L 343.5,268.5 L 351.5,268.5 L 355,264.5 L 363.5,264.5 L 367,260.5 L 375.5,260.5 L 378.5,256.5 L 391,256.5 L 394,253 L 403,252.5 L 405.5,249 L 414,249 L 417.5,245 L 426,245 L 429,241 L 441,240.5 Z M 318,128 L 315,128 L 313,131.5 L 308,131.5 L 306.5,134 L 302.5,137 L 302.5,142 L 300,143.5 L 298,147 L 296,147 L 295,145.5 L 295.5,140.5 L 292.5,139 L 286,131.5 L 276.5,131.5 L 275.5,132.5 L 276,136 L 279.5,138 L 279.5,143 L 283,145 L 283.5,151 L 287,153 L 287,158 L 291,160.5 L 289.5,163 L 283.5,167.5 L 283.5,172 L 279.5,175.5 L 279,181 L 275.5,183 L 276,186.5 L 278,187 L 280.5,190.5 L 282.5,190.5 L 284,188 L 295.5,177.5 L 295,172.5 L 296.5,171 L 297.5,171 L 302.5,176.5 L 303,182 L 305.5,183 L 311.5,190.5 L 313.5,190.5 L 318.5,186 L 318.5,183 L 314.5,179.5 L 314.5,175 L 311,173 L 310.5,167 L 307,165 L 307,153.5 L 311,150.5 L 311,145 L 312,144 L 318,143.5 L 319,142 L 318.5,138 L 323,134.5 L 322.5,132.5 L 320.5,131.5 Z M 335,96.5 L 333.5,97.5 L 333.5,103.5 L 331,104.5 L 329.5,107 L 330,146.5 L 335.5,151.5 L 340.5,151.5 L 347.5,144 L 359.5,144 L 362,147.5 L 367.5,148 L 369,150 L 369,164.5 L 367.5,166.5 L 365,167.5 L 364.5,173.5 L 359.5,178 L 351,178 L 348.5,174.5 L 343,174 L 337,166.5 L 335,166.5 L 333.5,169 L 330,171.5 L 329.5,180 L 332,183 L 336.5,183 L 343,190.5 L 364,190.5 L 367,186.5 L 372,186.5 L 373,184.5 L 381,177.5 L 381,172.5 L 385,169.5 L 385,149 L 381,145.5 L 381,140.5 L 378,139 L 375.5,135.5 L 371,135.5 L 367.5,131.5 L 355.5,131.5 L 352,127.5 L 350,128 L 347.5,131.5 L 343.5,131.5 L 342,129.5 L 342,126 L 346,123 L 346,114 L 347,113 L 379,113 L 381,111.5 L 381,102 L 379.5,100.5 L 340,100.5 L 337,96.5 Z" fill="#0b1fb3" fill-rule="evenodd"/>
</svg>
