<svg xmlns="http://www.w3.org/2000/svg" viewBox="0 0 512 512" width="512" height="512" role="img" aria-label="hedging_umbrella">
  <title>hedging_umbrella</title>
  <desc>Зонтик над портфелем или графиком</desc>
  <path d="M 212.5,436 L 213.5,440 L 217.5,441.5 L 233.5,441 L 235.5,438 L 235.5,434 L 234,432 L 231.5,432 L 228.5,436 L 220,436 L 217.5,432.5 L 214.5,432 L 213.5,432.5 Z M 278.5,414.5 L 277,416 L 277,419 L 278,420 L 287.5,420 L 289,421 L 289.5,434.5 L 288,436 L 278.5,436 L 277,437 L 277,440 L 278.5,441.5 L 288.5,441.5 L 290.5,438 L 294,436.5 L 295,434.5 L 295,421 L 294,419.5 L 291.5,419 L 288.5,414.5 Z M 304.5,410.5 L 302,412.5 L 302,431 L 303,432.5 L 306.5,432.5 L 307.5,431 L 307.5,412 Z M 268.5,403.5 L 268.5,406 L 270,407.5 L 297,407.5 L 299,405.5 L 298.5,403 L 297,402 L 270,402 Z M 221.5,390.5 L 221.5,393.5 L 224.5,395 L 228,399 L 246,399 L 249,395 L 251.5,394.5 L 252.5,393 L 252,390 L 250,389 L 248,389.5 L 245.5,393.5 L 228,393.5 L 226.5,390.5 L 224.5,389 Z M 165,363.5 L 156,363.5 L 154.5,364.5 L 153.5,367 L 152,368.5 L 150.5,368.5 L 149,370.5 L 149,439 L 150.5,441 L 153.5,441 L 155,438.5 L 154.5,371 L 156,369.5 L 165,369.5 L 166.5,371 L 166,426 L 168,428.5 L 170,428.5 L 172,426.5 L 172,370.5 L 170.5,368.5 L 169,368.5 Z M 180,360 L 179,361.5 L 179,438.5 L 180.5,441 L 183.5,441.5 L 203.5,441.5 L 205.5,440 L 205.5,437.5 L 204,436 L 186,436 L 184,433.5 L 184.5,361.5 L 183,360 Z M 137.5,360 L 136.5,361.5 L 136.5,439.5 L 137.5,441 L 141,441 L 142.5,437.5 L 142,361.5 L 141,360 Z M 145,353.5 L 146.5,356.5 L 174.5,356.5 L 176,354 L 175.5,352 L 174,351 L 147,351 Z M 418.5,347 L 416.5,349 L 416.5,418 L 417.5,419.5 L 420.5,420 L 422.5,417.5 L 422.5,349.5 L 421.5,347.5 Z M 352,342.5 L 342.5,342.5 L 339,347 L 336,348.5 L 336,439.5 L 337,441 L 340.5,441 L 341.5,439.5 L 341.5,349.5 L 343,348 L 353.5,347.5 L 354,344 Z M 327,338.5 L 324,339 L 323,341.5 L 323.5,434 L 322,436 L 311.5,436.5 L 311,440 L 312.5,441.5 L 327,441 L 329,438 L 329,341 Z M 419,296 L 417.5,296.5 L 416.5,298.5 L 416.5,324.5 L 418,326.5 L 421,326.5 L 422.5,324 L 422.5,298.5 L 421.5,296.5 Z M 401.5,296 L 399.5,298 L 399.5,438 L 401.5,441 L 416,441.5 L 417.5,440 L 417,436.5 L 406.5,436 L 405,434 L 405.5,299 L 404,296.5 Z M 431.5,287.5 L 429.5,289 L 429.5,440 L 430.5,441 L 433.5,441 L 435,439.5 L 435,289.5 L 434,288 Z M 390.5,287.5 L 387,289 L 387,434.5 L 385.5,436 L 367.5,436 L 366,437.5 L 366,440 L 368,441.5 L 388,441.5 L 391.5,440.5 L 392.5,439 L 392.5,289.5 Z M 260.5,220 L 259.5,221.5 L 259.5,371.5 L 260.5,373 L 263,373.5 L 265,372 L 265.5,369.5 L 265.5,223.5 L 264,220 Z M 250.5,215.5 L 248.5,215.5 L 247,217 L 246.5,219.5 L 247,375 L 243.5,377 L 241.5,380.5 L 231.5,381 L 230,384.5 L 232,386.5 L 242.5,386 L 243.5,383.5 L 245,382 L 246.5,382 L 248.5,378.5 L 251,377.5 L 252.5,375.5 L 252.5,217.5 Z M 370,217.5 L 370.5,219.5 L 372.5,221 L 394.5,221 L 396.5,219 L 396,216 L 394,215 L 372.5,215 Z M 115.5,217 L 115.5,219 L 117.5,221 L 144,221 L 146,219.5 L 145.5,216 L 143.5,215 L 118,215 Z M 370,205 L 371.5,208 L 395,208 L 396.5,206.5 L 396.5,204 L 394.5,202.5 L 372,202.5 Z M 115.5,204 L 115.5,206.5 L 117,208 L 145,208 L 146,206.5 L 146,204 L 144,202.5 L 117.5,202.5 Z M 181,181.5 L 179,183 L 179,202 L 180.5,203.5 L 183,203.5 L 184.5,202 L 184.5,183.5 L 183.5,182 Z M 141.5,131 L 138,130.5 L 136.5,133.5 L 133.5,135 L 132,138 L 129.5,139 L 128,142 L 125,143.5 L 122.5,147.5 L 120,148 L 119.5,151.5 L 121,153 L 124,152.5 L 125,150 L 128,148.5 L 129.5,145.5 L 132.5,144 L 133.5,141.5 L 136.5,140 L 139,136 L 141.5,135.5 Z M 137,118 L 133.5,118 L 132,121 L 129.5,122 L 128,125 L 125,126.5 L 123.5,129.5 L 120.5,131 L 119.5,133.5 L 116.5,135 L 115,138 L 112.5,139 L 111,142 L 108,143.5 L 105.5,147.5 L 103,148 L 102.5,151.5 L 104,153 L 107,152.5 L 108,150 L 111,148.5 L 112.5,145.5 L 115.5,144 L 116.5,141.5 L 119.5,140 L 121,137 L 123.5,136 L 125,133 L 128,131.5 L 129.5,128.5 L 132,127.5 L 134.5,123.5 L 137.5,122.5 L 138,120 Z M 281.5,93 L 281.5,97 L 284,98 L 285.5,100.5 L 289.5,103.5 L 290.5,106 L 294,106 L 295,103 L 294,101.5 L 291.5,101 L 290.5,99 L 294.5,96 L 294.5,93.5 L 292,92 Z M 261.5,58.5 L 259.5,60.5 L 259.5,78.5 L 261,80.5 L 264.5,80 L 265.5,77 L 265.5,62.5 L 265,60 L 263.5,58.5 Z" fill="#8fb7df" fill-rule="evenodd"/>
  <path d="M 430.5,285.5 L 429,283.5 L 391.5,285 L 390,440.5 L 366.5,438.5 L 366.5,335.5 L 329,334.5 L 326,440.5 L 303,439.5 L 307.5,433.5 L 302.5,429 L 301.5,406.5 L 265,407 L 264.5,425 L 259.5,431 L 264,438 L 262.5,441 L 254,440.5 L 237,419 L 211.5,419 L 205,424.5 L 203,440.5 L 181.5,440.5 L 179.5,438 L 180,357.5 L 143,355.5 L 141,439 L 122,440.5 L 120.5,425 L 114,419 L 79,419 L 77.5,423 L 82,426.5 L 82,438 L 80,440.5 L 70.5,440.5 L 64.5,448 L 71,454 L 441,454 L 447.5,447.5 L 447,441.5 L 432,440.5 L 430,437.5 Z M 243,438.5 L 244,437 L 247,437.5 L 247,439.5 L 245.5,441 L 244.5,441 Z M 213.5,435 L 215,433 L 233,433 L 234.5,434.5 L 235,437.5 L 232.5,440.5 L 216,440.5 L 213.5,438 Z M 90.5,435 L 92,433 L 106,433 L 107.5,435 L 107.5,438 L 105,440.5 L 93,440.5 L 90.5,438.5 Z M 279.5,415.5 L 287.5,415.5 L 294,421.5 L 294,434.5 L 291,436.5 L 288,440.5 L 279.5,440.5 L 277.5,438.5 L 277.5,417.5 Z M 156,365 L 165,365 L 167,368 L 171,371 L 171,425.5 L 166.5,429 L 167,432.5 L 171,434.5 L 171,438.5 L 169,440.5 L 152,440.5 L 150,438.5 L 150,371 L 151,369.5 L 153.5,368.5 Z M 343,343.5 L 351.5,343.5 L 353.5,345.5 L 353.5,438.5 L 351.5,440.5 L 338.5,440.5 L 336.5,437.5 L 336.5,351 L 337,349.5 L 340,347.5 Z M 402,297 L 420,297 L 421.5,299 L 421.5,323.5 L 417,327.5 L 417,346 L 421.5,350 L 421.5,417 L 417,421 L 417,439 L 415.5,440.5 L 402.5,440.5 L 400.5,438.5 L 400.5,299 Z M 258.5,58.5 L 251.5,60 L 251.5,78 L 249.5,80 L 231.5,80 L 228.5,84 L 211,84 L 207,88.5 L 203,88.5 L 198,84 L 190.5,92.5 L 181,92.5 L 178,96.5 L 155,105.5 L 148.5,113.5 L 142.5,114 L 99,157 L 94.5,171.5 L 86,179 L 86,188.5 L 82,191 L 81.5,197 L 77,202 L 77.5,209.5 L 73,213.5 L 73,231.5 L 75.5,233.5 L 84,233.5 L 88,229 L 102.5,224.5 L 105.5,220.5 L 114.5,220.5 L 117.5,216.5 L 144,216.5 L 147,220.5 L 160.5,220.5 L 163.5,224.5 L 169.5,225 L 177,233.5 L 182,233.5 L 185,237.5 L 195.5,233 L 198.5,229 L 204,229 L 206.5,225 L 212.5,224.5 L 215.5,220.5 L 225,220.5 L 228,216.5 L 251.5,218 L 251.5,375 L 241,385.5 L 233,385.5 L 229,381 L 218.5,381.5 L 218,389.5 L 224,390 L 228,394.5 L 246,394.5 L 249,390.5 L 255.5,390 L 256.5,383 L 260.5,380.5 L 260.5,222 L 266,216.5 L 280,216.5 L 283,220.5 L 296.5,220.5 L 299.5,224.5 L 305.5,225 L 308,229 L 313.5,229 L 325.5,237.5 L 331,237.5 L 338.5,229 L 344,229 L 355.5,220.5 L 369,220.5 L 372.5,216.5 L 394.5,216.5 L 397.5,220.5 L 411,220.5 L 414,224.5 L 420,225 L 432,233.5 L 437.5,233 L 443.5,226 L 442.5,220.5 L 438.5,217 L 439,209 L 434.5,205.5 L 435,197.5 L 430,192 L 430.5,183.5 L 426,180 L 426,174.5 L 418,168 L 417.5,161.5 L 405,150.5 L 405,145 L 378,118 L 372.5,118 L 365,109.5 L 351.5,105.5 L 344,97 L 334.5,97 L 322.5,88.5 L 309,88.5 L 305.5,84 L 287.5,84 L 284.5,80 L 262.5,80 Z M 249,93.5 L 263,93.5 L 264.5,96 L 268,98.5 L 269.5,101.5 L 275.5,102 L 277.5,105 L 285.5,112 L 285.5,117.5 L 288.5,119 L 290,121.5 L 298,128.5 L 298,134 L 302.5,137.5 L 302.5,143 L 306.5,145.5 L 306.5,151 L 311,154.5 L 311,160 L 314,161.5 L 315.5,164 L 315,176 L 319.5,180 L 319,209 L 319.5,211 L 322.5,212.5 L 324,214.5 L 324,217 L 322,219.5 L 317.5,220 L 315,216 L 309,215.5 L 305.5,211.5 L 296.5,211.5 L 292.5,207 L 275,207 L 271.5,203 L 240.5,203 L 237,207 L 219.5,207 L 215.5,211.5 L 206.5,211.5 L 203,215.5 L 197.5,216 L 195.5,219.5 L 194,220 L 192.5,218.5 L 192.5,192.5 L 197,189 L 196.5,172.5 L 197,171 L 200,169.5 L 201.5,167 L 201,158.5 L 205,156 L 205.5,150 L 209,148 L 209.5,142 L 214,138 L 214,133 L 218,130.5 L 218,124.5 L 220.5,123 L 222.5,120 L 225,118.5 L 227,115.5 L 229,114.5 L 231.5,111 L 233.5,110 L 235.5,107 L 237.5,106 L 240,102.5 L 247.5,96 Z M 282,94 L 283,93 L 292.5,93.5 L 295.5,97.5 L 309,97.5 L 310.5,98.5 L 311.5,101 L 313.5,102 L 322,102 L 325.5,106 L 334.5,106 L 337.5,110 L 343.5,110.5 L 346.5,114.5 L 352,114.5 L 354,118 L 355.5,118.5 L 359,123 L 364.5,123 L 366.5,126 L 369,127.5 L 370.5,130 L 373,131.5 L 375,134.5 L 377.5,136 L 379,138.5 L 381.5,140 L 383.5,143 L 385.5,144 L 387.5,147 L 390,148.5 L 392,151.5 L 394,152.5 L 396,155.5 L 404,162.5 L 404.5,168.5 L 407.5,170 L 409.5,173.5 L 412.5,175 L 412.5,180.5 L 417,184 L 417,189.5 L 420,191 L 421.5,193 L 421,201.5 L 422.5,203.5 L 425.5,205 L 426,214 L 424.5,215.5 L 423,215.5 L 419,211 L 411,211.5 L 407,207 L 359.5,207 L 356.5,211 L 346.5,211.5 L 343.5,215.5 L 338.5,215.5 L 336.5,218.5 L 334,220 L 332,217.5 L 333,213.5 L 333,192.5 L 328.5,188.5 L 328,187 L 328.5,170.5 L 324,167 L 324.5,158.5 L 320,154.5 L 320,145 L 316,142 L 315.5,136 L 311.5,133.5 L 311.5,128 L 303,120.5 L 303,115 L 300,113.5 L 288.5,101 L 282,96 Z M 229.5,93.5 L 229.5,96.5 L 223.5,101 L 216,109.5 L 213.5,110.5 L 213,117 L 209,119.5 L 209,125 L 206.5,126.5 L 203.5,130.5 L 200.5,132 L 200.5,137.5 L 196.5,140.5 L 196.5,145.5 L 192,149.5 L 192,159 L 188,161.5 L 188,171 L 183.5,175 L 183.5,201.5 L 180.5,203 L 179,205.5 L 179.5,218.5 L 178.5,219.5 L 176.5,219.5 L 173.5,215.5 L 168.5,215.5 L 165.5,211.5 L 156.5,211.5 L 152.5,207 L 105,207 L 101,211.5 L 96,211.5 L 92.5,215.5 L 88,216 L 87,215 L 87,213 L 91,209.5 L 90.5,201.5 L 92,199.5 L 95,198 L 95,188 L 99,185.5 L 99.5,179.5 L 102,178 L 105,174 L 107.5,173 L 108,166.5 L 111,165 L 112.5,162 L 120.5,155.5 L 120.5,150 L 123,148.5 L 139,131.5 L 145,131 L 146,129 L 149.5,126.5 L 152,123 L 153.5,122.5 L 155.5,119 L 160.5,119 L 164.5,114.5 L 170,114.5 L 172.5,110.5 L 177.5,110.5 L 181.5,106 L 191,106 L 194,102 L 203,102 L 207,97.5 L 220.5,97.5 L 224,93.5 Z" fill="#0b1fb3" fill-rule="evenodd"/>
</svg>
