<?xml version="1.0" encoding="UTF-8"?>
<svg xmlns="http://www.w3.org/2000/svg" width="512" height="512" viewBox="0 0 512 512" role="img" aria-label="target signal">
  <title>target signal</title>
  <path d="M 245.0 213.0 L 227.0 216.0 L 208.0 224.0 L 197.0 232.0 L 185.0 244.0 L 176.0 257.0 L 169.0 272.0 L 166.0 287.0 L 166.0 310.0 L 168.0 314.0 L 168.0 322.0 L 177.0 341.0 L 197.0 364.0 L 208.0 371.0 L 224.0 378.0 L 237.0 381.0 L 259.0 381.0 L 262.0 379.0 L 272.0 378.0 L 281.0 375.0 L 291.0 370.0 L 303.0 362.0 L 311.0 354.0 L 321.0 341.0 L 328.0 327.0 L 333.0 308.0 L 334.0 293.0 L 331.0 281.0 L 331.0 273.0 L 328.0 264.0 L 323.0 258.0 L 320.0 257.0 L 316.0 259.0 L 308.0 267.0 L 308.0 272.0 L 311.0 277.0 L 314.0 293.0 L 312.0 315.0 L 304.0 332.0 L 294.0 344.0 L 280.0 354.0 L 258.0 362.0 L 235.0 361.0 L 218.0 354.0 L 208.0 347.0 L 195.0 332.0 L 188.0 316.0 L 185.0 302.0 L 185.0 293.0 L 188.0 286.0 L 188.0 279.0 L 196.0 262.0 L 215.0 243.0 L 232.0 235.0 L 243.0 233.0 L 267.0 236.0 L 277.0 226.0 L 276.0 220.0 L 271.0 216.0 L 254.0 213.0 Z M 235.0 156.0 L 210.0 161.0 L 180.0 174.0 L 167.0 183.0 L 146.0 202.0 L 132.0 220.0 L 120.0 244.0 L 116.0 260.0 L 112.0 269.0 L 112.0 278.0 L 109.0 288.0 L 109.0 306.0 L 116.0 344.0 L 127.0 369.0 L 143.0 391.0 L 161.0 408.0 L 175.0 418.0 L 190.0 426.0 L 220.0 436.0 L 228.0 436.0 L 235.0 438.0 L 262.0 438.0 L 287.0 433.0 L 315.0 422.0 L 338.0 406.0 L 355.0 390.0 L 375.0 361.0 L 382.0 344.0 L 389.0 311.0 L 389.0 281.0 L 385.0 262.0 L 376.0 237.0 L 366.0 223.0 L 363.0 223.0 L 349.0 236.0 L 362.0 264.0 L 363.0 274.0 L 366.0 283.0 L 366.0 307.0 L 364.0 322.0 L 358.0 342.0 L 346.0 364.0 L 332.0 380.0 L 321.0 390.0 L 303.0 402.0 L 273.0 413.0 L 245.0 416.0 L 231.0 413.0 L 223.0 413.0 L 217.0 410.0 L 210.0 409.0 L 187.0 398.0 L 171.0 386.0 L 154.0 367.0 L 144.0 350.0 L 137.0 332.0 L 132.0 305.0 L 132.0 295.0 L 138.0 262.0 L 146.0 243.0 L 156.0 227.0 L 174.0 207.0 L 186.0 198.0 L 214.0 184.0 L 222.0 183.0 L 228.0 180.0 L 267.0 180.0 L 284.0 184.0 L 300.0 192.0 L 304.0 192.0 L 317.0 180.0 L 317.0 177.0 L 314.0 174.0 L 293.0 163.0 L 266.0 157.0 Z M 388.0 117.0 L 383.0 116.0 L 365.0 134.0 L 348.0 154.0 L 348.0 170.0 L 351.0 180.0 L 264.0 267.0 L 257.0 265.0 L 240.0 266.0 L 227.0 275.0 L 219.0 291.0 L 219.0 302.0 L 225.0 315.0 L 230.0 320.0 L 243.0 327.0 L 259.0 327.0 L 270.0 321.0 L 277.0 313.0 L 281.0 301.0 L 280.0 285.0 L 277.0 281.0 L 278.0 277.0 L 325.0 231.0 L 361.0 193.0 L 365.0 192.0 L 376.0 196.0 L 380.0 196.0 L 411.0 166.0 L 419.0 161.0 L 421.0 158.0 L 421.0 154.0 L 416.0 149.0 L 408.0 151.0 L 395.0 150.0 L 392.0 152.0 L 389.0 150.0 L 390.0 120.0 Z M 243.0 282.0 L 248.0 280.0 L 251.0 281.0 L 250.0 285.0 L 247.0 288.0 L 247.0 291.0 L 250.0 296.0 L 257.0 297.0 L 261.0 293.0 L 265.0 294.0 L 265.0 301.0 L 258.0 310.0 L 244.0 310.0 L 238.0 305.0 L 236.0 301.0 L 236.0 290.0 Z M 382.0 167.0 L 386.0 163.0 L 392.0 164.0 L 391.0 166.0 L 386.0 168.0 Z M 364.0 158.0 L 365.0 163.0 L 362.0 166.0 L 360.0 164.0 L 360.0 160.0 Z" fill="#0b1fb3" fill-rule="evenodd"/>
</svg>
