<?xml version="1.0" encoding="UTF-8"?>
<svg xmlns="http://www.w3.org/2000/svg" width="512" height="512" viewBox="0 0 512 512" role="img" aria-label="volume bars">
  <title>volume bars</title>
  <path d="M 161.0 313.0 L 134.0 314.0 L 126.0 316.0 L 121.0 321.0 L 121.0 398.0 L 126.0 403.0 L 160.0 404.0 L 164.0 403.0 L 169.0 398.0 L 169.0 323.0 L 168.0 319.0 Z M 156.0 387.0 L 157.0 390.0 L 155.0 392.0 L 153.0 389.0 Z M 136.0 384.0 L 138.0 387.0 L 135.0 391.0 L 133.0 391.0 L 132.0 387.0 Z M 154.0 363.0 L 157.0 364.0 L 157.0 368.0 L 155.0 370.0 L 151.0 368.0 Z M 156.0 351.0 L 157.0 355.0 L 154.0 358.0 L 152.0 354.0 Z M 156.0 337.0 L 157.0 341.0 L 152.0 343.0 L 151.0 341.0 Z M 134.0 326.0 L 135.0 329.0 L 133.0 331.0 L 131.0 328.0 Z M 151.0 329.0 L 154.0 325.0 L 158.0 327.0 L 155.0 331.0 Z M 227.0 258.0 L 196.0 260.0 L 189.0 267.0 L 189.0 397.0 L 194.0 403.0 L 198.0 404.0 L 229.0 403.0 L 236.0 398.0 L 236.0 270.0 L 234.0 264.0 Z M 223.0 387.0 L 224.0 390.0 L 222.0 391.0 L 221.0 389.0 Z M 205.0 384.0 L 206.0 389.0 L 202.0 391.0 L 200.0 389.0 Z M 221.0 362.0 L 223.0 359.0 L 225.0 360.0 L 224.0 362.0 Z M 205.0 351.0 L 206.0 355.0 L 201.0 359.0 L 200.0 357.0 L 202.0 353.0 Z M 225.0 326.0 L 226.0 328.0 L 223.0 331.0 L 222.0 328.0 Z M 223.0 310.0 L 224.0 312.0 L 221.0 316.0 L 220.0 313.0 Z M 201.0 297.0 L 203.0 301.0 L 200.0 303.0 L 199.0 299.0 Z M 223.0 280.0 L 225.0 283.0 L 218.0 289.0 L 217.0 288.0 L 220.0 282.0 Z M 199.0 274.0 L 201.0 272.0 L 204.0 273.0 L 202.0 277.0 Z M 220.0 272.0 L 222.0 270.0 L 225.0 271.0 L 224.0 274.0 L 221.0 274.0 Z M 297.0 221.0 L 266.0 222.0 L 259.0 226.0 L 257.0 229.0 L 257.0 300.0 L 259.0 352.0 L 258.0 397.0 L 262.0 402.0 L 267.0 404.0 L 300.0 402.0 L 305.0 397.0 L 305.0 247.0 L 304.0 227.0 Z M 292.0 385.0 L 294.0 386.0 L 294.0 389.0 L 290.0 390.0 L 289.0 388.0 Z M 281.0 386.0 L 281.0 388.0 L 277.0 391.0 L 273.0 391.0 L 271.0 389.0 L 275.0 388.0 L 278.0 385.0 Z M 293.0 353.0 L 294.0 357.0 L 292.0 359.0 L 290.0 355.0 Z M 292.0 336.0 L 294.0 338.0 L 292.0 341.0 Z M 269.0 327.0 L 271.0 323.0 L 274.0 324.0 L 272.0 327.0 Z M 269.0 313.0 L 271.0 311.0 L 273.0 312.0 L 271.0 315.0 Z M 293.0 304.0 L 295.0 306.0 L 295.0 310.0 L 292.0 312.0 L 290.0 308.0 Z M 272.0 294.0 L 273.0 298.0 L 270.0 302.0 L 268.0 302.0 L 267.0 298.0 L 269.0 295.0 Z M 292.0 282.0 L 294.0 283.0 L 293.0 287.0 L 290.0 286.0 Z M 271.0 279.0 L 272.0 281.0 L 269.0 284.0 L 268.0 281.0 Z M 271.0 266.0 L 272.0 269.0 L 270.0 271.0 L 268.0 268.0 Z M 289.0 253.0 L 291.0 250.0 L 294.0 251.0 L 292.0 254.0 Z M 291.0 234.0 L 295.0 236.0 L 292.0 241.0 L 288.0 239.0 Z M 267.0 237.0 L 268.0 234.0 L 271.0 236.0 L 269.0 238.0 Z M 377.0 149.0 L 356.0 149.0 L 343.0 152.0 L 334.0 152.0 L 329.0 159.0 L 331.0 247.0 L 330.0 290.0 L 332.0 296.0 L 331.0 320.0 L 333.0 363.0 L 332.0 399.0 L 340.0 405.0 L 381.0 403.0 L 387.0 397.0 L 385.0 318.0 L 385.0 174.0 L 384.0 155.0 Z M 372.0 385.0 L 374.0 387.0 L 373.0 390.0 L 370.0 389.0 Z M 360.0 385.0 L 364.0 387.0 L 361.0 391.0 L 358.0 391.0 L 357.0 389.0 Z M 351.0 381.0 L 351.0 391.0 L 345.0 392.0 L 343.0 390.0 L 344.0 387.0 Z M 371.0 366.0 L 373.0 364.0 L 375.0 365.0 L 374.0 368.0 L 372.0 368.0 Z M 352.0 358.0 L 353.0 361.0 L 345.0 372.0 L 344.0 368.0 L 348.0 360.0 Z M 374.0 353.0 L 375.0 355.0 L 370.0 359.0 L 369.0 356.0 L 372.0 353.0 Z M 344.0 331.0 L 347.0 330.0 L 350.0 333.0 L 349.0 335.0 L 345.0 336.0 L 343.0 333.0 Z M 372.0 320.0 L 374.0 322.0 L 371.0 326.0 L 369.0 326.0 L 368.0 323.0 Z M 373.0 305.0 L 376.0 309.0 L 371.0 315.0 L 367.0 317.0 L 365.0 315.0 Z M 347.0 297.0 L 348.0 301.0 L 344.0 305.0 L 343.0 301.0 Z M 349.0 289.0 L 350.0 291.0 L 347.0 295.0 L 345.0 295.0 L 344.0 291.0 Z M 370.0 285.0 L 372.0 284.0 L 373.0 286.0 L 371.0 288.0 Z M 370.0 274.0 L 371.0 271.0 L 374.0 272.0 L 372.0 275.0 Z M 346.0 264.0 L 347.0 266.0 L 343.0 270.0 L 342.0 266.0 Z M 347.0 248.0 L 348.0 251.0 L 346.0 255.0 L 343.0 257.0 L 341.0 254.0 Z M 373.0 245.0 L 373.0 250.0 L 363.0 258.0 L 362.0 254.0 L 371.0 245.0 Z M 347.0 238.0 L 348.0 240.0 L 344.0 244.0 L 342.0 241.0 L 345.0 238.0 Z M 372.0 231.0 L 374.0 235.0 L 370.0 238.0 L 368.0 235.0 Z M 348.0 215.0 L 348.0 220.0 L 343.0 224.0 L 341.0 220.0 Z M 373.0 213.0 L 374.0 216.0 L 370.0 220.0 L 369.0 216.0 L 371.0 213.0 Z M 372.0 200.0 L 373.0 204.0 L 370.0 206.0 L 369.0 202.0 Z M 347.0 200.0 L 348.0 202.0 L 346.0 205.0 L 342.0 207.0 L 341.0 203.0 L 344.0 200.0 Z M 372.0 184.0 L 374.0 186.0 L 373.0 189.0 L 363.0 198.0 L 363.0 192.0 Z M 346.0 183.0 L 347.0 186.0 L 344.0 189.0 L 342.0 185.0 Z M 368.0 175.0 L 369.0 179.0 L 366.0 181.0 L 365.0 178.0 Z M 371.0 170.0 L 373.0 172.0 L 370.0 176.0 L 369.0 172.0 Z M 346.0 163.0 L 347.0 167.0 L 343.0 170.0 L 341.0 168.0 L 341.0 165.0 L 343.0 163.0 Z M 367.0 165.0 L 369.0 162.0 L 373.0 164.0 L 370.0 167.0 Z M 355.0 163.0 L 359.0 162.0 L 360.0 165.0 L 356.0 167.0 Z" fill="#0b1fb3" fill-rule="evenodd"/>
</svg>
