<?xml version="1.0" encoding="UTF-8"?>
<svg xmlns="http://www.w3.org/2000/svg" width="512" height="512" viewBox="0 0 512 512" role="img" aria-label="trader person">
  <title>trader person</title>
  <path d="M 142.0 340.0 L 141.0 352.0 L 138.0 359.0 L 138.0 391.0 L 136.0 403.0 L 138.0 407.0 L 144.0 411.0 L 152.0 410.0 L 160.0 412.0 L 184.0 412.0 L 199.0 414.0 L 324.0 414.0 L 360.0 412.0 L 372.0 408.0 L 374.0 404.0 L 373.0 348.0 L 370.0 340.0 L 369.0 331.0 L 359.0 311.0 L 340.0 293.0 L 316.0 280.0 L 310.0 279.0 L 303.0 275.0 L 297.0 276.0 L 293.0 281.0 L 293.0 289.0 L 287.0 305.0 L 285.0 307.0 L 276.0 335.0 L 272.0 333.0 L 271.0 314.0 L 268.0 310.0 L 268.0 305.0 L 274.0 299.0 L 274.0 286.0 L 281.0 278.0 L 281.0 275.0 L 278.0 270.0 L 274.0 267.0 L 255.0 266.0 L 239.0 269.0 L 233.0 274.0 L 233.0 279.0 L 240.0 287.0 L 237.0 299.0 L 241.0 303.0 L 247.0 304.0 L 247.0 307.0 L 243.0 315.0 L 243.0 339.0 L 241.0 341.0 L 237.0 339.0 L 237.0 335.0 L 230.0 319.0 L 226.0 301.0 L 221.0 289.0 L 221.0 279.0 L 219.0 276.0 L 216.0 275.0 L 211.0 276.0 L 184.0 290.0 L 168.0 301.0 L 153.0 317.0 L 149.0 323.0 Z M 331.0 398.0 L 333.0 396.0 L 335.0 397.0 L 333.0 400.0 Z M 247.0 399.0 L 249.0 396.0 L 253.0 396.0 L 255.0 398.0 L 252.0 401.0 L 249.0 401.0 Z M 356.0 398.0 L 357.0 395.0 L 360.0 396.0 L 358.0 399.0 Z M 343.0 397.0 L 345.0 395.0 L 347.0 396.0 L 346.0 399.0 Z M 280.0 395.0 L 281.0 399.0 L 278.0 400.0 L 277.0 398.0 Z M 324.0 394.0 L 325.0 396.0 L 322.0 398.0 L 321.0 397.0 Z M 288.0 397.0 L 290.0 394.0 L 294.0 395.0 L 294.0 398.0 L 292.0 400.0 L 290.0 400.0 Z M 200.0 397.0 L 203.0 394.0 L 206.0 396.0 L 204.0 399.0 Z M 177.0 397.0 L 179.0 393.0 L 183.0 395.0 L 181.0 398.0 Z M 171.0 393.0 L 171.0 397.0 L 167.0 399.0 L 165.0 397.0 L 166.0 395.0 Z M 303.0 392.0 L 305.0 393.0 L 304.0 399.0 L 301.0 398.0 Z M 272.0 391.0 L 273.0 394.0 L 267.0 400.0 L 265.0 397.0 Z M 158.0 385.0 L 159.0 389.0 L 156.0 394.0 L 152.0 397.0 L 150.0 395.0 L 150.0 392.0 Z M 359.0 372.0 L 360.0 375.0 L 358.0 376.0 L 357.0 374.0 Z M 155.0 371.0 L 156.0 373.0 L 153.0 376.0 L 152.0 374.0 Z M 155.0 371.0 L 157.0 368.0 L 159.0 369.0 L 157.0 372.0 Z M 311.0 358.0 L 312.0 359.0 L 306.0 367.0 L 292.0 382.0 L 291.0 380.0 L 297.0 371.0 L 306.0 361.0 Z M 360.0 356.0 L 361.0 360.0 L 356.0 363.0 L 355.0 361.0 L 357.0 357.0 Z M 267.0 351.0 L 269.0 353.0 L 265.0 361.0 L 258.0 385.0 L 255.0 387.0 L 248.0 373.0 L 244.0 358.0 L 241.0 354.0 L 243.0 352.0 L 250.0 351.0 Z M 183.0 348.0 L 184.0 350.0 L 174.0 358.0 L 173.0 356.0 Z M 354.0 338.0 L 357.0 339.0 L 357.0 342.0 L 355.0 344.0 L 352.0 342.0 Z M 160.0 336.0 L 163.0 340.0 L 157.0 347.0 L 155.0 347.0 L 154.0 345.0 L 158.0 337.0 Z M 218.0 336.0 L 220.0 333.0 L 222.0 334.0 L 221.0 336.0 Z M 351.0 328.0 L 354.0 332.0 L 352.0 334.0 L 349.0 334.0 L 348.0 331.0 Z M 343.0 320.0 L 345.0 318.0 L 348.0 319.0 L 346.0 323.0 Z M 216.0 314.0 L 217.0 318.0 L 214.0 320.0 L 213.0 317.0 Z M 335.0 310.0 L 338.0 309.0 L 340.0 312.0 L 336.0 313.0 Z M 189.0 303.0 L 190.0 305.0 L 184.0 312.0 L 182.0 312.0 L 181.0 310.0 L 187.0 303.0 Z M 214.0 302.0 L 215.0 305.0 L 212.0 308.0 L 211.0 304.0 Z M 325.0 300.0 L 327.0 303.0 L 323.0 306.0 L 321.0 304.0 Z M 312.0 298.0 L 314.0 296.0 L 316.0 299.0 L 313.0 300.0 Z M 212.0 294.0 L 210.0 297.0 L 206.0 299.0 L 204.0 298.0 L 209.0 293.0 Z M 302.0 295.0 L 304.0 292.0 L 308.0 293.0 L 306.0 296.0 Z M 256.0 107.0 L 241.0 110.0 L 225.0 117.0 L 218.0 122.0 L 203.0 138.0 L 193.0 158.0 L 193.0 164.0 L 190.0 171.0 L 190.0 190.0 L 193.0 197.0 L 194.0 205.0 L 200.0 219.0 L 211.0 234.0 L 231.0 248.0 L 241.0 252.0 L 268.0 253.0 L 286.0 248.0 L 293.0 244.0 L 311.0 228.0 L 319.0 215.0 L 325.0 196.0 L 326.0 171.0 L 325.0 162.0 L 318.0 143.0 L 312.0 134.0 L 300.0 122.0 L 291.0 116.0 L 279.0 111.0 Z M 250.0 232.0 L 253.0 234.0 L 253.0 237.0 L 251.0 239.0 L 247.0 239.0 L 245.0 237.0 Z M 242.0 229.0 L 244.0 231.0 L 241.0 235.0 L 238.0 236.0 L 235.0 234.0 L 237.0 231.0 Z M 217.0 219.0 L 219.0 215.0 L 222.0 216.0 L 220.0 220.0 Z M 239.0 211.0 L 240.0 213.0 L 230.0 227.0 L 232.0 230.0 L 230.0 231.0 L 224.0 226.0 L 224.0 224.0 L 229.0 221.0 Z M 212.0 210.0 L 215.0 209.0 L 216.0 211.0 L 214.0 213.0 Z M 213.0 196.0 L 214.0 199.0 L 210.0 203.0 L 207.0 203.0 L 206.0 199.0 L 211.0 195.0 Z M 273.0 193.0 L 274.0 195.0 L 269.0 201.0 L 268.0 199.0 Z M 309.0 195.0 L 311.0 192.0 L 313.0 193.0 L 311.0 196.0 Z M 203.0 189.0 L 203.0 187.0 L 207.0 184.0 L 212.0 185.0 L 206.0 191.0 Z M 313.0 177.0 L 314.0 181.0 L 309.0 184.0 L 308.0 181.0 Z M 285.0 174.0 L 286.0 177.0 L 281.0 182.0 L 279.0 180.0 Z M 209.0 169.0 L 209.0 172.0 L 204.0 177.0 L 202.0 174.0 L 205.0 169.0 Z M 309.0 162.0 L 312.0 164.0 L 312.0 168.0 L 310.0 170.0 L 307.0 170.0 L 305.0 167.0 Z M 306.0 152.0 L 308.0 155.0 L 304.0 157.0 L 303.0 155.0 Z M 297.0 146.0 L 299.0 143.0 L 302.0 144.0 L 299.0 148.0 Z M 217.0 141.0 L 218.0 142.0 L 215.0 148.0 L 217.0 153.0 L 207.0 161.0 L 206.0 157.0 L 210.0 152.0 L 213.0 144.0 Z M 289.0 134.0 L 292.0 133.0 L 294.0 137.0 L 290.0 138.0 Z M 237.0 127.0 L 238.0 130.0 L 232.0 134.0 L 230.0 132.0 L 235.0 127.0 Z M 244.0 126.0 L 246.0 125.0 L 247.0 128.0 L 245.0 129.0 Z M 271.0 128.0 L 273.0 124.0 L 277.0 126.0 L 275.0 129.0 Z M 260.0 122.0 L 261.0 126.0 L 257.0 128.0 L 256.0 125.0 Z" fill="#0b1fb3" fill-rule="evenodd"/>
</svg>
