<?xml version="1.0" encoding="UTF-8"?>
<svg xmlns="http://www.w3.org/2000/svg" width="512" height="512" viewBox="0 0 512 512" role="img" aria-label="forecast nodes">
  <title>forecast nodes</title>
  <path d="M 273.0 108.0 L 256.0 104.0 L 243.0 109.0 L 231.0 121.0 L 227.0 134.0 L 229.0 147.0 L 232.0 153.0 L 241.0 162.0 L 246.0 163.0 L 251.0 167.0 L 252.0 213.0 L 241.0 222.0 L 236.0 231.0 L 235.0 240.0 L 237.0 247.0 L 222.0 263.0 L 205.0 278.0 L 198.0 275.0 L 185.0 275.0 L 179.0 278.0 L 170.0 286.0 L 164.0 300.0 L 164.0 308.0 L 167.0 314.0 L 166.0 317.0 L 134.0 352.0 L 125.0 349.0 L 116.0 350.0 L 108.0 353.0 L 98.0 362.0 L 93.0 373.0 L 92.0 383.0 L 98.0 397.0 L 106.0 405.0 L 119.0 410.0 L 127.0 410.0 L 140.0 404.0 L 147.0 397.0 L 152.0 385.0 L 151.0 371.0 L 146.0 361.0 L 176.0 328.0 L 178.0 327.0 L 187.0 331.0 L 194.0 331.0 L 205.0 328.0 L 258.0 388.0 L 259.0 392.0 L 255.0 398.0 L 253.0 410.0 L 255.0 418.0 L 259.0 425.0 L 264.0 430.0 L 272.0 434.0 L 291.0 434.0 L 299.0 430.0 L 308.0 419.0 L 311.0 411.0 L 311.0 401.0 L 303.0 387.0 L 335.0 337.0 L 341.0 331.0 L 345.0 333.0 L 352.0 333.0 L 365.0 329.0 L 375.0 319.0 L 379.0 303.0 L 376.0 297.0 L 376.0 293.0 L 371.0 285.0 L 356.0 277.0 L 341.0 278.0 L 332.0 284.0 L 283.0 246.0 L 284.0 231.0 L 280.0 223.0 L 273.0 216.0 L 267.0 214.0 L 267.0 166.0 L 269.0 163.0 L 275.0 161.0 L 284.0 152.0 L 289.0 139.0 L 287.0 123.0 L 283.0 117.0 Z M 279.0 395.0 L 287.0 397.0 L 294.0 405.0 L 292.0 412.0 L 286.0 418.0 L 277.0 418.0 L 270.0 410.0 L 270.0 403.0 Z M 117.0 367.0 L 127.0 367.0 L 132.0 371.0 L 135.0 376.0 L 135.0 383.0 L 132.0 388.0 L 127.0 392.0 L 118.0 392.0 L 113.0 389.0 L 110.0 385.0 L 109.0 377.0 Z M 350.0 293.0 L 356.0 295.0 L 362.0 303.0 L 361.0 309.0 L 357.0 314.0 L 352.0 317.0 L 347.0 316.0 L 339.0 308.0 L 339.0 304.0 L 342.0 298.0 Z M 191.0 291.0 L 196.0 293.0 L 203.0 301.0 L 202.0 307.0 L 194.0 314.0 L 189.0 314.0 L 186.0 312.0 L 181.0 305.0 L 182.0 298.0 Z M 246.0 260.0 L 250.0 260.0 L 256.0 263.0 L 266.0 263.0 L 272.0 260.0 L 276.0 260.0 L 324.0 298.0 L 323.0 312.0 L 328.0 323.0 L 318.0 336.0 L 311.0 350.0 L 291.0 379.0 L 281.0 376.0 L 274.0 377.0 L 269.0 380.0 L 236.0 342.0 L 232.0 335.0 L 216.0 318.0 L 216.0 315.0 L 219.0 311.0 L 219.0 295.0 L 216.0 290.0 Z M 258.0 228.0 L 264.0 230.0 L 269.0 236.0 L 267.0 242.0 L 260.0 247.0 L 256.0 246.0 L 250.0 239.0 L 250.0 236.0 Z M 255.0 121.0 L 263.0 122.0 L 268.0 126.0 L 272.0 133.0 L 271.0 140.0 L 262.0 149.0 L 252.0 148.0 L 245.0 140.0 L 245.0 132.0 L 247.0 128.0 Z" fill="#0b1fb3" fill-rule="evenodd"/>
</svg>
