<?xml version="1.0" encoding="UTF-8"?>
<svg xmlns="http://www.w3.org/2000/svg" width="512" height="512" viewBox="0 0 512 512" role="img" aria-label="pnl line chart">
  <title>pnl line chart</title>
  <path d="M 416.0 177.0 L 410.0 171.0 L 403.0 167.0 L 395.0 167.0 L 387.0 171.0 L 379.0 179.0 L 376.0 186.0 L 376.0 197.0 L 378.0 201.0 L 354.0 230.0 L 348.0 240.0 L 315.0 279.0 L 310.0 277.0 L 299.0 277.0 L 291.0 281.0 L 286.0 286.0 L 284.0 286.0 L 274.0 280.0 L 251.0 271.0 L 248.0 268.0 L 248.0 261.0 L 245.0 255.0 L 236.0 246.0 L 232.0 244.0 L 222.0 244.0 L 216.0 247.0 L 208.0 254.0 L 204.0 261.0 L 204.0 275.0 L 170.0 310.0 L 156.0 327.0 L 151.0 331.0 L 147.0 329.0 L 138.0 329.0 L 126.0 337.0 L 122.0 346.0 L 123.0 360.0 L 131.0 369.0 L 137.0 372.0 L 146.0 372.0 L 156.0 366.0 L 160.0 360.0 L 163.0 351.0 L 163.0 348.0 L 160.0 343.0 L 212.0 288.0 L 215.0 288.0 L 219.0 291.0 L 230.0 291.0 L 244.0 283.0 L 267.0 294.0 L 279.0 298.0 L 282.0 301.0 L 282.0 308.0 L 284.0 312.0 L 291.0 320.0 L 301.0 324.0 L 306.0 324.0 L 316.0 320.0 L 324.0 312.0 L 327.0 305.0 L 327.0 295.0 L 325.0 289.0 L 340.0 272.0 L 382.0 218.0 L 389.0 211.0 L 402.0 212.0 L 411.0 207.0 L 416.0 201.0 L 419.0 193.0 L 419.0 185.0 Z M 139.0 345.0 L 143.0 345.0 L 146.0 348.0 L 146.0 353.0 L 142.0 357.0 L 136.0 354.0 L 136.0 348.0 Z M 303.0 292.0 L 309.0 294.0 L 312.0 298.0 L 312.0 301.0 L 306.0 308.0 L 300.0 307.0 L 296.0 302.0 L 297.0 297.0 Z M 223.0 260.0 L 229.0 260.0 L 234.0 267.0 L 231.0 273.0 L 227.0 276.0 L 223.0 276.0 L 218.0 271.0 L 218.0 265.0 Z M 400.0 183.0 L 403.0 187.0 L 403.0 192.0 L 396.0 197.0 L 390.0 192.0 L 390.0 189.0 L 396.0 183.0 Z M 95.0 164.0 L 93.0 172.0 L 94.0 180.0 L 92.0 185.0 L 92.0 230.0 L 94.0 235.0 L 94.0 400.0 L 95.0 409.0 L 99.0 413.0 L 104.0 415.0 L 151.0 414.0 L 159.0 416.0 L 210.0 416.0 L 234.0 413.0 L 306.0 413.0 L 322.0 416.0 L 364.0 416.0 L 368.0 414.0 L 397.0 414.0 L 402.0 413.0 L 406.0 409.0 L 406.0 404.0 L 401.0 399.0 L 370.0 397.0 L 363.0 399.0 L 328.0 399.0 L 321.0 397.0 L 166.0 399.0 L 157.0 397.0 L 146.0 399.0 L 111.0 399.0 L 109.0 397.0 L 108.0 183.0 L 105.0 164.0 L 101.0 160.0 Z" fill="#0b1fb3" fill-rule="evenodd"/>
</svg>
