<?xml version="1.0" encoding="UTF-8"?>
<svg xmlns="http://www.w3.org/2000/svg" width="512" height="512" viewBox="0 0 512 512" role="img" aria-label="bull">
  <title>bull</title>
  <path d="M 189.0 331.0 L 177.0 346.0 L 164.0 353.0 L 160.0 357.0 L 160.0 361.0 L 172.0 377.0 L 178.0 387.0 L 180.0 395.0 L 184.0 399.0 L 189.0 401.0 L 208.0 401.0 L 219.0 398.0 L 223.0 394.0 L 223.0 390.0 L 214.0 380.0 L 203.0 375.0 L 197.0 360.0 L 204.0 344.0 L 191.0 331.0 Z M 357.0 322.0 L 346.0 332.0 L 334.0 336.0 L 329.0 341.0 L 326.0 353.0 L 341.0 395.0 L 351.0 400.0 L 371.0 400.0 L 378.0 397.0 L 382.0 390.0 L 380.0 385.0 L 373.0 378.0 L 366.0 375.0 L 362.0 371.0 L 359.0 339.0 L 362.0 329.0 L 361.0 324.0 Z M 450.0 157.0 L 441.0 148.0 L 438.0 148.0 L 434.0 151.0 L 433.0 156.0 L 437.0 161.0 L 437.0 177.0 L 432.0 185.0 L 419.0 192.0 L 408.0 195.0 L 402.0 189.0 L 397.0 187.0 L 374.0 185.0 L 366.0 188.0 L 358.0 183.0 L 351.0 182.0 L 339.0 170.0 L 338.0 156.0 L 345.0 143.0 L 345.0 139.0 L 342.0 136.0 L 337.0 136.0 L 329.0 142.0 L 319.0 154.0 L 315.0 163.0 L 315.0 181.0 L 319.0 191.0 L 323.0 196.0 L 330.0 198.0 L 341.0 196.0 L 339.0 192.0 L 332.0 189.0 L 326.0 183.0 L 325.0 163.0 L 327.0 161.0 L 329.0 164.0 L 329.0 173.0 L 335.0 184.0 L 343.0 191.0 L 361.0 197.0 L 364.0 202.0 L 362.0 205.0 L 356.0 202.0 L 310.0 205.0 L 281.0 214.0 L 261.0 223.0 L 243.0 226.0 L 214.0 226.0 L 208.0 223.0 L 200.0 223.0 L 195.0 221.0 L 175.0 221.0 L 155.0 230.0 L 144.0 240.0 L 137.0 241.0 L 117.0 250.0 L 107.0 250.0 L 101.0 248.0 L 91.0 240.0 L 88.0 233.0 L 88.0 221.0 L 97.0 208.0 L 97.0 205.0 L 95.0 201.0 L 89.0 201.0 L 77.0 212.0 L 70.0 226.0 L 70.0 243.0 L 75.0 255.0 L 86.0 267.0 L 100.0 274.0 L 113.0 274.0 L 124.0 270.0 L 128.0 271.0 L 125.0 290.0 L 128.0 331.0 L 122.0 339.0 L 112.0 346.0 L 109.0 353.0 L 107.0 390.0 L 111.0 397.0 L 116.0 401.0 L 147.0 401.0 L 151.0 399.0 L 152.0 390.0 L 148.0 385.0 L 141.0 382.0 L 135.0 377.0 L 136.0 368.0 L 143.0 360.0 L 170.0 344.0 L 185.0 328.0 L 189.0 320.0 L 195.0 293.0 L 197.0 291.0 L 199.0 293.0 L 199.0 297.0 L 192.0 324.0 L 202.0 336.0 L 212.0 342.0 L 227.0 346.0 L 250.0 346.0 L 279.0 339.0 L 283.0 340.0 L 284.0 346.0 L 282.0 353.0 L 286.0 364.0 L 281.0 382.0 L 281.0 390.0 L 284.0 396.0 L 290.0 401.0 L 321.0 400.0 L 325.0 395.0 L 325.0 391.0 L 319.0 383.0 L 311.0 378.0 L 310.0 375.0 L 324.0 347.0 L 325.0 340.0 L 323.0 337.0 L 320.0 336.0 L 299.0 336.0 L 290.0 332.0 L 287.0 329.0 L 294.0 328.0 L 297.0 313.0 L 301.0 303.0 L 308.0 294.0 L 313.0 294.0 L 305.0 304.0 L 298.0 319.0 L 299.0 327.0 L 302.0 330.0 L 307.0 332.0 L 331.0 332.0 L 342.0 328.0 L 361.0 316.0 L 375.0 298.0 L 386.0 298.0 L 391.0 293.0 L 389.0 288.0 L 385.0 285.0 L 378.0 287.0 L 364.0 287.0 L 352.0 284.0 L 347.0 281.0 L 339.0 273.0 L 336.0 267.0 L 333.0 253.0 L 335.0 235.0 L 326.0 231.0 L 319.0 223.0 L 323.0 221.0 L 329.0 227.0 L 339.0 231.0 L 342.0 234.0 L 339.0 241.0 L 339.0 255.0 L 346.0 273.0 L 351.0 277.0 L 361.0 281.0 L 386.0 280.0 L 396.0 293.0 L 401.0 296.0 L 410.0 295.0 L 420.0 289.0 L 424.0 291.0 L 433.0 291.0 L 443.0 277.0 L 444.0 270.0 L 442.0 265.0 L 427.0 252.0 L 420.0 239.0 L 420.0 235.0 L 423.0 231.0 L 423.0 222.0 L 420.0 219.0 L 420.0 217.0 L 440.0 209.0 L 447.0 203.0 L 454.0 193.0 L 457.0 184.0 L 457.0 172.0 Z M 156.0 338.0 L 157.0 335.0 L 160.0 336.0 L 158.0 339.0 Z M 291.0 293.0 L 292.0 298.0 L 285.0 313.0 L 285.0 323.0 L 288.0 328.0 L 285.0 329.0 L 280.0 324.0 L 281.0 309.0 L 288.0 295.0 Z M 137.0 288.0 L 142.0 292.0 L 139.0 297.0 L 139.0 301.0 L 141.0 304.0 L 142.0 314.0 L 144.0 318.0 L 144.0 322.0 L 140.0 330.0 L 138.0 328.0 L 138.0 315.0 L 136.0 306.0 Z M 270.0 287.0 L 272.0 284.0 L 274.0 285.0 L 272.0 288.0 Z M 399.0 276.0 L 402.0 274.0 L 409.0 282.0 L 407.0 284.0 L 404.0 284.0 L 400.0 280.0 Z M 169.0 277.0 L 171.0 274.0 L 173.0 275.0 L 170.0 278.0 Z M 425.0 276.0 L 425.0 274.0 L 428.0 271.0 L 433.0 272.0 L 433.0 275.0 L 431.0 277.0 L 427.0 278.0 Z M 359.0 255.0 L 360.0 257.0 L 355.0 261.0 L 354.0 258.0 Z M 277.0 253.0 L 278.0 255.0 L 254.0 278.0 L 253.0 276.0 L 271.0 257.0 Z M 83.0 250.0 L 86.0 249.0 L 93.0 256.0 L 109.0 260.0 L 111.0 262.0 L 109.0 264.0 L 105.0 264.0 L 95.0 261.0 L 89.0 257.0 Z M 409.0 247.0 L 411.0 246.0 L 412.0 249.0 L 411.0 250.0 Z M 217.0 239.0 L 217.0 241.0 L 212.0 244.0 L 206.0 251.0 L 198.0 257.0 L 194.0 257.0 L 208.0 243.0 L 210.0 238.0 L 215.0 237.0 Z M 169.0 237.0 L 170.0 238.0 L 153.0 253.0 L 154.0 259.0 L 147.0 266.0 L 141.0 282.0 L 138.0 285.0 L 136.0 282.0 L 138.0 274.0 L 149.0 252.0 L 157.0 243.0 L 166.0 237.0 Z M 200.0 240.0 L 202.0 236.0 L 206.0 238.0 L 203.0 241.0 Z M 407.0 235.0 L 410.0 237.0 L 410.0 239.0 L 407.0 241.0 L 404.0 238.0 Z M 186.0 237.0 L 188.0 234.0 L 190.0 235.0 L 188.0 238.0 Z M 275.0 230.0 L 277.0 232.0 L 270.0 238.0 L 269.0 236.0 Z M 369.0 236.0 L 374.0 229.0 L 378.0 227.0 L 384.0 227.0 L 389.0 231.0 L 391.0 239.0 L 388.0 244.0 L 380.0 247.0 L 373.0 244.0 L 370.0 241.0 Z M 380.0 232.0 L 376.0 235.0 L 376.0 238.0 L 380.0 242.0 L 383.0 242.0 L 386.0 240.0 L 387.0 236.0 L 384.0 233.0 Z M 290.0 224.0 L 291.0 227.0 L 283.0 233.0 L 282.0 231.0 L 284.0 228.0 Z M 307.0 221.0 L 309.0 224.0 L 301.0 230.0 L 299.0 228.0 L 299.0 225.0 Z M 353.0 217.0 L 353.0 219.0 L 350.0 222.0 L 339.0 222.0 L 334.0 219.0 L 334.0 217.0 L 338.0 215.0 L 345.0 216.0 L 350.0 214.0 Z M 379.0 198.0 L 380.0 201.0 L 377.0 203.0 L 376.0 200.0 Z M 446.0 183.0 L 445.0 190.0 L 436.0 200.0 L 424.0 206.0 L 418.0 205.0 L 419.0 203.0 L 434.0 196.0 L 444.0 185.0 L 444.0 183.0 Z" fill="#0b1fb3" fill-rule="evenodd"/>
</svg>
