<?xml version="1.0" encoding="UTF-8"?>
<svg xmlns="http://www.w3.org/2000/svg" width="512" height="512" viewBox="0 0 512 512" role="img" aria-label="drawdown arrow down">
  <title>drawdown arrow down</title>
  <path d="M 119.0 160.0 L 118.0 166.0 L 122.0 174.0 L 169.0 249.0 L 173.0 258.0 L 180.0 267.0 L 182.0 274.0 L 186.0 279.0 L 190.0 281.0 L 196.0 280.0 L 235.0 237.0 L 239.0 235.0 L 281.0 297.0 L 311.0 335.0 L 333.0 366.0 L 332.0 368.0 L 315.0 363.0 L 300.0 362.0 L 293.0 369.0 L 295.0 377.0 L 305.0 382.0 L 312.0 382.0 L 323.0 386.0 L 330.0 386.0 L 346.0 392.0 L 355.0 393.0 L 360.0 396.0 L 364.0 396.0 L 372.0 390.0 L 366.0 319.0 L 362.0 314.0 L 356.0 313.0 L 348.0 321.0 L 349.0 346.0 L 351.0 353.0 L 349.0 354.0 L 301.0 292.0 L 245.0 210.0 L 238.0 209.0 L 234.0 211.0 L 227.0 220.0 L 194.0 254.0 L 181.0 232.0 L 163.0 206.0 L 158.0 196.0 L 138.0 167.0 L 135.0 160.0 L 130.0 155.0 L 125.0 155.0 Z" fill="#0b1fb3" fill-rule="evenodd"/>
</svg>
